<svg width="16" height="16" viewBox="0 0 16 16" fill="none" xmlns="http://www.w3.org/2000/svg">
<g id="actionscript">
<g id="actionscript_2">
<path id="Shape" fill-rule="evenodd" clip-rule="evenodd" d="M10.1747 5.24512C9.94721 5.24512 9.73169 5.27411 9.52816 5.33203C9.32465 5.38764 9.14473 5.47523 8.98911 5.5957C8.83548 5.71618 8.71366 5.86995 8.62388 6.05762C8.53409 6.24297 8.48911 6.46609 8.48911 6.72557C8.48911 7.05688 8.5716 7.33922 8.73521 7.57322C8.90081 7.80723 9.15099 8.00478 9.48621 8.16697C9.61789 8.22952 9.74065 8.2913 9.85437 8.35154C9.9681 8.41178 10.0655 8.47416 10.1473 8.53904C10.2311 8.60391 10.2967 8.67449 10.3446 8.75095C10.3925 8.82741 10.4169 8.91438 10.4169 9.01169C10.4169 9.08352 10.4019 9.15128 10.372 9.21384C10.342 9.27408 10.2961 9.32668 10.2343 9.37302C10.1744 9.41704 10.0985 9.45203 10.0067 9.47751C9.91693 9.503 9.81104 9.5156 9.68933 9.5156C9.48183 9.5156 9.27663 9.47401 9.07313 9.3906C8.86962 9.30487 8.68128 9.1779 8.50768 9.00876V10.1201C8.6633 10.2128 8.84697 10.2828 9.05848 10.3291C9.27197 10.3754 9.4959 10.3984 9.73133 10.3984C9.96078 10.3984 10.1782 10.3732 10.3837 10.3223C10.5912 10.2713 10.773 10.1881 10.9286 10.0723C11.0842 9.9541 11.207 9.80095 11.2967 9.61328C11.3885 9.42329 11.4344 9.18916 11.4344 8.91113C11.4344 8.70956 11.4082 8.53341 11.3563 8.38283C11.3044 8.22991 11.2295 8.09474 11.1317 7.97658C11.0339 7.85842 10.9168 7.75285 10.7792 7.66017C10.6435 7.56518 10.4898 7.476 10.3182 7.39259C10.1925 7.33235 10.0801 7.27437 9.98034 7.21876C9.88058 7.16084 9.79529 7.10286 9.72545 7.04493C9.65562 6.98469 9.60223 6.92231 9.56431 6.85743C9.52641 6.79024 9.5067 6.71428 9.5067 6.63087C9.5067 6.55441 9.52356 6.48701 9.55748 6.42677C9.5914 6.36422 9.64016 6.31064 9.70201 6.26662C9.76386 6.2226 9.83977 6.1892 9.92955 6.16603C10.0193 6.14055 10.1186 6.12697 10.2284 6.12697C10.3082 6.12697 10.3916 6.13455 10.4794 6.14846C10.5691 6.16236 10.6591 6.18376 10.7489 6.21389C10.8387 6.24169 10.9258 6.27826 11.0096 6.32228C11.0954 6.36631 11.1741 6.41671 11.246 6.47463V5.43558C11.1003 5.37071 10.941 5.32312 10.7674 5.293C10.5958 5.26056 10.3981 5.24515 10.1747 5.24515L10.1747 5.24512ZM5.78797 5.32813L4.22647 10.3115H5.27337L5.57611 9.20313H7.10246L7.40715 10.3115H8.46085L6.9345 5.32813H5.788H5.78797ZM6.34755 6.21779H6.32411L6.3241 6.21776C6.31412 6.36372 6.28881 6.50868 6.2489 6.65233L5.78211 8.34083H6.88076L6.41982 6.66603C6.3859 6.54092 6.36152 6.39156 6.34755 6.21779Z" fill="#F07178"/>
<path id="Path" fill-rule="evenodd" clip-rule="evenodd" d="M4.37204 3.01561C3.79344 3.01561 3.37489 3.17076 3.11714 3.48045C2.85939 3.78646 2.7314 4.3196 2.7314 5.0791V6.31251C2.7314 7.01671 2.53058 7.36816 2.1308 7.36816V8.38576C2.53057 8.38576 2.7314 8.72496 2.7314 9.40336V10.7305C2.7314 11.4863 2.86067 12.0117 3.12105 12.3067C3.38142 12.6016 3.79865 12.749 4.37205 12.749V11.7148C4.14849 11.7148 3.98664 11.6394 3.8867 11.4883C3.78939 11.3371 3.74119 11.081 3.74119 10.7197V9.58593C3.74119 8.68263 3.53879 8.11722 3.13379 7.88867V7.86621C3.53882 7.63394 3.74119 7.07526 3.74119 6.19041V5.01266C3.74119 4.37116 3.95124 4.04976 4.37204 4.04976V3.01556V3.01561Z" fill="#82AAFF"/>
<path id="Path_2" fill-rule="evenodd" clip-rule="evenodd" d="M11.702 3.01563V4.04983C12.1228 4.04983 12.3329 4.37121 12.3329 5.01273V6.14653C12.3329 7.06823 12.534 7.64473 12.9364 7.87698V7.89944C12.534 8.12065 12.3329 8.67159 12.3329 9.55274V10.7305C12.3329 11.0881 12.2834 11.3408 12.1835 11.4883C12.0835 11.6395 11.923 11.7149 11.702 11.7149V12.7491C12.278 12.7491 12.694 12.6016 12.9491 12.3067C13.2068 12.0117 13.3348 11.4752 13.3348 10.6973V9.41992C13.3348 8.73047 13.5369 8.38572 13.9393 8.38572V7.36812C13.5369 7.36812 13.3348 7.02001 13.3348 6.32322V5.05662C13.3348 4.31187 13.2068 3.78647 12.9491 3.48047C12.6913 3.17078 12.2754 3.01562 11.702 3.01562L11.702 3.01563Z" fill="#82AAFF"/>
</g>
</g>
</svg>
