<svg width="16" height="16" viewBox="0 0 16 16" fill="none" xmlns="http://www.w3.org/2000/svg">
<g id="ai">
<g id="Group">
<path id="Shape" d="M2.5 8C2.5 4.96243 4.96243 2.5 8 2.5C11.0376 2.5 13.5 4.96243 13.5 8C13.5 11.0376 11.0376 13.5 8 13.5C4.96243 13.5 2.5 11.0376 2.5 8Z" fill="#212431" stroke="#555B77"/>
<path id="Path" fill-rule="evenodd" clip-rule="evenodd" d="M9.58481 6.38533C9.70048 6.38533 9.79898 6.34356 9.8803 6.26C9.96163 6.17645 10.0025 6.07911 10.0029 5.968C10.0029 5.84978 9.96206 5.75089 9.8803 5.67133C9.79855 5.59178 9.70005 5.55178 9.58481 5.55133C9.46956 5.55089 9.3728 5.59089 9.29453 5.67133C9.21625 5.75178 9.17711 5.85067 9.17711 5.968C9.17711 6.08533 9.21625 6.18422 9.29453 6.26467C9.3728 6.34511 9.46956 6.38511 9.58481 6.38467V6.38533Z" fill="#FFCB6B"/>
<path id="Path_2" fill-rule="evenodd" clip-rule="evenodd" d="M9.18755 6.75H9.98272V9.81267H9.18755V6.75Z" fill="white"/>
<path id="Combined Shape" fill-rule="evenodd" clip-rule="evenodd" d="M7.72961 8.78133H6.64938L6.64872 8.78199L6.35322 9.81333H5.61937L6.65916 6.18799V5.79199H7.64807L8.83072 9.81266H8.01533L7.72961 8.78133ZM7.57699 8.08333L7.17973 6.49999H7.17907L6.78181 8.08333H7.57699Z" fill="white"/>
</g>
</g>
</svg>
