<svg width="16" height="16" viewBox="0 0 16 16" fill="none" xmlns="http://www.w3.org/2000/svg">
<g id="android">
<g id="android_2">
<path id="Shape" fill-rule="evenodd" clip-rule="evenodd" d="M9.67499 3.33078L10.2967 2.70908C10.3869 2.61891 10.3869 2.46705 10.2967 2.37213C10.2018 2.28196 10.0499 2.28196 9.95974 2.37213L9.25739 3.07448C8.87773 2.8894 8.45059 2.78025 7.99974 2.78025C7.54415 2.78025 7.11704 2.8894 6.73739 3.07923L6.03029 2.37213C5.94012 2.28196 5.78826 2.28196 5.69809 2.37213C5.60317 2.46705 5.60317 2.61891 5.69809 2.70908L6.31979 3.33078C5.61269 3.85283 5.15234 4.67858 5.15234 5.62773H10.8473C10.8473 4.67858 10.3728 3.84808 9.67514 3.33078H9.67499ZM6.57601 4.67855H7.05059V4.20397H6.57601V4.67855ZM8.94892 4.67855H9.4235V4.20397H8.94892V4.67855ZM11.3219 6.81419C11.3219 6.42105 11.6406 6.10234 12.0338 6.10234C12.4269 6.10234 12.7456 6.42105 12.7456 6.81419V10.1362C12.7456 10.5294 12.4269 10.8481 12.0338 10.8481C11.6406 10.8481 11.3219 10.5294 11.3219 10.1362V6.81419ZM3.96579 6.10234C3.57264 6.10234 3.25394 6.42105 3.25394 6.81419V10.1362C3.25394 10.5294 3.57264 10.8481 3.96579 10.8481C4.35893 10.8481 4.67764 10.5294 4.67764 10.1362V6.81419C4.67764 6.42105 4.35893 6.10234 3.96579 6.10234ZM5.62681 11.3227C5.36471 11.3227 5.15224 11.1102 5.15224 10.8481L5.15209 6.10234H10.8471V10.8481C10.8471 11.1102 10.6346 11.3227 10.3725 11.3227H9.89794V12.9837C9.89794 13.3768 9.57923 13.6955 9.18609 13.6955C8.79294 13.6955 8.47424 13.3768 8.47424 12.9837V11.3227H7.52509V12.9837C7.52509 13.3768 7.20638 13.6955 6.81324 13.6955C6.62444 13.6955 6.44338 13.6205 6.30988 13.487C6.17638 13.3535 6.10139 13.1725 6.10139 12.9837V11.3227H5.62681Z" fill="#C3E88D"/>
</g>
</g>
</svg>
