<svg width="16" height="16" viewBox="0 0 16 16" fill="none" xmlns="http://www.w3.org/2000/svg">
<g id="angular-routing">
<path id="Vector" d="M6.93022 7.4718H9.30713L8.04281 4.80152L6.93022 7.4718ZM2.75216 2.88466C2.31223 3.04125 2.03924 3.48147 2.09452 3.94516L2.89499 10.6586C2.93298 10.9772 3.12159 11.2583 3.40207 11.4142L7.56561 13.7288C7.86887 13.8973 8.23783 13.8967 8.54048 13.727L12.7341 11.3762C13.0129 11.2199 13.2002 10.9397 13.2381 10.6223L14.0381 3.91339C14.0937 3.44688 13.8171 3.00455 13.3733 2.85037L8.37929 1.11541C8.16428 1.04071 7.93022 1.0416 7.71579 1.11792L2.75216 2.88466ZM10.6106 10.5103L9.7897 8.59436H6.43854L5.68895 10.5103H4.29434L8.03315 2.10412L11.9023 10.5103H10.6106Z" fill="#9883EC"/>
<path id="&#226;&#157;&#175;" fill-rule="evenodd" clip-rule="evenodd" d="M16 7.49824L13.8291 9.81017C13.7154 9.93129 13.5566 10 13.3905 10C12.8635 10 12.5911 9.37055 12.9518 8.98637L14.3491 7.49824L12.9528 6.01327C12.5919 5.62944 12.864 5 13.3909 5C13.5568 5 13.7153 5.06854 13.829 5.1894L16 7.49824Z" fill="white"/>
<path id="&#226;&#157;&#175; copy 2" fill-rule="evenodd" clip-rule="evenodd" d="M0 7.49824L2.17088 9.81017C2.28462 9.93129 2.44339 10 2.60954 10C3.13655 10 3.40895 9.37055 3.0482 8.98637L1.65086 7.49824L3.0472 6.01327C3.40812 5.62944 3.13599 5 2.60912 5C2.44322 5 2.28469 5.06854 2.17104 5.1894L0 7.49824Z" fill="white"/>
</g>
</svg>
