<svg width="16" height="16" viewBox="0 0 16 16" fill="none" xmlns="http://www.w3.org/2000/svg">
<path d="M6.92887 7.47002H9.30512L8.04115 4.80047L6.92887 7.47002ZM2.75216 2.88407C2.31223 3.04066 2.03924 3.48088 2.09452 3.94457L2.89472 10.6558C2.93272 10.9744 3.12133 11.2555 3.40181 11.4114L7.56395 13.7252C7.8672 13.8938 8.23617 13.8931 8.53882 13.7235L12.731 11.3734C13.0099 11.2171 13.1972 10.9369 13.235 10.6195L14.0347 3.91281C14.0904 3.4463 13.8137 3.00397 13.3699 2.84979L8.37763 1.11541C8.16262 1.04071 7.92856 1.0416 7.71413 1.11792L2.75216 2.88407ZM10.6082 10.5077L9.78756 8.59227H6.43732L5.68794 10.5077H4.29371L8.0315 2.10382L11.8995 10.5077H10.6082Z" fill="#3965BD"/>
</svg>
