<svg width="16" height="16" viewBox="0 0 16 16" fill="none" xmlns="http://www.w3.org/2000/svg">
<g id="angular-directive">
<path id="Vector" d="M6.93022 7.4718H9.30713L8.04281 4.80152L6.93022 7.4718ZM2.75216 2.88466C2.31223 3.04125 2.03924 3.48147 2.09452 3.94516L2.89499 10.6586C2.93298 10.9772 3.12159 11.2583 3.40207 11.4142L7.56561 13.7288C7.86887 13.8973 8.23783 13.8967 8.54048 13.727L12.7341 11.3762C13.0129 11.2199 13.2002 10.9397 13.2381 10.6223L14.0381 3.91339C14.0937 3.44688 13.8171 3.00455 13.3733 2.85037L8.37929 1.11541C8.16428 1.04071 7.93022 1.0416 7.71579 1.11792L2.75216 2.88466ZM10.6106 10.5103L9.7897 8.59436H6.43854L5.68895 10.5103H4.29434L8.03315 2.10412L11.9023 10.5103H10.6106Z" fill="#FF9CAC"/>
</g>
</svg>
