<svg width="16" height="16" viewBox="0 0 16 16" fill="none" xmlns="http://www.w3.org/2000/svg">
<path d="M6.87604 7.4718H9.22683L7.9764 4.80152L6.87604 7.4718ZM2.74753 2.88335C2.30984 3.04088 2.03856 3.47941 2.09304 3.94139L2.88539 10.6606C2.92284 10.9781 3.10983 11.2586 3.38853 11.4153L7.49497 13.7234C7.80035 13.8951 8.17329 13.8944 8.47806 13.7217L12.6143 11.3772C12.8914 11.2202 13.0771 10.9406 13.1143 10.6244L13.9062 3.90965C13.961 3.44483 13.6861 3.00417 13.2445 2.84905L8.31612 1.11784C8.09913 1.04162 7.86249 1.04252 7.64608 1.12041L2.74753 2.88335ZM10.516 10.5103L9.7041 8.59436H6.38976L5.64842 10.5103H4.26912L7.96686 2.10412L11.7935 10.5103H10.516Z" fill="#3965BD"/>
</svg>
