<svg width="16" height="16" viewBox="0 0 16 16" fill="none" xmlns="http://www.w3.org/2000/svg">
<g id="applescript">
<g id="Group 2">
<circle id="Ellipse" cx="8" cy="8" r="6" fill="#35394B"/>
<g id="Group">
<path id="&#239;&#163;&#191;" fill-rule="evenodd" clip-rule="evenodd" d="M9.06955 5.09872C8.82467 5.4132 8.39613 5.65003 8.00025 5.60344C7.91454 5.19578 8.15126 4.78813 8.37165 4.52801C8.65326 4.21353 9.09812 4 9.48176 4C9.50625 4.40765 9.35116 4.80754 9.06955 5.09872Z" fill="#CBCEDC"/>
<path id="Path" fill-rule="evenodd" clip-rule="evenodd" d="M9.44503 5.69275C9.70215 5.69275 10.3878 5.76651 10.8123 6.3877C10.7796 6.40711 10.0001 6.81865 10.0001 7.73102C10.0368 8.7715 10.9837 9.13645 11 9.13645C10.9837 9.15586 10.8572 9.6334 10.4817 10.1342C10.1837 10.5652 9.85316 11 9.35116 11C8.87365 11 8.70224 10.7127 8.15126 10.7127C7.55947 10.7127 7.39214 11 6.93912 11C6.43712 11 6.08205 10.5419 5.76779 10.1148C5.35966 9.55575 5.01275 8.67833 5.00051 7.83584C4.99234 7.38936 5.08213 6.95065 5.31069 6.57794C5.63311 6.05769 6.20857 5.70439 6.83709 5.69275C7.31868 5.67722 7.74721 6.00722 8.04107 6.00722C8.32268 6.00722 8.84916 5.69275 9.44503 5.69275Z" fill="#CBCEDC"/>
</g>
</g>
</g>
</svg>
