<svg width="16" height="16" viewBox="0 0 16 16" fill="none" xmlns="http://www.w3.org/2000/svg">
<path d="M5.10038 5.27426C3.462 5.14385 2.08549 7.08319 2.75738 8.58202C3.41204 10.2083 5.87563 10.6494 7.04713 9.34694C8.18245 8.23402 8.62004 6.52156 10.0103 5.64294C11.423 4.67818 13.6971 5.58919 13.9727 7.30371C14.2415 8.94553 12.4722 10.5426 10.8717 10.0602C9.68817 9.79314 8.83883 8.78187 8.35645 7.71718C7.76209 6.70073 6.98511 5.61538 5.77227 5.33973C5.55692 5.2908 5.33468 5.27151 5.11416 5.27185L5.10038 5.27426Z" stroke="#80CBC4" stroke-width="1.01645"/>
<path d="M4.13562 7.60004H6.20297" stroke="#80CBC4" stroke-width="0.430698"/>
<path d="M11.3197 6.73859V8.46138M10.4755 7.59998H12.1983H10.4755Z" stroke="#80CBC4" stroke-width="0.551293"/>
</svg>
