<svg width="16" height="16" viewBox="0 0 16 16" fill="none" xmlns="http://www.w3.org/2000/svg">
<g id="assembly">
<g id="assembly_2">
<path id="Shape" fill-rule="evenodd" clip-rule="evenodd" d="M2.38139 13.7005V2.29829L4.22655 2.29791V3.4378H3.30397V12.5616H4.22655V13.7005H2.38139ZM11.7736 3.43819V2.29829L13.6187 2.29862V13.7019H11.7736V12.562H12.6972V3.43819H11.7736Z" fill="#F78C6C"/>
<path id="Shape_2" fill-rule="evenodd" clip-rule="evenodd" d="M9.02306 3.76326C9.21926 3.68179 9.4537 3.64056 9.72637 3.64056L9.72638 3.6405C10.0107 3.6405 10.2488 3.6834 10.4416 3.76819C10.6345 3.85133 10.7924 3.97602 10.9155 4.14229C11.0369 4.30523 11.125 4.50641 11.1798 4.74583C11.2347 4.9836 11.2626 5.25926 11.2626 5.57182C11.2626 5.88437 11.2344 6.16403 11.1779 6.41176C11.1213 6.65785 11.0332 6.86035 10.9135 7.01831C10.7905 7.17958 10.6325 7.30129 10.4396 7.38442C10.2468 7.46589 10.009 7.50713 9.72635 7.50713C9.44869 7.50713 9.21126 7.46457 9.01507 7.38143C8.81888 7.2983 8.6606 7.17526 8.53923 7.01232C8.41619 6.84941 8.32674 6.6479 8.27187 6.40681C8.217 6.16409 8.19007 5.88643 8.19007 5.57385C8.19007 5.25132 8.21833 4.97166 8.27487 4.7339C8.3314 4.49616 8.42118 4.29398 8.54422 4.12938C8.66725 3.96644 8.82687 3.84473 9.02306 3.76326ZM5.93455 3.95579C5.97778 3.88928 6.00272 3.80615 6.00937 3.70639L6.83435 3.70637V6.78093H7.6005V7.42937H5.12151V6.78093H5.90462V4.81768H5.12151V4.21217C5.24123 4.21217 5.35595 4.20552 5.46568 4.19222C5.57541 4.17725 5.66686 4.15231 5.74002 4.1174C5.82648 4.07583 5.89132 4.0223 5.93455 3.95579ZM9.72637 4.32691C9.93088 4.32691 10.0772 4.42301 10.1653 4.61422C10.2534 4.80376 10.297 5.12299 10.297 5.57193C10.297 6.01585 10.2521 6.33507 10.1623 6.52964C10.0725 6.72417 9.92755 6.82093 9.72637 6.82093C9.52519 6.82093 9.37921 6.72417 9.28943 6.52964C9.19965 6.33511 9.15476 6.01655 9.15476 5.57597C9.15476 5.12372 9.19932 4.80382 9.28744 4.61427C9.37556 4.42307 9.52187 4.32697 9.72638 4.32697L9.72637 4.32691ZM5.57039 8.61555C5.76658 8.53409 6.00102 8.49385 6.27368 8.49385C6.55802 8.49385 6.79711 8.53574 6.98998 8.62054C7.18284 8.70367 7.3398 8.82837 7.46283 8.99463C7.5842 9.15758 7.67332 9.35876 7.72819 9.59818C7.78306 9.83594 7.80999 10.1116 7.80999 10.4242C7.80999 10.7367 7.78172 11.0164 7.72519 11.2641C7.66866 11.5102 7.58054 11.7127 7.46083 11.8707C7.3378 12.0319 7.17985 12.1536 6.98698 12.2368C6.7941 12.3182 6.55634 12.3595 6.27369 12.3595C5.99602 12.3595 5.75959 12.3179 5.5634 12.2348C5.3672 12.1516 5.20793 12.0286 5.08655 11.8657C4.96351 11.7027 4.87406 11.5002 4.8192 11.2591C4.76433 11.0164 4.7374 10.7387 4.7374 10.4262C4.7374 10.1036 4.76566 9.82398 4.82219 9.58621C4.87872 9.34845 4.9685 9.14727 5.09154 8.98267C5.21458 8.81973 5.37419 8.69702 5.57039 8.61555ZM9.46198 8.55869L9.46198 8.55873H9.46197L9.46198 8.55869ZM9.46198 8.55873H10.287V11.6333H11.0531V12.2817H8.57413V11.6333H9.35724V9.67102H8.57413V9.06447C8.69384 9.06447 8.80856 9.05782 8.9183 9.04452C9.02803 9.02955 9.11948 9.00461 9.19263 8.9697C9.27909 8.92814 9.34393 8.8746 9.38716 8.80809C9.43039 8.74159 9.45533 8.65847 9.46198 8.55873ZM6.71263 9.46652C6.62452 9.27531 6.4782 9.17921 6.27369 9.17921L6.27371 9.17927C6.0692 9.17927 5.92289 9.27537 5.83477 9.46658C5.74665 9.65612 5.70308 9.97701 5.70308 10.4292C5.70308 10.8698 5.74698 11.1874 5.83676 11.3819C5.92654 11.5765 6.07252 11.6732 6.2737 11.6732C6.47488 11.6732 6.62086 11.5765 6.71064 11.3819C6.80042 11.1874 6.84432 10.8682 6.84432 10.4242C6.84432 9.97529 6.80075 9.65606 6.71263 9.46652Z" fill="#FFCB6B"/>
</g>
</g>
</svg>
