<svg width="16" height="16" viewBox="0 0 16 16" fill="none" xmlns="http://www.w3.org/2000/svg">
<path d="M6.12381 13.8489C5.5182 13.2736 5.34142 12.0648 5.59373 11.189C6.03122 11.7411 6.63739 11.916 7.26526 12.0148C8.23458 12.1671 9.18651 12.1102 10.0869 11.6497C10.19 11.597 10.2852 11.5269 10.3977 11.4559C10.4822 11.7107 10.5042 11.9678 10.4747 12.2296C10.4029 12.8671 10.0977 13.3595 9.61214 13.7328C9.418 13.8821 9.21256 14.0156 9.01204 14.1564C8.39603 14.5891 8.22936 15.0965 8.46084 15.8345C8.46634 15.8525 8.47126 15.8705 8.4837 15.9144C8.16918 15.7681 7.93943 15.5551 7.76439 15.275C7.5795 14.9795 7.49153 14.6525 7.4869 14.2987C7.48459 14.1265 7.48459 13.9528 7.46231 13.7831C7.40792 13.3693 7.221 13.184 6.86887 13.1733C6.50748 13.1624 6.22161 13.3946 6.14579 13.7602C6.14001 13.7883 6.13162 13.816 6.12323 13.8486L6.12381 13.8489Z" fill="#F78C6C"/>
<path d="M3.07812 11.4571C3.07812 11.4571 4.73405 10.6097 6.39459 10.6097L7.64659 6.53911C7.69345 6.34225 7.83033 6.20848 7.98483 6.20848C8.13934 6.20848 8.2762 6.34225 8.32308 6.53911L9.57506 10.6097C11.5418 10.6097 12.8915 11.4571 12.8915 11.4571C12.8915 11.4571 10.0788 3.40742 10.0733 3.39127C9.99259 3.15328 9.85631 3 9.67258 3H6.29738C6.11364 3 5.98286 3.15328 5.89663 3.39127C5.89055 3.40712 3.07812 11.4571 3.07812 11.4571Z" fill="#F78C6C"/>
</svg>
