<svg width="16" height="16" viewBox="0 0 16 16" fill="none" xmlns="http://www.w3.org/2000/svg">
<g id="audio">
<path id="Subtract" fill-rule="evenodd" clip-rule="evenodd" d="M14 8C14 11.3137 11.3137 14 8 14C4.68629 14 2 11.3137 2 8C2 4.68629 4.68629 2 8 2C11.3137 2 14 4.68629 14 8ZM8.59995 5.0246C9.28664 5.1092 10.9717 5.4986 11.584 7.3037C11.6245 7.4225 11.5864 7.5539 11.4889 7.6328C11.4343 7.6772 11.3674 7.7 11.2999 7.7C11.2474 7.7 11.1946 7.6862 11.1472 7.6583C10.3786 7.2038 9.15524 7.1171 8.59995 7.1021V10.1C8.59995 10.9271 7.92706 11.6 7.09998 11.6C6.27289 11.6 5.6 10.9271 5.6 10.1C5.6 9.2729 6.27289 8.6 7.09998 8.6C7.43897 8.6 7.74857 8.7173 7.99996 8.9078V4.4H8.59995V5.0246Z" fill="#FC8289"/>
</g>
</svg>
