<svg width="16" height="16" viewBox="0 0 16 16" fill="none" xmlns="http://www.w3.org/2000/svg">
<g id="babel">
<g id="Page 1">
<path id="Fill 1" fill-rule="evenodd" clip-rule="evenodd" d="M11.1555 7.015C11.1405 6.92497 11.4953 7.09966 10.9788 6.53393L11.1555 7.015ZM11.778 7.51893C11.7631 7.42889 11.4953 7.09966 10.9788 6.53393C10.9693 6.42374 11.1528 6.26383 11.5252 6.05823L12.58 5.14043C12.8151 4.84076 12.9551 4.35969 13 3.69854L12.9864 3.54401C12.9456 3.07772 12.6031 2.70146 11.9602 2.4112C11.5796 2.15588 10.8972 2.02016 9.90907 2C9.0908 2.06853 8.02243 2.3561 6.70803 2.85868C6.34647 3.11803 5.93462 3.37469 5.47248 3.63001L5.47927 3.71064C5.51053 3.70795 5.55131 3.69183 5.60296 3.66226C5.65597 3.65823 5.68452 3.68242 5.68996 3.72945L5.77151 3.68376L5.81229 3.68242L5.81365 3.72004C5.81637 3.75767 5.52956 3.9794 4.95052 4.38387L4.99538 4.4551L4.9546 4.45778L4.86625 4.42688C4.86897 4.45106 4.82683 4.46719 4.74256 4.47391L4.748 4.51825L4.8445 4.62172C4.81188 4.62441 4.76974 4.61501 4.71401 4.59619C4.52644 4.61232 4.34294 4.7467 4.16216 4.99798L4.20837 5.06921C4.36469 4.92676 4.45712 4.85554 4.48294 4.85286L4.49246 4.96976C4.46663 4.97111 4.42449 4.98858 4.37012 5.0168L4.46935 5.16461C4.65828 4.96305 4.86897 4.78835 5.09732 4.64323C5.21014 4.67144 5.26995 4.70773 5.27267 4.7467L5.35966 4.73863C5.98083 4.28443 6.59522 3.95655 7.20416 3.75364L7.21096 3.83427C7.09814 4.0009 7.02066 4.0869 6.97988 4.09093C6.98396 4.14871 7.00299 4.19843 7.03969 4.24143C7.0492 4.34356 6.77192 5.03427 6.21191 6.30952C4.93829 9.27525 3.86992 11.4697 3 12.8887C3.00272 12.9169 3.01903 12.9545 3.05029 13.0029C3.26505 12.9532 3.39962 12.9008 3.45671 12.8511L3.50292 12.8457L3.50972 12.9263L3.58991 12.9196L3.67147 12.8739C3.67419 12.8981 3.70137 12.9102 3.75574 12.9048L3.7639 12.9854C3.77069 13.0647 3.72448 13.1843 3.62797 13.3483C3.54098 13.445 3.44855 13.6493 3.34933 13.9624L3.35205 14L3.43088 13.9919C3.77749 13.609 4.03983 13.234 4.22061 12.8658C5.23189 12.5742 6.00122 12.2867 6.53677 12.0031C7.07367 11.9588 7.48281 11.8163 7.76145 11.5866L7.75737 11.5436L7.55485 11.6027L7.50863 11.6081L7.50455 11.5651C7.89874 11.5059 8.17195 11.4199 8.32282 11.3003C9.0908 10.7158 9.6712 10.3006 10.064 10.056C10.8701 9.4701 11.3947 8.89899 11.634 8.34535L11.778 7.51893ZM4.65149 4.79776L4.61071 4.8018L4.60392 4.68892L4.76974 4.66742L4.77246 4.7252C4.74528 4.72923 4.7045 4.75073 4.65149 4.79776ZM3.84002 12.7758C3.74351 12.7341 3.65652 12.7167 3.58312 12.7247L3.57224 12.6078C3.56817 12.5621 3.59535 12.5312 3.65244 12.5205C3.70545 12.5151 3.73671 12.5527 3.74079 12.6293C3.88079 12.46 3.95827 12.374 3.97186 12.3713L4.06157 12.4076C4.03303 12.6455 3.95827 12.7664 3.84002 12.7758ZM12.5093 3.81008C12.4685 3.81545 12.387 3.68914 12.2687 3.43919L12.2619 3.36529C12.3394 3.35857 12.4182 3.4822 12.5025 3.73751L12.5093 3.81008ZM12.3938 2.92317L12.3612 3.00111L11.184 2.51601C11.9683 2.54154 12.3734 2.67726 12.3938 2.92317ZM7.423 7.18163L7.25581 7.20313L7.24901 7.09025L7.4162 7.06875L7.423 7.18163ZM7.28707 4.60694L7.32921 4.6056L7.33873 4.72251C7.30067 4.72385 7.24902 4.78164 7.18649 4.89048L7.17969 4.80986C7.25445 4.72251 7.29251 4.65532 7.28707 4.60694ZM6.99755 5.42128L7.03425 5.57716L6.93367 5.5785L6.89833 5.42397L6.99755 5.42128ZM6.75561 5.71287L6.8358 5.7048C6.82765 5.83381 6.79231 5.90234 6.72706 5.90772L6.68628 5.9104C6.73658 5.8244 6.76104 5.75721 6.75561 5.71287ZM6.61832 6.11736L6.66454 6.11198L6.66726 6.14961L6.5925 6.27458L6.5123 6.2813L6.51094 6.24233C6.58978 6.23561 6.62512 6.1953 6.61832 6.11736ZM6.53813 6.48152L6.49735 6.67637L6.42939 6.67906L6.4022 6.48555L6.53813 6.48152ZM5.13266 10.2777C5.07965 10.5438 5.02256 10.6809 4.9614 10.6835L4.96004 10.6459C4.94509 10.5142 5.00353 10.3919 5.13266 10.2777ZM4.94237 10.8072L4.9478 10.8502C4.95596 10.9066 4.91246 10.9402 4.81732 10.9429L4.81324 10.9012C4.80508 10.8515 4.84722 10.8206 4.94237 10.8072ZM4.81188 11.9145L4.93829 11.8983L4.94237 11.9575C4.91111 11.9615 4.87033 11.983 4.82004 12.0233L4.7412 12.0327C4.73576 11.9763 4.76159 11.9346 4.81188 11.9145ZM8.37583 10.822C7.6731 11.166 7.25853 11.3984 7.1362 11.5207C6.37502 11.7814 5.99715 11.944 6.00394 12.0085C5.3284 12.2719 4.88256 12.4681 4.66916 12.5877C4.61751 12.5931 4.54547 12.5743 4.44896 12.5312C4.43809 12.3955 4.50061 12.2867 4.63246 12.198C4.75071 12.1886 4.86353 12.2047 4.97227 12.2504C5.09732 12.1872 5.31616 12.1147 5.62743 12.0381L5.61928 11.9588L5.36917 11.979C5.40044 11.936 5.64102 11.8244 6.09365 11.643L6.2187 11.6323L6.22142 11.6699C6.00666 11.69 5.88841 11.7505 5.86258 11.862C5.86666 11.9131 5.89656 11.9333 5.94957 11.9292C6.11132 11.8298 6.19016 11.7693 6.18744 11.7532C6.49327 11.6954 7.33873 11.2573 8.72244 10.4417L8.72924 10.5142C8.73196 10.5519 8.6137 10.6513 8.37583 10.822ZM6.25268 11.5126C6.45521 11.4965 6.62784 11.4146 6.77192 11.2748C6.83036 11.2694 6.86163 11.2923 6.86435 11.342C6.76512 11.3514 6.57483 11.432 6.2989 11.5879L6.25676 11.5906L6.25268 11.5126ZM9.67935 8.91109L8.61642 9.74424C7.82669 10.2562 7.40397 10.5142 7.34008 10.5169C6.08414 11.2009 5.30121 11.5557 4.9981 11.5812L4.95324 11.5866C4.9913 11.4468 5.54859 10.3153 6.63327 8.18814C7.10901 8.14648 7.86068 7.92879 8.88419 7.52834L9.13429 7.50684C9.65217 7.46249 10.0396 7.56193 10.2951 7.79978L10.3087 7.95432C10.1184 8.49855 9.90771 8.81837 9.67935 8.91109ZM7.60378 7.77963L7.77368 7.74334L7.7764 7.8401L7.60514 7.87772L7.60378 7.77963ZM10.0029 7.35498L10.1293 7.34288C10.2448 7.39798 10.3046 7.44501 10.3087 7.48801L10.3114 7.52564C10.2013 7.53504 10.098 7.47861 10.0029 7.35498ZM10.3427 5.44411C10.2326 5.57446 9.92946 5.79753 9.43333 6.11197C9.26886 6.12675 8.65992 6.35923 7.60514 6.81746C7.55349 6.79193 7.49776 6.78386 7.43659 6.7879L7.4298 6.71399C7.41756 6.56483 7.48553 6.3767 7.63504 6.14691C7.7166 5.71959 7.80495 5.47502 7.90417 5.41455L8.78225 3.46069C8.77409 3.33974 8.96167 3.24702 9.34634 3.18252L9.47139 3.17043L9.4809 3.28196C9.85878 3.22552 10.0953 3.19193 10.1864 3.18387C10.885 3.12474 11.2479 3.26584 11.2765 3.60044L11.3567 3.59372L11.3404 3.39618L11.426 3.38946C11.6312 3.501 11.7413 3.63672 11.7563 3.79529C11.7658 3.90548 11.706 4.0412 11.5782 4.2038C11.5252 4.20783 11.494 4.1702 11.4885 4.09361L11.4029 4.10167L11.3825 4.33952C11.0291 4.86225 10.7708 5.13101 10.6132 5.14579C10.4677 5.34333 10.3794 5.44142 10.3427 5.44411ZM10.8823 6.8121C10.8102 6.76373 10.7518 6.74223 10.7083 6.74491L10.7001 6.62801L10.779 6.62129L10.9543 6.72341C10.9611 6.77851 10.938 6.80673 10.8823 6.8121ZM11.4409 7.46652C11.5198 7.49743 11.5674 7.53102 11.5769 7.56193L11.5374 7.57133L11.5402 7.57402C11.532 7.57402 11.5225 7.57536 11.5157 7.57805L11.4559 7.62374L11.4409 7.46652ZM11.4953 7.87503L11.4872 7.79844L11.6136 7.74066L11.6231 7.81591L11.4953 7.87503Z" fill="#FFCB6B"/>
</g>
</g>
</svg>
