<svg width="16" height="16" viewBox="0 0 16 16" fill="none" xmlns="http://www.w3.org/2000/svg">
<g id="blade">
<g id="Shape">
<path fill-rule="evenodd" clip-rule="evenodd" d="M10.0071 5.77008C10.14 5.74558 11.285 5.53531 11.3831 5.51982C11.3921 5.5184 11.4008 5.5168 11.4094 5.51521C11.4962 5.49933 11.5734 5.48517 11.7182 5.67593C11.793 5.77462 12.0323 6.10005 12.2718 6.42585C12.5424 6.79383 12.8133 7.16228 12.848 7.20501C12.9134 7.28543 12.8969 7.35022 12.7763 7.38599C12.6962 7.40978 12.0947 7.58493 11.7009 7.69957C11.5867 7.73285 11.4899 7.76102 11.4285 7.77892C11.8273 8.36225 12.5887 9.47725 12.6533 9.5819C12.7412 9.72386 12.6611 9.76569 12.531 9.82414C12.401 9.88255 9.51496 11.0173 9.31786 11.0825L9.30874 11.0855C9.06275 11.1671 8.9504 11.2044 8.78802 10.9567C8.66487 10.769 7.99911 9.45791 7.67267 8.81176C7.0551 8.98849 5.9243 9.31101 5.59813 9.39692C5.27992 9.48044 5.14414 9.27186 5.09184 9.14313C5.07568 9.10338 4.88521 8.6535 4.6263 8.04195C4.04785 6.67567 3.12775 4.50241 3.04642 4.29265C2.9288 3.98901 3.05801 3.93183 3.17562 3.92112C3.29325 3.91028 4.94461 3.76029 5.16039 3.74973C5.36386 3.73962 5.3928 3.787 5.47496 3.92151C5.47983 3.92947 5.48489 3.93775 5.49018 3.94633L7.8708 8.29666L10.8634 7.51292C10.6976 7.25593 9.94484 6.08936 9.87206 5.9781C9.79026 5.85289 9.87412 5.79473 10.0071 5.77008ZM5.60645 8.89078C5.51987 8.9123 5.51702 8.90273 5.50772 8.87151L5.50675 8.86824C5.49644 8.83487 3.51387 4.36527 3.4863 4.30933C3.45873 4.25356 3.46015 4.20934 3.4863 4.20934C3.49993 4.20934 3.93365 4.1676 4.35153 4.12739L4.35155 4.12738C4.7314 4.09083 5.09817 4.05554 5.12442 4.05399C5.16996 4.05132 5.17383 4.05954 5.18535 4.08401C5.18775 4.08911 5.19048 4.09491 5.19399 4.10146L7.42827 8.3181C7.43297 8.32701 7.43737 8.33498 7.44132 8.34215C7.46956 8.39337 7.47524 8.40367 7.40766 8.42133C7.37223 8.43069 5.69573 8.86841 5.60645 8.89078ZM10.3073 6.11646L11.1836 7.43089C11.1836 7.43089 12.2551 7.14021 12.3206 7.12443C12.386 7.10894 12.435 7.08443 12.4064 7.04415C12.3991 7.03381 12.344 6.95749 12.2652 6.84824L12.2651 6.84806C12.0358 6.5303 11.6059 5.93432 11.5649 5.87282C11.5115 5.79298 11.4737 5.80255 11.4306 5.81343L11.4258 5.81465C11.3808 5.82592 10.385 6.02253 10.3237 6.03154C10.2622 6.04041 10.2829 6.07843 10.3073 6.11646ZM12.1402 9.40059L12.1337 9.38966L11.665 8.69419C11.6499 8.66809 11.4985 8.43941 11.3621 8.23326C11.2592 8.07774 11.1648 7.93505 11.1437 7.90186C11.1079 7.84552 11.0878 7.83454 11.0023 7.86411L8.08417 8.69419C8.08417 8.69419 8.97974 10.3889 9.04853 10.4973C9.11758 10.6061 9.15944 10.5976 9.2129 10.5725C9.24462 10.5578 10.2233 10.1954 11.0335 9.89542C11.5911 9.68896 12.0689 9.51205 12.1031 9.49839C12.1804 9.46773 12.1641 9.44051 12.1402 9.40059Z" fill="#FC8289"/>
<path d="M11.3831 5.51982L11.4221 5.76676L11.4224 5.76671L11.3831 5.51982ZM10.0071 5.77008L9.96175 5.52422L9.9615 5.52427L10.0071 5.77008ZM11.4094 5.51521L11.3644 5.26931L11.3644 5.26931L11.4094 5.51521ZM11.7182 5.67593L11.9174 5.52486L11.9173 5.5248L11.7182 5.67593ZM12.2718 6.42585L12.4732 6.27776L12.2718 6.42585ZM12.848 7.20501L12.6539 7.36264L12.6541 7.36281L12.848 7.20501ZM12.7763 7.38599L12.7052 7.14631L12.7052 7.14632L12.7763 7.38599ZM11.7009 7.69957L11.6311 7.45954L11.7009 7.69957ZM11.4285 7.77892L11.3585 7.5389L11.0275 7.63537L11.2221 7.92003L11.4285 7.77892ZM12.6533 9.5819L12.4407 9.71332L12.4407 9.71346L12.6533 9.5819ZM12.531 9.82414L12.4285 9.59609L12.4285 9.59611L12.531 9.82414ZM9.31786 11.0825L9.23934 10.8451L9.23917 10.8452L9.31786 11.0825ZM9.30874 11.0855L9.23005 10.8482L9.23004 10.8482L9.30874 11.0855ZM8.78802 10.9567L8.99708 10.8196L8.99706 10.8196L8.78802 10.9567ZM7.67267 8.81176L7.89581 8.69903L7.80261 8.51454L7.60389 8.57141L7.67267 8.81176ZM5.59813 9.39692L5.66159 9.63873L5.6618 9.63868L5.59813 9.39692ZM5.09184 9.14313L5.32345 9.04903L5.32344 9.04899L5.09184 9.14313ZM4.6263 8.04195L4.85652 7.94449L4.6263 8.04195ZM3.04642 4.29265L2.81329 4.38295L2.81333 4.38303L3.04642 4.29265ZM3.17562 3.92112L3.19828 4.17009L3.19857 4.17007L3.17562 3.92112ZM5.16039 3.74973L5.17261 3.99943L5.17279 3.99942L5.16039 3.74973ZM5.47496 3.92151L5.26162 4.05183L5.26162 4.05183L5.47496 3.92151ZM5.49018 3.94633L5.70977 3.82616L5.70303 3.81522L5.49018 3.94633ZM7.8708 8.29666L7.65149 8.41667L7.74523 8.58798L7.93414 8.5385L7.8708 8.29666ZM10.8634 7.51292L10.9267 7.75477L11.2605 7.66735L11.0734 7.37739L10.8634 7.51292ZM9.87206 5.9781L9.66277 6.11484L9.66285 6.11496L9.87206 5.9781ZM5.50772 8.87151L5.74732 8.80016L5.74725 8.79991L5.50772 8.87151ZM5.60645 8.89078L5.66676 9.1334L5.66721 9.13328L5.60645 8.89078ZM5.50675 8.86824L5.74629 8.79664L5.74562 8.79449L5.50675 8.86824ZM3.4863 4.30933L3.71053 4.1988L3.71041 4.19855L3.4863 4.30933ZM4.35153 4.12739L4.32835 3.87846L4.32758 3.87854L4.35153 4.12739ZM4.35155 4.12738L4.37473 4.37631L4.3755 4.37624L4.35155 4.12738ZM5.12442 4.05399L5.13908 4.30357L5.13911 4.30356L5.12442 4.05399ZM5.18535 4.08401L5.41154 3.97752L5.41153 3.97751L5.18535 4.08401ZM5.19399 4.10146L5.4149 3.9844L5.4144 3.98348L5.19399 4.10146ZM7.42827 8.3181L7.64939 8.20146L7.64918 8.20105L7.42827 8.3181ZM7.44132 8.34215L7.66026 8.22145L7.66025 8.22145L7.44132 8.34215ZM7.40766 8.42133L7.34443 8.17946L7.34385 8.17961L7.40766 8.42133ZM11.1836 7.43089L10.9756 7.56957L11.0754 7.71928L11.249 7.67217L11.1836 7.43089ZM10.3073 6.11646L10.0971 6.25179L10.0993 6.25513L10.3073 6.11646ZM12.3206 7.12443L12.263 6.88115L12.262 6.88139L12.3206 7.12443ZM12.4064 7.04415L12.2024 7.18864L12.2025 7.18888L12.4064 7.04415ZM12.2652 6.84824L12.468 6.70198L12.4677 6.70158L12.2652 6.84824ZM12.2651 6.84806L12.0623 6.99432L12.0626 6.99472L12.2651 6.84806ZM11.5649 5.87282L11.7729 5.7341L11.7727 5.73382L11.5649 5.87282ZM11.4306 5.81343L11.4917 6.05586L11.4919 6.0558L11.4306 5.81343ZM11.4258 5.81465L11.4865 6.05715L11.4868 6.05708L11.4258 5.81465ZM10.3237 6.03154L10.3594 6.27897L10.36 6.27888L10.3237 6.03154ZM12.1337 9.38966L12.3486 9.26205L12.345 9.25589L12.341 9.24995L12.1337 9.38966ZM12.1402 9.40059L11.9252 9.5282L11.9257 9.52915L12.1402 9.40059ZM11.665 8.69419L11.4488 8.81967L11.453 8.82693L11.4577 8.8339L11.665 8.69419ZM11.3621 8.23326L11.1536 8.37123V8.37123L11.3621 8.23326ZM11.1437 7.90186L11.3548 7.76796L11.3547 7.76773L11.1437 7.90186ZM11.0023 7.86411L11.0708 8.10495L11.0839 8.10039L11.0023 7.86411ZM8.08417 8.69419L8.01577 8.45373L7.71896 8.53816L7.86314 8.81099L8.08417 8.69419ZM9.04853 10.4973L8.83742 10.6313L8.83749 10.6314L9.04853 10.4973ZM9.2129 10.5725L9.10737 10.3459L9.10677 10.3462L9.2129 10.5725ZM11.0335 9.89542L10.9467 9.66098L11.0335 9.89542ZM12.1031 9.49839L12.0109 9.26601L12.0105 9.2662L12.1031 9.49839ZM11.3442 5.27287C11.2418 5.28903 10.0915 5.50031 9.96175 5.52423L10.0524 6.01594C10.1885 5.99085 11.3282 5.78159 11.4221 5.76676L11.3442 5.27287ZM11.3644 5.26931C11.3553 5.27097 11.3494 5.27204 11.3439 5.27292L11.4224 5.76671C11.4347 5.76476 11.4463 5.76262 11.4545 5.76112L11.3644 5.26931ZM11.9173 5.5248C11.8343 5.41546 11.7439 5.32733 11.6308 5.28436C11.5099 5.23848 11.4043 5.262 11.3644 5.26931L11.4545 5.76112C11.4793 5.75657 11.4814 5.75669 11.4806 5.75671C11.4749 5.75686 11.4641 5.7559 11.4533 5.7518C11.4441 5.7483 11.445 5.7463 11.4567 5.75653C11.4691 5.76731 11.4896 5.78833 11.519 5.82706L11.9173 5.5248ZM12.4732 6.27776C12.2346 5.95325 11.9937 5.62549 11.9174 5.52486L11.519 5.827C11.5923 5.92374 11.8299 6.24685 12.0704 6.57394L12.4732 6.27776ZM13.042 7.04738C13.0421 7.04753 13.0418 7.04707 13.0407 7.04576C13.0397 7.04452 13.0384 7.04284 13.0368 7.04068C13.0334 7.03634 13.0291 7.03065 13.0237 7.02354C13.013 7.00934 12.9989 6.99055 12.9818 6.9676C12.9476 6.92177 12.9023 6.86058 12.8495 6.78894C12.7438 6.64572 12.6086 6.46182 12.4732 6.27776L12.0704 6.57394C12.3369 6.93642 12.6142 7.31369 12.6539 7.36264L13.042 7.04738ZM12.8474 7.62566C12.9263 7.60227 13.064 7.5451 13.1172 7.39662C13.1738 7.23896 13.0914 7.10806 13.0419 7.04721L12.6541 7.36281C12.6582 7.36792 12.6501 7.35982 12.6434 7.33876C12.6356 7.31458 12.6301 7.27378 12.6466 7.22786C12.6625 7.18347 12.69 7.15918 12.7033 7.14981C12.7152 7.14138 12.7191 7.14221 12.7052 7.14631L12.8474 7.62566ZM11.7708 7.9396C12.1639 7.82516 12.7665 7.64969 12.8475 7.62566L12.7052 7.14632C12.6258 7.16987 12.0254 7.34471 11.6311 7.45954L11.7708 7.9396ZM11.4984 8.01894C11.5598 8.00105 11.6566 7.97288 11.7708 7.9396L11.6311 7.45954C11.5168 7.49281 11.42 7.521 11.3585 7.5389L11.4984 8.01894ZM12.866 9.45047C12.7973 9.3393 12.0301 8.21592 11.6348 7.63781L11.2221 7.92003C11.6245 8.50857 12.38 9.61521 12.4407 9.71332L12.866 9.45047ZM12.6334 10.0522C12.6647 10.0381 12.7061 10.0194 12.744 9.99713C12.7808 9.97549 12.835 9.93893 12.8774 9.87946C12.926 9.81141 12.9477 9.72932 12.938 9.64327C12.9294 9.56711 12.8977 9.50163 12.8659 9.45033L12.4407 9.71346C12.4529 9.73314 12.4442 9.72613 12.4412 9.69957C12.4395 9.68448 12.4398 9.66481 12.4455 9.64292C12.4512 9.62099 12.4606 9.60287 12.4703 9.58921C12.4874 9.56525 12.5027 9.55898 12.4907 9.56605C12.4797 9.57251 12.4623 9.58092 12.4285 9.59609L12.6334 10.0522ZM9.39639 11.3198C9.50346 11.2844 10.2846 10.9802 11.0409 10.6835C11.7977 10.3866 12.5611 10.0847 12.6334 10.0522L12.4285 9.59611C12.4286 9.59606 12.4275 9.59652 12.4249 9.59767C12.4223 9.59874 12.419 9.60014 12.4148 9.6019C12.4063 9.60542 12.3952 9.61 12.3813 9.61564C12.3536 9.62692 12.3164 9.64193 12.2707 9.66023C12.1794 9.6968 12.0556 9.74603 11.9097 9.80379C11.6181 9.91929 11.2393 10.0685 10.8583 10.218C10.0898 10.5196 9.32937 10.8154 9.23934 10.8451L9.39639 11.3198ZM9.38744 11.3228L9.39656 11.3198L9.23917 10.8452L9.23005 10.8482L9.38744 11.3228ZM8.57895 11.0938C8.67413 11.239 8.79568 11.3652 8.98125 11.392C9.06409 11.404 9.14049 11.3927 9.20313 11.3781C9.26426 11.3639 9.32924 11.3421 9.38745 11.3228L9.23004 10.8482C9.16524 10.8697 9.12394 10.8832 9.08974 10.8912C9.05705 10.8988 9.0491 10.8966 9.0528 10.8972C9.0801 10.9011 9.06429 10.9221 8.99708 10.8196L8.57895 11.0938ZM7.44953 8.92449C7.61284 9.24774 7.86125 9.73776 8.08436 10.1707C8.30277 10.5945 8.50813 10.9858 8.57897 11.0938L8.99706 10.8196C8.94476 10.7399 8.75567 10.3818 8.52881 9.94162C8.30663 9.51052 8.05894 9.02193 7.89581 8.69903L7.44953 8.92449ZM5.6618 9.63868C5.99128 9.5519 7.12561 9.22835 7.74146 9.05211L7.60389 8.57141C6.98458 8.74864 5.85733 9.07013 5.53445 9.15517L5.6618 9.63868ZM4.86023 9.23724C4.89499 9.32281 4.96501 9.45587 5.09918 9.55249C5.24491 9.65744 5.43642 9.69783 5.66159 9.63873L5.53466 9.15511C5.48443 9.1683 5.4523 9.16722 5.43367 9.16408C5.41558 9.16103 5.40254 9.1548 5.39136 9.14675C5.36502 9.12778 5.34099 9.09219 5.32345 9.04903L4.86023 9.23724ZM4.39608 8.13942C4.65584 8.75295 4.84498 9.19974 4.86025 9.23728L5.32344 9.04899C5.30637 9.00701 5.11459 8.55405 4.85652 7.94449L4.39608 8.13942ZM2.81333 4.38303C2.8965 4.59753 3.81935 6.77719 4.39608 8.13942L4.85652 7.94449C4.27636 6.57415 3.359 4.40728 3.27951 4.20227L2.81333 4.38303ZM3.15297 3.67215C3.0792 3.67886 2.90677 3.70528 2.8087 3.86797C2.71354 4.02585 2.74795 4.21425 2.81329 4.38295L3.27954 4.20235C3.25592 4.14137 3.2508 4.10782 3.25009 4.09461C3.24948 4.08331 3.25261 4.10007 3.23692 4.12609C3.22066 4.15307 3.19869 4.16604 3.18861 4.17041C3.18151 4.17348 3.18244 4.17154 3.19828 4.17009L3.15297 3.67215ZM5.14817 3.50002C4.92534 3.51093 3.26555 3.66177 3.15268 3.67218L3.19857 4.17007C3.32095 4.15879 4.96389 4.00964 5.17261 3.99943L5.14817 3.50002ZM5.68831 3.79118C5.65725 3.74034 5.59961 3.63569 5.49763 3.57063C5.38547 3.49907 5.25965 3.49449 5.14799 3.50003L5.17279 3.99942C5.21557 3.99729 5.2364 3.99901 5.24503 4.00036C5.25077 4.00126 5.24184 4.00053 5.2287 3.99215C5.21661 3.98443 5.21339 3.97803 5.21996 3.98677C5.22864 3.99831 5.23915 4.01504 5.26162 4.05183L5.68831 3.79118ZM5.70303 3.81522C5.69803 3.80709 5.69321 3.7992 5.68831 3.79118L5.26162 4.05183C5.26646 4.05975 5.27175 4.06841 5.27732 4.07745L5.70303 3.81522ZM8.09011 8.17665L5.70949 3.82632L5.27087 4.06635L7.65149 8.41667L8.09011 8.17665ZM10.8 7.27108L7.80746 8.05482L7.93414 8.5385L10.9267 7.75477L10.8 7.27108ZM9.66285 6.11496C9.73506 6.22534 10.487 7.39074 10.6533 7.64845L11.0734 7.37739C10.9081 7.12112 10.1546 5.95338 10.0813 5.84124L9.66285 6.11496ZM9.9615 5.52427C9.88889 5.53773 9.75421 5.57024 9.66593 5.6776C9.61306 5.74191 9.58458 5.82401 9.59051 5.91288C9.5959 5.99381 9.62847 6.06234 9.66277 6.11484L10.0814 5.84136C10.0748 5.83126 10.0871 5.84556 10.0894 5.8796C10.0922 5.92158 10.0777 5.96413 10.0521 5.99516C10.0316 6.02013 10.0131 6.02679 10.0172 6.02503C10.0198 6.02388 10.0306 6.01997 10.0526 6.01589L9.9615 5.52427ZM5.26812 8.94285C5.26882 8.94519 5.27175 8.95528 5.27544 8.96569C5.27928 8.97651 5.28675 8.99605 5.29969 9.01795C5.3323 9.07309 5.38641 9.12057 5.45983 9.14142C5.51577 9.1573 5.56531 9.15211 5.58813 9.14914C5.61509 9.14562 5.64251 9.13942 5.66676 9.1334L5.54615 8.64816C5.52711 8.65289 5.5217 8.65357 5.52348 8.65334C5.52488 8.65315 5.532 8.65225 5.54283 8.65239C5.55357 8.65253 5.57277 8.65372 5.59638 8.66043C5.62151 8.66756 5.64949 8.68035 5.67598 8.70145C5.70213 8.72228 5.71928 8.74519 5.7301 8.76348C5.74012 8.78043 5.74516 8.79427 5.74672 8.79867C5.74814 8.80267 5.74895 8.80562 5.74732 8.80016L5.26812 8.94285ZM5.26722 8.93984L5.26819 8.9431L5.74725 8.79991L5.74628 8.79665L5.26722 8.93984ZM3.26206 4.41987C3.2611 4.41791 3.26752 4.43195 3.28525 4.47155C3.30119 4.50716 3.32383 4.55789 3.35225 4.62166C3.40907 4.74918 3.48877 4.9284 3.58371 5.14208C3.77358 5.56941 4.02428 6.13434 4.27445 6.69858C4.52463 7.26282 4.77424 7.82632 4.96194 8.2508C5.05579 8.46306 5.13412 8.64046 5.18929 8.76578C5.21689 8.82848 5.2386 8.87794 5.25353 8.91216C5.26102 8.92933 5.26666 8.9423 5.27042 8.95107C5.27234 8.95553 5.27353 8.95835 5.27417 8.95986C5.27788 8.96875 5.27222 8.95607 5.26787 8.942L5.74562 8.79449C5.74318 8.78659 5.74081 8.78039 5.7404 8.77929C5.73952 8.77695 5.73874 8.77498 5.73825 8.77376C5.73725 8.77127 5.73626 8.76889 5.7355 8.76707C5.73392 8.76327 5.73196 8.75869 5.72982 8.75371C5.72548 8.7436 5.71939 8.72958 5.71179 8.71216C5.69654 8.67721 5.67457 8.62717 5.64692 8.56434C5.59158 8.43863 5.51311 8.26093 5.41923 8.0486C5.23143 7.6239 4.98175 7.06023 4.73154 6.49592C4.2337 5.37307 3.72731 4.23284 3.71053 4.1988L3.26206 4.41987ZM3.4863 3.95934C3.39725 3.95934 3.31424 4.00292 3.26404 4.07746C3.22269 4.13885 3.2165 4.20138 3.21616 4.23596C3.21546 4.30768 3.23879 4.37279 3.26218 4.42011L3.71041 4.19855C3.70624 4.19011 3.71649 4.20521 3.71614 4.24088C3.71598 4.25743 3.71333 4.30543 3.67874 4.35678C3.63529 4.42129 3.56227 4.45934 3.4863 4.45934V3.95934ZM4.32758 3.87854C4.1186 3.89865 3.90584 3.91912 3.74362 3.93457C3.66248 3.94229 3.59421 3.94874 3.54546 3.95325C3.52102 3.95551 3.50184 3.95725 3.48852 3.95841C3.46566 3.96041 3.47379 3.95934 3.4863 3.95934V4.45934C3.50222 4.45934 3.52688 4.45696 3.53198 4.45652C3.54662 4.45524 3.56682 4.45341 3.5915 4.45113C3.64096 4.44655 3.70979 4.44005 3.79102 4.43232C3.95354 4.41684 4.16658 4.39634 4.37548 4.37624L4.32758 3.87854ZM4.32836 3.87846L4.32835 3.87846L4.37471 4.37631L4.37473 4.37631L4.32836 3.87846ZM5.10977 3.80442C5.07731 3.80633 4.70183 3.84252 4.3276 3.87853L4.3755 4.37624C4.56546 4.35795 4.75199 4.34 4.89432 4.32643C4.9655 4.31964 5.02545 4.31397 5.06917 4.3099C5.09106 4.30786 5.10865 4.30625 5.12145 4.3051C5.13634 4.30378 5.14047 4.30348 5.13908 4.30357L5.10977 3.80442ZM5.41153 3.97751C5.41085 3.97606 5.40102 3.9541 5.38735 3.93294C5.37006 3.90618 5.34116 3.87093 5.2947 3.84352C5.21392 3.79584 5.12941 3.80327 5.10973 3.80443L5.13911 4.30356C5.14491 4.30322 5.13744 4.30409 5.12376 4.30257C5.1088 4.30089 5.07656 4.29536 5.04058 4.27413C5.00222 4.25149 4.97929 4.22271 4.9674 4.2043C4.95911 4.19148 4.95409 4.17973 4.95917 4.19052L5.41153 3.97751ZM5.4144 3.98348C5.41427 3.98324 5.41399 3.98274 5.41154 3.97752L4.95917 4.19051C4.96151 4.19548 4.96669 4.20658 4.97358 4.21944L5.4144 3.98348ZM7.64918 8.20105L5.41489 3.98441L4.97308 4.21851L7.20737 8.43515L7.64918 8.20105ZM7.66025 8.22145C7.65623 8.21415 7.65288 8.20806 7.64939 8.20146L7.20715 8.43474C7.21307 8.44596 7.21851 8.45582 7.22239 8.46286L7.66025 8.22145ZM7.47089 8.6632C7.48936 8.65837 7.52342 8.64915 7.55689 8.63247C7.58968 8.61614 7.66734 8.57025 7.69902 8.46895C7.72795 8.37646 7.69742 8.29996 7.68893 8.27916C7.6787 8.2541 7.66448 8.22912 7.66026 8.22145L7.22239 8.46285C7.23228 8.48079 7.22936 8.47631 7.22602 8.46814C7.22443 8.46423 7.19639 8.40101 7.22182 8.3197C7.25001 8.22958 7.31818 8.19278 7.33391 8.18494C7.35033 8.17677 7.35975 8.17546 7.34444 8.17946L7.47089 8.6632ZM5.66721 9.13328C5.75831 9.11046 7.4364 8.67231 7.47147 8.66305L7.34385 8.17961C7.30806 8.18906 5.63316 8.62636 5.54569 8.64827L5.66721 9.13328ZM11.3916 7.29222L10.5153 5.97779L10.0993 6.25513L10.9756 7.56957L11.3916 7.29222ZM12.262 6.88139C12.2248 6.89035 11.9349 6.96854 11.6623 7.04224C11.5242 7.07958 11.3882 7.11642 11.2867 7.14393C11.2359 7.15768 11.1938 7.1691 11.1643 7.17709C11.1496 7.18108 11.1381 7.18421 11.1302 7.18634C11.1263 7.18741 11.1233 7.18823 11.1212 7.18878C11.1202 7.18905 11.1194 7.18926 11.1189 7.1894C11.1187 7.18947 11.1185 7.18953 11.1183 7.18956C11.1183 7.18958 11.1182 7.18959 11.1182 7.1896C11.1182 7.18961 11.1182 7.18961 11.1182 7.18961C11.1181 7.18961 11.1181 7.18961 11.1836 7.43089C11.249 7.67217 11.2491 7.67217 11.2491 7.67217C11.2491 7.67217 11.2491 7.67217 11.2491 7.67216C11.2491 7.67215 11.2492 7.67214 11.2492 7.67212C11.2494 7.67209 11.2496 7.67203 11.2498 7.67196C11.2503 7.67182 11.2511 7.67162 11.2521 7.67134C11.2541 7.67079 11.2572 7.66998 11.2611 7.66891C11.2689 7.66678 11.2805 7.66365 11.2952 7.65966C11.3246 7.65168 11.3667 7.64027 11.4174 7.62653C11.5189 7.59903 11.6548 7.56222 11.7928 7.52491C11.9308 7.4876 12.0707 7.44982 12.1802 7.4204C12.235 7.40569 12.2819 7.3931 12.3172 7.38373C12.3348 7.37903 12.3494 7.3752 12.3604 7.37232C12.3659 7.37088 12.3703 7.36972 12.3737 7.36885C12.3754 7.36841 12.3767 7.36807 12.3778 7.36782C12.3788 7.36755 12.3792 7.36745 12.3792 7.36746L12.262 6.88139ZM12.2025 7.18888C12.1834 7.16188 12.1536 7.10238 12.1688 7.02393C12.183 6.95081 12.2271 6.91035 12.2453 6.89623C12.2556 6.88824 12.264 6.8835 12.2684 6.88118C12.2731 6.87875 12.276 6.87764 12.2763 6.87751C12.2766 6.87742 12.2726 6.87888 12.263 6.88115L12.3782 7.3677C12.4138 7.35928 12.4893 7.33987 12.5522 7.29094C12.5872 7.26372 12.6423 7.20861 12.6597 7.11908C12.6781 7.02423 12.6437 6.94657 12.6102 6.89942L12.2025 7.18888ZM12.0625 6.9945C12.142 7.10475 12.1959 7.17948 12.2024 7.18864L12.6104 6.89966C12.6022 6.88814 12.546 6.81023 12.468 6.70198L12.0625 6.9945ZM12.0626 6.99472L12.0627 6.99491L12.4677 6.70158L12.4675 6.7014L12.0626 6.99472ZM11.3569 6.01153C11.4013 6.07812 11.8361 6.68078 12.0623 6.99432L12.4678 6.7018C12.2356 6.37982 11.8105 5.79053 11.7729 5.7341L11.3569 6.01153ZM11.4919 6.0558C11.5059 6.05227 11.4997 6.05425 11.4903 6.05531C11.4771 6.0568 11.4531 6.05755 11.4244 6.04925C11.3645 6.0319 11.3451 5.99386 11.3571 6.01182L11.7727 5.73382C11.7313 5.67194 11.6663 5.59875 11.5634 5.56896C11.4666 5.54095 11.3802 5.56831 11.3693 5.57106L11.4919 6.0558ZM11.4868 6.05708L11.4917 6.05586L11.3695 5.571L11.3647 5.57222L11.4868 6.05708ZM10.36 6.27888C10.4292 6.26872 11.4331 6.07053 11.4865 6.05715L11.365 5.57214C11.3662 5.57185 11.3531 5.57472 11.3179 5.5819C11.2868 5.58828 11.2443 5.59684 11.1941 5.60689C11.0938 5.62699 10.9635 5.65285 10.8325 5.67866C10.7016 5.70447 10.5702 5.73019 10.4679 5.74999C10.4167 5.7599 10.3731 5.76827 10.3405 5.77443C10.3241 5.77751 10.3109 5.77997 10.301 5.78176C10.2897 5.78382 10.2863 5.78435 10.2873 5.7842L10.36 6.27888ZM10.5175 5.98115C10.5119 5.97237 10.513 5.97352 10.5156 5.97881C10.5167 5.98103 10.5316 6.00998 10.5331 6.05443C10.5352 6.11291 10.5129 6.18309 10.4542 6.23325C10.4086 6.27221 10.3645 6.27824 10.3594 6.27897L10.288 5.7841C10.2522 5.78928 10.1876 5.80339 10.1294 5.85315C10.058 5.91413 10.0309 5.99786 10.0334 6.07171C10.0355 6.13153 10.0563 6.17767 10.0662 6.19799C10.0776 6.22137 10.0905 6.24154 10.0971 6.25177L10.5175 5.98115ZM11.9187 9.51728L11.9252 9.5282L12.3551 9.27298L12.3486 9.26205L11.9187 9.51728ZM11.4577 8.8339L11.9264 9.52937L12.341 9.24995L11.8723 8.55448L11.4577 8.8339ZM11.1536 8.37123C11.2219 8.47437 11.2937 8.58283 11.3503 8.66876C11.3786 8.71176 11.4029 8.7488 11.421 8.77657C11.4413 8.80785 11.4491 8.82017 11.4488 8.81967L11.8812 8.56871C11.8612 8.53416 11.7024 8.29444 11.5706 8.0953L11.1536 8.37123ZM10.9326 8.03576C10.9554 8.07165 11.052 8.21768 11.1536 8.37123L11.5706 8.0953C11.4664 7.9378 11.3742 7.79844 11.3548 7.76796L10.9326 8.03576ZM11.0839 8.10039C11.1001 8.09479 11.1011 8.09551 11.0938 8.09665C11.0851 8.098 11.0565 8.10129 11.0194 8.09012C10.9798 8.07815 10.9531 8.05657 10.9393 8.04234C10.9289 8.03163 10.9257 8.02488 10.9327 8.03599L11.3547 7.76773C11.339 7.74314 11.2821 7.6471 11.1638 7.61142C11.0577 7.57942 10.9595 7.61437 10.9206 7.62784L11.0839 8.10039ZM8.15257 8.93465L11.0707 8.10457L10.9339 7.62365L8.01577 8.45373L8.15257 8.93465ZM9.25964 10.3634C9.26013 10.3642 9.25911 10.3626 9.25586 10.357C9.25292 10.352 9.24907 10.3452 9.24423 10.3366C9.23456 10.3194 9.22192 10.2966 9.20659 10.2686C9.17599 10.2127 9.13572 10.1383 9.08901 10.0515C8.99566 9.87784 8.87748 9.65624 8.76129 9.43773C8.64513 9.21928 8.53111 9.00418 8.44611 8.84368C8.40362 8.76344 8.36838 8.69685 8.34378 8.65033C8.33148 8.62707 8.32183 8.60883 8.31526 8.5964C8.31198 8.59019 8.30946 8.58543 8.30777 8.58223C8.30692 8.58063 8.30628 8.57941 8.30585 8.5786C8.30564 8.5782 8.30548 8.57789 8.30537 8.57769C8.30531 8.57759 8.30527 8.57751 8.30525 8.57746C8.30523 8.57743 8.30522 8.57741 8.30522 8.5774C8.30521 8.57739 8.30521 8.57738 8.08417 8.69419C7.86314 8.81099 7.86314 8.811 7.86315 8.81101C7.86315 8.81103 7.86317 8.81105 7.86318 8.81107C7.86321 8.81113 7.86325 8.8112 7.8633 8.81131C7.86341 8.81151 7.86357 8.81182 7.86379 8.81223C7.86422 8.81305 7.86487 8.81427 7.86572 8.81588C7.86742 8.81909 7.86994 8.82386 7.87323 8.83009C7.87982 8.84254 7.88948 8.86082 7.9018 8.88411C7.92644 8.93069 7.96171 8.99735 8.00425 9.07768C8.08932 9.23833 8.20348 9.45369 8.31982 9.67247C8.54773 10.1011 8.79623 10.5663 8.83742 10.6313L9.25964 10.3634ZM9.10677 10.3462C9.09708 10.3507 9.10606 10.3455 9.1232 10.342C9.14522 10.3374 9.17786 10.3357 9.21355 10.3473C9.2467 10.358 9.26537 10.3746 9.27033 10.3795C9.27453 10.3836 9.27077 10.381 9.25956 10.3633L8.83749 10.6314C8.8783 10.6956 8.94619 10.7863 9.05958 10.823C9.18551 10.8637 9.28976 10.8126 9.31904 10.7989L9.10677 10.3462ZM10.9467 9.66098C10.5416 9.81095 10.0943 9.97659 9.74425 10.1066C9.56925 10.1716 9.41839 10.2277 9.30921 10.2686C9.20966 10.3058 9.12697 10.3368 9.10737 10.3459L9.31844 10.7992C9.3147 10.8009 9.36624 10.7811 9.48443 10.7368C9.593 10.6962 9.7434 10.6403 9.91831 10.5753C10.2681 10.4454 10.7152 10.2799 11.1203 10.1299L10.9467 9.66098ZM12.0105 9.2662C12.0105 9.26619 12.0084 9.267 12.0028 9.26914C11.9977 9.27108 11.9909 9.27365 11.9823 9.27687C11.9652 9.28331 11.9418 9.29205 11.9127 9.30289C11.8545 9.32456 11.7743 9.35435 11.6776 9.39021C11.4843 9.46192 11.2255 9.55773 10.9467 9.66098L11.1203 10.1299C11.6743 9.92473 12.1577 9.7458 12.1958 9.73058L12.0105 9.2662ZM11.9257 9.52915C11.9342 9.54333 11.9298 9.53682 11.9254 9.52652C11.9204 9.51482 11.9032 9.47131 11.913 9.41212C11.9238 9.3464 11.9603 9.30422 11.9846 9.28392C12.0048 9.26705 12.0191 9.26279 12.0109 9.26601L12.1953 9.73076C12.234 9.71544 12.3793 9.65679 12.4062 9.4938C12.4186 9.41899 12.3976 9.35927 12.3853 9.33029C12.3735 9.30269 12.358 9.27781 12.3546 9.27203L11.9257 9.52915Z" fill="#FC8289"/>
</g>
</g>
</svg>
