<svg width="16" height="16" viewBox="0 0 16 16" fill="none" xmlns="http://www.w3.org/2000/svg">
<g id="bower">
<g id="Group">
<g id="bower_2">
<path id="outline" d="M13.2355 6.88434C12.6464 6.32216 9.70034 5.97121 8.77078 5.86906C8.8158 5.76346 8.85414 5.65424 8.88578 5.54178C9.0125 5.48666 9.1493 5.43539 9.29073 5.39257C9.30797 5.44306 9.38914 5.63651 9.4354 5.72832C11.3046 5.77953 11.4005 4.34887 11.4766 3.95693C11.5509 3.57369 11.5471 3.2034 12.1883 2.52645C11.2331 2.25001 9.85947 2.9549 9.39932 4.00401C9.22642 3.93967 9.05314 3.89216 8.88176 3.86277C8.75893 3.37076 8.11938 2 6.44106 2C4.31611 2 2 3.74092 2 6.68803C2 9.16532 3.70307 11.3364 4.66519 11.3364C5.08542 11.3364 5.4469 11.0238 5.53176 10.7437C5.60291 10.9358 5.8212 11.5329 5.89289 11.6849C5.99886 11.9097 6.48892 12.1042 6.70337 11.8709C6.97911 12.0231 7.48508 12.1147 7.76085 11.709C8.29192 11.8205 8.76141 11.506 8.77167 11.1308C9.03226 11.117 9.1601 10.7536 9.10319 10.4642C9.06124 10.2511 8.61313 9.48667 8.43835 9.22277C8.78435 9.50227 9.66078 9.58139 9.76723 9.22295C10.3251 9.6578 11.1945 9.42956 11.2634 9.07591C11.9413 9.25081 12.7187 8.86667 12.5911 8.40141C13.68 8.32663 13.5406 7.17602 13.2351 6.88443L13.2355 6.88434Z" fill="#434F65"/>
<g id="leaf">
<path id="Shape" fill-rule="evenodd" clip-rule="evenodd" d="M11.1048 3.15143C10.7326 3.46361 10.4378 3.96822 10.2033 4.43035C10.3608 4.54025 10.6699 4.79944 10.8046 4.93374C11.0239 4.66934 11.0969 4.29534 11.1702 3.91918C11.2542 3.48853 11.3387 3.05504 11.6442 2.77993C10.7898 2.82606 10.0146 3.41672 9.68091 4.12396C9.80572 4.184 9.92949 4.25264 10.0514 4.32959C10.2906 3.80563 10.6951 3.31542 11.1048 3.15143ZM9.85279 4.9665C9.84028 5.02877 9.83362 5.16519 9.83337 5.18287C9.84891 5.15637 9.88551 5.08004 9.91201 5.02479C9.92005 5.00801 9.92717 4.99317 9.93248 4.98227C10.1366 5.021 10.4051 5.08576 10.5625 5.1586C10.3777 5.27746 10.0637 5.40675 9.62892 5.4158C9.5658 5.27997 9.50193 5.05433 9.50968 4.9217C9.61602 4.91921 9.81997 4.95883 9.85279 4.9665Z" fill="#89DDFF"/>
</g>
<g id="Group_2">
<path id="wingtip" fill-rule="evenodd" clip-rule="evenodd" d="M9.63235 7.06429C9.63229 7.06428 9.63223 7.06428 9.63218 7.06427L9.6322 7.06429C9.63225 7.06429 9.6323 7.06429 9.63235 7.06429ZM9.63235 7.06429C10.4598 7.12737 11.8279 7.24989 12.6749 7.36761C12.6214 7.09383 12.4752 7.01563 12.0154 6.89297C11.5209 6.94535 10.2663 7.06774 9.63235 7.06429ZM8.21848 8.84117L8.21803 8.83911L8.21803 8.83908C8.57639 9.22707 9.4828 9.18664 9.47361 8.83548C10.1968 9.20133 10.8332 8.88535 10.6759 8.53434C11.3905 8.7706 11.9037 8.34165 11.6394 7.98413C12.1285 8.09732 12.4529 7.93443 12.5954 7.70374C12.3809 7.64926 11.6978 7.51315 10.9849 7.37661C11.0919 7.54627 10.6146 7.9356 10.1965 7.7421C10.3918 8.17947 9.5326 8.54335 9.11518 8.23143C9.15991 8.5839 8.30709 8.78678 8.03497 8.39343C8.10486 8.58039 8.16337 8.72342 8.21848 8.84117Z" fill="#2ECC71"/>
<path id="body" d="M9.11523 8.23151C9.53266 8.54342 10.3919 8.17955 10.1966 7.74218C10.6147 7.93568 11.092 7.54634 10.9849 7.37669C10.1421 7.21531 9.25768 7.05335 9.05708 7.02503C9.17877 7.03145 9.38048 7.04517 9.63223 7.06438C10.2662 7.06784 11.5209 6.94544 12.0154 6.89306C11.2146 6.69142 9.57973 6.39715 8.45072 6.32466C8.39839 6.40061 8.30221 6.5294 8.13468 6.66626C7.64067 7.70427 6.74564 8.39424 5.7553 8.39424C5.46671 8.39424 5.14379 8.34589 4.78188 8.23099C4.55617 8.47111 3.59387 8.65309 2.81305 8.27248C3.4324 9.71271 4.86872 10.6741 6.45872 10.6741C7.79771 10.6741 8.39147 9.31623 8.26152 8.95693C8.23 8.8697 8.10506 8.58047 8.03515 8.39351C8.3073 8.78684 9.16012 8.58396 9.11541 8.23149L9.11523 8.23151Z" fill="#FFCB6B"/>
<path id="beak" d="M8.30381 5.4985C8.42203 5.43463 8.83058 5.18869 9.2199 5.09627C9.21376 5.05345 9.20912 5.01027 9.20625 4.96684C8.95083 5.02758 8.4693 5.23255 8.19334 4.95009C8.77551 5.12455 9.06619 4.79463 9.49411 4.79463C9.74907 4.79463 10.1129 4.86536 10.3997 4.97719C10.169 4.76556 9.41258 4.12686 8.476 4.12466C8.26689 4.37643 8.04085 4.92179 8.30379 5.49848L8.30381 5.4985Z" fill="#CFD2D3"/>
<path id="head" d="M4.7819 8.23075C5.14382 8.34565 5.46673 8.394 5.75532 8.394C6.74563 8.394 7.64067 7.70401 8.1347 6.66602C7.76932 6.96891 7.13434 7.22807 6.14265 7.22807C7.02598 7.02916 7.78638 6.59201 8.17319 5.95304C7.90128 5.52326 7.60637 4.57243 8.35321 3.82076C8.23832 3.45424 7.67914 2.48662 6.44126 2.48662C4.28092 2.48662 2.49057 4.28185 2.49057 6.68766C2.49057 7.2572 2.60634 7.79134 2.81313 8.2721C3.59392 8.65274 4.55622 8.47077 4.78193 8.23064L4.7819 8.23075Z" fill="#F07178"/>
<path id="eye_rim" d="M5.42984 4.56752C5.42984 5.11478 5.87657 5.55845 6.42763 5.55845C6.9787 5.55845 7.42548 5.11475 7.42548 4.56752C7.42548 4.02025 6.9787 3.57658 6.42763 3.57658C5.87657 3.57658 5.42984 4.02025 5.42984 4.56752Z" fill="#FFCB6B"/>
<path id="eye" d="M5.83032 4.56751C5.83032 4.89515 6.09783 5.16076 6.4277 5.16076C6.75767 5.16076 7.0251 4.89512 7.0251 4.56751C7.0251 4.23984 6.75767 3.97423 6.4277 3.97423C6.09781 3.97423 5.83032 4.23987 5.83032 4.56751Z" fill="#343944"/>
<path id="pupil_highlight" d="M6.42765 4.51934C6.61991 4.51934 6.77577 4.4231 6.77577 4.30439C6.77577 4.18568 6.61991 4.08945 6.42765 4.08945C6.23539 4.08945 6.07953 4.18568 6.07953 4.30439C6.07953 4.4231 6.23539 4.51934 6.42765 4.51934Z" fill="white"/>
</g>
</g>
</g>
</g>
</svg>
