<svg width="16" height="16" viewBox="0 0 16 16" fill="none" xmlns="http://www.w3.org/2000/svg">
<g id="browserlist">
<g id="68747470733a2f2f62726f77736572736c6973742e6769746875622e696f2f62726f77736572736c6973742f6c6f676f2e737667">
<path id="Oval" fill-rule="evenodd" clip-rule="evenodd" d="M8 13.9155C11.267 13.9155 13.9155 11.2671 13.9155 8.00003C13.9155 4.73299 11.267 2.08453 8 2.08453C4.73296 2.08453 2.0845 4.73299 2.0845 8.00003C2.0845 11.2671 4.73296 13.9155 8 13.9155Z" fill="#FFCB6B"/>
<path id="Combined Shape" fill-rule="evenodd" clip-rule="evenodd" d="M7.77472 3.96277C7.65448 3.67639 7.57079 3.352 7.52183 2.95312C7.03814 3.29572 6.64409 3.79359 6.35442 4.36264C6.13763 4.13745 5.94174 3.86319 5.75167 3.50574C5.42355 3.9979 5.2342 4.60245 5.16733 5.2361C4.8904 5.10415 4.61476 4.92064 4.31575 4.66077C4.18588 5.23743 4.22562 5.86922 4.38999 6.48434C4.0778 6.46216 3.74831 6.38941 3.36734 6.25076C3.45284 6.8363 3.71683 7.41251 4.09139 7.9283C3.79736 8.0155 3.46981 8.06352 3.07387 8.07045L3.07382 8.07037V8.07045L3.07387 8.07045C3.36439 8.58796 3.81914 9.03236 4.35569 9.38011C4.10836 9.57329 3.81415 9.74026 3.43704 9.89261H3.43713C3.89185 10.27 4.47262 10.5214 5.09513 10.6543C4.93505 10.9154 4.72396 11.17 4.43473 11.4397L4.43466 11.4397V11.4397L4.43473 11.4397C4.99359 11.6288 5.62472 11.6555 6.25245 11.557C6.19732 11.8627 6.09083 12.1803 5.91464 12.5415H5.91473C6.50585 12.5177 7.10634 12.3155 7.65835 11.9971C7.71736 12.3038 7.73221 12.6402 7.69698 13.0431C8.88866 12.5297 9.81487 11.1989 10.1408 9.88202C10.2289 9.6441 10.2756 9.29997 10.2756 8.82604C10.2756 8.69904 10.2731 8.57586 10.2687 8.45628C11.2323 8.29269 11.933 7.96099 12.336 7.72468C12.4832 7.63834 12.6325 7.51157 12.6811 7.40746C12.7565 7.31896 12.8019 7.20425 12.8019 7.07891C12.8019 6.79888 12.5749 6.57187 12.2949 6.57187C12.0569 6.57187 11.8572 6.73589 11.8026 6.95707C11.0191 6.54904 10.1217 5.72198 10.3409 4.5273C10.5039 4.30122 10.7325 4.07418 11.0471 3.83563L11.0472 3.83564V3.83556L11.0471 3.83563C10.4584 3.76658 9.83239 3.87292 9.23634 4.10201C9.22709 3.79249 9.26527 3.4606 9.36216 3.07202C8.79087 3.21774 8.24732 3.53868 7.77472 3.96277ZM10.261 8.28618C10.3694 8.26738 10.4765 8.24604 10.5823 8.22225C11.2364 8.0752 11.7944 7.84627 12.2505 7.57889C12.2955 7.5525 12.339 7.52276 12.378 7.49242C12.4125 7.43969 12.4111 7.40122 12.3848 7.3696C11.9066 7.24718 11.3041 6.91911 10.8714 6.49644C10.3984 6.03438 10.1339 5.48708 10.1377 4.87913C9.89704 5.42499 9.97221 5.99667 10.0832 6.73917C10.1809 6.72628 10.2572 6.64729 10.266 6.54841C10.2751 6.44653 10.2099 6.35277 10.1112 6.32578C10.2577 6.29435 10.4074 6.36311 10.4791 6.49472C10.5507 6.62632 10.5271 6.78937 10.4212 6.89531C10.3409 6.97559 10.2278 7.00856 10.1205 6.98868C10.177 7.37089 10.2347 7.79773 10.261 8.28618Z" fill="#212431"/>
<path id="Path" fill-rule="evenodd" clip-rule="evenodd" d="M10.267 8.21003C10.2613 8.17301 10.2512 8.0607 10.2444 7.96048C10.2334 7.79619 10.1717 7.26287 10.1422 7.07679L10.1305 7.0036L10.2253 6.99287C10.4804 6.96414 10.6137 6.66042 10.4625 6.45253C10.4128 6.38417 10.2639 6.30912 10.178 6.30912H10.11L10.1823 6.37741C10.2358 6.42786 10.2546 6.46242 10.2546 6.51008C10.2546 6.59636 10.2084 6.68095 10.1455 6.7096C10.097 6.73174 10.0935 6.72929 10.0827 6.66803C9.99707 6.18126 9.9696 5.6051 10.0186 5.32648C10.0363 5.22617 10.0686 5.09391 10.0904 5.03264L10.1302 4.92126L10.1319 5.01236C10.1329 5.06256 10.1507 5.1856 10.1715 5.28591C10.3096 5.95141 10.7621 6.53357 11.4906 6.98307C11.6841 7.10239 12.025 7.26473 12.2169 7.32895C12.2987 7.35625 12.3743 7.38726 12.3846 7.39766C12.4195 7.43248 12.3796 7.48225 12.2526 7.56245C11.8646 7.80752 11.2406 8.05394 10.6599 8.19152C10.2467 8.28938 10.2789 8.28786 10.267 8.21003Z" fill="white"/>
</g>
</g>
</svg>
