<svg width="16" height="16" viewBox="0 0 16 16" fill="none" xmlns="http://www.w3.org/2000/svg">
<g clip-path="url(#clip0_1399_20)">
<path d="M7.983 13.283C11.2875 13.283 13.966 11.12 13.966 8.45248C13.966 6.79848 12.9405 5.33748 11.364 4.47098C10.7225 4.11448 10.2185 3.79448 9.799 3.52848C9.009 3.02648 8.5215 2.71698 7.983 2.71698C7.436 2.71698 6.8195 3.10848 6.0055 3.62498C5.54692 3.92232 5.07866 4.20447 4.6015 4.47098C3.0255 5.33748 2 6.79848 2 8.45248C2 11.12 4.6785 13.283 7.983 13.283ZM7.2845 4.36798C7.45084 3.98939 7.53551 3.57999 7.533 3.16648C7.533 3.09448 7.6335 3.07348 7.6475 3.15248C7.9755 4.53998 7.1975 5.22748 6.622 5.45748C6.56 5.48148 6.5225 5.39748 6.5705 5.35348C6.87612 5.07971 7.11958 4.74368 7.2845 4.36798ZM8.3105 4.31698C8.26319 3.9104 8.13027 3.51846 7.9205 3.16698V3.15948C7.8865 3.09798 7.9635 3.02798 8.013 3.07348C8.991 4.12598 8.6645 5.10098 8.29 5.59198C8.249 5.64298 8.1755 5.59048 8.196 5.52898C8.31894 5.13752 8.35796 4.72454 8.3105 4.31698ZM9.196 4.03748C8.99542 3.68347 8.72146 3.37644 8.3925 3.13698V3.12998C8.3365 3.08748 8.3805 2.99298 8.449 3.02098C9.743 3.56298 9.832 4.60648 9.675 5.21848C9.67183 5.23294 9.66324 5.24564 9.651 5.25398C9.63912 5.26237 9.6244 5.26571 9.61007 5.26327C9.59573 5.26083 9.58294 5.25282 9.5745 5.24098C9.56575 5.22902 9.56182 5.2142 9.5635 5.19948C9.52374 4.79068 9.39854 4.3948 9.196 4.03748ZM6.66 4.31698C6.352 4.58898 6.0205 4.69598 5.631 4.81548C5.573 4.81548 5.534 4.77648 5.5535 4.72548C6.427 4.27198 6.738 3.90298 7.0485 3.33998C7.0485 3.33998 7.126 3.28148 7.1425 3.38248C7.1425 3.53398 6.9685 4.04498 6.66 4.31698ZM9.1255 9.91948C9.05467 10.2203 8.89114 10.4912 8.658 10.694C8.48538 10.8664 8.25944 10.9753 8.017 11.003C7.76739 10.9796 7.53361 10.8704 7.3555 10.694C7.1246 10.4903 6.96323 10.2195 6.894 9.91948C6.89175 9.90172 6.89345 9.88368 6.89898 9.86665C6.90451 9.84962 6.91374 9.83403 6.926 9.82098C6.93827 9.80823 6.95331 9.79849 6.96997 9.7925C6.98662 9.78652 7.00442 9.78446 7.022 9.78648H8.999C9.01647 9.78452 9.03415 9.78667 9.05064 9.79275C9.06713 9.79882 9.08198 9.80866 9.094 9.82148C9.10622 9.83444 9.11539 9.84996 9.12084 9.86691C9.12629 9.88387 9.12788 9.90183 9.1255 9.91948ZM6.404 8.83448C6.22345 8.95794 6.00499 9.01343 5.78741 8.9911C5.56983 8.96876 5.3672 8.87005 5.2155 8.71248C5.06104 8.55224 4.96543 8.34438 4.94427 8.12282C4.92311 7.90126 4.97765 7.67906 5.099 7.49248C5.2025 7.33348 5.35 7.20998 5.522 7.13698C5.69372 7.06384 5.88362 7.04466 6.0665 7.08198C6.249 7.11948 6.417 7.21198 6.5485 7.34698C6.6805 7.48198 6.77 7.65498 6.806 7.84198C6.84234 8.02962 6.82358 8.22377 6.752 8.40098C6.68113 8.57641 6.56008 8.72753 6.404 8.83448ZM10.6395 8.83698C10.4587 8.95964 10.2402 9.01429 10.0229 8.99122C9.80565 8.96816 9.60355 8.86887 9.4525 8.71098C9.27658 8.52801 9.17868 8.28381 9.1795 8.02998C9.1795 7.83848 9.2345 7.65098 9.339 7.49198C9.4425 7.33298 9.59 7.20898 9.7625 7.13648C9.93447 7.06357 10.1246 7.04474 10.3075 7.08248C10.4905 7.12048 10.6585 7.21298 10.79 7.34898C10.9215 7.48498 11.01 7.65748 11.046 7.84548C11.0815 8.03336 11.0619 8.22751 10.9895 8.40448C10.918 8.58 10.7963 8.73048 10.6395 8.83698Z" fill="#B2CCD6"/>
</g>
<defs>
<clipPath id="clip0_1399_20">
<rect width="12" height="12" fill="white" transform="translate(2 2)"/>
</clipPath>
</defs>
</svg>
