<svg width="16" height="16" viewBox="0 0 16 16" fill="none" xmlns="http://www.w3.org/2000/svg">
<g id="c">
<path id="path4-path" fill-rule="evenodd" clip-rule="evenodd" d="M11.5109 11.4029L11.8566 13.4943C11.6374 13.6143 11.2832 13.7257 10.811 13.8286C10.3304 13.94 9.76538 14 9.11607 14C7.25248 13.9657 5.85268 13.4 4.91667 12.32C3.97222 11.2314 3.5 9.85143 3.5 8.18C3.54216 6.2 4.10714 4.68286 5.18651 3.62C6.2996 2.54857 7.68254 2 9.35218 2C9.98462 2 10.5327 2.06 10.9881 2.16286C11.4435 2.26571 11.7808 2.37714 12 2.50571L11.5109 4.64L10.6171 4.34857C10.2798 4.26286 9.89187 4.22 9.44494 4.22C8.46677 4.21143 7.65724 4.52857 7.0248 5.16286C6.38393 5.78857 6.05506 6.74857 6.02976 8.02571C6.02976 9.19143 6.34177 10.1 6.94048 10.7686C7.53919 11.4286 8.38244 11.7714 9.46181 11.78L10.5833 11.6771C10.9459 11.6086 11.2495 11.5143 11.5109 11.4029Z" fill="#3965BD"/>
</g>
</svg>
