<svg width="16" height="16" viewBox="0 0 16 16" fill="none" xmlns="http://www.w3.org/2000/svg">
<g id="cabal">
<g id="Group">
<rect id="rect2039" width="5" height="7" rx="1.13029" transform="matrix(-0.852914 0.522052 0.522052 0.852914 9.8051 1.20966)" fill="#89DDFF"/>
<path id="rect2041" fill-rule="evenodd" clip-rule="evenodd" d="M13.0535 11.0213C13.3327 10.5565 13.1822 9.95329 12.7173 9.6741L10.1144 8.11083C9.64956 7.83163 9.04637 7.98215 8.76718 8.44702L6.94647 11.4786C6.66728 11.9434 6.8178 12.5466 7.28267 12.8258L9.88557 14.3891C10.3504 14.6683 10.9536 14.5178 11.2328 14.0529L13.0535 11.0213Z" fill="#C792EA"/>
<path id="path2061" fill-rule="evenodd" clip-rule="evenodd" d="M3.38439 7.76624C3.31506 7.90988 1.98571 8.66382 2.01891 8.83478C2.0521 9.00573 3.64284 9.59793 3.76588 9.7309C3.88892 9.86388 4.37256 11.5136 4.53845 11.5578C4.70434 11.602 5.52697 10.3004 5.67234 10.2389C5.81772 10.1775 7.44597 10.4431 7.5153 10.2995C7.58463 10.1558 6.50231 8.75922 6.46911 8.58827C6.43592 8.41731 6.9586 6.93179 6.83556 6.79881C6.71252 6.66584 5.22097 7.10426 5.05508 7.06005C4.88919 7.01585 3.58397 5.83214 3.4386 5.89359C3.29322 5.95503 3.45372 7.62261 3.38439 7.76624Z" fill="#3965BD"/>
</g>
</g>
</svg>
