<svg width="16" height="16" viewBox="0 0 16 16" fill="none" xmlns="http://www.w3.org/2000/svg">
<g id="changelog">
<g id="time">
<path id="Shape" d="M8 9H5V8H7.5V5.5H8.5V8.5C8.5 8.7765 8.276 9 8 9Z" fill="#C3E88D"/>
<path id="Shape_2" d="M12.5 8.5C12.5 10.9815 10.4815 13 8 13C5.5185 13 3.5 10.9815 3.5 8.5C3.5 6.0185 5.5185 4 8 4C8.9945 4 9.9365 4.325 10.715 4.9165L8.913 6.613L13.4965 7.1045L13.281 2.5L11.4535 4.221C10.4785 3.431 9.2725 3 8 3C4.9675 3 2.5 5.4675 2.5 8.5C2.5 11.5325 4.9675 14 8 14C11.0325 14 13.5 11.5325 13.5 8.5H12.5Z" fill="#6B7394"/>
</g>
</g>
</svg>
