<svg width="16" height="16" viewBox="0 0 16 16" fill="none" xmlns="http://www.w3.org/2000/svg">
<g id="coffee">
<g id="Group 3">
<g id="Vector">
<path d="M8.33728 6.05077C4.42619 6.06677 0.558364 4.95626 3.38377 3.88077C2.20643 4.85513 5.25941 5.50641 8.31918 5.52286C11.3721 5.53928 14.4315 4.92303 13.518 3.98302C15.8582 5.01306 12.0522 6.03558 8.33728 6.05077Z" fill="#F78C6C"/>
<path d="M2.96001 7.54321C2.75153 6.95281 2.5919 6.33518 2.49759 5.69857C3.5833 7.29005 13.1694 7.33265 14.2451 5.69857C14.0293 6.93695 13.643 8.0958 13.0863 9.10695C12.6659 9.74318 12.2456 10.2999 11.8252 10.902C11.6548 11.2542 11.5241 11.6064 11.4559 11.9586C10.5897 13.2925 6.31527 13.4819 5.30382 11.9586C5.22429 11.6064 5.09932 11.2542 4.91754 10.902C4.20344 9.97415 3.47334 8.89988 3.13467 8.00199C2.68443 8.43553 2.58651 8.96549 2.66801 9.55004C2.74079 10.072 3.0202 10.5044 3.44057 10.8111C3.82686 11.1179 4.21314 11.2656 4.66759 11.2656C4.45173 11.3338 4.21314 11.4474 3.99728 11.4815C3.44057 11.5837 2.95204 11.4815 2.49759 11.1293C2.06586 10.7771 1.79319 10.3226 1.75911 9.76591C1.72502 9.20921 1.89544 8.64114 2.28172 8.15261C2.48716 7.89279 2.7126 7.69247 2.96001 7.54321Z" fill="#F78C6C"/>
</g>
<path id="Vector_2" d="M5.84916 3.21536C6.71198 3.14211 6.87334 3.49934 6.57628 3.62436C5.19755 3.16797 4.85671 4.19995 6.16728 4.09018C7.36021 3.98793 7.34885 3.18128 9.09849 3.02222C10.4618 2.89724 11.223 3.31761 11.3253 3.82887C11.4048 4.22651 11.0736 4.59318 10.0869 4.69233C8.79731 4.82191 8.12608 4.0945 9.12121 3.94248C9.16665 4.13562 9.40524 4.34013 9.9733 4.28332C10.3823 4.24924 10.7231 4.10154 10.6777 3.87431C10.6323 3.63573 10.2005 3.49939 9.51885 3.5562C8.13278 3.68117 7.79194 4.44238 6.61037 4.54463C5.07447 4.72304 4.23658 3.38099 5.84916 3.21536Z" fill="#FFCB6B"/>
</g>
</g>
</svg>
