<svg width="16" height="16" viewBox="0 0 16 16" fill="none" xmlns="http://www.w3.org/2000/svg">
<g id="coldfusion">
<path id="Shape" d="M2 8C2 4.68629 4.68629 2 8 2C11.3137 2 14 4.68629 14 8C14 11.3137 11.3137 14 8 14C4.68629 14 2 11.3137 2 8Z" fill="#2B2256" stroke="#C1C9E7"/>
<path id="Cf" d="M7.104 9.76105C8.01221 9.76105 8.66162 9.20929 8.70312 8.37189H7.84131C7.78516 8.78448 7.49951 9.04327 7.10645 9.04327C6.61328 9.04327 6.30566 8.62579 6.30566 7.93488C6.30566 7.25128 6.61572 6.8338 7.104 6.8338C7.49707 6.8338 7.79248 7.10724 7.83643 7.52228H8.69824C8.67139 6.68976 7.99512 6.11603 7.104 6.11603C6.0542 6.11603 5.39258 6.78741 5.39258 7.93732C5.39258 9.08966 6.04932 9.76105 7.104 9.76105ZM9.28174 9.70001H10.1484V7.67853H10.6416V7.06085H10.124V6.94611C10.124 6.7923 10.2241 6.69952 10.4609 6.69952C10.5293 6.69952 10.6025 6.70685 10.6514 6.71417V6.17706C10.5562 6.15753 10.3853 6.14044 10.2314 6.14044C9.53564 6.14044 9.28174 6.38214 9.28174 6.90704V7.06085H8.92773V7.67853H9.28174V9.70001Z" fill="white"/>
</g>
</svg>
