<svg width="16" height="16" viewBox="0 0 16 16" fill="none" xmlns="http://www.w3.org/2000/svg">
<g id="contributing">
<g id="notes">
<path id="Shape" fill-rule="evenodd" clip-rule="evenodd" d="M12.5 3H11.5V5.5H4.5V3H3.5C3.2235 3 3 3.2235 3 3.5V13C3 13.2765 3.2235 13.5 3.5 13.5H12.5C12.7765 13.5 13 13.2765 13 13V3.5C13 3.2235 12.7765 3 12.5 3ZM11 11H5V10H11V11ZM5 8.5H11V7.5H5V8.5Z" fill="#82AAFF"/>
<path id="Shape_2" d="M9 2.5C9 1.9475 8.5525 1.5 8 1.5C7.4475 1.5 7 1.9475 7 2.5H5.5V4.5H10.5V2.5H9Z" fill="#FF9CAC"/>
</g>
</g>
</svg>
