<svg width="16" height="16" viewBox="0 0 16 16" fill="none" xmlns="http://www.w3.org/2000/svg">
<g id="cpp">
<path id="path4" fill-rule="evenodd" clip-rule="evenodd" d="M7.86957 10.2686L8.1013 11.6629C7.95435 11.7429 7.71696 11.8171 7.40043 11.8857C7.07826 11.96 6.69956 12 6.26435 12C5.01522 11.9771 4.07696 11.6 3.44957 10.88C2.81652 10.1543 2.5 9.23429 2.5 8.12C2.52826 6.8 2.90696 5.78857 3.63043 5.08C4.37652 4.36571 5.30348 4 6.42261 4C6.84652 4 7.21391 4.04 7.51913 4.10857C7.82435 4.17714 8.05044 4.25143 8.19739 4.33714L7.86957 5.76L7.27043 5.56571C7.04435 5.50857 6.78435 5.48 6.48478 5.48C5.82913 5.47429 5.28652 5.68571 4.86261 6.10857C4.43304 6.52571 4.21261 7.16571 4.19565 8.01714C4.19565 8.79429 4.40478 9.4 4.80609 9.84571C5.20739 10.2857 5.77261 10.5143 6.49609 10.52L7.24783 10.4514C7.49087 10.4057 7.69435 10.3429 7.86957 10.2686ZM7.15218 7.42856H8.28261V6.28571H9.41305V7.42856H10.5435V8.57142H9.41305V9.71428H8.28261V8.57142H7.15218V7.42856ZM12.2391 7.42856H11.1087V8.57142H12.2391V9.71428H13.3696V8.57142H14.5V7.42856H13.3696V6.28571H12.2391V7.42856Z" fill="#3965BD"/>
</g>
</svg>
