<svg width="16" height="16" viewBox="0 0 16 16" fill="none" xmlns="http://www.w3.org/2000/svg">
<path d="M13.9818 9.63622L9.63868 13.9792C9.62131 13.9966 9.59525 14.0053 9.57788 13.9966L3.64512 12.4039C3.61906 12.3952 3.60169 12.3778 3.60169 12.3604L2.00341 6.4247C1.99472 6.39859 2.00341 6.38118 2.02078 6.36378L6.36394 2.02082C6.38131 2.00341 6.40737 1.99471 6.42475 2.00341L12.3575 3.59612C12.3836 3.60482 12.4009 3.62223 12.4009 3.63964L13.9905 9.5753C14.0079 9.60141 13.9992 9.61882 13.9818 9.63622ZM8.16201 4.91032L2.33349 6.46822C2.3248 6.46822 2.31612 6.48562 2.3248 6.49433L6.58979 10.759C6.59847 10.7677 6.61584 10.7677 6.61584 10.7502L8.17938 4.91903C8.18807 4.91903 8.1707 4.90162 8.16201 4.91032Z" fill="#B2CCD6"/>
</svg>
