<svg width="16" height="16" viewBox="0 0 16 16" fill="none" xmlns="http://www.w3.org/2000/svg">
<g id="css">
<path id="Vector" d="M3.80077 2.00002C3.37577 2.00002 3 2.358 3 2.77614L3.88672 10.6043C3.92682 10.9173 4.07847 11.0925 4.3515 11.2498L7.711 12.9246C7.92166 13.0165 8.14422 13.0334 8.38675 12.9246L11.7382 11.2498C12.0131 11.1104 12.1768 10.8211 12.164 10.5171L13 2.75431C13 2.36152 12.6515 2 12.2265 2L3.80077 2.00002ZM6.28128 7.91174C6.27985 8.53654 6.27393 8.71843 6.41015 8.85799C6.54969 8.96399 6.79913 8.98069 7.19928 8.97684V9.57871H6.52352C5.91018 9.56524 5.2175 9.47936 5.21878 8.58886C5.2188 8.04912 5.25457 7.71343 5.05078 7.51577C4.89014 7.36514 4.54108 7.34022 4.25003 7.35739V6.75945C4.6498 6.77166 4.92362 6.7229 5.05078 6.605C5.45575 6.2295 4.91321 5.22116 5.53128 4.74797C5.85607 4.48458 6.43717 4.5028 7.19928 4.51039V5.11225C6.79643 5.10213 6.4993 5.13574 6.41015 5.2311C6.12266 5.51623 6.44634 6.31974 6.14065 6.78328C6.04715 6.91011 5.8849 6.99589 5.65628 7.04062C6.15268 7.1347 6.28515 7.42742 6.28128 7.91174ZM10.3438 7.04062C10.1152 6.99589 9.9529 6.91011 9.8594 6.78328C9.55371 6.31974 9.87739 5.51623 9.5899 5.2311C9.50075 5.13574 9.20362 5.10213 8.80078 5.11225V4.51039C9.56288 4.5028 10.144 4.48458 10.4688 4.74797C11.0868 5.22116 10.5443 6.2295 10.9493 6.605C11.0764 6.7229 11.3503 6.77166 11.75 6.75945V7.35739C11.459 7.34022 11.1099 7.36514 10.9493 7.51577C10.7455 7.71343 10.7813 8.04912 10.7813 8.58886C10.7826 9.47936 10.0899 9.56524 9.47653 9.57871H8.80078L8.80078 8.97684C9.20092 8.98069 9.45036 8.96399 9.5899 8.85799C9.72612 8.71843 9.7202 8.53654 9.71878 7.91174C9.7149 7.42742 9.84737 7.1347 10.3438 7.04062Z" fill="#89DDFF"/>
</g>
</svg>
