<svg width="16" height="16" viewBox="0 0 16 16" fill="none" xmlns="http://www.w3.org/2000/svg">
<path d="M6.47729 6.38731V5.66451C6.54714 5.65933 6.61743 5.65587 6.689 5.65328C8.65057 5.59154 9.938 7.3519 9.938 7.3519C9.938 7.3519 8.54771 9.29534 7.05714 9.29534C6.86007 9.2963 6.66418 9.26464 6.47729 9.20164V7.01209C7.241 7.10492 7.39443 7.44387 7.85386 8.21589L8.87514 7.34845C8.62995 7.05044 8.32457 6.80848 7.97932 6.63866C7.63408 6.46884 7.25689 6.37506 6.87286 6.36356C6.74067 6.36433 6.60863 6.37225 6.47729 6.38731ZM6.47729 4V5.07945C6.54757 5.07383 6.61829 5.06908 6.689 5.06649C9.41729 4.97409 11.1946 7.32081 11.1946 7.32081C11.1946 7.32081 9.15286 9.82168 7.02629 9.82168C6.84224 9.82164 6.65855 9.80545 6.47729 9.77332V10.4404C6.62895 10.46 6.78167 10.4699 6.93457 10.4702C8.91371 10.4702 10.3451 9.45207 11.7311 8.24655C11.9604 8.43221 12.9016 8.88299 13.0949 9.08074C11.777 10.1921 8.70586 11.0881 6.96629 11.0881C6.79829 11.0881 6.63671 11.0777 6.47857 11.0622V12H14V4H6.47729ZM6.47729 9.20337V9.77332C4.64686 9.4443 4.13857 7.52807 4.13857 7.52807C4.76861 6.89377 5.5926 6.49216 6.47729 6.38817V7.01295H6.47471C6.2153 7.00975 5.95841 7.06447 5.72247 7.17317C5.48654 7.28186 5.27742 7.44184 5.11014 7.64162C5.11014 7.64162 5.44529 8.85535 6.47729 9.20466M3.22614 7.4443C3.61332 6.93395 4.10302 6.51164 4.66324 6.20495C5.22346 5.89827 5.84161 5.71411 6.47729 5.66451V5.07945C4.07771 5.27332 2 7.32081 2 7.32081C2 7.32081 3.17686 10.7487 6.47729 11.0622V10.4404C4.05714 10.1334 3.22614 7.4443 3.22614 7.4443Z" fill="#AEE33E"/>
</svg>
