<svg width="16" height="16" viewBox="0 0 16 16" fill="none" xmlns="http://www.w3.org/2000/svg">
<g id="dart">
<g id="dart_2">
<path id="Shape" d="M8.32492 2.30799C8.19113 2.30799 8.057 2.36014 7.95354 2.46114C7.95196 2.46268 7.95 2.46339 7.94842 2.46496L4.47064 4.47503L7.93949 7.94388V7.94644L12.109 12.1159L12.904 10.684L10.0376 3.80245L8.70016 2.46496C8.59608 2.36089 8.46077 2.30798 8.32494 2.30798L8.32492 2.30799Z" fill="#2ECC71"/>
<path id="Shape_2" d="M4.47895 4.46698L2.46965 7.94171C2.46808 7.94329 2.46739 7.94525 2.46582 7.94683C2.36481 8.05028 2.31237 8.18557 2.31235 8.31935C2.31232 8.45518 2.36494 8.58933 2.469 8.69343L4.13434 10.3604L10.6473 12.9224L12.1195 12.1043L12.08 12.0648L12.0698 12.0661L7.98681 7.97598L7.98169 7.97597L4.47892 4.46705L4.47895 4.46698Z" fill="#3965BD"/>
<path id="Shape_3" d="M4.46986 4.46863L8.01852 8.02099L8.02364 8.021L12.108 12.1097L13.6626 11.8131L13.665 7.21356L12.0233 5.60463C11.6638 5.2522 11.1112 5.02509 10.556 4.95045L10.5573 4.93258L4.47014 4.46867L4.46986 4.46863Z" fill="#3965BD"/>
<path id="Shape_4" d="M4.47449 4.4727L8.025 8.02322V8.02833L12.1115 12.1148L11.8141 13.6693H7.21457L5.60651 12.0267C5.25426 11.667 5.02746 11.1143 4.95309 10.559L4.93523 10.5603L4.4745 4.4726L4.47449 4.4727Z" fill="#2ECC71"/>
</g>
</g>
</svg>
