<svg width="16" height="16" viewBox="0 0 16 16" fill="none" xmlns="http://www.w3.org/2000/svg">
<path d="M8.2558 7.94546C8.28255 6.99736 7.53516 5.63728 4.72199 5.7639L3.48382 5.76569L3.48382 10.2307L4.76437 10.2289C6.25911 10.2232 8.15495 9.92676 8.2558 7.94546ZM13.6634 3H2.33663C1.59821 3 1 3.63539 1 4.4198V11.5802C1 12.364 1.59821 13 2.33663 13H13.6634C14.4018 13 15 12.364 15 11.5802V4.4198C15 3.63539 14.4018 3 13.6634 3ZM9.41234 5.43429C10.7655 4.41007 12.1508 5.08888 12.653 6.02727C13.1528 6.96117 12.5525 8.53476 10.6817 8.49323C10.4336 9.80471 9.10287 11.7576 5.31272 11.6046L2.62389 11.6046C2.44102 11.5846 2.31729 11.5065 2.32728 11.2971L2.31856 4.65346C2.31918 4.52352 2.42947 4.41563 2.5703 4.39894L5.4791 4.39477C7.324 4.40222 8.40268 4.66849 9.41234 5.43429ZM12.7818 5.26756C12.3495 5.04893 12.3495 4.4994 12.7818 4.28077C13.2141 4.06215 13.7575 4.33691 13.7575 4.77417C13.7575 5.21142 13.2141 5.48619 12.7818 5.26756Z" fill="#FC8289"/>
</svg>
