<svg width="16" height="16" viewBox="0 0 16 16" fill="none" xmlns="http://www.w3.org/2000/svg">
<path fill-rule="evenodd" clip-rule="evenodd" d="M7.54228 4H8.53197V4.98969H7.54228V4ZM12.2812 7.32311C11.8692 6.92917 11.7564 5.75576 12.2812 5.2361L12.4373 5.06009L12.5935 5.21096C13.0966 5.59651 13.3829 6.03235 13.4523 6.51848C14.1522 6.31286 14.6663 6.44739 15.1959 6.76992C14.8525 7.46312 14.3234 7.89784 13.14 7.85114C12.0686 10.4297 9.76555 11.9749 6.34774 12C4.54342 12 3.2509 11.3714 2.47018 10.0639C2.03632 9.2936 1.9445 8.73864 2.02777 7.67513H3.17282L3.40704 7.70027H4.57812H4.76028H5.93136H6.11353H7.28461H7.46677H8.61183H8.79399H9.96507L10.1993 7.67513C11.1268 7.70112 11.7031 7.64575 12.2812 7.32311ZM4.47423 6.63917H3.48454V7.62886H4.47423V6.63917ZM4.84536 6.63917H5.83506V7.62886H4.84536V6.63917ZM7.19588 6.63917H6.20619V7.62886H7.19588V6.63917ZM7.54228 6.63917H8.53197V7.62886H7.54228V6.63917ZM5.83506 5.31959H4.84536V6.30928H5.83506V5.31959ZM6.20619 5.31959H7.19588V6.30928H6.20619V5.31959ZM8.53197 5.31959H7.54228V6.30928H8.53197V5.31959ZM9.8763 6.63917H8.88661V7.62886H9.8763V6.63917Z" fill="#3965BD"/>
</svg>
