<?xml version="1.0" encoding="UTF-8"?>
<svg width="32px" height="32px" viewBox="0 0 32 32" version="1.1" xmlns="http://www.w3.org/2000/svg" xmlns:xlink="http://www.w3.org/1999/xlink">
    <title>dvc</title>
    <g id="dvc" stroke="none" stroke-width="1" fill="none" fill-rule="evenodd">
        <g transform="translate(4.000000, 10.000000)">
            <path d="M-1.5158245e-13,11.056 L-1.5158245e-13,0.464 L-1.5158245e-13,-7.57912251e-14 L3.904,-7.57912251e-14 C5.45066667,-7.57912251e-14 6.77333333,0.546666667 7.872,1.64 C8.97066667,2.73333333 9.52,4.048 9.52,5.584 C9.52,7.13066667 8.97066667,8.45333333 7.872,9.552 C6.77333333,10.6506667 5.45066667,11.2 3.904,11.2 L0.288,11.2 C0.151720429,11.2 -1.5158245e-13,11.2 -1.5158245e-13,11.2 C-1.5158245e-13,11.2 -1.5158245e-13,11.152 -1.5158245e-13,11.056 Z M2.496,8.992 L4.032,8.992 C4.928,8.992 5.672,8.68 6.264,8.056 C6.856,7.432 7.152,6.66133333 7.152,5.744 C7.152,4.83733333 6.856,4.072 6.264,3.448 C5.672,2.824 4.928,2.512 4.032,2.512 L2.496,2.512 L2.496,8.992 Z" id="Shape" fill="#13ADC7" fill-rule="nonzero"></path>
            <path d="M11.414,14.0106667 L6.422,3.24266667 C6.36866667,3.136 6.37133333,3.04 6.43,2.95466667 C6.48866667,2.86933333 6.57666667,2.82666667 6.694,2.82666667 L8.822,2.82666667 C8.96066667,2.82666667 9.05133333,2.88533333 9.094,3.00266667 L11.734,8.84266667 L11.83,8.84266667 L14.47,3.00266667 C14.5126667,2.88533333 14.6033333,2.82666667 14.742,2.82666667 L16.87,2.82666667 C16.9873333,2.82666667 17.0753333,2.86933333 17.134,2.95466667 C17.1926667,3.04 17.1953333,3.136 17.142,3.24266667 L12.118,14.0106667 C12.054,14.128 11.9633333,14.1866667 11.846,14.1866667 L11.686,14.1866667 C11.5686667,14.1866667 11.478,14.128 11.414,14.0106667 L11.414,14.0106667 Z" id="Path" fill="#8251A8"></path>
            <path d="M15.464,9.856 C14.344,8.736 13.784,7.376 13.784,5.776 C13.784,4.176 14.3466667,2.81333333 15.472,1.688 C16.5973333,0.562666667 17.96,0 19.56,0 C21.0533333,0 22.344,0.496 23.432,1.488 C23.592,1.63733333 23.5973333,1.78666667 23.448,1.936 L22.2,3.232 C22.0613333,3.36 21.928,3.36 21.8,3.232 C21.192,2.688 20.472,2.416 19.64,2.416 C18.744,2.416 17.9973333,2.73866667 17.4,3.384 C16.8026667,4.02933333 16.504,4.80533333 16.504,5.712 C16.504,6.608 16.8053333,7.37333333 17.408,8.008 C18.0106667,8.64266667 18.76,8.96 19.656,8.96 C20.488,8.96 21.2026667,8.704 21.8,8.192 C21.9493333,8.064 22.088,8.06933333 22.216,8.208 L23.464,9.536 C23.6026667,9.67466667 23.5973333,9.81866667 23.448,9.968 C22.3813333,11.0026667 21.0853333,11.52 19.56,11.52 C17.96,11.52 16.5946667,10.9653333 15.464,9.856 L15.464,9.856 Z" id="Path" fill="#EE9D5C"></path>
        </g>
    </g>
</svg>