<svg width="16" height="16" viewBox="0 0 16 16" fill="none" xmlns="http://www.w3.org/2000/svg">
<g id="elixir-lock">
<path id="Subtract" fill-rule="evenodd" clip-rule="evenodd" d="M4.5 9.21737C4.5 11.6665 6.16928 13.6518 8.22843 13.6518C8.4822 13.6518 8.72725 13.6233 8.96187 13.5688V10.9193C8.96187 10.4314 9.35481 10.0323 9.83507 10.0323H10.2717H10.6209V9.71765C10.6209 9.05028 10.9116 8.45146 11.3713 8.0448C10.9834 7.31763 10.3437 6.5996 9.58262 5.99193C8.16146 4.85717 8.68537 2 8.68537 2C8.68537 2 7.66309 2.5595 7.12211 3.26644C5.97955 4.75952 4.5 7.21101 4.5 9.21737Z" fill="#5654BC"/>
<g id="ic_lock_24px">
<path id="Shape" fill-rule="evenodd" clip-rule="evenodd" d="M15.25 10.6667H14.875V9.90476C14.875 8.85333 14.035 8 13 8C11.965 8 11.125 8.85333 11.125 9.90476V10.6667H10.75C10.3375 10.6667 10 11.0095 10 11.4286V15.2381C10 15.6571 10.3375 16 10.75 16H15.25C15.6625 16 16 15.6571 16 15.2381V11.4286C16 11.0095 15.6625 10.6667 15.25 10.6667ZM13 14.0952C12.5875 14.0952 12.25 13.7524 12.25 13.3333C12.25 12.9143 12.5875 12.5714 13 12.5714C13.4125 12.5714 13.75 12.9143 13.75 13.3333C13.75 13.7524 13.4125 14.0952 13 14.0952ZM11.8375 9.90477V10.6667H14.1625V9.90477C14.1625 9.25334 13.6412 8.72381 13 8.72381C12.3587 8.72381 11.8375 9.25334 11.8375 9.90477Z" fill="#FFCB6B"/>
</g>
</g>
</svg>
