<svg width="16" height="16" viewBox="0 0 16 16" fill="none" xmlns="http://www.w3.org/2000/svg">
<path d="M2.17875 2.93665H1C0.447715 2.93665 0 3.38436 0 3.93665V12.0623C0 12.6146 0.447715 13.0623 1 13.0623H2.50906C1.26712 11.7464 0.542315 9.92849 0.54221 7.75912C0.542116 5.84102 1.14255 4.19144 2.17875 2.93665ZM13.979 13.0633C14.5143 12.4906 14.9933 11.8155 15.4278 11.044L13.0173 9.83848C12.1708 11.2149 10.9326 12.4815 9.22077 12.4901C6.72886 12.4815 5.74999 10.3512 5.75535 7.60856H15.0661C15.0785 7.29888 15.0661 7.00581 15.0661 7.00581C15.1267 5.37436 14.6943 4.00446 13.9078 2.93665H15C15.5523 2.93665 16 3.38436 16 3.93665V12.0631C16 12.6152 15.5524 13.0629 15.0003 13.0631L13.979 13.0633ZM5.9059 5.2581C6.00877 4.01669 6.98818 3.18141 8.13582 3.17873C9.2915 3.18141 10.1262 4.01616 10.1546 5.2581H5.9059Z" fill="#FC8289"/>
</svg>
