<svg width="16" height="16" viewBox="0 0 16 16" fill="none" xmlns="http://www.w3.org/2000/svg">
<g id="eslint">
<g id="eslint_2">
<path id="Shape" d="M5.67571 6.82419L7.93577 5.52075C7.99233 5.48812 8.06204 5.48812 8.1186 5.52075L10.3787 6.82419C10.4352 6.85682 10.4701 6.91709 10.4701 6.98235V9.58922C10.4701 9.65444 10.4352 9.71476 10.3787 9.74744L8.1186 11.0509C8.06204 11.0835 7.99233 11.0835 7.93577 11.0509L5.67571 9.74744C5.61915 9.71481 5.58429 9.65449 5.58429 9.58922V6.98235C5.58434 6.91709 5.61919 6.85682 5.67571 6.82419Z" fill="#9883EC"/>
<path id="Shape_2" fill-rule="evenodd" clip-rule="evenodd" d="M11.2032 3.31895L13.9036 8.01164L13.9036 8.01173C14.0018 8.18141 14.0018 8.38036 13.9036 8.54999L11.2032 13.2119C11.1052 13.3816 10.9239 13.4658 10.7278 13.4658H5.32685C5.13067 13.4658 4.94942 13.379 4.85133 13.2093L2.15099 8.55502C2.0529 8.3853 2.0529 8.1711 2.15099 8.00138L4.85133 3.31895C4.94942 3.14927 5.13067 3.02411 5.32685 3.02411H10.7278C10.9239 3.02411 11.1051 3.14927 11.2032 3.31895ZM11.5661 10.4357C11.626 10.4011 11.6676 10.3373 11.6676 10.2683V6.30353C11.6676 6.2345 11.6255 6.17073 11.5656 6.13619L8.12304 4.15381C8.06321 4.11927 7.98836 4.11927 7.92854 4.15381L4.48903 6.13619C4.42916 6.17073 4.38791 6.2345 4.38791 6.30353V10.2683C4.38791 10.3374 4.42976 10.4011 4.48959 10.4357L7.9319 12.4181C7.99172 12.4526 8.06667 12.4526 8.12649 12.4181L11.5661 10.4357Z" fill="#3965BD"/>
</g>
</g>
</svg>
