<svg width="16" height="16" viewBox="0 0 16 16" fill="none" xmlns="http://www.w3.org/2000/svg">
<g id="favicon">
<g id="shape-star">
<path id="Shape" d="M13.572 6.2705L10.0315 5.756L8.45 2.55C8.35645 2.39115 8.18585 2.29364 8.0015 2.29364C7.81715 2.29364 7.64656 2.39115 7.553 2.55L5.9685 5.756L2.428 6.2705C2.23966 6.29769 2.08307 6.42944 2.02407 6.61036C1.96507 6.79128 2.01389 6.99001 2.15 7.123L4.7125 9.62L4.108 13.1465C4.07586 13.3341 4.153 13.5236 4.30697 13.6355C4.46094 13.7473 4.66506 13.7621 4.8335 13.6735L8 12.009L11.1665 13.6735C11.3349 13.7621 11.5391 13.7473 11.693 13.6355C11.847 13.5236 11.9241 13.3341 11.892 13.1465L11.2875 9.62L13.85 7.123C13.9861 6.99015 14.035 6.7916 13.9762 6.61074C13.9175 6.42987 13.7612 6.298 13.573 6.2705H13.572Z" fill="#FFCB6B"/>
</g>
</g>
</svg>
