<svg width="16" height="16" viewBox="0 0 16 16" fill="none" xmlns="http://www.w3.org/2000/svg">
<g id="firebase">
<g id="firebase_2">
<path id="Path" fill-rule="evenodd" clip-rule="evenodd" d="M3.94501 9.83649L5.12751 2.23049C5.14506 2.11485 5.23484 2.02352 5.35016 2.00398C5.46548 1.98443 5.58033 2.04109 5.63501 2.14449L6.90651 4.52999L3.94501 9.83649Z" fill="#AC4142"/>
<path id="Path_2" fill-rule="evenodd" clip-rule="evenodd" d="M12.3425 11.682L11.2165 4.68248C11.1996 4.58247 11.1284 4.5002 11.0318 4.46917C10.9353 4.43814 10.8295 4.46352 10.7575 4.53498L3.6575 11.682L7.586 13.896C7.83239 14.0344 8.13311 14.0344 8.3795 13.896L12.3425 11.682Z" fill="#FFCB6B"/>
<path id="Path_3" fill-rule="evenodd" clip-rule="evenodd" d="M9.15001 5.57397L8.24001 3.83297C8.19322 3.74374 8.10078 3.68784 8.00001 3.68784C7.89925 3.68784 7.80681 3.74374 7.76001 3.83297L3.76501 10.992L9.15001 5.57397Z" fill="#F78C6C"/>
</g>
</g>
</svg>
