<svg width="16" height="16" viewBox="0 0 16 16" fill="none" xmlns="http://www.w3.org/2000/svg">
<path opacity="0.8" fill-rule="evenodd" clip-rule="evenodd" d="M2.4 2H6.6L8 3.375H13.6C14.37 3.375 15 3.99375 15 4.75V5.5843C14.8867 5.56197 14.7696 5.55026 14.6498 5.55026L8.35016 5.55026C7.3561 5.55026 6.55025 6.35611 6.55025 7.35017L6.55025 13H2.4C1.63 13 1 12.3813 1 11.625L1.007 3.375C1.007 2.61875 1.63 2 2.4 2Z" fill="#4A616C"/>
<path d="M10.15 8.8C11.1 7.85 12.7 7.85 13.65 8.8C14 9.15001 14.25 9.65001 14.35 10.15L15.35 10C15.25 9.25001 14.9 8.6 14.4 8.1C13.05 6.75 10.85 6.75 9.45 8.1L8.35 7L8 10.2L11.2 9.85001L10.15 8.8Z" fill="#C3E88D"/>
<path d="M15.8 10.9L12.6 11.25L13.65 12.3C12.7 13.25 11.1 13.25 10.15 12.3C9.79999 11.95 9.54998 11.45 9.44998 10.95L8.44998 11.1C8.54998 11.85 8.89998 12.5 9.39998 13C10.1 13.7 10.95 14 11.85 14C12.75 14 13.65 13.65 14.3 13L15.4 14.1L15.8 10.9Z" fill="#FC8289"/>
</svg>
