<svg width="16" height="16" viewBox="0 0 16 16" fill="none" xmlns="http://www.w3.org/2000/svg">
<g clip-path="url(#clip0)">
<path opacity="0.8" fill-rule="evenodd" clip-rule="evenodd" d="M14.9167 6.66667H9.08332C7.79466 6.66667 6.74999 7.71134 6.74999 9V14.6H2.31666C1.94535 14.6 1.58926 14.4525 1.32671 14.1899C1.06416 13.9274 0.916656 13.5713 0.916656 13.2V3.4C0.916656 3.0287 1.06416 2.6726 1.32671 2.41005C1.58926 2.1475 1.94535 2 2.31666 2H5.81666L7.21666 4.1H13.5167C13.888 4.1 14.2441 4.2475 14.5066 4.51005C14.7692 4.7726 14.9167 5.1287 14.9167 5.5L14.9167 6.66667Z" fill="#434F65"/>
<rect opacity="0.1" x="7.91666" y="7.83331" width="8.16667" height="8.16667" rx="1.16667" fill="#252D3A"/>
<rect x="9.08331" y="9" width="2.33333" height="2.33333" rx="1.16667" fill="#697DA5"/>
<rect x="12.5833" y="9" width="2.33333" height="2.33333" rx="1.16667" fill="#697DA5"/>
<rect x="12.5833" y="12.5" width="2.33333" height="2.33333" rx="1.16667" fill="#697DA5"/>
<rect x="9.08331" y="12.5" width="2.33333" height="2.33333" rx="1.16667" fill="#697DA5"/>
</g>
<defs>
<clipPath id="clip0">
<rect width="16" height="16" fill="white"/>
</clipPath>
</defs>
</svg>
