<svg width="16" height="16" viewBox="0 0 16 16" fill="none" xmlns="http://www.w3.org/2000/svg">
<path fill-rule="evenodd" clip-rule="evenodd" d="M8 3.375H13.6C14.37 3.375 15 3.99375 15 4.75V7.00001L13.6 5.60001V4.75H12.7496C12.0528 4.0774 10.9472 4.0774 10.2504 4.75H2.4V11.625H5.64025C5.68122 11.676 5.72538 11.7254 5.77273 11.7727L7 13H2.4C1.63 13 1 12.3813 1 11.625L1.007 3.375C1.007 2.61875 1.63 2 2.4 2H6.6L8 3.375Z" fill="#80CBC4"/>
<path d="M15.8303 10.0991L11.9007 6.16975C11.6745 5.94342 11.3075 5.94342 11.0811 6.16975L10.2652 6.98579L11.3002 8.02089C11.5408 7.93964 11.8166 7.99413 12.0083 8.1859C12.201 8.37882 12.2551 8.65699 12.1719 8.89841L13.1694 9.89599C13.4108 9.81282 13.6893 9.86658 13.882 10.0597C14.1514 10.329 14.1514 10.7655 13.882 11.0349C13.6125 11.3044 13.176 11.3044 12.9064 11.0349C12.7038 10.8321 12.6537 10.5345 12.7563 10.2849L11.826 9.35446L11.8259 11.8028C11.8916 11.8353 11.9536 11.8787 12.0083 11.9332C12.2777 12.2025 12.2777 12.6389 12.0083 12.9087C11.7389 13.178 11.3022 13.178 11.0331 12.9087C10.7637 12.6389 10.7637 12.2025 11.0331 11.9332C11.0997 11.8667 11.1766 11.8164 11.2589 11.7827V9.31168C11.1766 9.27808 11.0997 9.22813 11.0331 9.1612C10.829 8.95729 10.7799 8.65781 10.8845 8.40722L9.86417 7.38668L7.16979 10.081C6.9434 10.3075 6.9434 10.6745 7.16979 10.9009L11.0994 14.8302C11.3256 15.0566 11.6925 15.0566 11.9191 14.8302L15.8303 10.9191C16.0566 10.6927 16.0566 10.3255 15.8303 10.0991Z" fill="#FC8289"/>
</svg>
