<svg width="16" height="16" viewBox="0 0 16 16" fill="none" xmlns="http://www.w3.org/2000/svg">
<path opacity="0.8" fill-rule="evenodd" clip-rule="evenodd" d="M2.40001 2H6.60001L8.00001 3.375H13.6C14.37 3.375 15 3.99375 15 4.75V5.26756C14.7058 5.09739 14.3643 5 14 5H7.00001C5.89544 5 5.00001 5.89543 5.00001 7V13H2.40001C1.63001 13 1.00001 12.3813 1.00001 11.625L1.00701 3.375C1.00701 2.61875 1.63001 2 2.40001 2Z" fill="#4A616C"/>
<mask id="mask0" mask-type="alpha" maskUnits="userSpaceOnUse" x="6" y="6" width="10" height="8">
<rect x="6" y="6" width="10" height="8" rx="1.6" fill="#00B6C2"/>
</mask>
<g mask="url(#mask0)">
<rect x="6" y="6" width="10" height="8" fill="#80CBC4"/>
<path d="M13.85 10L8 15L16.55 14.6429L17 11.4286L13.85 10Z" fill="#343944"/>
<path d="M8.91666 10.1667C9.60702 10.1667 10.1667 9.60704 10.1667 8.91669C10.1667 8.22633 9.60702 7.66669 8.91666 7.66669C8.22631 7.66669 7.66666 8.22633 7.66666 8.91669C7.66666 9.60704 8.22631 10.1667 8.91666 10.1667Z" fill="white"/>
</g>
</svg>
