<svg width="16" height="16" viewBox="0 0 16 16" fill="none" xmlns="http://www.w3.org/2000/svg">
<path opacity="0.8" fill-rule="evenodd" clip-rule="evenodd" d="M2.4 2H6.6L8 3.375H13.6C14.37 3.375 15 3.99375 15 4.75V5.26756C14.7058 5.09739 14.3643 5 14 5H7C5.89543 5 5 5.89543 5 7V13H2.4C1.63 13 1 12.3813 1 11.625L1.007 3.375C1.007 2.61875 1.63 2 2.4 2Z" fill="#4A616C"/>
<g clip-path="url(#clip0)">
<path d="M9.95308 11.0901L9.09628 11.5606C8.6016 11.0759 8.13489 10.8403 7.86302 10.4733C7.51619 10.0051 7.62739 9.39033 8.39412 8.78328C10.0634 7.51194 11.6857 7.46367 12.0802 7.95986C12.4428 8.4159 11.8178 9.40558 10.7573 9.76165C10.107 9.9815 9.48641 9.9903 9.16584 9.62743C9.12267 9.56762 9.05605 9.62092 9.07846 9.67715C9.28983 10.3101 10.2596 10.2676 10.9869 10.0919C12.3428 9.76427 13.3595 8.02441 12.1176 7.34532C10.3033 6.49596 7.13911 8.42913 7.00416 9.78896C6.92728 10.5635 7.93131 11.1112 8.76949 11.7411C8.10963 12.0936 7.62697 12.4205 7.46259 12.7011C7.2956 12.9649 7.23639 13.246 7.36085 13.5461C7.59618 14.0768 8.41627 13.8283 8.7212 13.6113C9.2062 13.2663 9.58586 12.5843 9.26184 11.7917L9.75591 11.5074L9.76338 11.5138C9.75447 11.5431 9.74499 11.5724 9.73665 11.6023C9.58265 12.0991 9.63169 12.5684 9.87289 12.9146C9.97546 13.0619 10.2002 13.0777 10.3289 12.9644C10.4603 12.8485 10.5646 12.5623 10.7314 12.205C10.6894 12.5788 10.7212 12.8901 10.9438 12.9135C11.0824 12.9281 11.2085 12.7955 11.3137 12.6192C11.5907 12.1552 11.8514 11.5806 12.1105 10.9642C12.1619 11.2187 12.2424 11.4526 12.3553 11.6632C12.3832 11.719 12.38 11.7552 12.3412 11.8018L11.8604 12.3927C11.6295 12.6619 11.7105 12.8012 12.0202 12.7819C12.4587 12.7425 12.9986 12.4579 12.8733 11.8725C12.8258 11.6538 12.7661 11.6226 12.8141 11.5652C12.9992 11.3011 13.1767 10.9781 13.3236 10.6916C13.3713 10.9396 13.4452 11.1861 13.5737 11.4028C13.2647 11.6806 13.0395 11.9727 13.0515 12.3053C13.069 12.4369 13.1768 12.5223 13.3061 12.4924C13.6472 12.4407 14.0386 12.1268 14.0864 11.8839C14.1136 11.7458 14.1045 11.6101 14.029 11.4008C15.412 10.938 16.2394 11.9723 15.573 12.4272C15.546 12.4427 15.5184 12.4591 15.5044 12.4777C15.4831 12.5059 15.4926 12.5387 15.533 12.5384C15.5986 12.5379 15.6509 12.5059 15.6988 12.4777C16.3582 12.089 15.877 11.0114 14.8177 10.9947C14.5053 10.9886 14.2131 11.0482 13.9246 11.1798C13.7424 10.8794 13.6823 10.6035 13.7329 10.3793C13.7582 10.2738 13.7916 10.1701 13.8226 10.0657C13.8366 10.0124 13.8321 9.96336 13.7197 9.93928C13.5938 9.92117 13.4699 9.93152 13.3481 9.96687C13.2578 9.99164 13.2698 10.0513 13.24 10.1318C13.1695 10.4957 12.9031 10.904 12.6534 11.337C12.5647 11.1783 12.4904 10.9885 12.5071 10.7429C12.5155 10.6196 12.5688 10.4588 12.6108 10.3276C12.6306 10.2726 12.6122 10.2362 12.5088 10.2074C12.3322 10.1832 12.1596 10.2155 12.0868 10.2602C12.0296 10.2955 12.0146 10.5015 11.9386 10.6705C11.6258 11.3573 11.2863 12.1831 11.143 12.3815C11.0556 12.3301 11.2188 11.7592 11.3548 11.2447C11.4026 11.0909 11.2108 10.995 11.0605 11.1039C11.2058 10.3277 10.5339 10.3776 10.0074 11.0433C9.99274 11.0619 9.97349 11.0789 9.95308 11.0901ZM8.99267 12.377C8.96863 12.6975 8.82381 12.9572 8.5864 13.1673C7.97385 13.658 7.61735 13.3411 7.92562 12.8112C8.05519 12.5384 8.4886 12.2601 8.9497 11.9814C8.98534 12.1136 9.00265 12.2439 8.99267 12.377ZM10.1324 12.4749C9.95662 12.0538 10.1906 11.2579 10.5978 10.9625C10.7466 10.875 10.8123 10.8973 10.8008 10.9842C10.7839 11.0865 10.7627 11.189 10.7328 11.2881C10.6294 11.6313 10.4969 11.9641 10.3535 12.2921C10.2476 12.5164 10.1721 12.5686 10.1324 12.4749ZM12.034 12.5557C12.1817 12.3832 12.3292 12.211 12.4772 12.038C12.4956 12.2303 12.1691 12.614 12.034 12.5557ZM13.3391 12.2604C13.3146 12.2658 13.3046 12.2488 13.3188 12.178C13.3785 11.9667 13.4894 11.7838 13.6637 11.6319C13.7448 11.8536 13.6559 12.1418 13.3391 12.2604Z" fill="#FF9CAC"/>
</g>
<defs>
<clipPath id="clip0">
<rect width="9" height="9" fill="white" transform="translate(7 6)"/>
</clipPath>
</defs>
</svg>
