<svg width="16" height="16" viewBox="0 0 16 16" fill="none" xmlns="http://www.w3.org/2000/svg">
<path opacity="0.8" fill-rule="evenodd" clip-rule="evenodd" d="M2.4 2H6.6L8 3.375H13.6C14.37 3.375 15 3.99375 15 4.75V5.26756C14.7058 5.09739 14.3643 5 14 5H7C5.89543 5 5 5.89543 5 7V13H2.4C1.63 13 1 12.3813 1 11.625L1.007 3.375C1.007 2.61875 1.63 2 2.4 2Z" fill="#4A616C"/>
<path d="M8.73003 13.5083C8.59989 12.1563 8.49415 11.033 8.49507 11.0119C8.49599 10.9909 8.38496 10.9737 8.24836 10.9737H8V10.0058H9.93719V8.12676L10.8513 7.56338C11.4079 7.22026 11.8173 7 11.8982 7C12.0935 7 12.3214 7.25321 12.3214 7.47032C12.3214 7.56519 12.2935 7.68179 12.2593 7.72944C12.2252 7.77708 11.9067 7.99474 11.5515 8.21311L10.9058 8.61016L10.8919 9.30795L10.8781 10.0057H12.8181V10.9737H12.3396L12.0979 13.47L11.9436 15.0628C11.894 15.5753 11.4632 15.9664 10.9483 15.9664H9.875C9.35982 15.9664 8.92896 15.575 8.8796 15.0622L8.73003 13.5083Z" fill="#F07178"/>
</svg>
