<svg width="16" height="16" viewBox="0 0 16 16" fill="none" xmlns="http://www.w3.org/2000/svg">
<path fill-rule="evenodd" clip-rule="evenodd" d="M8 3.375H13.6C14.37 3.375 15 3.99375 15 4.75V5H13.6V4.75H2.4V11.625H6V13H2.4C1.63 13 1 12.3813 1 11.625L1.007 3.375C1.007 2.61875 1.63 2 2.4 2H6.6L8 3.375Z" fill="#80CBC4"/>
<path fill-rule="evenodd" clip-rule="evenodd" d="M8.22223 6.22223C7.66994 6.22223 7.22223 6.66995 7.22223 7.22223V13.7778C7.22223 14.3301 7.66995 14.7778 8.22223 14.7778H14.7778C15.3301 14.7778 15.7778 14.3301 15.7778 13.7778V7.22223C15.7778 6.66994 15.3301 6.22223 14.7778 6.22223H8.22223ZM13.1383 8.94402C13.2914 8.71426 13.2293 8.40382 12.9996 8.25065C12.7698 8.09747 12.4594 8.15956 12.3062 8.38932L9.86176 12.056C9.70858 12.2858 9.77067 12.5962 10.0004 12.7494C10.2302 12.9025 10.5406 12.8405 10.6938 12.6107L13.1383 8.94402Z" fill="#69A7D3"/>
</svg>
