<svg width="16" height="16" viewBox="0 0 16 16" fill="none" xmlns="http://www.w3.org/2000/svg">
<g clip-path="url(#clip0)">
<path opacity="0.8" fill-rule="evenodd" clip-rule="evenodd" d="M2.4 2H6.6L8 3.375H13.6C14.37 3.375 15 3.99375 15 4.75V5.26756C14.7058 5.09739 14.3643 5 14 5H7C5.89543 5 5 5.89543 5 7V13H2.4C1.63 13 1 12.3812 1 11.625L1.007 3.375C1.007 2.61875 1.63 2 2.4 2Z" fill="#4A616C"/>
<rect opacity="0.1" x="7.22223" y="6.22223" width="8.55556" height="8.55556" rx="1" fill="#252D3A"/>
<path d="M11.6721 6.375C9.29889 6.375 7.375 8.26846 7.375 10.6041C7.375 12.4727 8.60602 14.0578 10.3139 14.6168C10.5288 14.6556 10.6073 14.5248 10.6073 14.4132C10.6073 14.3126 10.6034 13.979 10.6012 13.6262C9.40614 13.8817 9.15373 13.1274 9.15373 13.1274C8.95801 12.6389 8.67649 12.5089 8.67649 12.5089C8.28581 12.2465 8.70598 12.2518 8.70598 12.2518C9.13726 12.2812 9.36477 12.6875 9.36477 12.6875C9.74817 13.334 10.371 13.147 10.6153 13.0385C10.6544 12.7659 10.7655 12.579 10.888 12.4738C9.93432 12.3671 8.93081 12.0041 8.93081 10.3836C8.93081 9.92142 9.09858 9.54484 9.37282 9.24855C9.32915 9.14112 9.18092 8.71101 9.41533 8.12898C9.41533 8.12898 9.77575 8.01552 10.5969 8.56249C10.9394 8.46825 11.3071 8.42188 11.6721 8.42037C12.0371 8.42188 12.4048 8.469 12.748 8.56324C13.5676 8.01552 13.9288 8.12974 13.9288 8.12974C14.1636 8.71214 14.0157 9.14187 13.9717 9.24892C14.2471 9.54484 14.4133 9.92179 14.4133 10.3839C14.4133 12.0086 13.4083 12.3664 12.4511 12.4712C12.6059 12.6023 12.7426 12.8594 12.7426 13.2537C12.7426 13.8192 12.7369 14.2749 12.7369 14.4144C12.7369 14.5271 12.815 14.6586 13.0325 14.6172C14.7389 14.057 15.9688 12.4723 15.9688 10.6045C15.9688 8.26921 14.0449 6.37538 11.6717 6.37538L11.6721 6.375Z" fill="#697DA5"/>
</g>
<defs>
<clipPath id="clip0">
<rect width="16" height="16" fill="white"/>
</clipPath>
</defs>
</svg>
