<svg width="16" height="16" viewBox="0 0 16 16" fill="none" xmlns="http://www.w3.org/2000/svg">
<path opacity="0.8" fill-rule="evenodd" clip-rule="evenodd" d="M2.4 2H6.6L8 3.375H13.6C14.37 3.375 15 3.99375 15 4.75V5.26756C14.7058 5.09739 14.3643 5 14 5H7C5.89543 5 5 5.89543 5 7V13H2.4C1.63 13 1 12.3813 1 11.625L1.007 3.375C1.007 2.61875 1.63 2 2.4 2Z" fill="#4A616C"/>
<path fill-rule="evenodd" clip-rule="evenodd" d="M7.22223 6.22223C6.66994 6.22223 6.22223 6.66995 6.22223 7.22223V13.7778C6.22223 14.3301 6.66995 14.7778 7.22223 14.7778H13.7778C14.3301 14.7778 14.7778 14.3301 14.7778 13.7778V7.22223C14.7778 6.66994 14.3301 6.22223 13.7778 6.22223H7.22223ZM9.79073 8.64947C9.53937 8.42612 9.16067 8.42612 8.90931 8.64947L7.35324 10.0321C7.06744 10.2861 7.06744 10.7138 7.35324 10.9678L8.90931 12.3505C9.16067 12.5738 9.53937 12.5738 9.79073 12.3505C10.0878 12.0865 10.0878 11.6224 9.79073 11.3585L8.82452 10.5L9.79073 9.64143C10.0878 9.37749 10.0878 8.91341 9.79073 8.64947ZM12.0907 8.6495C11.8393 8.42615 11.4606 8.42615 11.2093 8.6495C10.9122 8.91344 10.9122 9.37751 11.2093 9.64145L12.1755 10.5L11.2093 11.3585C10.9122 11.6225 10.9122 12.0865 11.2093 12.3505C11.4606 12.5738 11.8393 12.5738 12.0907 12.3505L13.6468 10.9678C13.9326 10.7139 13.9326 10.2861 13.6468 10.0322L12.0907 8.6495Z" fill="#3965BD"/>
</svg>
