<svg width="16" height="16" viewBox="0 0 16 16" fill="none" xmlns="http://www.w3.org/2000/svg">
<path fill-rule="evenodd" clip-rule="evenodd" d="M8 3.375H13.6C14.37 3.375 15 3.99375 15 4.75V5.26756C14.7058 5.09739 14.3643 5 14 5H13.6V4.75H2.4V11.625H5V13H2.4C1.63 13 1 12.3813 1 11.625L1.007 3.375C1.007 2.61875 1.63 2 2.4 2H6.6L8 3.375Z" fill="#80CBC4"/>
<path d="M7.49147 7.00002C7.18238 7.00002 6.90909 7.26036 6.90909 7.56446L7.55398 13.2577C7.58314 13.4853 7.69343 13.6127 7.892 13.7271L10.3353 14.9452C10.4885 15.012 10.6503 15.0243 10.8267 14.9452L13.2642 13.7271C13.4641 13.6257 13.5831 13.4154 13.5738 13.1943L14.1818 7.54859C14.1818 7.26292 13.9284 7 13.6193 7L7.49147 7.00002ZM9.29547 11.2994C9.29443 11.7538 9.29013 11.8861 9.3892 11.9876C9.49068 12.0647 9.67209 12.0769 9.96311 12.0741V12.5118H9.47165C9.02558 12.502 8.52181 12.4395 8.52274 11.7919C8.52276 11.3994 8.54877 11.1552 8.40056 11.0115C8.28374 10.9019 8.02987 10.8838 7.8182 10.8963V10.4614C8.10894 10.4703 8.30808 10.4348 8.40056 10.3491C8.69509 10.076 8.30051 9.34266 8.75002 8.99852C8.98623 8.80697 9.40885 8.82022 9.96311 8.82574V9.26346C9.67013 9.2561 9.45403 9.28054 9.3892 9.34989C9.18011 9.55726 9.41552 10.1416 9.1932 10.4787C9.1252 10.571 9.0072 10.6334 8.84092 10.6659C9.20195 10.7343 9.29829 10.9472 9.29547 11.2994ZM12.25 10.6659C12.0837 10.6334 11.9657 10.571 11.8977 10.4787C11.6754 10.1416 11.9108 9.55726 11.7017 9.34989C11.6369 9.28054 11.4208 9.2561 11.1278 9.26346V8.82574C11.6821 8.82022 12.1047 8.80697 12.3409 8.99852C12.7904 9.34266 12.3959 10.076 12.6904 10.3491C12.7829 10.4348 12.982 10.4703 13.2727 10.4614V10.8963C13.0611 10.8838 12.8072 10.9019 12.6904 11.0115C12.5422 11.1552 12.5682 11.3994 12.5682 11.7919C12.5691 12.4395 12.0654 12.502 11.6193 12.5118H11.1278L11.1278 12.0741C11.4188 12.0769 11.6003 12.0647 11.7017 11.9876C11.8008 11.8861 11.7965 11.7538 11.7955 11.2994C11.7927 10.9472 11.889 10.7343 12.25 10.6659Z" fill="#89DDFF"/>
</svg>
