<svg width="16" height="16" viewBox="0 0 16 16" fill="none" xmlns="http://www.w3.org/2000/svg">
<path opacity="0.8" fill-rule="evenodd" clip-rule="evenodd" d="M2.40001 2H6.60001L8.00001 3.375H13.6C14.37 3.375 15 3.99375 15 4.75V5.5843C14.8867 5.56197 14.7697 5.55026 14.6498 5.55026L8.35016 5.55026C7.3561 5.55026 6.55026 6.35611 6.55026 7.35017L6.55026 13H2.40001C1.63001 13 1.00001 12.3813 1.00001 11.625L1.00701 3.375C1.00701 2.61875 1.63001 2 2.40001 2Z" fill="#4A616C"/>
<path fill-rule="evenodd" clip-rule="evenodd" d="M13.2565 9.78606C13.2975 9.78606 13.3108 9.79662 13.3108 9.84413C13.3104 10.1296 13.3108 10.4153 13.3113 10.701C13.3122 11.2249 13.3131 11.7489 13.3084 12.2724C13.2987 13.2015 12.7291 13.8508 11.9399 13.9801C11.2569 14.0923 10.5412 13.7241 10.2432 13.0141C10.1599 12.8135 10.1104 12.6037 10.102 12.3846C10.0873 12.0368 10.0897 11.6884 10.092 11.3403C10.0932 11.1719 10.0943 11.0035 10.0935 10.8352C10.0935 10.7679 10.079 10.7521 10.0175 10.7521C9.85273 10.7531 9.68813 10.7524 9.52364 10.7517C9.2496 10.7506 8.97585 10.7495 8.70211 10.7561C8.42817 10.7627 8.2206 10.5225 8.22664 10.2334C8.23267 9.92989 8.23163 9.62582 8.2306 9.32188C8.22997 9.13955 8.22935 8.95726 8.23026 8.77515C8.23026 8.71709 8.21698 8.69861 8.16389 8.70257C8.1064 8.70627 8.04832 8.70543 7.99048 8.7046C7.96575 8.70425 7.94107 8.70389 7.9165 8.70389V8.69069C7.95631 8.60076 8.01041 8.52102 8.06454 8.44123C8.08587 8.40979 8.10721 8.37833 8.12768 8.34625C8.25126 8.15185 8.37708 7.95827 8.50279 7.76487C8.53667 7.71275 8.57054 7.66063 8.60436 7.60852C8.65625 7.52802 8.67314 7.52802 8.72624 7.60984L8.72625 7.60986C8.94709 7.95034 9.16793 8.29082 9.38756 8.63263C9.38983 8.63625 9.39236 8.63987 9.39491 8.64352C9.40722 8.66118 9.42007 8.67961 9.40807 8.70257C9.3965 8.72212 9.37485 8.72163 9.3551 8.72118C9.35219 8.72111 9.34932 8.72105 9.34652 8.72105C9.32959 8.72105 9.31278 8.7209 9.29602 8.72075C9.26263 8.72046 9.22942 8.72017 9.19568 8.72105C9.13293 8.72237 9.12689 8.72765 9.12689 8.79759V9.52344C9.12689 9.54323 9.12703 9.56303 9.12716 9.58282C9.12743 9.62241 9.1277 9.66201 9.12689 9.7016C9.12689 9.74515 9.14017 9.76758 9.1824 9.76758C9.27492 9.76758 9.36744 9.76744 9.45996 9.76729C9.645 9.767 9.83004 9.7667 10.0151 9.76758C10.0718 9.76888 10.0718 9.72961 10.0718 9.68706L10.0718 9.68444C10.0718 9.56347 10.0719 9.44249 10.0721 9.32152C10.0723 9.07957 10.0726 8.83762 10.0718 8.59567C10.0706 8.38056 10.0694 8.16413 10.1068 7.95165C10.2214 7.30499 10.563 6.86552 11.1265 6.63193C11.2544 6.57914 11.3884 6.55143 11.5248 6.53955H11.7782C11.8023 6.55011 11.8264 6.55011 11.8506 6.53955H11.8627C11.8902 6.54604 11.9178 6.55188 11.9452 6.5577C11.9959 6.56844 12.0462 6.5791 12.0956 6.59366C12.717 6.77314 13.1165 7.19677 13.2673 7.88698C13.3127 8.09721 13.3113 8.31096 13.31 8.52464C13.3097 8.57253 13.3094 8.62042 13.3096 8.66826C13.3096 8.69861 13.2963 8.70389 13.2722 8.70389C12.9765 8.70257 12.6808 8.70257 12.3852 8.70389C12.3502 8.70389 12.3466 8.68541 12.3466 8.65506C12.3466 8.62277 12.3466 8.59039 12.3467 8.55798C12.3469 8.46057 12.3472 8.36278 12.3454 8.26574C12.3369 7.86719 12.0907 7.60193 11.7251 7.59269C11.6177 7.59005 11.5127 7.60588 11.4137 7.65471C11.1736 7.77085 11.0626 7.982 11.0553 8.25914C11.0509 8.42523 11.0516 8.59202 11.0524 8.75849C11.0526 8.82086 11.0529 8.88318 11.0529 8.9454V12.1655C11.0517 12.2711 11.0565 12.3753 11.0831 12.4783C11.1482 12.7264 11.3498 12.9098 11.5899 12.9402C11.7854 12.9653 11.9652 12.9296 12.1257 12.7963C12.2705 12.6776 12.3393 12.5113 12.3429 12.3239C12.3484 11.9951 12.3483 11.6664 12.3482 11.3376C12.3482 11.1583 12.3481 10.9789 12.349 10.7996C12.3502 10.7534 12.3273 10.7534 12.2983 10.7534C12.2975 10.7534 12.2967 10.7534 12.2959 10.7534C12.2422 10.7534 12.1885 10.7533 12.1347 10.7532C11.9732 10.753 11.8114 10.7528 11.6503 10.7547C11.6008 10.7547 11.5851 10.7402 11.5863 10.6848C11.5887 10.4076 11.5887 10.1305 11.5875 9.85337C11.5875 9.80586 11.5935 9.78474 11.6454 9.78474C12.1824 9.78738 12.7195 9.78738 13.2565 9.78606ZM15.9314 11.8296C15.9538 11.83 15.9762 11.8303 15.9986 11.8303C16.0032 11.8514 15.9953 11.8633 15.988 11.8742C15.9857 11.8776 15.9835 11.881 15.9818 11.8844C15.8394 12.1058 15.6966 12.3267 15.554 12.5474C15.4704 12.6766 15.3869 12.8058 15.3035 12.9349C15.283 12.9666 15.2685 12.9851 15.2396 12.9402C15.095 12.7155 14.9499 12.4914 14.805 12.2674C14.7201 12.1362 14.6352 12.005 14.5505 11.8739C14.5496 11.8726 14.5487 11.8712 14.5477 11.8698C14.5417 11.8617 14.5347 11.852 14.5409 11.8317C14.5623 11.8317 14.5839 11.8312 14.6055 11.8307C14.6545 11.8295 14.7039 11.8284 14.7533 11.833C14.8136 11.8382 14.8245 11.8145 14.8245 11.7525C14.822 11.4423 14.822 11.1322 14.8245 10.8221C14.8245 10.764 14.8124 10.7482 14.7581 10.7482C14.4624 10.7488 14.4632 10.7488 14.4711 10.749C14.4794 10.7491 14.4954 10.7494 14.1853 10.7508C14.1213 10.7508 14.1093 10.731 14.1105 10.6663C14.1129 10.3892 14.1117 10.1121 14.1105 9.83491C14.1105 9.79004 14.1201 9.77421 14.1636 9.77421C14.554 9.77487 14.6332 9.77487 14.7124 9.77487C14.7917 9.77487 14.8709 9.77487 15.2613 9.77553C15.5123 9.77685 15.703 9.988 15.7042 10.2625C15.7054 10.76 15.7054 11.2563 15.703 11.7538C15.703 11.8145 15.7175 11.8356 15.773 11.8317C15.8262 11.828 15.8789 11.8288 15.9314 11.8296Z" fill="#80CBC4"/>
</svg>
