<svg width="16" height="16" viewBox="0 0 16 16" fill="none" xmlns="http://www.w3.org/2000/svg">
<path fill-rule="evenodd" clip-rule="evenodd" d="M8 3.375H13.6C14.37 3.375 15 3.99375 15 4.75V5H13.6V4.75H2.4V11.625H6V13H2.4C1.63 13 1 12.3813 1 11.625L1.007 3.375C1.007 2.61875 1.63 2 2.4 2H6.6L8 3.375Z" fill="#80CBC4"/>
<path fill-rule="evenodd" clip-rule="evenodd" d="M10.9707 7C10.9154 7 10.8607 7.01379 10.8113 7.04202L8.15942 8.55005C8.06027 8.60652 8 8.71549 8 8.82851V11.8551C8 11.9682 8.06033 12.0717 8.15942 12.1283L10.8113 13.6416C10.9104 13.6982 11.0309 13.6982 11.1301 13.6416L13.7819 12.1283C13.8809 12.0717 13.9414 11.9682 13.9414 11.8551V8.82851C13.9414 8.71529 13.8811 8.60652 13.7819 8.55005L11.1301 7.04202C11.0806 7.01379 11.0259 7 10.9707 7" fill="#A9EFA3"/>
<mask id="mask0" mask-type="alpha" maskUnits="userSpaceOnUse" x="8" y="7" width="6" height="7">
<path fill-rule="evenodd" clip-rule="evenodd" d="M10.9707 7C10.9154 7 10.8607 7.01379 10.8113 7.04202L8.15942 8.55005C8.06027 8.60652 8 8.71549 8 8.82851V11.8551C8 11.9682 8.06033 12.0717 8.15942 12.1283L10.8113 13.6416C10.9104 13.6982 11.0309 13.6982 11.1301 13.6416L13.7819 12.1283C13.8809 12.0717 13.9414 11.9682 13.9414 11.8551V8.82851C13.9414 8.71529 13.8811 8.60652 13.7819 8.55005L11.1301 7.04202C11.0806 7.01379 11.0259 7 10.9707 7" fill="white"/>
</mask>
<g mask="url(#mask0)">
<path fill-rule="evenodd" clip-rule="evenodd" d="M10.6989 6.43207L14.1646 12.435L11.1863 14.1546L7.72048 8.15163L10.6989 6.43207Z" fill="#2ECC71"/>
</g>
</svg>
