<svg id="Layer_1" data-name="Layer 1" xmlns="http://www.w3.org/2000/svg" xmlns:xlink="http://www.w3.org/1999/xlink" viewBox="0 0 24 24"><defs><style>.cls-1{fill:none;}.cls-2{fill:#343944;}.cls-3{clip-path:url(#clip-path);}.cls-4{clip-path:url(#clip-path-2);}.cls-5{fill:#7accee;}.cls-6{clip-path:url(#clip-path-3);}.cls-7{fill:#2ecc71;}.cls-8{clip-path:url(#clip-path-5);}.cls-9{fill:#f4bf75;}.cls-10{clip-path:url(#clip-path-7);}.cls-11{fill:#cfd2d3;}.cls-12{clip-path:url(#clip-path-9);}.cls-13{fill:#d14748;}.cls-14{clip-path:url(#clip-path-11);}.cls-15{clip-path:url(#clip-path-13);}.cls-16{clip-path:url(#clip-path-15);}.cls-17{fill:#fff;}.cls-18{fill:#80cbc4;}</style><clipPath id="clip-path"><path class="cls-1" d="M19.6,15.72a1.7,1.7,0,0,1,0-.26,1.91,1.91,0,0,0-.42-.05,1.52,1.52,0,0,0,.15.6,2.11,2.11,0,0,0,1.13-.32,4.74,4.74,0,0,0-.77-.21A1.34,1.34,0,0,1,19.6,15.72Zm.45-.91a5.17,5.17,0,0,1,1.1-1.55,2.8,2.8,0,0,0-1.28,1.43,3.37,3.37,0,0,0-.45-.25,2.9,2.9,0,0,1,2.38-1.63c-.69.62-.45,1.92-1,2.61A7.15,7.15,0,0,0,20.05,14.81Z"/></clipPath><clipPath id="clip-path-2"><rect class="cls-1" x="7.72" y="8.31" width="18.66" height="18.66"/></clipPath><clipPath id="clip-path-3"><path class="cls-1" d="M19.36,18c1,.07,2.67.22,3.69.37-.06-.34-.24-.43-.8-.58-.6.06-2.12.21-2.89.21Zm-1.72,2.15h0l-.22-.54c.33.48,1.37.23,1.31-.2.51.38,1.55-.06,1.32-.59.5.24,1.08-.24.95-.44.87.16,1.7.33,2,.39a1,1,0,0,1-1.16.34c.32.44-.31,1-1.17.67.19.43-.58.81-1.46.37,0,.42-1.09.47-1.53,0Z"/></clipPath><clipPath id="clip-path-5"><path class="cls-1" d="M18.73,19.42c.51.38,1.55-.06,1.32-.59.5.24,1.08-.24.95-.44-1-.2-2.09-.4-2.34-.43l.7.05c.77,0,2.29-.15,2.89-.21a28.78,28.78,0,0,0-4.32-.69,1.94,1.94,0,0,1-.39.41,3.34,3.34,0,0,1-2.89,2.1,3.89,3.89,0,0,1-1.18-.2,2.48,2.48,0,0,1-2.39,0,4.84,4.84,0,0,0,4.43,2.92,2.19,2.19,0,0,0,2.19-2.08c0-.11-.19-.46-.28-.69.33.48,1.37.23,1.31-.2Z"/></clipPath><clipPath id="clip-path-7"><path class="cls-1" d="M17.75,16.11a4.48,4.48,0,0,1,1.11-.49s0-.11,0-.16c-.31.07-.89.32-1.23,0,.71.21,1.06-.19,1.58-.19a3.52,3.52,0,0,1,1.1.22,3.75,3.75,0,0,0-2.33-1,1.6,1.6,0,0,0-.21,1.67Z"/></clipPath><clipPath id="clip-path-9"><path class="cls-1" d="M13.47,19.42a3.89,3.89,0,0,0,1.18.2,3.34,3.34,0,0,0,2.89-2.1,3.7,3.7,0,0,1-2.42.69,3.8,3.8,0,0,0,2.47-1.55,2.07,2.07,0,0,1,.22-2.59,2.44,2.44,0,0,0-2.32-1.62,4.91,4.91,0,0,0-4.8,5.1,4.84,4.84,0,0,0,.39,1.92,2.48,2.48,0,0,0,2.39,0Z"/></clipPath><clipPath id="clip-path-11"><path class="cls-1" d="M14.26,15a1.21,1.21,0,1,0,1.21-1.21A1.21,1.21,0,0,0,14.26,15Z"/></clipPath><clipPath id="clip-path-13"><path class="cls-1" d="M14.74,15a.73.73,0,0,0,.73.72.72.72,0,1,0-.73-.72Z"/></clipPath><clipPath id="clip-path-15"><path class="cls-1" d="M15.47,14.92c.23,0,.42-.12.42-.26s-.19-.26-.42-.26-.42.11-.42.26S15.24,14.92,15.47,14.92Z"/></clipPath></defs><title>folder_bower_open</title><path class="cls-2" d="M23.73,17.79c-.71-.68-4.29-1.11-5.42-1.23a1.9,1.9,0,0,0,.14-.4A3.68,3.68,0,0,1,19,16c0,.06.11.29.17.41a2.19,2.19,0,0,0,2.48-2.15,2.65,2.65,0,0,1,.86-1.74,3.18,3.18,0,0,0-3.38,1.79,3.68,3.68,0,0,0-.63-.17,3,3,0,0,0-3-2.26,5.52,5.52,0,0,0-5.4,5.69c0,3,2.07,5.64,3.24,5.64a1.14,1.14,0,0,0,1.05-.72c.09.24.35,1,.44,1.15s.72.51,1,.22a1,1,0,0,0,1.29-.19,1,1,0,0,0,1.23-.71c.31,0,.47-.45.4-.8a8.68,8.68,0,0,0-.81-1.51c.42.34,1.48.43,1.61,0,.68.53,1.74.25,1.82-.18.82.21,1.77-.25,1.61-.82a1.1,1.1,0,0,0,.78-1.84Z"/><g class="cls-3"><g class="cls-4"><rect class="cls-5" x="16.3" y="9.89" width="8.42" height="9.03"/></g></g><g class="cls-6"><g class="cls-4"><rect class="cls-7" x="14.51" y="14.88" width="11.46" height="8.53"/></g></g><g class="cls-8"><g class="cls-4"><rect class="cls-9" x="8.17" y="14.19" width="17" height="11.11"/></g></g><g class="cls-10"><g class="cls-4"><rect class="cls-11" x="14.69" y="11.52" width="8.52" height="7.5"/></g></g><g class="cls-12"><g class="cls-4"><rect class="cls-13" x="7.77" y="9.53" width="12.95" height="13.12"/></g></g><g class="cls-14"><g class="cls-4"><rect class="cls-9" x="11.34" y="10.86" width="8.25" height="8.24"/></g></g><g class="cls-15"><g class="cls-4"><rect class="cls-2" x="11.83" y="11.34" width="7.28" height="7.27"/></g></g><g class="cls-16"><g class="cls-4"><rect class="cls-17" x="12.13" y="11.48" width="6.68" height="6.35"/></g></g><path class="cls-18" d="M9.19,18.75h-6V7.5H20.8v4.13a3.69,3.69,0,0,1,1.12-.21,2.76,2.76,0,0,1,.82.12l.26.07V7.5a2.23,2.23,0,0,0-2.2-2.25H12L9.8,3H3.2A2.23,2.23,0,0,0,1,5.25v13.5A2.23,2.23,0,0,0,3.2,21H9.88A8.67,8.67,0,0,1,9.19,18.75Z"/></svg>