<svg width="16" height="16" viewBox="0 0 16 16" fill="none" xmlns="http://www.w3.org/2000/svg">
<path opacity="0.8" fill-rule="evenodd" clip-rule="evenodd" d="M2.4 2H6.6L8 3.375H13.6C14.37 3.375 15 3.99375 15 4.75V6.02363C14.8911 6.00806 14.7798 6 14.6667 6H8.33333C7.04467 6 6 7.04467 6 8.33333V13H2.4C1.63 13 1 12.3813 1 11.625L1.007 3.375C1.007 2.61875 1.63 2 2.4 2Z" fill="#4A616C"/>
<rect opacity="0.1" x="7" y="7" width="8" height="8" rx="1" fill="#252D3A"/>
<path fill-rule="evenodd" clip-rule="evenodd" d="M13.9995 8.55967L12.5699 8L10.0746 10.3733L8.57195 9.25613L8.00057 9.53678L8 12.4665L8.5687 12.7451L10.0701 11.6289L12.5716 14L14 13.4425L13.9995 8.55967ZM12.4112 9.94117L11 10.9959L12.4118 12.0588L12.4112 9.94117ZM8.70673 11.6177L8.70588 10.3824L9.41176 10.9958L8.70673 11.6177Z" fill="#3965BD"/>
</svg>
