<svg width="16" height="16" viewBox="0 0 16 16" fill="none" xmlns="http://www.w3.org/2000/svg">
<path fill-rule="evenodd" clip-rule="evenodd" d="M8 3.375H13.6C14.37 3.375 15 3.99375 15 4.75V5.5843C14.8867 5.56197 14.7696 5.55026 14.6498 5.55026H13.6V4.75H2.4V11.625H6.55025V13H2.4C1.63 13 1 12.3813 1 11.625L1.007 3.375C1.007 2.61875 1.63 2 2.4 2H6.6L8 3.375Z" fill="#80CBC4"/>
<path d="M8.05439 13.0002C8.09031 13.0631 8.14247 13.1152 8.20536 13.1508L11.2947 14.944H11.2948C11.4213 15.0187 11.5788 15.0187 11.7053 14.944L14.7948 13.1507C14.9224 13.0779 15.0011 12.9409 15 12.7934V9.20695L14.9999 9.20684C15.001 9.05928 14.9222 8.92216 14.7945 8.84938L11.7051 7.05611V7.056C11.5787 6.98133 11.4213 6.98133 11.2949 7.056V7.05611L8.20558 8.84938C8.07782 8.92216 7.99902 9.05917 8.00013 9.20684L8.00002 9.20695V12.7934C7.99935 12.8659 8.01814 12.9374 8.05428 13.0002" fill="#2ECC71"/>
<path d="M10.6682 12.5473C10.6682 12.7956 10.5174 13 10.3341 13C10.1508 13 10 12.7956 10 12.5473L10.0001 12.5474L10.0005 9.43993C10.0005 9.19916 10.1574 9.00007 10.3798 9.00007C10.554 8.99704 10.7207 9.09804 10.8352 9.27597L10.9362 9.43968L12.3319 11.703V9.45252H12.3319C12.3321 9.20444 12.4829 9.00057 12.6659 9.00057C12.849 9.00057 12.9997 9.20444 13 9.45252H12.9999L12.9996 12.5599C12.9996 12.8005 12.8426 12.9996 12.6202 12.9996C12.446 13.0028 12.2793 12.9018 12.1648 12.7237L10.6681 10.2969V12.5474L10.6682 12.5473Z" fill="#343944"/>
</svg>
