<svg width="16" height="16" viewBox="0 0 16 16" fill="none" xmlns="http://www.w3.org/2000/svg">
<path fill-rule="evenodd" clip-rule="evenodd" d="M13.6 3.375H8L6.6 2H2.4C1.63 2 1.007 2.61875 1.007 3.375L1 11.625C1 12.3812 1.63 13 2.4 13H5V11.625H2.4V4.75H13.6V5H14C14.3643 5 14.7058 5.09739 15 5.26756V4.75C15 3.99375 14.37 3.375 13.6 3.375Z" fill="#80CBC4"/>
<path fill-rule="evenodd" clip-rule="evenodd" d="M7.22222 6.22223C6.66994 6.22223 6.22222 6.66995 6.22222 7.22223V13.7778C6.22222 14.3301 6.66994 14.7778 7.22222 14.7778H13.7778C14.3301 14.7778 14.7778 14.3301 14.7778 13.7778V7.22223C14.7778 6.66994 14.3301 6.22223 13.7778 6.22223H7.22222ZM10.7474 10.7077L11.0598 10.5506L13.5607 9.29584L13.5486 12.1447L10.7353 13.5566L10.7474 10.7077ZM13.379 8.91979L10.5 7.44447L9.27777 8.05557L7.57701 8.91979L9.41172 9.81835L10.489 10.3706L11.5651 9.8313L13.379 8.91979ZM8.50939 10.5537L9.02511 10.7892L9.02806 10.0956L10.2306 10.7106L10.2186 13.5392L7.43757 12.1137L7.44958 9.2851L8.51247 9.82847L8.50939 10.5537Z" fill="#F78C6C"/>
</svg>
