<svg width="16" height="16" viewBox="0 0 16 16" fill="none" xmlns="http://www.w3.org/2000/svg">
<path opacity="0.8" fill-rule="evenodd" clip-rule="evenodd" d="M2.4 2H6.6L8 3.375H13.6C14.37 3.375 15 3.99375 15 4.75V5.26756C14.7058 5.09739 14.3643 5 14 5H7C5.89543 5 5 5.89543 5 7V13H2.4C1.63 13 1 12.3813 1 11.625L1.007 3.375C1.007 2.61875 1.63 2 2.4 2Z" fill="#4A616C"/>
<path fill-rule="evenodd" clip-rule="evenodd" d="M7.22222 6.22217C6.66994 6.22217 6.22222 6.66988 6.22222 7.22217V13.7777C6.22222 14.33 6.66994 14.7777 7.22222 14.7777H13.7778C14.3301 14.7777 14.7778 14.33 14.7778 13.7777V7.22217C14.7778 6.66988 14.3301 6.22217 13.7778 6.22217H7.22222ZM10.7474 10.7077L11.0598 10.5505L13.5607 9.29578L13.5486 12.1447L10.7353 13.5565L10.7474 10.7077ZM13.379 8.91969L10.5 7.44436L9.27777 8.05546L7.577 8.91968L9.41171 9.81824L10.489 10.3705L11.5651 9.83119L13.379 8.91969ZM8.50939 10.5536L9.02511 10.7891L9.02806 10.0955L10.2307 10.7105L10.2186 13.5391L7.43757 12.1136L7.44959 9.285L8.51247 9.82836L8.50939 10.5536Z" fill="#F78C6C"/>
</svg>
