<svg width="16" height="16" viewBox="0 0 16 16" fill="none" xmlns="http://www.w3.org/2000/svg">
<path fill-rule="evenodd" clip-rule="evenodd" d="M13.6 3.375H8L6.6 2H2.4C1.63 2 1.007 2.61875 1.007 3.375L1 11.625C1 12.3813 1.63 13 2.4 13H5V11.625H2.4V4.75H13.6V5H14C14.3643 5 14.7058 5.09739 15 5.26756V4.75C15 3.99375 14.37 3.375 13.6 3.375Z" fill="#80CBC4"/>
<rect x="6.22223" y="6.22223" width="8.55556" height="8.55556" rx="1" fill="#FFCB6B"/>
<rect x="7.44446" y="8.66669" width="6.11111" height="4.88889" fill="#090A0F"/>
<path d="M12.5978 12.2397C12.9746 12.7434 11.9681 13.1095 11.5624 12.3815L11.0111 12.7014L11.0449 12.7573C11.2526 13.107 11.5769 13.3118 12.0153 13.3706C12.9752 13.4854 13.6018 12.8734 13.2617 12.0041C13.0199 11.5071 12.3866 11.4131 12.0173 11.168C11.8002 11.0415 11.8454 10.7737 12.0198 10.6663C12.1554 10.5828 12.4672 10.5722 12.6277 10.9051L13.1552 10.5652C12.7391 9.81518 11.7555 9.96625 11.4607 10.307C11.0598 10.778 11.1744 11.3037 11.5272 11.6414C11.8016 11.904 12.2322 11.9932 12.5978 12.2397ZM10.1057 13.3015C10.4096 13.1786 10.5878 12.9245 10.635 12.5468C10.6391 12.5086 10.6418 10.068 10.6418 10.068H9.97328L9.96846 12.4821C9.95282 12.6384 9.85938 12.7504 9.72287 12.7724C9.48994 12.8098 9.33466 12.742 9.17283 12.439L8.62854 12.7681C8.86182 13.3165 9.56506 13.5179 10.1057 13.3015ZM7.66505 7.0625H13.335C13.6688 7.0625 13.9375 7.33123 13.9375 7.66505V13.335C13.9375 13.6688 13.6688 13.9375 13.335 13.9375H7.66505C7.33123 13.9375 7.0625 13.6688 7.0625 13.335V7.66505C7.0625 7.33123 7.33123 7.0625 7.66505 7.0625Z" fill="#FFCB6B"/>
</svg>
