<svg width="16" height="16" viewBox="0 0 16 16" fill="none" xmlns="http://www.w3.org/2000/svg">
<g id="font">
<g id="caps-small">
<path id="Shape" d="M4 13V12.1979L5.31464 12.1204C5.46961 12.1091 5.5 12.065 5.5 11.8993V4H3.09413C2.97251 4 2.93915 4.01103 2.91709 4.12162L2.74054 5H2V3H10V5H9.25947L9.08291 4.12162C9.06084 4.01103 9.02749 4 8.90587 4H6.5V11.8993C6.5 12.0542 6.51911 12.0984 6.68488 12.1091L8 12.1979V13H4Z" fill="#F07178"/>
<path id="Shape_2" d="M9.5 13V12.1979L10.3146 12.1204C10.4696 12.1091 10.5 12.065 10.5 11.8993V7.5H9.09413C8.97251 7.5 8.93915 7.51103 8.91709 7.62162L8.74054 8.5H8V6.5H14V8.5H13.2595L13.0829 7.62162C13.0608 7.51103 13.0275 7.5 12.9059 7.5H11.5V11.8993C11.5 12.0542 11.5191 12.0984 11.6849 12.1091L12.5 12.1979V13H9.5Z" fill="#9883EC"/>
</g>
</g>
</svg>
