<svg width="16" height="16" viewBox="0 0 16 16" fill="none" xmlns="http://www.w3.org/2000/svg">
<g id="gatsby">
<g id="gatsby_2">
<path id="Shape" fill-rule="evenodd" clip-rule="evenodd" d="M8 2.00003C4.66083 2.00003 2 4.66086 2 7.99953C2 11.3382 4.66083 14 7.9995 14C11.3382 14 13.9995 11.3392 13.9995 8.00003C13.9995 4.66086 11.3392 2.00003 8 2.00003ZM3.30415 8.05203L7.94797 12.6959C5.3912 12.6959 3.30415 10.6088 3.30415 8.05203ZM3.4087 6.95651L9.04352 12.5913C11.1306 12.1221 12.6958 10.2436 12.6958 8.00003H9.61731V8.88697H11.6523C11.3912 10.1396 10.4527 11.1826 9.25212 11.6003L4.34767 6.69538C4.87349 5.15794 6.32314 4.12866 7.94797 4.1391C9.22024 4.13246 10.4128 4.75797 11.1306 5.80843L11.8084 5.23515C10.917 4.02367 9.50357 3.30712 7.9995 3.30418C5.75638 3.30418 3.87744 4.86946 3.4087 6.95651Z" fill="#FF9CAC"/>
</g>
</g>
</svg>
