<svg width="16" height="16" viewBox="0 0 16 16" fill="none" xmlns="http://www.w3.org/2000/svg">
<g id="git">
<path id="Vector" d="M13.7737 7.46552L8.53425 2.22634C8.23272 1.92455 7.74334 1.92455 7.44145 2.22634L6.35353 3.31438L7.73357 4.69452C8.05438 4.58619 8.42212 4.65884 8.67773 4.91453C8.93471 5.17175 9.00683 5.54265 8.89581 5.86455L10.2259 7.19466C10.5477 7.08376 10.919 7.15545 11.176 7.41287C11.5352 7.77199 11.5352 8.35395 11.176 8.7132C10.8167 9.07259 10.2347 9.07259 9.87526 8.7132C9.60512 8.44286 9.53831 8.04601 9.67513 7.71316L8.43465 6.47262L8.43452 9.73704C8.52216 9.78037 8.60476 9.83824 8.67773 9.91095C9.03692 10.27 9.03692 10.8519 8.67773 11.2116C8.31848 11.5707 7.73627 11.5707 7.3774 11.2116C7.01822 10.8519 7.01822 10.27 7.3774 9.91095C7.4662 9.82229 7.56886 9.75524 7.67848 9.7103V6.41558C7.56886 6.37077 7.46632 6.30417 7.3774 6.21493C7.10533 5.94305 7.03983 5.54374 7.17933 5.20962L5.81889 3.8489L2.22638 7.44128C1.92454 7.74331 1.92454 8.2327 2.22638 8.53448L7.46581 13.7737C7.76745 14.0754 8.25671 14.0754 8.55873 13.7737L13.7737 8.55878C14.0754 8.25687 14.0754 7.7673 13.7737 7.46552Z" fill="#FC8289"/>
</g>
</svg>
