<svg width="16" height="16" viewBox="0 0 16 16" fill="none" xmlns="http://www.w3.org/2000/svg">
<g id="github">
<g id="github_badge">
<path id="Shape" d="M8.25028 2C4.79839 2 2 4.75412 2 8.1514C2 10.8693 3.79057 13.1749 6.27475 13.9881C6.58729 14.0445 6.7015 13.8543 6.7015 13.692C6.7015 13.5456 6.69593 13.0603 6.69258 12.5471C4.95438 12.9189 4.58724 11.8217 4.58724 11.8217C4.30256 11.1111 3.89308 10.922 3.89308 10.922C3.32482 10.5404 3.93598 10.548 3.93598 10.548C4.56329 10.5908 4.89421 11.1819 4.89421 11.1819C5.45189 12.1222 6.35776 11.8502 6.7132 11.6923C6.77002 11.2959 6.93159 11.024 7.10986 10.871C5.72265 10.7158 4.263 10.1878 4.263 7.83064C4.263 7.15843 4.50702 6.61067 4.90591 6.17971C4.8424 6.02344 4.6268 5.39783 4.96775 4.55125C4.96775 4.55125 5.492 4.38621 6.68646 5.1818C7.18452 5.04472 7.71935 4.97728 8.25028 4.97509C8.78121 4.97728 9.31604 5.04582 9.81522 5.18289C11.0074 4.38621 11.5328 4.55235 11.5328 4.55235C11.8743 5.39947 11.6593 6.02454 11.5952 6.18025C11.9958 6.61067 12.2376 7.15897 12.2376 7.83119C12.2376 10.1944 10.7757 10.7147 9.38345 10.8671C9.60853 11.058 9.80742 11.4319 9.80742 12.0054C9.80742 12.8279 9.79906 13.4908 9.79906 13.6936C9.79906 13.8576 9.91271 14.0489 10.2292 13.9886C12.7111 13.1738 14.5 10.8688 14.5 8.15195C14.5 4.75522 11.7016 2.00055 8.24972 2.00055L8.25028 2Z" fill="#6B7394"/>
</g>
</g>
</svg>
