<svg width="16" height="16" viewBox="0 0 16 16" fill="none" xmlns="http://www.w3.org/2000/svg">
<g id="gitlab">
<g id="Group">
<path id="Shape" d="M8.00353 13.4571L10.2115 6.72849H5.79553L8.00353 13.4571Z" fill="#FC8289"/>
<path id="Shape_2" d="M8.00352 13.457L5.79552 6.72845H2.70107L8.00352 13.457Z" fill="#FFCB6B"/>
<path id="Shape_3" d="M2.70107 6.72849L2.0301 8.77324C1.9689 8.95973 2.03593 9.16404 2.19616 9.27929L8.00353 13.4571L2.70107 6.72849Z" fill="#E2AC1D"/>
<path id="Shape_4" d="M2.70107 6.72849H5.79552L4.46564 2.67593C4.39724 2.46737 4.09929 2.46743 4.03089 2.67593L2.70107 6.72849Z" fill="#FC8289"/>
<path id="Shape_5" d="M8.00352 13.457L10.2115 6.72845H13.306L8.00352 13.457Z" fill="#FFCB6B"/>
<path id="Shape_6" d="M13.306 6.72849L13.977 8.77324C14.0382 8.95973 13.9711 9.16404 13.8109 9.27929L8.00352 13.4571L13.306 6.72849Z" fill="#E2AC1D"/>
<path id="Shape_7" d="M13.306 6.72849H10.2115L11.5414 2.67593C11.6098 2.46737 11.9077 2.46743 11.9761 2.67593L13.306 6.72849Z" fill="#FC8289"/>
</g>
</g>
</svg>
