<svg width="16" height="16" viewBox="0 0 16 16" fill="none" xmlns="http://www.w3.org/2000/svg">
<path d="M1.16986 6.81872L1.3969 6.52901L4.28142 6.52764L4.0957 6.81735L1.16986 6.81872ZM3.78602 7.5314L3.8817 7.24169L0.227042 7.24422L0 7.53392L3.78602 7.5314ZM3.681 8.24661L3.70862 7.9569L2.04622 7.95827L1.88487 8.24797L3.681 8.24661ZM14.2842 10.5153C12.6848 11.3964 10.4997 11.0233 9.91546 9.11298C9.57021 9.7924 9.00651 10.3492 8.33473 10.6668C6.74306 11.4191 4.58207 10.763 4.30413 8.70126C4.10059 6.72509 5.70002 5.50395 6.64553 5.19565C8.14817 4.72756 9.63016 5.27759 10.1426 6.64649L8.52854 7.06955C8.35707 6.59232 7.42504 6.24867 6.70859 6.76666C5.5818 7.46187 5.60262 9.21139 6.964 9.47119C7.6708 9.5618 8.14558 9.21255 8.50149 8.67536L6.74877 8.67911L7.31195 7.46472H9.93871C11.0764 4.25516 15.5134 4.3957 15.9644 7.27974C16.1247 8.3048 15.7747 9.69424 14.2842 10.5153ZM12.8265 6.54437C11.6121 6.80568 11.3094 7.87842 11.4968 8.56573C11.6963 9.29717 12.469 9.77678 13.4494 9.31812C15.0207 8.58303 14.6088 6.16086 12.8265 6.54437Z" fill="#FC8289"/>
</svg>
