<svg width="16" height="16" viewBox="0 0 16 16" fill="none" xmlns="http://www.w3.org/2000/svg">
<path fill-rule="evenodd" clip-rule="evenodd" d="M1.3969 6.52901L1.16986 6.81872L4.0957 6.81735L4.28142 6.52764L1.3969 6.52901ZM3.8817 7.24169L3.78602 7.5314L0 7.53392L0.227042 7.24422L3.8817 7.24169ZM3.70862 7.9569L3.681 8.24661L1.88487 8.24797L2.04622 7.95827L3.70862 7.9569ZM15.6165 9.22927C15.9802 8.57701 16.0564 7.86831 15.9644 7.27974C15.5134 4.3957 11.0764 4.25516 9.93871 7.46472H7.31195L6.74877 8.67911L8.50149 8.67536C8.14558 9.21255 7.6708 9.5618 6.964 9.47119C5.60262 9.21139 5.5818 7.46187 6.70859 6.76666C7.42504 6.24867 8.35707 6.59232 8.52854 7.06955L10.1426 6.64649C9.63016 5.27759 8.14817 4.72756 6.64553 5.19565C5.70002 5.50395 4.10059 6.72509 4.30413 8.70126C4.58207 10.763 6.74306 11.4191 8.33473 10.6668C9.00651 10.3492 9.57021 9.7924 9.91546 9.11298C10.1509 9.88275 10.6462 10.4029 11.2585 10.692V10.1429C11.2585 9.69869 11.4124 9.28594 11.6655 8.94365C11.591 8.82936 11.534 8.70191 11.4968 8.56573C11.3094 7.87842 11.6121 6.80568 12.8265 6.54437C14.0116 6.28937 14.5908 7.27484 14.3839 8.17999C14.8952 8.38806 15.3492 8.76254 15.6165 9.22927Z" fill="#F07178"/>
<path fill-rule="evenodd" clip-rule="evenodd" d="M15.375 11.3285H15.0625V10.6632C15.0625 9.74513 14.3625 9 13.5 9C12.6375 9 11.9375 9.74513 11.9375 10.6632V11.3285H11.625C11.2812 11.3285 11 11.6279 11 11.9938V15.3203C11 15.6862 11.2812 15.9856 11.625 15.9856H15.375C15.7188 15.9856 16 15.6862 16 15.3203V11.9938C16 11.6279 15.7188 11.3285 15.375 11.3285ZM13.5 14.3223C13.1562 14.3223 12.875 14.023 12.875 13.6571C12.875 13.2911 13.1562 12.9918 13.5 12.9918C13.8437 12.9918 14.125 13.2911 14.125 13.6571C14.125 14.023 13.8437 14.3223 13.5 14.3223ZM12.5312 10.6632V11.3285H14.4687V10.6632C14.4687 10.0944 14.0344 9.63202 13.5 9.63202C12.9656 9.63202 12.5312 10.0944 12.5312 10.6632Z" fill="#FFCB6B"/>
</svg>
