<svg width="16" height="16" viewBox="0 0 16 16" fill="none" xmlns="http://www.w3.org/2000/svg">
<g id="graphviz">
<path id="Vector" d="M11.2167 7.93998L9.80604 2.93835C9.6588 2.41631 9.12223 2.10683 8.59662 2.24079L1.98488 3.92591C1.44355 4.06387 1.12023 4.61857 1.26696 5.15759L3.41496 13.0482C3.55862 13.5759 4.09965 13.8904 4.62932 13.7539L11.3086 12.0332C11.852 11.8932 12.1739 11.3335 12.0215 10.7934L11.5037 8.95717L10.2217 8.4157C9.91821 8.71378 9.46745 8.91491 8.99661 8.91491C8.07729 8.91491 7.32938 8.20699 7.32938 7.33687C7.32938 6.46676 8.07729 5.75884 8.99661 5.75884C9.91591 5.75884 10.6638 6.46676 10.6638 7.3369C10.6638 7.46365 10.648 7.58692 10.618 7.70509L11.2167 7.93998ZM7.64586 5.01953C7.64586 5.01953 7.43515 5.11917 7.39717 5.19247C7.39593 5.19485 7.39427 5.19749 7.39282 5.20002C7.39892 5.2052 7.40507 5.21042 7.41138 5.21578C7.55021 5.33361 7.75873 5.51085 8.00354 5.75517C7.88815 5.82068 7.78053 5.8972 7.68225 5.98325C7.46323 5.76739 7.27685 5.60888 7.15074 5.50185C7.14765 5.49924 7.14489 5.49689 7.14191 5.49436C7.09368 5.57795 7.0461 5.75699 7.0461 5.75699C7.0461 5.75699 6.84903 5.07884 6.76159 4.90714C6.88529 4.95162 7.46968 5.04793 7.64586 5.01953ZM5.60721 13.0781C4.8283 13.2729 4.08733 13.0227 3.95217 12.5193C3.82615 12.0499 4.27147 11.5261 4.96368 11.2995C4.52142 9.95243 4.19274 7.99686 4.85673 5.86848C4.84768 5.86442 4.83932 5.86033 4.83237 5.85626C4.75994 5.81353 4.52656 5.83683 4.52656 5.83683C4.69155 5.77079 5.13416 5.39012 5.21466 5.28913C5.23479 5.47947 5.44 6.15534 5.44 6.15534C5.44 6.15534 5.31748 6.04269 5.23069 5.9908C4.59631 8.03619 4.92031 9.91832 5.34832 11.2099C6.04458 11.1107 6.68768 11.3524 6.7728 11.8137C6.8775 12.3813 6.3861 12.8832 5.60721 13.0781ZM10.3712 11.8263C9.5923 12.0212 8.85134 11.771 8.71618 11.2676C8.61476 10.8898 8.88327 10.4767 9.35277 10.2118C9.18036 10.1687 8.6179 10.0306 8.44495 10.0202L8.72829 9.91188L7.37786 8.68622C7.25842 8.73954 7.12818 8.78452 6.98848 8.81947C6.89002 8.84409 6.79216 8.86157 6.69602 8.87236L6.15923 10.5483L6.4494 10.5449C6.23043 10.56 5.77978 11.1889 5.77978 11.1889C5.77978 11.1889 5.62581 10.4516 5.5467 10.2684L5.77248 10.4661L6.28143 8.87703C5.80288 8.83148 5.42598 8.60553 5.33339 8.26068C5.19823 7.75724 5.72009 7.19114 6.49898 6.99632C6.50516 6.99476 6.51133 6.9935 6.51754 6.99202C6.3779 6.84914 6.00818 6.4751 5.87409 6.38179L6.17317 6.43593L5.82777 5.23874C5.12101 5.35272 4.48508 5.10426 4.36085 4.64158C4.22569 4.13814 4.74755 3.57205 5.52644 3.37722C6.30533 3.1824 7.04632 3.43255 7.18148 3.93598C7.30507 4.39639 6.87905 4.90899 6.2096 5.14232L6.54683 6.31108L6.79309 6.16094C6.64775 6.26161 6.59252 6.78719 6.57704 6.97837C6.70351 6.95142 6.82937 6.93611 6.95184 6.93121C6.93079 7.04631 6.91974 7.16354 6.91974 7.28258C6.91974 8.25144 7.63637 9.06346 8.59143 9.26486L8.97537 9.61333L9.10033 9.36038C9.02831 9.53145 9.31192 10.0605 9.38607 10.1938C9.53417 10.1139 9.70091 10.0485 9.88173 10.0033C9.8854 10.0023 9.88906 10.0016 9.89272 10.0007C9.81509 9.67398 9.72399 9.36751 9.62309 9.07993C9.74985 9.03876 9.87077 8.98565 9.98427 8.92169C10.0969 9.23867 10.198 9.57777 10.2833 9.94071C10.9108 9.90056 11.4587 10.1387 11.5368 10.562C11.6415 11.1296 11.1501 11.6315 10.3712 11.8263ZM11.9775 8.34219L11.9201 8.46638L10.7717 7.94217L10.5669 8.36037L11.72 8.88675L11.6673 9.0131L14.6898 10.3151L15 9.64421L11.9775 8.34219Z" fill="#FFCB6B"/>
</g>
</svg>
