<svg width="16" height="16" viewBox="0 0 16 16" fill="none" xmlns="http://www.w3.org/2000/svg">
<g id="graphql">
<g id="graphql_2">
<path id="Shape" d="M4.00395 11.1285L3.57404 10.8755L8.36347 2.42221L8.79339 2.67515L4.00395 11.1285Z" fill="#FF9CAC" stroke="#FF9CAC" stroke-width="0.5"/>
<path id="Shape_2" d="M3.47559 10.2002H13.0541V10.7061H3.47559L3.47559 10.2002Z" fill="#FF9CAC" stroke="#FF9CAC" stroke-width="0.5"/>
<g id="Shape_3">
<path fill-rule="evenodd" clip-rule="evenodd" d="M7.82719 3.13756L12.6183 5.9565L12.8665 5.5184L8.0754 2.69946L7.82719 3.13756ZM3.66513 10.4846L8.45621 13.3035L8.70442 12.8654L3.91335 10.0465L3.66513 10.4846Z" fill="#FF9CAC"/>
<path d="M12.6183 5.9565L12.4915 6.17197L12.7105 6.30083L12.8358 6.07973L12.6183 5.9565ZM7.82719 3.13756L7.60967 3.01433L7.48843 3.22831L7.70041 3.35303L7.82719 3.13756ZM12.8665 5.5184L13.084 5.64163L13.2052 5.42765L12.9933 5.30293L12.8665 5.5184ZM8.0754 2.69946L8.20218 2.48399L7.98316 2.35513L7.85789 2.57623L8.0754 2.69946ZM8.45621 13.3035L8.32943 13.519L8.54845 13.6478L8.67372 13.4267L8.45621 13.3035ZM3.66513 10.4846L3.44762 10.3613L3.32638 10.5753L3.53835 10.7L3.66513 10.4846ZM8.70442 12.8654L8.92194 12.9886L9.04317 12.7746L8.8312 12.6499L8.70442 12.8654ZM3.91335 10.0465L4.04012 9.83099L3.8211 9.70212L3.69583 9.92322L3.91335 10.0465ZM12.745 5.74103L7.95396 2.92209L7.70041 3.35303L12.4915 6.17197L12.745 5.74103ZM12.649 5.39516L12.4007 5.83326L12.8358 6.07973L13.084 5.64163L12.649 5.39516ZM7.94863 2.91493L12.7397 5.73387L12.9933 5.30293L8.20218 2.48399L7.94863 2.91493ZM8.0447 3.2608L8.29292 2.8227L7.85789 2.57623L7.60967 3.01433L8.0447 3.2608ZM8.58298 13.088L3.79191 10.2691L3.53835 10.7L8.32943 13.519L8.58298 13.088ZM8.48691 12.7422L8.23869 13.1803L8.67372 13.4267L8.92194 12.9886L8.48691 12.7422ZM3.78657 10.2619L8.57764 13.0809L8.8312 12.6499L4.04012 9.83099L3.78657 10.2619ZM3.88264 10.6078L4.13086 10.1697L3.69583 9.92322L3.44762 10.3613L3.88264 10.6078Z" fill="#FF9CAC"/>
</g>
<path id="Shape_4" d="M3.91463 5.95448L3.66641 5.51641L8.45749 2.69748L8.7057 3.13558L3.91463 5.95448Z" fill="#FF9CAC" stroke="#FF9CAC" stroke-width="0.5"/>
<g id="Shape_5">
<path fill-rule="evenodd" clip-rule="evenodd" d="M12.1809 10.5125L7.74049 2.67515L8.1704 2.42221L12.1809 9.50075V10.5125ZM12.3545 10.8188H12.1809V10.5125L12.3545 10.8188ZM12.3545 10.8188H12.6774V10.377L12.9598 10.8755L12.5299 11.1285L12.3545 10.8188ZM12.6774 10.377L12.1809 9.50075V5.18082H12.6774V10.377ZM3.85516 5.18082H4.35161V10.8188H3.85516V5.18082Z" fill="#FF9CAC"/>
<path d="M7.74049 2.67515L7.61371 2.45968L7.40173 2.5844L7.52297 2.79839L7.74049 2.67515ZM8.1704 2.42221L8.38791 2.29897L8.26264 2.07788L8.04362 2.20674L8.1704 2.42221ZM12.1809 10.8188H11.9309V11.0688H12.1809V10.8188ZM12.6774 10.8188V11.0688H12.9274V10.8188H12.6774ZM12.9598 10.8755L13.0866 11.091L13.2986 10.9663L13.1773 10.7523L12.9598 10.8755ZM12.5299 11.1285L12.3124 11.2517L12.4377 11.4728L12.6567 11.344L12.5299 11.1285ZM12.1809 5.18082V4.93082H11.9309V5.18082H12.1809ZM12.6774 5.18082H12.9274V4.93082H12.6774V5.18082ZM4.35161 5.18082H4.60161V4.93082H4.35161V5.18082ZM3.85516 5.18082V4.93082H3.60516V5.18082H3.85516ZM4.35161 10.8188V11.0688H4.60161V10.8188H4.35161ZM3.85516 10.8188H3.60516V11.0688H3.85516V10.8188ZM7.52297 2.79839L11.9634 10.6357L12.3984 10.3893L7.958 2.55192L7.52297 2.79839ZM8.04362 2.20674L7.61371 2.45968L7.86726 2.89063L8.29717 2.63768L8.04362 2.20674ZM12.3984 9.37752L8.38791 2.29897L7.95288 2.54545L11.9634 9.62399L12.3984 9.37752ZM12.4309 10.5125V9.50075H11.9309V10.5125H12.4309ZM12.3545 10.5688H12.1809V11.0688H12.3545V10.5688ZM12.4309 10.8188V10.5125H11.9309V10.8188H12.4309ZM11.9634 10.6357L12.137 10.9421L12.572 10.6956L12.3984 10.3893L11.9634 10.6357ZM12.6774 10.5688H12.3545V11.0688H12.6774V10.5688ZM12.4274 10.377V10.8188H12.9274V10.377H12.4274ZM13.1773 10.7523L12.8949 10.2537L12.4598 10.5002L12.7423 10.9988L13.1773 10.7523ZM12.6567 11.344L13.0866 11.091L12.8331 10.6601L12.4031 10.913L12.6567 11.344ZM12.137 10.9421L12.3124 11.2517L12.7474 11.0052L12.572 10.6956L12.137 10.9421ZM12.8949 10.2537L12.3984 9.37752L11.9634 9.62399L12.4598 10.5002L12.8949 10.2537ZM12.4309 9.50075V5.18082H11.9309V9.50075H12.4309ZM12.1809 5.43082H12.6774V4.93082H12.1809V5.43082ZM12.4274 5.18082V10.377H12.9274V5.18082H12.4274ZM4.35161 4.93082H3.85516V5.43082H4.35161V4.93082ZM4.60161 10.8188V5.18082H4.10161V10.8188H4.60161ZM3.85516 11.0688H4.35161V10.5688H3.85516V11.0688ZM3.60516 5.18082V10.8188H4.10516V5.18082H3.60516Z" fill="#FF9CAC"/>
</g>
<path id="Shape_6" d="M8.37181 13.0895L8.155 12.7068L12.322 10.2551L12.5388 10.6377L8.37181 13.0895Z" fill="#FF9CAC" stroke="#FF9CAC" stroke-width="0.5"/>
<g id="Shape_7">
<path fill-rule="evenodd" clip-rule="evenodd" d="M7.2226 3.09659C7.2226 3.68475 7.68912 4.16015 8.26629 4.16015C8.84346 4.16015 9.30998 3.68475 9.30998 3.09659C9.30998 2.50842 8.84346 2.03302 8.26629 2.03302C7.68912 2.03302 7.2226 2.50842 7.2226 3.09659ZM3.57714 6.47022C4.07656 6.76279 4.71654 6.58909 5.00363 6.08016C5.29073 5.57122 5.12028 4.9221 4.62086 4.62649C4.12143 4.33392 3.48145 4.50762 3.19436 5.01656C2.90726 5.52549 3.07772 6.17766 3.57714 6.47022ZM11.9088 11.3736C12.4082 11.6661 13.0482 11.4924 13.3353 10.9835C13.6254 10.4746 13.4549 9.82543 12.9525 9.52982C12.4531 9.23725 11.8131 9.41095 11.526 9.91989C11.2389 10.4288 11.4093 11.081 11.9088 11.3736ZM3.19734 10.9835C2.91024 10.4746 3.0807 9.82542 3.58011 9.52982C4.07953 9.23726 4.71653 9.41097 5.00661 9.91989C5.2937 10.4288 5.12324 11.078 4.62383 11.3736C4.12143 11.6661 3.48443 11.4924 3.19734 10.9835ZM11.9118 4.62649C11.4123 4.92209 11.2419 5.57122 11.529 6.08015C11.8161 6.58907 12.456 6.76278 12.9555 6.47022C13.4549 6.17462 13.6253 5.52549 13.3382 5.01655C13.0482 4.50763 12.4112 4.33393 11.9118 4.62649ZM8.26629 13.9671C7.68912 13.9671 7.2226 13.4917 7.2226 12.9036C7.2226 12.3154 7.68912 11.84 8.26629 11.84C8.84346 11.84 9.30998 12.3154 9.30998 12.9036C9.30998 13.4887 8.84346 13.9671 8.26629 13.9671Z" fill="#FF9CAC"/>
<path d="M5.00363 6.08016L4.78589 5.95732L4.78589 5.95733L5.00363 6.08016ZM3.57714 6.47022L3.7035 6.25451L3.7035 6.25451L3.57714 6.47022ZM4.62086 4.62649L4.7482 4.41135L4.74722 4.41078L4.62086 4.62649ZM3.19436 5.01656L3.4121 5.13939L3.4121 5.13939L3.19436 5.01656ZM13.3353 10.9835L13.1181 10.8597L13.1175 10.8607L13.3353 10.9835ZM11.9088 11.3736L12.0351 11.1578L12.0351 11.1578L11.9088 11.3736ZM12.9525 9.52982L13.0793 9.31435L13.0789 9.31411L12.9525 9.52982ZM11.526 9.91989L11.7437 10.0427L11.7437 10.0427L11.526 9.91989ZM3.58011 9.52982L3.45375 9.31411L3.45277 9.31469L3.58011 9.52982ZM3.19734 10.9835L2.97959 11.1063L2.97959 11.1063L3.19734 10.9835ZM5.00661 9.91989L5.22435 9.79706L5.2238 9.79609L5.00661 9.91989ZM4.62383 11.3736L4.74964 11.5896L4.75117 11.5887L4.62383 11.3736ZM11.529 6.08015L11.3112 6.20298L11.3112 6.20299L11.529 6.08015ZM11.9118 4.62649L11.7854 4.41077L11.7844 4.41135L11.9118 4.62649ZM12.9555 6.47022L13.0818 6.68593L13.0828 6.68536L12.9555 6.47022ZM13.3382 5.01655L13.556 4.89372L13.5554 4.89276L13.3382 5.01655ZM8.26629 3.91015C7.83161 3.91015 7.4726 3.55115 7.4726 3.09659H6.9726C6.9726 3.81836 7.54662 4.41015 8.26629 4.41015V3.91015ZM9.05998 3.09659C9.05998 3.55115 8.70096 3.91015 8.26629 3.91015V4.41015C8.98596 4.41015 9.55998 3.81836 9.55998 3.09659H9.05998ZM8.26629 2.28302C8.70096 2.28302 9.05998 2.64202 9.05998 3.09659H9.55998C9.55998 2.37482 8.98596 1.78302 8.26629 1.78302V2.28302ZM7.4726 3.09659C7.4726 2.64202 7.83161 2.28302 8.26629 2.28302V1.78302C7.54662 1.78302 6.9726 2.37482 6.9726 3.09659H7.4726ZM4.78589 5.95733C4.56678 6.34573 4.08131 6.47583 3.7035 6.25451L3.45077 6.68594C4.07181 7.04975 4.86629 6.83245 5.22138 6.20299L4.78589 5.95733ZM4.49352 4.84163C4.87422 5.06697 5.00709 5.56521 4.78589 5.95732L5.22137 6.20299C5.57437 5.57724 5.36633 4.77723 4.7482 4.41135L4.49352 4.84163ZM3.4121 5.13939C3.63121 4.75098 4.11669 4.62088 4.49449 4.8422L4.74722 4.41078C4.12618 4.04697 3.3317 4.26427 2.97662 4.89373L3.4121 5.13939ZM3.7035 6.25451C3.32455 6.03252 3.19051 5.5322 3.4121 5.13939L2.97662 4.89372C2.62401 5.51878 2.83088 6.32281 3.45077 6.68594L3.7035 6.25451ZM13.1175 10.8607C12.8984 11.2491 12.4129 11.3792 12.0351 11.1578L11.7824 11.5893C12.4034 11.9531 13.1979 11.7358 13.553 11.1063L13.1175 10.8607ZM12.8257 9.74529C13.209 9.97081 13.3412 10.4682 13.1181 10.8597L13.5525 11.1073C13.9095 10.4809 13.7008 9.68004 13.0793 9.31435L12.8257 9.74529ZM11.7437 10.0427C11.9628 9.65431 12.4483 9.52421 12.8261 9.74553L13.0789 9.31411C12.4578 8.9503 11.6633 9.16759 11.3082 9.79705L11.7437 10.0427ZM12.0351 11.1578C11.6562 10.9358 11.5221 10.4355 11.7437 10.0427L11.3082 9.79705C10.9556 10.4221 11.1625 11.2261 11.7824 11.5893L12.0351 11.1578ZM3.45277 9.31469C2.83465 9.68055 2.6266 10.4806 2.97959 11.1063L3.41508 10.8607C3.19389 10.4685 3.32676 9.97029 3.70745 9.74496L3.45277 9.31469ZM5.2238 9.79609C4.86603 9.1684 4.07546 8.94991 3.45375 9.31411L3.70648 9.74554C4.0836 9.52462 4.56704 9.65354 4.78941 10.0437L5.2238 9.79609ZM4.75117 11.5887C5.3693 11.2228 5.57734 10.4228 5.22435 9.79706L4.78886 10.0427C5.01006 10.4348 4.87718 10.9331 4.49649 11.1584L4.75117 11.5887ZM2.97959 11.1063C3.33477 11.7359 4.12604 11.9527 4.74964 11.5896L4.49803 11.1575C4.11683 11.3795 3.63409 11.2489 3.41508 10.8607L2.97959 11.1063ZM11.7467 5.95732C11.5255 5.5652 11.6584 5.06696 12.0391 4.84162L11.7844 4.41135C11.1663 4.77722 10.9582 5.57723 11.3112 6.20298L11.7467 5.95732ZM12.8291 6.25451C12.4513 6.47582 11.9658 6.34572 11.7467 5.95732L11.3112 6.20299C11.6663 6.83243 12.4608 7.04974 13.0818 6.68593L12.8291 6.25451ZM13.1205 5.13938C13.3417 5.5315 13.2088 6.02975 12.8281 6.25508L13.0828 6.68536C13.7009 6.31949 13.909 5.51947 13.556 4.89372L13.1205 5.13938ZM12.0381 4.8422C12.4152 4.62128 12.8987 4.75021 13.121 5.14035L13.5554 4.89276C13.1977 4.26506 12.4071 4.04657 11.7854 4.41077L12.0381 4.8422ZM6.9726 12.9036C6.9726 13.6254 7.54662 14.2171 8.26629 14.2171V13.7171C7.83161 13.7171 7.4726 13.3581 7.4726 12.9036H6.9726ZM8.26629 11.59C7.54662 11.59 6.9726 12.1818 6.9726 12.9036H7.4726C7.4726 12.449 7.83161 12.09 8.26629 12.09V11.59ZM9.55998 12.9036C9.55998 12.1818 8.98596 11.59 8.26629 11.59V12.09C8.70096 12.09 9.05998 12.449 9.05998 12.9036H9.55998ZM8.26629 14.2171C8.98642 14.2171 9.55998 13.6218 9.55998 12.9036H9.05998C9.05998 13.3556 8.70051 13.7171 8.26629 13.7171V14.2171Z" fill="#FF9CAC"/>
</g>
</g>
</g>
</svg>
