<svg width="16" height="16" viewBox="0 0 16 16" fill="none" xmlns="http://www.w3.org/2000/svg">
<g id="grunt">
<g id="grunt_2">
<path id="Shape" d="M2.80613 3.88056C2.80613 3.88056 3.08171 4.93516 3.12102 5.28676C3.16043 5.63827 2.41248 6.41947 2.41248 6.81007C2.41248 7.20072 2.56971 7.90377 3.43587 8.25537C4.30203 8.60692 4.42 9.50523 4.42 10.0522C4.42 10.599 4.10511 11.6535 4.10511 11.6535C4.10511 11.6535 3.90838 14.2705 4.97113 14.7392C6.03388 15.2079 5.79779 15.2079 6.03388 15.2079C6.27001 15.2079 8.00214 15.9112 9.02558 15.6377C10.0491 15.3643 10.3245 15.0518 10.3245 15.0518C10.3245 15.0518 11.348 15.1299 11.6629 14.2314C11.978 13.3331 12.1747 11.4583 12.0565 10.5989C11.9384 9.73948 11.7811 8.60697 12.4895 8.21632C13.1983 7.82567 13.9461 7.35711 13.828 6.96641C13.7099 6.57576 13.0802 6.02891 13.0802 6.02891C13.0802 6.02891 12.9227 5.0525 13.0407 4.81811C13.1587 4.58375 13.8674 3.99771 13.4737 3.56815C13.0803 3.13855 12.3715 3.13855 12.3715 3.13855L11.4662 3.21656C11.4662 3.21656 9.93095 1.84955 7.92333 1.92765C5.91581 2.00575 4.65604 3.21656 4.65604 3.21656C4.65604 3.21656 3.9869 2.9822 3.39637 3.21656C2.80585 3.451 2.68811 3.21651 2.80613 3.88056Z" fill="#FFCB6B"/>
<path id="Shape_2" fill-rule="evenodd" clip-rule="evenodd" d="M6.41041 8.13411C6.53913 7.82575 6.77414 7.24404 6.77414 7.24404V7.24399L6.41154 7.19373C6.41154 7.19373 6.01409 7.31521 6.01409 7.62063C6.01409 8.34873 5.73794 8.63614 5.73794 8.63614C5.73794 8.63614 6.27072 8.46937 6.41041 8.13411ZM6.40302 9.6962C6.40304 9.69616 6.40305 9.69614 6.40305 9.69614V9.6961L6.40302 9.6962ZM6.40302 9.6962C6.39685 9.70556 5.62121 10.8822 5.05168 11.7182C4.96321 11.848 5.62349 11.857 5.62349 11.857L6.40302 9.6962Z" fill="#F78C6C"/>
<path id="Shape_3" fill-rule="evenodd" clip-rule="evenodd" d="M4.5355 1.76943C3.98541 1.33717 3.16016 1.49654 3.16016 1.49654C3.57484 1.58601 3.60664 1.77392 3.66824 2.13783C3.68496 2.23661 3.70387 2.34836 3.73323 2.47463C3.87077 3.06611 4.31883 3.27221 4.31883 3.27221L5.24616 2.54286C5.24616 2.54286 5.08587 2.2016 4.5355 1.76943ZM5.16161 7.8231C6.05549 8.1416 6.53695 7.57292 6.53695 7.57292H6.5369C6.76614 7.18614 6.33084 6.64031 6.10155 6.5038C5.87222 6.36728 4.17583 5.73037 4.17583 6.04883C4.17583 6.36728 4.26749 7.50474 5.16161 7.8231Z" fill="#F78C6C"/>
<path id="Shape_4" fill-rule="evenodd" clip-rule="evenodd" d="M5.99043 2.38661L5.99038 2.38664L5.99043 2.38657V2.38661ZM5.99038 2.38664C5.69249 2.79611 5.83188 3.16577 5.83188 3.16577C5.83188 3.16577 6.32395 3.97038 6.49155 4.48265C5.98884 4.10341 5.16828 3.51359 5.16828 3.51359L4.83213 3.36195C4.83213 3.36195 4.84719 3.33198 4.87848 3.28176L4.55097 3.11918C4.55097 3.11918 5.38302 2.69281 5.99038 2.38664ZM4.88785 5.17546C5.35538 5.21163 5.94094 5.42992 6.29622 5.93037C6.33063 5.97884 6.36503 6.03233 6.40017 6.08698L6.40017 6.08698C6.4802 6.21142 6.56407 6.34183 6.66065 6.43258C6.88318 6.64133 7.09103 6.73424 7.28002 6.72488C7.11659 6.92535 6.09461 6.8512 5.39408 5.93847C5.01779 5.44807 3.71224 5.39324 3.71224 5.39324C3.71224 5.39324 4.09069 5.11361 4.88785 5.17546ZM2.91907 6.70547C2.64377 7.20578 4.09229 7.69989 4.09229 7.69989V7.69994C4.69745 7.91945 4.74042 8.64768 4.7559 9.18108C4.80651 10.9182 4.06499 11.2965 4.02066 11.2819C4.0163 11.2804 4.0246 11.2293 4.03907 11.1402C4.11277 10.6861 4.34636 9.24717 3.87848 8.38484C2.71159 7.84223 2.4991 7.55919 2.3724 7.16831C2.16634 6.5314 2.97517 5.93228 2.97517 5.93228C2.97517 5.93228 3.19409 6.20498 2.91907 6.70547ZM5.509 13.9269C5.509 13.9269 6.14132 14.8672 8.00826 14.8672L8.00545 15.8858C7.08746 15.8858 5.911 14.9368 5.80077 14.6318L5.509 13.9269Z" fill="#F78C6C"/>
<path id="Shape_5" fill-rule="evenodd" clip-rule="evenodd" d="M3.41254 6.17883C3.2978 7.02035 2.90819 7.15696 2.90819 7.15696C2.90109 7.14992 2.89317 7.14234 2.88467 7.13421C2.78323 7.03714 2.59946 6.8613 2.74762 6.58832C2.83857 6.42078 2.91474 6.32623 2.9887 6.23442C3.04532 6.16414 3.10064 6.09547 3.16032 5.99688C3.2978 5.76933 3.27491 4.60925 3.27491 4.60925C3.27491 4.60925 3.52714 5.33716 3.41254 6.17883ZM4.56906 11.7205C4.63018 11.5536 4.84412 10.8788 4.91285 10.2647C4.99522 9.52919 4.96519 8.45345 4.96519 8.45345C4.96519 8.45345 4.78169 9.1586 4.62122 9.27254C4.46084 9.3862 4.16274 10.1595 4.16274 10.1595C4.16274 10.1595 4.00306 11.3109 3.92707 11.6978C4.01461 11.7152 4.09637 11.7041 4.18036 11.6926C4.29819 11.6766 4.4204 11.6599 4.56906 11.7205ZM5.71357 13.2914C5.71357 13.2914 5.88535 14.333 6.57311 14.333C7.15754 14.333 7.32974 13.4532 7.32974 13.2713L5.71357 13.2914Z" fill="#F78C6C"/>
<path id="Shape_6" d="M3.45706 1.89581L3.33754 1.64563C2.98519 1.685 3.45706 1.89581 3.45706 1.89581Z" fill="#F78C6C"/>
<path id="Shape_7" d="M6.30753 2.13742C6.30753 2.13742 5.94089 2.07682 5.75739 1.80389C5.57388 1.5309 5.05438 0.984889 4.22612 0.978838C3.39791 0.972694 2.57852 1.19727 2.57852 1.19727L3.29378 1.64573C3.36944 1.64326 3.50172 1.64428 3.72045 1.65155C4.61813 1.68115 5.33046 2.66856 5.33046 2.66856L7.9199 2.12988" fill="#FFCB6B"/>
<path id="Shape_8" d="M6.61331 7.0035C6.61331 7.0035 6.18532 7.42812 5.52804 7.29156C4.87081 7.15514 4.47336 6.86698 4.44282 6.36649C4.41229 5.86605 4.5805 5.66893 4.5805 5.66893C4.5805 5.66893 5.314 5.89653 5.66572 6.19986C6.01725 6.5031 6.27702 6.98837 6.61326 7.0035H6.61331Z" fill="white"/>
<path id="Shape_9" d="M6.09529 6.85182C6.09529 6.85182 5.72411 7.02003 5.30925 6.883C4.7662 6.70325 4.73003 6.14285 4.73003 6.14285C4.73003 6.14285 4.39685 7.11298 5.33093 7.29972C6.0801 7.44945 6.52319 7.01868 6.52319 7.01868L6.09529 6.85177V6.85182Z" fill="#C9C9C9"/>
<path id="Shape_10" fill-rule="evenodd" clip-rule="evenodd" d="M7.24468 0.4088C7.00648 0.437053 6.31914 1.09966 6.35906 1.9316V1.93164C6.36203 1.99579 6.80411 1.97552 7.4034 1.94805C8.05216 1.91832 8.88515 1.88014 9.54473 1.93146C9.3729 1.43804 9.8121 0.686065 9.8121 0.686065C9.8121 0.686065 9.38622 0.592046 8.75418 1.16128C8.67233 0.958723 8.5006 0.521717 8.69883 0C7.77319 0.324415 7.53879 0.819648 7.46946 1.2688C7.26959 1.12686 7.25614 0.716578 7.2492 0.505083C7.24788 0.464624 7.24679 0.431439 7.24468 0.4088ZM3.53833 2.70027C3.50069 2.87247 3.46589 3.03164 3.66909 3.19891L4.15862 3.03996C3.97451 2.88819 3.95462 2.65397 3.93354 2.40579L3.93346 2.40481C3.91747 2.21705 3.90086 2.02319 3.80268 1.86918C3.59455 1.54313 3.24917 1.35253 2.98498 1.2479C3.23345 1.12223 3.81371 0.930469 4.44321 1.13201C5.20293 1.37506 5.72712 2.26221 5.75728 2.31325C5.75803 2.31453 5.75848 2.31529 5.75861 2.31549L6.21376 2.10311C6.18876 2.06332 5.51675 1.07825 4.60899 0.787763C3.31127 0.372028 2.47274 1.16594 2.44629 1.19666L2.2421 1.43366L2.55056 1.49361C2.55063 1.49362 2.55075 1.49365 2.55093 1.49369C2.56976 1.49759 3.21705 1.63168 3.49299 2.06397C3.54276 2.14195 3.55492 2.28292 3.56782 2.43262L3.56805 2.43521C3.57592 2.52835 3.55678 2.61588 3.53833 2.70027Z" fill="#AB633B"/>
<path id="Path" d="M2.86044 6.83705C2.86044 6.83705 3.24185 6.36769 3.35485 5.45449C3.39923 5.09475 3.32038 4.38527 3.19424 4.11234C3.21718 4.78337 3.04526 5.45449 3.04526 5.45449C3.04526 5.45449 2.92935 6.70053 2.86044 6.83705Z" fill="#212431"/>
<path id="Shape_11" fill-rule="evenodd" clip-rule="evenodd" d="M4.87187 2.72488L4.87188 2.72489H4.87183L4.87187 2.72488ZM4.87187 2.72488L5.26773 2.56832C5.26131 2.52517 5.1871 2.13434 4.56876 1.70319C3.95412 1.27447 3.28718 1.48299 3.25894 1.49207L3.34366 1.75179C3.34373 1.75176 3.34391 1.7517 3.34419 1.75161C3.36479 1.74478 3.93913 1.55438 4.41068 1.92656C4.7478 2.19276 4.87045 2.71878 4.87186 2.72484L4.87187 2.72488ZM3.89443 5.9036C3.85845 6.21619 4.05856 6.50044 4.05856 6.50044C4.12174 5.7817 4.4584 5.69927 4.4584 5.69927C4.4584 5.69927 4.35239 5.43024 4.11316 5.5345C3.98449 5.59073 3.91235 5.74921 3.89443 5.9036Z" fill="#212431"/>
<path id="Shape_12" d="M6.25576 6.93373C6.26411 6.94919 6.26842 6.95789 6.26842 6.95789C6.26842 6.95789 5.64422 7.42268 5.00458 6.951C4.66215 6.69827 4.69452 6.07322 4.7994 5.80815C5.07222 5.86949 5.30357 5.98004 5.49693 6.10915C5.25254 5.89272 5.03863 5.7334 5.0392 5.72972L4.76141 5.65171L4.2215 5.468C4.2146 5.50887 4.01768 6.42477 4.58611 7.04884C4.83801 7.32559 6.01915 7.94529 6.57999 6.88565L6.25576 6.93369V6.93373Z" fill="#212431"/>
<path id="Shape_13" d="M6.19725 7.00183C6.54864 7.53253 7.4353 7.22924 7.42005 6.66819C7.42005 6.66819 6.8276 6.99261 6.30416 6.39526C5.99855 6.04655 5.01934 5.08498 3.69138 5.40451C4.60843 5.60465 5.82255 6.43594 6.19721 7.00183H6.19725Z" fill="#212431"/>
<path id="Shape_14" d="M3.56737 8.49962C3.6519 8.54807 3.95005 8.85448 3.95023 9.31266C3.95023 9.54245 3.9272 10.6968 3.81256 11.4019C3.98495 11.5131 4.10503 11.5367 4.27671 11.65C4.36265 10.8333 4.42429 9.6496 4.39558 9.17172C4.36274 8.62701 4.06877 8.26145 3.79619 8.10558C3.71081 8.05684 3.62164 8.00895 3.53181 7.96078C3.06494 7.71046 2.58211 7.45149 2.58211 7.00936C2.58211 6.66344 2.71768 6.55527 2.86112 6.44059L2.8766 6.42816C2.97182 6.35183 3.07953 6.26525 3.14337 6.12315C3.31754 5.7346 3.34601 4.74474 3.14337 4.49349C3.04233 4.36829 2.77167 3.94725 2.84949 3.6643C2.87913 3.55632 2.94767 3.47626 3.05926 3.41957C3.17733 3.35953 3.33686 3.32914 3.53322 3.32914C3.9189 3.32914 4.3467 3.44564 4.5674 3.51499C5.35607 3.76302 6.30774 4.47813 6.58051 4.6914C6.58835 4.69736 6.59294 4.70085 6.59379 4.70141L6.76833 4.82186L6.65918 4.64062C6.65242 4.62931 5.96104 3.50126 4.72478 3.08766C4.48428 3.00719 4.01178 2.87216 3.54739 2.87216C3.27096 2.87216 3.03632 2.9201 2.85061 3.01445C2.62419 3.12937 2.47089 3.31271 2.40719 3.5445C2.25108 4.11267 2.75952 4.74525 2.77683 4.7655C2.83612 4.8705 2.86126 5.63323 2.72429 5.93847C2.70553 5.98063 2.65383 6.02201 2.58849 6.07437C2.56799 6.0908 2.5451 6.10789 2.52085 6.12613C2.32764 6.27084 2.03549 6.48946 2.03549 6.9934C2.03549 7.68291 2.73977 8.05675 3.30576 8.35733C3.39864 8.4069 3.48725 8.45382 3.56737 8.49962Z" fill="#212431"/>
<path id="Shape_15" d="M3.65931 3.24997L3.63975 3.23387C3.41525 3.04899 3.45507 2.86691 3.49363 2.69069C3.51118 2.60938 3.52966 2.52532 3.52215 2.43907C3.50991 2.29409 3.49814 2.15729 3.45414 2.08827C3.18887 1.67262 2.54773 1.53951 2.5414 1.5382L2.15619 1.46322L2.41156 1.16697C2.41625 1.16138 2.95466 0.622116 3.8665 0.622116C4.11512 0.622116 4.36978 0.663168 4.62313 0.744388C5.57058 1.04749 6.24643 2.06886 6.25281 2.07896L6.28016 2.12234L5.74175 2.37358L5.72017 2.33961C5.66219 2.24158 5.15169 1.4062 4.4295 1.17506C4.25214 1.11828 4.06525 1.08956 3.87424 1.08956C3.52825 1.08956 3.24769 1.18312 3.09838 1.24595C3.34789 1.35743 3.65049 1.54505 3.84188 1.84465C3.94601 2.00784 3.9629 2.20728 3.97941 2.40002C3.99968 2.63963 4.01882 2.865 4.18825 3.00454L4.25218 3.05714L3.65936 3.24997H3.65931Z" fill="#212431"/>
<path id="Shape_16" d="M4.87188 2.72489C4.87164 2.72392 4.74945 2.19405 4.41068 1.92656C3.93278 1.54937 3.34929 1.75002 3.34366 1.75179L3.25894 1.49207C3.28718 1.48299 3.95412 1.27447 4.56876 1.70319C5.1871 2.13434 5.26131 2.52517 5.26773 2.56832L4.87183 2.72489H4.87188Z" fill="#463014"/>
<path id="Shape_17" fill-rule="evenodd" clip-rule="evenodd" d="M4.82708 2.73472L4.839 2.78685L5.31868 2.59732L5.3131 2.56167C5.30653 2.51657 5.22913 2.10786 4.59526 1.66592C4.33436 1.48412 4.02205 1.38791 3.69172 1.38791C3.44132 1.38791 3.26429 1.44269 3.24478 1.44888L3.2012 1.46285L3.31486 1.80928L3.35863 1.79485C3.37472 1.78931 3.52215 1.7423 3.72052 1.7423C3.97467 1.7423 4.19734 1.8164 4.38202 1.96227C4.70436 2.21658 4.82464 2.72438 4.82706 2.7346L4.82708 2.73472ZM6.17491 13.9521C6.27069 14.0344 6.40893 14.0831 6.5444 14.0831C6.68325 14.0831 6.80634 14.0336 6.89091 13.9438C7.12714 13.6932 7.26669 13.4237 7.30037 13.3408C7.31979 13.2935 7.34198 13.2037 7.2727 13.1331C7.2188 13.0783 7.12498 13.0502 6.99411 13.0502H6.79287C6.58301 13.0502 6.33749 13.0502 6.19165 13.0504L6.06927 13.0506C5.89726 13.0506 5.81249 13.0994 5.77168 13.1403C5.71244 13.1999 5.70329 13.2828 5.7441 13.3863C5.85349 13.6633 6.10154 13.8893 6.17491 13.9521ZM6.68637 7.03301L6.19731 7.00182C6.19731 7.00182 6.32232 7.22049 6.40333 7.50329C6.4948 7.82319 6.31969 8.29073 6.31969 8.29073C6.31969 8.29073 6.97181 7.55812 6.68637 7.03301ZM3.72266 13.2598C3.72266 13.5997 4.33509 15.2318 6.07581 15.3645L6.11061 14.9149C4.64211 14.8028 4.17955 13.4067 4.17725 13.2598H3.94998L4.17725 13.26L3.72266 13.2598Z" fill="#212431"/>
<path id="Shape_18" d="M5.58663 12.4404C5.55943 12.2844 5.55661 12.1365 5.58978 11.9911C5.4575 11.8924 5.22014 11.8558 5.04203 11.7985C4.89638 11.707 4.15106 11.8923 3.6104 11.243C2.9329 10.4299 3.07546 9.9445 3.07546 9.9445C2.90176 10.136 2.7334 10.063 2.46865 10.9559C2.20348 11.849 2.5931 12.4716 3.31924 13.0966C3.66228 13.3919 4.14721 13.5135 4.56437 13.5601C4.42463 13.4209 4.80303 13.4069 5.06384 13.3101C5.04306 13.1012 5.07792 12.8983 5.23492 12.735C5.32958 12.6365 5.4514 12.5777 5.57782 12.5307C5.58485 12.5145 5.59081 12.4996 5.59752 12.484C5.59307 12.4697 5.58943 12.4551 5.58663 12.4404Z" fill="white"/>
<path id="Shape_19" d="M5.06035 13.3047C5.04524 13.2608 5.03384 13.2161 5.02268 13.1711C5.01062 13.122 4.95058 12.9827 5.02456 13.1417C5.00556 13.101 4.99313 13.0591 4.98398 13.0168C3.80799 13.0153 2.78493 12.2142 2.9826 10.5298C2.82865 10.3271 2.61306 10.9388 2.61306 10.9388C2.61306 10.9388 2.02431 12.635 3.54479 13.2924C4.0514 13.5116 4.49914 13.6688 4.60478 13.6053C4.82482 13.6497 5.02343 13.4975 5.09792 13.3974C5.08399 13.3666 5.07123 13.3358 5.06035 13.3047Z" fill="#C9C9C9"/>
<path id="Shape_20" d="M5.56546 12.1962C5.56729 12.054 5.59656 11.9163 5.66584 11.7792C5.67067 11.7697 5.67626 11.7606 5.68146 11.7514C5.22894 11.7476 4.70779 11.7046 4.26399 11.5283C3.7762 11.3347 3.16602 10.6724 3.06118 9.89415C3.06118 9.89415 2.14253 10.5975 2.41244 12.1031C2.66583 13.5168 3.8581 13.9777 5.21782 14.0556C5.21857 14.0465 5.0649 13.7316 5.11345 13.5388C4.34135 13.5944 3.47795 13.2985 3.06118 12.618C2.67958 11.9951 2.78662 10.9318 2.94344 10.7759C3.32597 11.9736 4.70244 12.2171 5.56546 12.1962Z" fill="#212431"/>
<path id="Shape_21" d="M5.70784 11.3388C5.46317 12.0513 4.96341 12.6279 4.96341 12.6279C4.96341 12.6279 5.65089 12.5968 5.68884 12.4762C5.71694 12.3872 6.30963 11.0105 6.53713 9.39771C6.32313 9.74656 5.72881 11.2778 5.70784 11.3388Z" fill="#212431"/>
<path id="Shape_22" fill-rule="evenodd" clip-rule="evenodd" d="M9.59526 8.13411C9.46673 7.82575 9.23172 7.24404 9.23172 7.24404V7.24399L9.59423 7.19373C9.59423 7.19373 9.99163 7.31521 9.99163 7.62063C9.99163 8.34873 10.2677 8.63614 10.2677 8.63614C10.2677 8.63614 9.73504 8.46937 9.59526 8.13411ZM9.60293 9.6962C9.6029 9.69616 9.60289 9.69614 9.60289 9.69614V9.6961L9.60293 9.6962ZM9.60293 9.6962L10.3823 11.857C10.3823 11.857 11.0427 11.848 10.9543 11.7182C10.3845 10.8822 9.6091 9.70556 9.60293 9.6962Z" fill="#F78C6C"/>
<path id="Shape_23" fill-rule="evenodd" clip-rule="evenodd" d="M11.4704 1.76943C12.0207 1.33717 12.8459 1.49654 12.8459 1.49654C12.4312 1.58598 12.3994 1.77393 12.3378 2.13788C12.3211 2.23664 12.3022 2.34836 12.2729 2.47458C12.1353 3.06602 11.6871 3.27221 11.6871 3.27221L10.7597 2.54286C10.7597 2.54286 10.9203 2.2016 11.4704 1.76943ZM10.8447 7.8231C9.95055 8.1416 9.46913 7.57292 9.46913 7.57292C9.23994 7.18614 9.67543 6.64031 9.90472 6.5038C10.1341 6.36728 11.8304 5.73037 11.8304 6.04883C11.8304 6.36728 11.7389 7.50464 10.8447 7.8231Z" fill="#F78C6C"/>
<path id="Shape_24" fill-rule="evenodd" clip-rule="evenodd" d="M10.0158 2.38661C10.6229 2.69278 11.4552 3.11918 11.4552 3.11918L11.1278 3.28176C11.159 3.33198 11.1741 3.36195 11.1741 3.36195L10.838 3.51359C10.838 3.51359 10.0174 4.1034 9.51459 4.48265C9.68205 3.97043 10.1741 3.16581 10.1741 3.16581C10.1741 3.16581 10.3138 2.79611 10.0158 2.38661ZM11.1183 5.17546C10.6506 5.21163 10.0652 5.42992 9.7099 5.93037C9.67556 5.97877 9.64122 6.03217 9.60613 6.08672C9.52604 6.21124 9.44209 6.34177 9.34547 6.43258C9.12313 6.64134 8.91514 6.73424 8.72619 6.72488C8.88962 6.92535 9.91123 6.85121 10.6118 5.93847C10.9882 5.44808 12.2937 5.39325 12.2937 5.39325C12.2937 5.39325 11.9155 5.11361 11.1183 5.17546ZM13.0871 6.70547C13.3623 7.20578 11.9139 7.6999 11.9139 7.6999C11.3087 7.9194 11.2657 8.64763 11.2503 9.18103C11.1997 10.9182 11.9411 11.2964 11.9855 11.2818C11.9898 11.2804 11.9815 11.2294 11.9671 11.1407C11.8934 10.6873 11.6595 9.24749 12.1275 8.3848C13.2944 7.84218 13.5069 7.55914 13.6336 7.16826C13.8399 6.5314 13.0308 5.93228 13.0308 5.93228C13.0308 5.93228 12.8121 6.20498 13.0871 6.70547ZM10.497 13.9268C10.497 13.9268 9.86459 14.8672 7.99798 14.8672L8.00084 15.8858C8.91855 15.8858 10.0951 14.9368 10.2054 14.6318L10.497 13.9268Z" fill="#F78C6C"/>
<path id="Shape_25" fill-rule="evenodd" clip-rule="evenodd" d="M12.5936 6.17882C12.7082 7.02035 13.098 7.15696 13.098 7.15696C13.1051 7.14987 13.1131 7.14223 13.1217 7.13403C13.2229 7.03691 13.4064 6.86104 13.2585 6.58832C13.1676 6.42083 13.0915 6.32631 13.0175 6.23453C12.9609 6.16423 12.9055 6.09554 12.8458 5.99688C12.7082 5.76933 12.7312 4.60925 12.7312 4.60925C12.7312 4.60925 12.479 5.33716 12.5936 6.17882ZM11.4371 11.7205C11.3759 11.5536 11.162 10.8788 11.0931 10.2647C11.0107 9.52919 11.0409 8.45345 11.0409 8.45345C11.0409 8.45345 11.2243 9.1586 11.3847 9.27254C11.5453 9.3862 11.8432 10.1595 11.8432 10.1595C11.8432 10.1595 12.0028 11.3109 12.0788 11.6978C11.9913 11.7152 11.9096 11.7041 11.8257 11.6926H11.8257C11.7079 11.6766 11.5858 11.6599 11.4371 11.7205ZM10.2926 13.2914C10.2926 13.2914 10.1206 14.333 9.43302 14.333C8.84873 14.333 8.67644 13.4532 8.67644 13.2713L10.2926 13.2914Z" fill="#F78C6C"/>
<path id="Shape_26" d="M12.6326 1.89581L12.7522 1.64563C13.1043 1.685 12.6326 1.89581 12.6326 1.89581Z" fill="#F78C6C"/>
<path id="Shape_27" d="M9.69838 2.13742C9.69838 2.13742 10.0652 2.07682 10.2486 1.80389C10.432 1.5309 10.9517 0.984889 11.78 0.978792C12.6082 0.972648 13.4276 1.19723 13.4276 1.19723L12.7123 1.64568C12.6367 1.64321 12.5044 1.64424 12.2855 1.6515C11.3879 1.6811 10.6676 2.66856 10.6676 2.66856L8.08624 2.12984" fill="#FFCB6B"/>
<path id="Shape_28" d="M9.39273 7.0035C9.39273 7.0035 9.82072 7.42812 10.4779 7.29156C11.1351 7.15514 11.5325 6.86698 11.5631 6.36649C11.5936 5.86605 11.4256 5.66893 11.4256 5.66893C11.4256 5.66893 10.6919 5.89653 10.3404 6.19986C9.98884 6.50319 9.72906 6.98837 9.39273 7.0035H9.39273Z" fill="white"/>
<path id="Shape_29" d="M9.91053 6.85182C9.91053 6.85182 10.2819 7.02003 10.6966 6.883C11.2398 6.70325 11.2759 6.14285 11.2759 6.14285C11.2759 6.14285 11.6089 7.11298 10.6749 7.29972C9.92582 7.44945 9.48264 7.01868 9.48264 7.01868L9.91053 6.85177V6.85182Z" fill="#C9C9C9"/>
<path id="Shape_30" fill-rule="evenodd" clip-rule="evenodd" d="M12.4678 2.7002C12.5054 2.87242 12.5401 3.03162 12.3369 3.19891L11.8474 3.03996C12.0317 2.88802 12.0516 2.65346 12.0727 2.40497L12.0728 2.40481L12.0728 2.4048C12.0887 2.21704 12.1052 2.02319 12.2034 1.86918C12.4115 1.54313 12.757 1.35253 13.0211 1.2479C12.7727 1.12223 12.1925 0.930467 11.563 1.132C10.8059 1.37422 10.2827 2.25608 10.2491 2.31269C10.2481 2.31431 10.2476 2.31526 10.2474 2.31549L9.79242 2.10311C9.81742 2.06331 10.4894 1.07825 11.397 0.787762C12.6949 0.372026 13.5334 1.16594 13.5599 1.19665L13.7642 1.43366L13.4556 1.49361L13.4554 1.49365C13.4414 1.49653 12.79 1.62996 12.513 2.06396C12.4629 2.14234 12.4509 2.28435 12.4382 2.4349L12.4381 2.4352C12.4303 2.52832 12.4494 2.61582 12.4678 2.7002ZM12.6512 5.4545C12.7642 6.3677 13.1454 6.83705 13.1454 6.83705C13.0767 6.70054 12.9608 5.4545 12.9608 5.4545C12.9608 5.4545 12.7886 4.78337 12.8116 4.11234C12.6855 4.38528 12.6068 5.09475 12.6512 5.4545Z" fill="#212431"/>
<path id="Shape_31" fill-rule="evenodd" clip-rule="evenodd" d="M11.5954 1.92656C11.2566 2.19405 11.1344 2.72392 11.1342 2.72489L10.7383 2.56832C10.7449 2.52517 10.8189 2.13434 11.4372 1.70319C12.0521 1.27447 12.7189 1.48299 12.7472 1.49207L12.6623 1.75179C12.6622 1.75177 12.6621 1.75173 12.662 1.75168C12.6454 1.74614 12.0686 1.55307 11.5954 1.92656ZM12.1115 5.9036C12.1477 6.21619 11.9476 6.50044 11.9476 6.50044C11.8844 5.7817 11.5477 5.69927 11.5477 5.69927C11.5477 5.69927 11.6537 5.43024 11.8929 5.5345C12.0217 5.59073 12.0938 5.74921 12.1115 5.9036Z" fill="#212431"/>
<path id="Shape_32" d="M9.75038 6.93373C9.74203 6.94919 9.73772 6.95789 9.73772 6.95789C9.73772 6.95789 10.3616 7.42268 11.0013 6.951C11.3439 6.69826 11.3116 6.07322 11.2065 5.80815C10.9338 5.86949 10.7025 5.98004 10.509 6.10915C10.7535 5.89272 10.9674 5.7334 10.9667 5.72972L11.2446 5.65171L11.7845 5.46809C11.7914 5.50896 11.9883 6.42486 11.4197 7.04898C11.1678 7.32568 9.98661 7.94538 9.42596 6.88574L9.75038 6.93369V6.93373Z" fill="#212431"/>
<path id="Shape_33" d="M9.80865 7.00183C9.45726 7.53253 8.57084 7.22924 8.58613 6.66819C8.58613 6.66819 9.17839 6.99261 9.70184 6.39526C10.0074 6.04655 10.9868 5.08498 12.3147 5.40451C11.3977 5.60465 10.1835 6.43594 9.80865 7.00183Z" fill="#212431"/>
<path id="Shape_34" d="M12.4388 8.49962C12.3542 8.54807 12.0559 8.85448 12.0559 9.31266C12.0557 9.54245 12.0788 10.6968 12.1936 11.4019C12.0212 11.5131 11.9011 11.5367 11.7294 11.65C11.6434 10.8333 11.5816 9.6496 11.6106 9.17172C11.6434 8.62701 11.9372 8.26145 12.2097 8.10558C12.2951 8.05684 12.3843 8.00895 12.4743 7.96078C12.9412 7.71046 13.424 7.45149 13.424 7.00936C13.424 6.66344 13.2884 6.55527 13.1449 6.44059L13.1296 6.42816C13.0344 6.35183 12.9265 6.26525 12.8628 6.12315C12.6886 5.7346 12.66 4.74474 12.8626 4.49349C12.9637 4.36829 13.2345 3.94725 13.1567 3.6643C13.1269 3.55632 13.0583 3.47626 12.9467 3.41957C12.8286 3.35953 12.6694 3.32914 12.4728 3.32914C12.0873 3.32914 11.6593 3.44564 11.4388 3.51499C10.6501 3.76302 9.6985 4.47813 9.42549 4.6914C9.4177 4.69736 9.4132 4.70085 9.41236 4.70141L9.23767 4.82186L9.34683 4.64062C9.35377 4.62931 10.045 3.50126 11.2812 3.08766C11.5218 3.00719 11.9942 2.87216 12.4586 2.87216C12.7351 2.87216 12.9694 2.9201 13.1554 3.01445C13.3819 3.12937 13.5351 3.31271 13.5989 3.5445C13.755 4.11267 13.2465 4.74525 13.2291 4.7655C13.1699 4.8705 13.1448 5.63323 13.2815 5.93847C13.3004 5.98063 13.352 6.02201 13.4176 6.07437C13.438 6.0908 13.4607 6.10789 13.4852 6.12613C13.6784 6.27084 13.9704 6.48946 13.9704 6.9934C13.9704 7.68291 13.2661 8.05675 12.7003 8.35733C12.6074 8.4069 12.5187 8.45382 12.4388 8.49962H12.4388Z" fill="#212431"/>
<path id="Shape_35" d="M11.5987 3.11778C11.4867 2.92951 11.2002 2.566 10.54 2.24656C9.80308 1.89022 8.95029 1.70935 8.00486 1.70893V1.70869H8.0012V1.70879C7.05563 1.70925 6.20265 1.89017 5.46601 2.24647C4.80573 2.56595 4.5194 2.92942 4.40729 3.11769L4.35916 3.18085L4.92459 3.30573L4.94251 3.28325L4.95199 3.26268C4.96071 3.22558 5.03651 3.02539 5.66687 2.72039C6.34079 2.39425 7.12683 2.22888 8.00289 2.2286C8.87913 2.22888 9.66484 2.39425 10.3387 2.72039C10.9691 3.02539 11.0452 3.22558 11.0538 3.26263L11.0632 3.28325L11.081 3.30573L11.6465 3.18085L11.5987 3.11778H11.5987Z" fill="#212431"/>
<path id="Shape_36" d="M12.3369 3.19891C12.6397 2.94966 12.4142 2.71838 12.4381 2.4352C12.4509 2.28454 12.4629 2.14239 12.513 2.06396C12.7916 1.62747 13.4489 1.49501 13.4556 1.49361L13.7642 1.43366L13.5599 1.19665C13.5334 1.16594 12.6949 0.372026 11.397 0.787762C10.4894 1.07825 9.81742 2.06331 9.79242 2.10311L10.2474 2.31549C10.2529 2.30711 10.7842 1.38116 11.563 1.132C12.1925 0.930467 12.7727 1.12223 13.0211 1.2479C12.757 1.35253 12.4115 1.54313 12.2034 1.86918C12.1052 2.02319 12.0887 2.21705 12.0728 2.40481C12.0517 2.65336 12.0318 2.88799 11.8474 3.03996L12.3369 3.19891Z" fill="#463014"/>
<path id="Shape_37" d="M11.7542 3.05737L11.8179 3.00472C11.9874 2.86518 12.0064 2.63982 12.0269 2.4002C12.0433 2.20742 12.0603 2.00793 12.1644 1.84484C12.3557 1.54532 12.6585 1.35765 12.9079 1.24604C12.7586 1.1833 12.478 1.08974 12.1319 1.08974C11.9408 1.08974 11.7543 1.11842 11.5768 1.17525C10.8545 1.40639 10.344 2.24177 10.2862 2.33979L10.2645 2.37377L9.72614 2.12252L9.75353 2.07914C9.75986 2.06904 10.4356 1.04771 11.383 0.744571C11.6364 0.663351 11.891 0.622345 12.1398 0.622345C13.0517 0.622345 13.5901 1.16175 13.5947 1.16719L13.8502 1.46345L13.4648 1.53839C13.4584 1.53969 12.8173 1.67276 12.5519 2.0885C12.5079 2.15757 12.4963 2.29422 12.4839 2.4393C12.4766 2.5256 12.4948 2.60965 12.5126 2.69092C12.5511 2.86714 12.591 3.04941 12.3663 3.2341L12.3468 3.2502L11.7542 3.05737Z" fill="#212431"/>
<path id="Shape_38" d="M11.1342 2.72489C11.1344 2.72392 11.2566 2.19405 11.5954 1.92656C12.0733 1.54937 12.6568 1.75002 12.6623 1.75179L12.7472 1.49207C12.7189 1.48299 12.0521 1.27447 11.4372 1.70319C10.8189 2.13434 10.7449 2.52517 10.7383 2.56832L11.1342 2.72489Z" fill="#463014"/>
<path id="Shape_39" fill-rule="evenodd" clip-rule="evenodd" d="M10.6877 2.59732L10.693 2.56167C10.6997 2.51657 10.7772 2.10795 11.4109 1.66592C11.6716 1.48412 11.984 1.38795 12.3144 1.38795C12.5649 1.38795 12.7419 1.4426 12.7615 1.44888L12.805 1.46284L12.6915 1.80928L12.6476 1.79485C12.6312 1.78935 12.4838 1.7423 12.2856 1.7423C12.0315 1.7423 11.8089 1.8163 11.6242 1.96227C11.3002 2.21798 11.1803 2.72969 11.1792 2.73472L11.1673 2.78676L10.6877 2.59732ZM9.1154 13.9438C8.87922 13.6932 8.73948 13.4236 8.7057 13.3408C8.68638 13.2936 8.66442 13.2037 8.73366 13.133C8.78765 13.0783 8.88123 13.0502 9.01206 13.0502H9.21344C9.4233 13.0502 9.66868 13.0502 9.81461 13.0504L9.93704 13.0506C10.1089 13.0506 10.1936 13.0994 10.2344 13.1403C10.2937 13.1998 10.3029 13.2826 10.2621 13.3863C10.1528 13.6633 9.90463 13.8894 9.83131 13.9521C9.73524 14.0344 9.59733 14.0831 9.46186 14.0831C9.32301 14.0831 9.19997 14.0336 9.1154 13.9438ZM9.80857 7.00183L9.31979 7.03301C9.03422 7.55813 9.68638 8.29074 9.68638 8.29074C9.68638 8.29074 9.51127 7.8232 9.60274 7.5033C9.68375 7.22049 9.80857 7.00183 9.80857 7.00183Z" fill="#212431"/>
<path id="Shape_40" d="M8.00314 5.30048C7.69143 5.30048 7.28502 5.29201 6.98007 5.07455C6.98007 5.07455 7.37935 5.76904 8.00262 5.76904L8.00314 5.68117L8.00365 5.76904C8.62697 5.76904 9.02616 5.0746 9.02616 5.0746C8.72125 5.29196 8.31456 5.30048 8.00314 5.30048Z" fill="#F78C6C"/>
<path id="Shape_41" fill-rule="evenodd" clip-rule="evenodd" d="M8.00313 5.55574C8.26947 5.54996 8.54872 5.48489 8.86136 5.29713C8.86136 5.29713 8.40583 5.84845 8.00533 5.85269V5.85302L8.00308 5.85283L8.00083 5.85302V5.85269C7.60023 5.84845 7.1449 5.29713 7.1449 5.29713C7.45759 5.48489 7.73669 5.54996 8.00313 5.55574ZM9.89553 14.9148L9.93038 15.3645C11.6709 15.2318 12.2835 13.5996 12.2833 13.2597H11.8287C11.8263 13.4067 11.3637 14.8028 9.89553 14.9148Z" fill="#212431"/>
<path id="Shape_42" d="M10.4194 12.4404C10.4468 12.2844 10.4494 12.1365 10.4163 11.9911C10.5487 11.8924 10.7859 11.8558 10.964 11.7985C11.1097 11.707 11.8552 11.8923 12.3959 11.243C13.0733 10.4299 12.9306 9.9445 12.9306 9.9445C13.1044 10.136 13.2726 10.063 13.5376 10.9559C13.8027 11.849 13.4129 12.4716 12.6868 13.0966C12.3438 13.3919 11.8588 13.5135 11.4417 13.5601C11.5814 13.4209 11.203 13.4069 10.9423 13.3101C10.9632 13.1012 10.9282 12.8983 10.7712 12.735C10.6767 12.6365 10.5547 12.5777 10.4284 12.5307C10.4213 12.5145 10.4152 12.4996 10.4087 12.484C10.4128 12.4698 10.4168 12.4555 10.4194 12.4404H10.4194Z" fill="white"/>
<path id="Shape_43" d="M10.9455 13.3047C10.9608 13.2608 10.9719 13.2161 10.9832 13.1711C10.9954 13.122 11.0554 12.9827 10.9813 13.1417C11.0004 13.101 11.0128 13.0591 11.0219 13.0168C12.1979 13.0153 13.221 12.2142 13.0231 10.5298C13.1771 10.3271 13.3928 10.9388 13.3928 10.9388C13.3928 10.9388 13.9816 12.635 12.4611 13.2924C11.9545 13.5116 11.5068 13.6688 11.4012 13.6053C11.1809 13.6497 10.9823 13.4975 10.908 13.3974C10.9218 13.3666 10.9349 13.3358 10.9455 13.3047Z" fill="#C9C9C9"/>
<path id="Shape_44" d="M10.4404 12.1962C10.4388 12.054 10.4093 11.9163 10.3403 11.7792C10.3354 11.7697 10.3298 11.7606 10.3246 11.7514C10.7771 11.7476 11.2983 11.7046 11.7421 11.5283C12.2298 11.3347 12.84 10.6724 12.9449 9.89415C12.9449 9.89415 13.8636 10.5975 13.5936 12.1031C13.3401 13.5168 12.1479 13.9777 10.7883 14.0556C10.7875 14.0465 10.9412 13.7316 10.8926 13.5388C11.6645 13.5944 12.5279 13.2985 12.945 12.618C13.3263 11.9951 13.2194 10.9318 13.0625 10.7759C12.6801 11.9736 11.3035 12.2171 10.4404 12.1962Z" fill="#3F445A"/>
<path id="Shape_45" fill-rule="evenodd" clip-rule="evenodd" d="M9.83971 12.1689C10.5284 12.1689 10.827 12.3766 10.9895 12.5508C11.2261 12.8044 11.2633 13.1572 11.0995 13.5982C10.6642 14.7719 10.0525 15.9642 8.00527 15.966V15.9662L8.00302 15.966L8.00077 15.9662V15.966C5.95332 15.9643 5.34169 14.7719 4.90648 13.5982C4.74267 13.1572 4.77982 12.8044 5.01657 12.5508C5.17911 12.3766 5.47777 12.1689 6.16629 12.1689L8.00086 12.1678H8.00537L9.83971 12.1689ZM8.00303 15.5343C9.90614 15.5319 10.4635 14.1053 10.6708 13.5159H10.6707C10.7855 13.1888 10.7767 12.947 10.644 12.7966C10.5532 12.6938 10.3448 12.5712 9.86955 12.5712L9.3734 12.571C9.00733 12.5706 8.54735 12.5703 8.00308 12.57C7.45861 12.5703 6.99887 12.5706 6.6327 12.571L6.13637 12.5712C5.66128 12.5712 5.45282 12.6938 5.36206 12.7966C5.22921 12.9469 5.22049 13.1888 5.33523 13.5159C5.54261 14.1053 6.09969 15.5319 8.00303 15.5343Z" fill="#212431"/>
<path id="Shape_46" d="M10.2981 11.3388C10.5428 12.0513 11.0425 12.6279 11.0425 12.6279C11.0425 12.6279 10.3551 12.5968 10.3171 12.4762C10.2892 12.3872 9.69647 11.0105 9.46896 9.39771C9.68277 9.74656 10.2771 11.2778 10.2981 11.3388Z" fill="#212431"/>
</g>
</g>
</svg>
