<svg width="16" height="16" viewBox="0 0 16 16" fill="none" xmlns="http://www.w3.org/2000/svg">
<g id="gulp">
<g id="gulp_2">
<path id="Shape" d="M5.77153 10.6947C5.59834 8.89554 5.45762 7.4006 5.45884 7.3726C5.46007 7.34464 5.31231 7.32176 5.13053 7.32176H4.80002V6.03362H7.37798V3.53309L8.59439 2.78336C9.3352 2.32674 9.87996 2.03362 9.9876 2.03362C10.2476 2.03362 10.5508 2.37059 10.5508 2.65952C10.5508 2.78577 10.5137 2.94094 10.4682 3.00434C10.4228 3.06775 9.99889 3.3574 9.52623 3.648L8.66693 4.17638L8.64855 5.10498L8.63016 6.03358H11.2118V7.32172H10.575L10.2534 10.6438L10.0192 13.0622C9.96952 13.5748 9.53876 13.9658 9.02381 13.9658H6.99475C6.47958 13.9658 6.04871 13.5745 5.99935 13.0617L5.77153 10.6947Z" fill="#FC8289"/>
</g>
</g>
</svg>
