<svg width="16" height="16" viewBox="0 0 16 16" fill="none" xmlns="http://www.w3.org/2000/svg">
<g id="haml">
<g id="haml_2">
<path id="Shape" fill-rule="evenodd" clip-rule="evenodd" d="M3 2.2872C3 2.2872 3.67828 1.98608 4.22749 2.0005L4.22737 2.00062C4.30584 2.00268 4.38173 2.01115 4.45257 2.02788L6.42401 5.92754L9.84021 2.8814C9.84021 2.8814 10.9897 3.29987 11.0934 3.70155L9.76204 4.92296C9.75801 4.99817 9.7491 5.06589 9.7348 5.13339C9.71488 5.2065 9.69497 5.2692 9.67505 5.33187L9.67477 5.33276C9.65494 5.39513 9.6351 5.45752 9.62519 5.51989C9.57538 5.77055 9.58531 6.01066 9.68493 6.16733C9.73473 6.25088 9.80454 6.31359 9.90415 6.37626C9.92421 6.38467 9.94428 6.39478 9.96501 6.40521C9.99575 6.42069 10.0279 6.43689 10.0636 6.44936L10.1531 6.48064L10.2627 6.51201C10.5417 6.606 10.8206 6.74186 11.0696 6.90897C11.3286 7.06563 11.5677 7.264 11.7669 7.50422C11.8665 7.62955 11.9561 7.76541 12.0259 7.91163C12.0956 8.05784 12.1554 8.22484 12.1654 8.39195C12.1754 8.56948 12.1256 8.74704 12.0459 8.89326C11.9662 9.03948 11.8566 9.15441 11.7371 9.25885C11.6376 9.34232 11.5381 9.4049 11.4386 9.4675L11.4383 9.46769V9.47824L11.4084 9.76018V9.77054L11.3984 9.781C11.3187 10.0003 11.1892 10.2092 11.0099 10.3659C10.8305 10.5225 10.6015 10.6166 10.3723 10.6479C10.1532 10.6792 9.924 10.6583 9.71481 10.6165C9.49568 10.5643 9.29646 10.4807 9.10719 10.3762H9.0973C9.07738 10.3658 9.06738 10.3449 9.06738 10.324C9.05743 10.1047 9.10719 9.90631 9.18688 9.71832C9.0076 9.69743 8.83836 9.66609 8.65905 9.62431C8.39008 9.56165 8.12102 9.47809 7.86202 9.37364C7.60308 9.2692 7.34408 9.13351 7.105 8.95595C7.03061 8.89746 6.95679 8.83415 6.8872 8.76504L6.33627 12.89C6.33627 12.89 5.13903 13.3503 4.05353 12.3879L5.24282 7.0572L3 2.2872ZM9.10741 5.84356C9.10741 5.72583 9.11644 5.60827 9.13688 5.49664L7.07083 7.392L6.96122 8.21282C7.05801 8.34839 7.19075 8.46704 7.3344 8.58C7.53362 8.73665 7.76261 8.87252 8.00169 8.98741C8.22995 9.11228 8.47804 9.21632 8.72617 9.32038L8.72892 9.32153C8.81859 9.3581 8.90579 9.39206 8.993 9.42603C9.08015 9.45998 9.1673 9.49392 9.25693 9.53047C9.29678 9.44692 9.33659 9.37372 9.3864 9.29017C9.39921 9.27097 9.4117 9.25214 9.42403 9.23352C9.47879 9.15087 9.53061 9.07266 9.59565 8.98741C9.61557 8.9665 9.65526 8.95596 9.68514 8.9664L9.70518 8.97686L9.7097 8.97844C9.85761 9.03013 10.0054 9.08179 10.1533 9.12315C10.3028 9.16492 10.4522 9.19624 10.5917 9.18579C10.7312 9.17535 10.8706 9.13359 10.9802 9.03959C11.0898 8.9456 11.1893 8.80976 11.2491 8.65309C11.2491 8.64273 11.2591 8.64273 11.269 8.64273H11.2691C11.3135 8.67062 11.3341 8.71501 11.3521 8.75389C11.3543 8.7587 11.3565 8.76342 11.3587 8.76802C11.3786 8.82024 11.3886 8.862 11.3986 8.91422C11.4185 9.00821 11.4284 9.10216 11.4284 9.19616C11.4683 9.16482 11.5181 9.1231 11.5579 9.08132C11.6476 8.98733 11.7272 8.8829 11.777 8.76801C11.8268 8.66357 11.8468 8.53825 11.8369 8.37115C11.817 8.13094 11.6775 7.89071 11.4982 7.70271C11.3188 7.51471 11.0997 7.3476 10.8706 7.21183C10.6414 7.07605 10.3925 6.97162 10.1335 6.89852L10.0339 6.8776L9.91433 6.84633C9.84459 6.82544 9.76481 6.79409 9.68512 6.75232C9.53571 6.67921 9.38635 6.55392 9.27677 6.38682C9.16719 6.2197 9.11737 6.02111 9.10741 5.84356Z" fill="#F78C6C"/>
</g>
</g>
</svg>
