<svg width="16" height="16" viewBox="0 0 16 16" fill="none" xmlns="http://www.w3.org/2000/svg">
<g id="handlebars">
<path id="file_type_mustache" fill-rule="evenodd" clip-rule="evenodd" d="M3.29317 8.31723C3.32262 8.23604 3.30944 8.14553 3.25804 8.07606C3.20664 8.00659 3.12383 7.96735 3.03738 7.9715C2.7711 7.9932 2.58733 8.56194 3.15215 8.75127C3.61646 8.90618 3.95475 8.54697 4.49032 7.9932C5.68598 6.7547 7.13066 6.63496 8.01128 7.88469C8.37432 7.19996 9.80476 6.05799 11.9868 8.42649C12.7894 9.29681 13.5065 8.47813 13.1119 8.02912C13.0279 7.94947 12.8975 7.94484 12.808 8.01834C12.7185 8.09183 12.698 8.22038 12.7601 8.31798H12.7264C11.9065 7.56964 13.619 6.87518 13.9588 8.13763C14.3091 10.0377 12.3551 10.346 10.7904 9.65452C7.76524 8.10171 7.73299 8.51854 4.80461 9.79895C3.99939 10.1446 3.071 10.0395 2.3638 9.52281C1.83573 9.00421 1.86873 7.77094 2.55357 7.52249C3.25266 7.23513 3.84374 7.85102 3.29317 8.31723Z" fill="#FFCB6B"/>
</g>
</svg>
