<svg width="48" height="48" viewBox="0 0 48 48" fill="none" xmlns="http://www.w3.org/2000/svg">
<g id="html">
<path id="Vector" d="M12.9759 36.7521L23.0939 41.7708C23.6775 42.0336 24.3251 42.1164 25.1251 41.7708L35.2055 36.7525C36.0326 36.3343 36.5219 35.4599 36.4839 34.5479L38.9668 11.5471C39.2187 10.2568 37.9963 9.05282 36.6724 9H11.3209C10.0416 9.10287 8.80205 10.0473 9.02649 11.6232L11.5842 34.8136C11.7502 35.7729 12.0397 36.2177 12.9759 36.7521ZM18.9564 31.4678L13.352 25.804C12.2184 24.9545 12.621 23.5981 13.352 22.9143L18.9941 17.2117C20.9784 15.455 23.4365 18.0715 21.7398 19.987L17.4519 24.3969L21.7022 28.6929C23.4646 30.871 20.6574 33.1333 18.9564 31.4678ZM35.2431 25.7656L29.6011 31.4678C27.677 33.1852 25.1021 30.6576 26.8553 28.6929L31.1056 24.3969L26.8177 20.063C25.1573 18.3572 27.4543 15.4892 29.5638 17.2877L35.1678 22.9523C35.9766 23.8034 35.9347 25.0644 35.2431 25.7656Z" fill="#F78C6C"/>
</g>
</svg>
