<svg width="16" height="16" viewBox="0 0 16 16" fill="none" xmlns="http://www.w3.org/2000/svg">
<g id="ionic">
<g id="Group">
<g id="Shape">
<path fill-rule="evenodd" clip-rule="evenodd" d="M12.1587 4.61058C12.1587 4.76899 12.1107 4.9162 12.0287 5.03856C12.639 5.86755 13 6.89156 13 8C13 10.7615 10.7614 13 8 13C5.23858 13 3 10.7615 3 8C3 5.23858 5.23858 3 8 3C9.10841 3 10.1324 3.36094 10.9614 3.97137C11.0838 3.88928 11.231 3.84135 11.3894 3.84135C11.8142 3.84135 12.1587 4.1857 12.1587 4.61058ZM9.79726 12.255C10.3471 12.0224 10.841 11.6894 11.2651 11.2652C11.6894 10.841 12.0224 10.3471 12.2549 9.79731C12.4956 9.22827 12.6177 8.62354 12.6177 8C12.6177 7.37644 12.4956 6.77176 12.2549 6.20272C12.1182 5.8795 11.9465 5.5758 11.7423 5.29404C11.6365 5.34873 11.5167 5.37981 11.3894 5.37981C10.9646 5.37981 10.6202 5.03546 10.6202 4.61058C10.6202 4.48334 10.6513 4.36344 10.706 4.25772C10.4242 4.05346 10.1205 3.88176 9.79726 3.74505C9.22822 3.50438 8.62353 3.38233 8 3.38233C7.37644 3.38233 6.77175 3.50438 6.20269 3.74507C5.65286 3.97762 5.15901 4.31063 4.73481 4.73483C4.3106 5.15904 3.9776 5.65289 3.74505 6.20272C3.50437 6.77176 3.38233 7.37644 3.38233 8C3.38233 8.62356 3.50437 9.22827 3.74507 9.79731C3.97762 10.3471 4.31062 10.841 4.73483 11.2652C5.15904 11.6894 5.65288 12.0224 6.20272 12.255C6.77175 12.4956 7.37644 12.6177 8 12.6177C8.62356 12.6177 9.22822 12.4956 9.79726 12.255Z" fill="#89DDFF"/>
<path d="M12.0287 5.03856L11.821 4.8993L11.7231 5.04526L11.8273 5.18679L12.0287 5.03856ZM10.9614 3.97137L10.8132 4.17268L10.9547 4.2769L11.1007 4.17899L10.9614 3.97137ZM11.2651 11.2652L11.0884 11.0884L11.0884 11.0884L11.2651 11.2652ZM9.79726 12.255L9.89464 12.4852L9.89465 12.4852L9.79726 12.255ZM12.2549 9.79731L12.0247 9.69992V9.69992L12.2549 9.79731ZM12.2549 6.20272L12.0247 6.30009L12.0247 6.30011L12.2549 6.20272ZM11.7423 5.29404L11.9447 5.1473L11.8184 4.97318L11.6274 5.07199L11.7423 5.29404ZM10.706 4.25772L10.928 4.37258L11.0268 4.18154L10.8527 4.0553L10.706 4.25772ZM9.79726 3.74505L9.89465 3.5148L9.89464 3.5148L9.79726 3.74505ZM6.20269 3.74507L6.30008 3.97533L6.30008 3.97533L6.20269 3.74507ZM4.73481 4.73483L4.55803 4.55806H4.55803L4.73481 4.73483ZM3.74505 6.20272L3.9753 6.3001L3.9753 6.3001L3.74505 6.20272ZM3.74507 9.79731L3.97532 9.69993L3.97532 9.69992L3.74507 9.79731ZM4.73483 11.2652L4.55805 11.442H4.55805L4.73483 11.2652ZM6.20272 12.255L6.10532 12.4852L6.10533 12.4852L6.20272 12.255ZM12.2363 5.17782C12.3451 5.01561 12.4087 4.82018 12.4087 4.61058H11.9087C11.9087 4.7178 11.8764 4.81679 11.821 4.8993L12.2363 5.17782ZM13.25 8C13.25 6.83639 12.8709 5.76077 12.23 4.89033L11.8273 5.18679C12.4072 5.97433 12.75 6.94674 12.75 8H13.25ZM8 13.25C10.8994 13.25 13.25 10.8995 13.25 8H12.75C12.75 10.6234 10.6233 12.75 8 12.75V13.25ZM2.75 8C2.75 10.8995 5.10051 13.25 8 13.25V12.75C5.37665 12.75 3.25 10.6234 3.25 8H2.75ZM8 2.75C5.10051 2.75 2.75 5.10051 2.75 8H3.25C3.25 5.37665 5.37665 3.25 8 3.25V2.75ZM11.1097 3.77006C10.2392 3.1291 9.16358 2.75 8 2.75V3.25C9.05324 3.25 10.0256 3.59277 10.8132 4.17268L11.1097 3.77006ZM11.3894 3.59135C11.1798 3.59135 10.9844 3.65493 10.8222 3.76375L11.1007 4.17899C11.1832 4.12362 11.2822 4.09135 11.3894 4.09135V3.59135ZM12.4087 4.61058C12.4087 4.0476 11.9522 3.59135 11.3894 3.59135V4.09135C11.6761 4.09135 11.9087 4.32379 11.9087 4.61058H12.4087ZM11.0884 11.0884C10.6868 11.4899 10.2199 11.8047 9.69987 12.0247L9.89465 12.4852C10.4743 12.24 10.9951 11.8888 11.4419 11.442L11.0884 11.0884ZM12.0247 9.69992C11.8047 10.2199 11.4899 10.6869 11.0884 11.0884L11.4419 11.442C11.8888 10.9951 12.24 10.4743 12.4852 9.8947L12.0247 9.69992ZM12.3677 8C12.3677 8.5904 12.2522 9.16199 12.0247 9.69992L12.4852 9.8947C12.739 9.29456 12.8677 8.65668 12.8677 8H12.3677ZM12.0247 6.30011C12.2522 6.83804 12.3677 7.40959 12.3677 8H12.8677C12.8677 7.3433 12.739 6.70547 12.4852 6.10533L12.0247 6.30011ZM11.5399 5.44079C11.733 5.70725 11.8954 5.99439 12.0247 6.30009L12.4852 6.10535C12.3411 5.7646 12.16 5.44434 11.9447 5.1473L11.5399 5.44079ZM11.3894 5.62981C11.5579 5.62981 11.717 5.58857 11.8571 5.51609L11.6274 5.07199C11.5561 5.10889 11.4754 5.12981 11.3894 5.12981V5.62981ZM10.3702 4.61058C10.3702 5.17354 10.8265 5.62981 11.3894 5.62981V5.12981C11.1027 5.12981 10.8702 4.89738 10.8702 4.61058H10.3702ZM10.4839 4.14286C10.4114 4.28297 10.3702 4.44214 10.3702 4.61058H10.8702C10.8702 4.52455 10.8911 4.44391 10.928 4.37258L10.4839 4.14286ZM9.69987 3.9753C10.0056 4.1046 10.2927 4.26696 10.5592 4.46013L10.8527 4.0553C10.5556 3.83997 10.2354 3.65891 9.89465 3.5148L9.69987 3.9753ZM8 3.63233C8.59039 3.63233 9.16194 3.74778 9.69988 3.9753L9.89464 3.5148C9.29451 3.26097 8.65668 3.13233 8 3.13233V3.63233ZM6.30008 3.97533C6.83804 3.74778 7.40958 3.63233 8 3.63233V3.13233C7.3433 3.13233 6.70547 3.26097 6.1053 3.51482L6.30008 3.97533ZM4.91158 4.91161C5.31314 4.51006 5.78006 4.19527 6.30008 3.97533L6.10531 3.51482C5.52566 3.75998 5.00489 4.1112 4.55803 4.55806L4.91158 4.91161ZM3.9753 6.3001C4.19524 5.78009 4.51003 5.31316 4.91158 4.91161L4.55803 4.55806C4.11117 5.00492 3.75995 5.52569 3.51479 6.10534L3.9753 6.3001ZM3.63233 8C3.63233 7.40959 3.74778 6.83804 3.9753 6.3001L3.5148 6.10533C3.26097 6.70547 3.13233 7.3433 3.13233 8H3.63233ZM3.97532 9.69992C3.74778 9.16199 3.63233 8.59042 3.63233 8H3.13233C3.13233 8.6567 3.26097 9.29456 3.51482 9.8947L3.97532 9.69992ZM4.91161 11.0884C4.51005 10.6869 4.19526 10.2199 3.97532 9.69993L3.51482 9.89469C3.75998 10.4743 4.11119 10.9951 4.55805 11.442L4.91161 11.0884ZM6.30011 12.0247C5.78008 11.8047 5.31316 11.49 4.91161 11.0884L4.55805 11.442C5.00492 11.8888 5.52569 12.24 6.10532 12.4852L6.30011 12.0247ZM8 12.3677C7.40958 12.3677 6.83804 12.2522 6.3001 12.0247L6.10533 12.4852C6.70547 12.739 7.3433 12.8677 8 12.8677V12.3677ZM9.69988 12.0247C9.16194 12.2522 8.59042 12.3677 8 12.3677V12.8677C8.6567 12.8677 9.29451 12.739 9.89464 12.4852L9.69988 12.0247Z" fill="#89DDFF"/>
</g>
<path id="Oval" d="M8.00008 10.3077C9.27458 10.3077 10.3078 9.27452 10.3078 8.00001C10.3078 6.72551 9.27458 5.69232 8.00008 5.69232C6.72557 5.69232 5.69238 6.72551 5.69238 8.00001C5.69238 9.27452 6.72557 10.3077 8.00008 10.3077Z" fill="#3965BD"/>
</g>
</g>
</svg>
