<svg width="14" height="14" viewBox="0 0 14 14" fill="none" xmlns="http://www.w3.org/2000/svg">
<g id="java" clip-path="url(#clip0)">
<path id="Vector" d="M9.74874 3.06384C8.68604 3.38456 7.53474 3.82383 6.90394 4.78631C6.45468 5.48669 6.78078 6.3859 7.30761 6.94371C7.67275 7.30287 7.52877 7.89222 7.15503 8.18561C6.76336 8.5277 7.21559 8.46773 7.44281 8.30342C7.99824 7.96047 8.61867 7.33393 8.38147 6.61919C8.19481 6.07947 7.49423 5.63219 7.74173 5.00145C8.22248 4.13391 9.22404 3.75228 9.97842 3.16332C10.2686 2.96958 9.86106 3.09017 9.74874 3.06384ZM7.89455 0C7.92802 0.154513 7.9615 0.309139 7.99497 0.463653C8.57682 2.77083 5.67838 3.29948 4.9858 4.93503C4.70077 5.77097 5.36128 6.53378 5.88965 7.10453C6.25317 7.47304 6.62234 7.84713 7.04664 8.15275C6.85309 7.17179 5.76065 6.53971 5.85881 5.48524C6.05372 4.47249 7.11552 4.02797 7.72462 3.29695C8.73632 2.17383 8.96067 0.999391 7.89455 0Z" fill="#FC8289"/>
<path id="Vector_2" d="M4.99939 10.7141C4.69734 10.7935 4.15521 10.9931 4.30216 11.4017C4.58287 11.8456 5.18354 11.9103 5.65799 12.0063C6.86108 12.1748 8.1107 11.9943 9.20797 11.4712C8.83106 11.3528 8.47798 11.129 8.13021 10.9922C7.11726 11.1988 6.03634 11.2857 5.02835 11.0154C5.07993 10.8951 5.54194 10.6186 5.15633 10.7026C5.10401 10.7064 5.0517 10.7103 4.99939 10.7141ZM4.67481 9.24399C4.37286 9.36552 3.83524 9.51038 3.8868 9.93157C4.07347 10.3532 4.63475 10.3918 5.02945 10.4839C6.52927 10.7016 8.06738 10.51 9.50721 10.061C9.18946 9.94198 8.85015 9.82972 8.61489 9.57232C7.33888 9.82527 5.99129 9.95245 4.71534 9.68242C4.53585 9.58784 4.89914 9.41113 4.91929 9.31561C5.27954 9.0072 4.79365 9.27048 4.67481 9.24399ZM2.85718 12.3479C3.32117 12.0395 3.89285 11.9595 4.44094 12.035C4.18415 11.8489 3.94933 11.6383 3.61054 11.6854C2.97402 11.7475 2.29236 11.914 1.82795 12.3807C1.5977 12.6516 1.92434 12.9611 2.20072 12.993C4.5554 13.4362 7.00888 13.5013 9.37379 13.0876C9.99121 12.927 10.7292 12.8562 11.1758 12.3576C11.3841 12.0044 10.8942 11.7458 10.6071 11.7235C10.4885 11.7532 10.8178 11.9634 10.8088 12.1181C10.5197 12.4373 10.0079 12.4284 9.60364 12.5295C6.60351 12.9199 3.64006 12.7639 2.85718 12.3479ZM9.28334 8.63784C9.51219 8.51413 9.75434 8.41702 9.94388 8.23224C9.20141 8.18784 8.47521 8.43212 7.73654 8.45826C6.53686 8.53185 5.30771 8.66892 4.11872 8.44084C3.93484 8.39829 4.26825 8.30242 4.31572 8.26508C4.74337 8.07498 5.21583 8.03256 5.62714 7.80154C5.45659 7.76274 5.29121 7.69061 5.11335 7.7127C4.34281 7.75564 3.5492 7.94506 2.90572 8.37517C2.67806 8.59057 2.96161 8.87002 3.19736 8.89858C4.83307 9.35146 8.54492 9.1237 9.28334 8.63784ZM10.5155 7.58524C10.1254 7.58361 9.75065 7.77028 9.59218 8.14508C9.40939 8.39295 9.89841 8.03153 10.0617 8.03528C10.5826 7.81908 11.2136 8.38584 10.9656 8.91988C10.7094 9.56876 10.0151 9.88017 9.49382 10.2525C9.06023 10.6078 9.19869 10.6243 9.66152 10.4561C10.4995 10.211 11.5038 9.81866 11.7787 8.9063C11.9768 8.15533 11.2467 7.51553 10.5155 7.58524ZM3.23199 13.3212C3.83735 13.9077 4.74025 13.8681 5.51883 13.9605C7.29614 14.0372 9.12159 14.0534 10.8303 13.5182C11.3177 13.3597 11.9404 12.9761 11.8038 12.3692C11.8443 12.0059 11.6607 12.4839 11.5835 12.5467C10.5277 13.5933 5.82457 13.7369 3.23199 13.3212Z" fill="#80CBC4"/>
</g>
<defs>
<clipPath id="clip0">
<rect width="14" height="14" fill="white"/>
</clipPath>
</defs>
</svg>
