<svg width="16" height="16" viewBox="0 0 16 16" fill="none" xmlns="http://www.w3.org/2000/svg">
<g id="jenkins">
<g id="jenkins_2">
<g id="Group">
<g id="Clipped">
<mask id="mask0" mask-type="alpha" maskUnits="userSpaceOnUse" x="2" y="1" width="12" height="12">
<rect id="Rectangle-path" x="2.50671" y="1.5932" width="11.3538" height="11.4068" fill="white"/>
</mask>
<g mask="url(#mask0)">
<g id="Group_2">
<g id="Group_3">
<path id="Shape" d="M10.2864 10.0531L9.44548 10.1798L8.31028 10.3066L7.57449 10.3277L6.85981 10.3066L6.31321 10.1376L5.8297 9.60961L5.4513 8.53248L5.36723 8.30014L4.86271 8.13122L4.56839 7.64544L4.35818 6.94849L4.58946 6.336L5.13599 6.14592L5.57744 6.35716L5.7877 6.82177L6.03996 6.77951L6.12402 6.67395L6.03996 6.18817L6.0189 5.57568L6.14503 4.73092L6.1401 4.24837L6.52342 3.63271L7.19615 3.14693L8.37337 2.64005L9.67666 2.83013L10.8119 3.65381L11.3374 4.49856L11.6738 5.11105L11.7578 6.63167L11.5056 7.94112L11.0431 9.10269L10.6017 9.71519" fill="#F0D6B7"/>
<path id="Shape_2" d="M9.57188 13.7068L6.56569 13.8335V14.3404L6.81795 16.1145L6.69182 16.2624L4.58966 15.5443L4.44246 15.2908L4.23225 12.9043L3.74882 11.4681L3.64368 11.1302L5.32539 9.96867L5.85098 9.75743L6.31342 10.3277L6.71283 10.6867L7.17535 10.8345L7.38553 10.8979L7.63779 11.9961L7.82699 12.2284L8.31053 12.0595L7.97414 12.7142L9.80304 13.5801L9.57184 13.7068" fill="#335061"/>
<path id="Shape_3" d="M4.58974 6.33594L5.13626 6.14586L5.57772 6.3571L5.78797 6.82172L6.04024 6.77946L6.1033 6.52602L5.97717 6.0403L6.1033 4.87865L5.99816 4.24505L6.37655 3.80154L7.1964 3.14684L6.96515 2.83004L5.80898 3.40028L5.32547 3.78045L5.05219 4.37178L4.63175 4.94203L4.50562 5.61789L4.58974 6.33598" fill="#6D6B6D"/>
<path id="Shape_4" d="M5.45154 4.35104C5.45154 4.35104 5.76686 3.56966 7.02816 3.18947C8.28949 2.80931 7.09122 2.91487 7.09122 2.91487L5.72486 3.44291L5.19927 3.97089L4.96808 4.39331L5.45154 4.35105" fill="#DCD9D8"/>
<path id="Shape_5" d="M4.82089 6.18814C4.82089 6.18814 4.37944 4.70968 6.06118 4.49851L5.99812 4.24507L4.84194 4.51967L4.50555 5.61788L4.58968 6.33597L4.82088 6.18815" fill="#DCD9D8"/>
</g>
<g id="Group_4">
<path id="Shape_6" d="M5.49365 8.15234L5.7689 7.88439C5.7689 7.88439 5.89313 7.8989 5.91412 8.04672C5.93511 8.1946 5.99818 9.52518 6.90213 10.2433C6.98458 10.3088 6.22948 10.1376 6.22948 10.1376L5.55675 9.08166" fill="#F7E4CD"/>
<path id="Shape_7" d="M9.36176 7.75106C9.36176 7.75106 9.41076 7.11088 9.58236 7.16011C9.75397 7.20934 9.75397 7.38174 9.75397 7.38174C9.75397 7.38174 9.33723 7.6526 9.36176 7.75107" fill="#F7E4CD"/>
<path id="Shape_8" d="M11.1067 5.40676C11.1067 5.40676 10.7602 5.48026 10.7283 5.78693C10.6964 6.09365 11.1067 5.85029 11.1698 5.82919" fill="#F7E4CD"/>
<path id="Shape_9" d="M8.56284 5.42791C8.56284 5.42791 8.10031 5.49127 8.10031 5.78691C8.10031 6.08261 8.62591 6.06151 8.77304 5.93479" fill="#F7E4CD"/>
<g id="Group_5">
<path id="Shape_10" d="M5.70383 6.80067C5.70383 6.80067 4.90497 6.31489 4.82092 6.77957C4.73684 7.24418 4.54759 7.58216 4.94705 8.06787L4.67378 7.98341L4.42152 7.32871L4.33746 6.69511L4.82093 6.18817L5.3675 6.23043L5.68282 6.48387L5.70383 6.80066" fill="#F7E4CD"/>
<path id="Shape_11" d="M6.08224 5.47015C6.08224 5.47015 6.43962 3.61164 8.24754 3.25259C9.73594 2.95702 10.5179 3.31595 10.8122 3.65385C10.8122 3.65385 9.48783 2.06993 8.22649 2.55564C6.96516 3.04142 6.04028 3.92845 6.06126 4.4986C6.09706 5.46981 6.08228 5.47015 6.08228 5.47015" fill="#F7E4CD"/>
<path id="Shape_12" d="M10.9595 3.86469C10.9595 3.86469 10.3499 3.84359 10.3288 4.39273C10.3288 4.39273 10.3287 4.47719 10.3708 4.56165C10.3708 4.56165 10.8544 4.01251 11.1486 4.30821" fill="#F7E4CD"/>
<path id="Shape_13" d="M8.28992 4.61924C8.28992 4.61924 8.18498 3.77638 7.46967 4.26639C7.0072 4.58319 7.04928 5.0267 7.13333 5.11115C7.21741 5.19567 7.19455 5.36579 7.25855 5.24901C7.32252 5.13224 7.30146 4.75208 7.53273 4.64652C7.76398 4.5409 8.14306 4.42292 8.28991 4.61921" fill="#F7E4CD"/>
</g>
</g>
<g id="Group_6">
<path id="Shape_14" fill-rule="evenodd" clip-rule="evenodd" d="M6.31348 10.3277L4.33746 11.2147C4.33746 11.2147 5.1573 14.4883 4.73684 15.5021L4.44253 15.3965L4.42151 14.1505L3.87501 11.7851L3.64374 11.1303L5.70381 9.73652L6.31345 10.3278" fill="#49728B"/>
<path id="Shape_15" fill-rule="evenodd" clip-rule="evenodd" d="M6.51669 12.1383L6.79703 12.482V13.7492H6.46064C6.46064 13.7492 6.41864 12.8622 6.41864 12.7565C6.41864 12.6509 6.46064 12.2707 6.46064 12.2707" fill="#49728B"/>
</g>
<g id="Group_7">
<path id="Shape_16" d="M9.97103 13.728L11.1482 13.6647C11.1482 13.6647 11.6317 12.4397 11.6317 12.3764C11.6317 12.313 12.0522 10.6023 12.0522 10.6023L11.1062 9.60966L10.917 9.44068L10.4125 9.94756V11.9117L9.97101 13.728" fill="#335061"/>
<path id="Shape_17" d="M10.5177 9.88418L11.9892 10.9824L12.0313 10.4755L10.9171 9.44067L10.5177 9.88419" fill="#49728B"/>
</g>
<path id="Shape_18" d="M9.92327 13.5593L9.46082 12.3766L8.97729 11.6796C8.97729 11.6796 9.08236 11.3839 9.22956 11.3839H9.71308L10.1755 11.5529L10.1335 12.3344L9.92328 13.5594" fill="white"/>
<path id="Shape_19" d="M7.44245 10.3702L6.86008 10.3065L6.31348 10.1376V10.3276L6.58054 10.6235L7.42143 11.0037" fill="white"/>
<path id="Shape_20" fill-rule="evenodd" clip-rule="evenodd" d="M6.50275 10.4335C6.50275 10.4335 7.15447 10.7081 7.36469 10.6447L7.3856 10.8979L6.7971 10.7714L6.4397 10.518L6.50276 10.4335" fill="#DCD9D8"/>
<path id="Shape_21" fill-rule="evenodd" clip-rule="evenodd" d="M10.7618 11.4558C10.4051 11.4453 10.0828 11.4027 9.80065 11.3227C9.81982 11.2065 9.78393 11.0925 9.81275 11.0088C9.8914 10.9519 10.0232 10.9528 10.1421 10.9394C10.0393 10.8887 9.89487 10.8686 9.77624 10.8979C9.77347 10.8172 9.73746 10.7673 9.71564 10.7041C9.91618 10.6322 10.3896 10.1608 10.6559 10.3169C10.7828 10.3912 10.8367 10.8153 10.8466 11.0215C10.8548 11.1926 10.8311 11.3652 10.7617 11.4558" fill="#D33833"/>
<path id="Shape_22" fill-rule="evenodd" clip-rule="evenodd" d="M10.7618 11.4558C10.4051 11.4453 10.0828 11.4027 9.80065 11.3227C9.81982 11.2065 9.78393 11.0925 9.81275 11.0088C9.8914 10.9519 10.0232 10.9528 10.1421 10.9394C10.0393 10.8887 9.89487 10.8686 9.77624 10.8979C9.77347 10.8172 9.73746 10.7673 9.71564 10.7041C9.91618 10.6322 10.3896 10.1608 10.6559 10.3169C10.7828 10.3912 10.8367 10.8153 10.8466 11.0215C10.8548 11.1926 10.8311 11.3652 10.7617 11.4558L10.7618 11.4558Z" stroke="#D33833" stroke-width="0.521739"/>
<path id="Shape_23" fill-rule="evenodd" clip-rule="evenodd" d="M9.05591 10.87C9.05497 10.8971 9.05383 10.9244 9.05276 10.9518C8.94138 11.0253 8.76159 11.0244 8.63937 11.0862C8.81955 11.0941 8.96138 11.1377 9.08411 11.1991C9.08139 11.2674 9.07881 11.3357 9.07616 11.404C8.87202 11.5444 8.68553 11.7535 8.44518 11.8851C8.33154 11.9474 7.9327 12.1076 7.81179 12.0793C7.74338 12.0634 7.73722 11.9781 7.70988 11.8977C7.65162 11.7255 7.51748 11.4515 7.50578 11.1924C7.49088 10.865 7.45799 10.3165 7.80909 10.3839C8.09234 10.4382 8.42178 10.5693 8.6411 10.6897C8.77512 10.7633 8.85262 10.8543 9.05595 10.87" fill="#D33833"/>
<path id="Shape_24" fill-rule="evenodd" clip-rule="evenodd" d="M9.05591 10.87C9.05497 10.8971 9.05383 10.9244 9.05276 10.9518C8.94138 11.0253 8.76159 11.0244 8.63937 11.0862C8.81955 11.0941 8.96138 11.1377 9.08411 11.1991C9.08139 11.2674 9.07881 11.3357 9.07616 11.404C8.87202 11.5444 8.68553 11.7535 8.44518 11.8851C8.33154 11.9474 7.9327 12.1076 7.81179 12.0793C7.74338 12.0634 7.73722 11.9781 7.70988 11.8977C7.65162 11.7255 7.51748 11.4515 7.50578 11.1924C7.49088 10.865 7.45799 10.3165 7.80909 10.3839C8.09234 10.4382 8.42178 10.5693 8.6411 10.6897C8.77512 10.7633 8.85262 10.8543 9.05595 10.87L9.05591 10.87Z" stroke="#D33833" stroke-width="0.521739"/>
<path id="Shape_25" fill-rule="evenodd" clip-rule="evenodd" d="M9.25864 11.2605C9.22749 11.0822 9.19148 11.0313 9.20542 10.8758C9.67872 10.5587 9.76758 11.4204 9.25864 11.2605Z" fill="#D33833"/>
<path id="Shape_26" fill-rule="evenodd" clip-rule="evenodd" d="M9.25864 11.2605C9.22749 11.0822 9.19148 11.0313 9.20542 10.8758C9.67872 10.5587 9.76758 11.4204 9.25864 11.2605Z" stroke="#D33833" stroke-width="0.521739"/>
<g id="Group_8">
<path id="Shape_27" d="M9.94412 11.405C9.94412 11.405 9.79692 11.1938 9.90205 11.1304C10.0072 11.067 10.1123 11.1305 10.1754 11.0248C10.2384 10.9192 10.1754 10.8559 10.1964 10.7291C10.2174 10.6024 10.3226 10.5813 10.4276 10.5602C10.5327 10.5391 10.8271 10.4968 10.8691 10.6024L10.743 10.2223L10.4907 10.1378L9.69184 10.6024L9.64978 10.8348V11.2994" fill="#EF3D3A"/>
<path id="Shape_28" d="M7.73674 12.102C7.71149 11.7724 7.68476 11.4432 7.65503 11.114C7.61053 10.6223 7.77258 10.7081 8.1968 10.7081C8.26159 10.7081 8.59574 10.7857 8.61964 10.8348C8.7343 11.07 8.42793 11.0178 8.7517 11.1952C9.02503 11.3449 9.50787 11.1043 9.39742 10.7714C9.33562 10.6974 9.07541 10.7484 8.98214 10.6998C8.81791 10.6142 8.65369 10.5287 8.48945 10.4432C8.2805 10.3342 7.79756 10.1755 7.5748 10.3277C7.01034 10.7133 7.61042 11.677 7.81178 12.0793" fill="#EF3D3A"/>
<g id="Group_9">
<path id="Shape_29" d="M8.28991 4.61923C7.71695 4.48516 7.43228 4.86012 7.2586 5.24902C7.10352 5.21126 7.16523 4.99939 7.2044 4.89142C7.30696 4.60807 7.72026 4.23089 8.05793 4.28202C8.20326 4.30401 8.39991 4.43751 8.28992 4.61922" fill="#231F20"/>
<path id="Shape_30" d="M11.0818 5.2745C11.0908 5.2749 11.1 5.27519 11.109 5.27557C11.2385 5.5458 11.3505 5.83206 11.5139 6.0706C11.4045 6.32664 10.6854 6.55321 10.6964 6.09347C10.852 6.02517 11.1204 6.07954 11.2583 5.99229C11.1786 5.77249 11.0636 5.58539 11.0818 5.27447" fill="#231F20"/>
<path id="Shape_31" d="M8.58321 5.28193C8.70606 5.50818 8.74604 5.74591 8.92067 5.91692C8.99931 5.9939 9.15225 6.08774 9.07644 6.30183C9.05872 6.35233 8.92925 6.46491 8.85451 6.48703C8.5815 6.56801 7.94538 6.50376 8.16081 6.1618C8.38659 6.17238 8.69007 6.30912 8.85882 6.14444C8.72922 5.93631 8.49817 5.52453 8.58323 5.28193" fill="#231F20"/>
<path id="Shape_32" d="M10.979 7.58124C10.5679 7.84652 10.1096 8.135 9.43602 8.06809C9.2921 7.94239 9.23724 7.66265 9.37706 7.47789C9.44984 7.6036 9.40411 7.8348 9.60693 7.86959C9.9891 7.93529 10.4339 7.63471 10.7088 7.52966C10.8792 7.24093 10.6941 7.13474 10.5405 6.94891C10.2261 6.56818 9.80445 6.09625 9.81971 5.52631C9.94678 5.43374 9.95776 5.6676 9.97599 5.71018C10.1401 6.09617 10.5533 6.58979 10.8548 6.92019C10.9288 7.00154 11.0507 7.0796 11.0643 7.13339C11.1034 7.28983 10.9626 7.47724 10.9789 7.58128" fill="#231F20"/>
<path id="Shape_33" d="M5.56001 7.30196C5.43117 7.22808 5.4005 6.90267 5.24924 6.89341C5.03308 6.88023 5.07249 7.31558 5.07335 7.57016C4.92456 7.43445 4.89839 7.01658 5.0077 6.80201C4.88312 6.74056 4.82749 6.86981 4.75839 6.91537C4.8472 6.2672 5.70216 6.61472 5.56002 7.30199" fill="#231F20"/>
<path id="Shape_34" d="M11.2405 7.85117C11.0491 8.21707 10.7785 8.62006 10.217 8.63174C10.2056 8.51358 10.1968 8.33376 10.2176 8.26261C10.6468 8.22117 10.9118 8.00169 11.2404 7.85115" fill="#231F20"/>
<path id="Shape_35" d="M8.55088 8.0884C8.90899 8.27759 9.56713 8.29793 10.0539 8.28361C10.08 8.39075 10.0793 8.52312 10.0804 8.65376C9.45469 8.68513 8.71494 8.52958 8.55087 8.0884" fill="#231F20"/>
<path id="Shape_36" d="M8.48277 8.44117C8.73041 9.06584 9.58152 8.99393 10.2993 8.97669C10.2677 9.05779 10.1992 9.15359 10.1141 9.18825C9.88408 9.28228 9.24972 9.35362 8.9304 9.18324C8.72789 9.07509 8.59779 8.83071 8.48684 8.68745C8.43326 8.61826 8.16646 8.44155 8.48278 8.44117" fill="#231F20"/>
</g>
<path id="Shape_37" d="M10.9493 11.8869C10.6587 12.3869 10.3807 12.9005 10.0359 13.3416C10.1804 12.9146 10.2423 12.1999 10.2641 11.6551C10.5665 11.5129 10.8255 11.6871 10.9494 11.8869" fill="#82AAFF"/>
<path id="Shape_38" d="M9.90782 10.3015C9.75817 10.3996 9.63071 10.5221 9.48699 10.6269C9.16825 10.6428 8.99432 10.6048 8.76013 10.4209C8.76398 10.4061 8.7875 10.4127 8.78839 10.3946C9.12957 10.5474 9.56325 10.3324 9.90778 10.3015" fill="#F0D6B7"/>
<path id="Shape_39" d="M8.11683 12.638C8.21057 12.2299 8.57787 12.0185 8.91139 11.7938C9.25566 12.2328 9.46504 12.7973 9.6956 13.342C9.15084 13.1771 8.59422 12.9094 8.11676 12.638" fill="#82AAFF"/>
<path id="Shape_40" fill-rule="evenodd" clip-rule="evenodd" d="M11.3833 13.3256C11.8933 13.0709 12.8462 12.64 13.1659 13.3265C13.2839 13.5796 13.4223 14.0074 13.4834 14.2686C13.5698 14.6372 13.3898 15.4118 13.0128 15.5355C12.6797 15.6448 12.2911 15.6381 11.8899 15.5571C11.8427 15.5177 11.7901 15.4489 11.7533 15.3771C11.4669 15.366 11.1987 15.3926 10.9724 15.5109C10.9928 15.7128 10.8649 15.7539 10.737 15.795C10.7301 15.7972 10.7232 15.7994 10.7162 15.8017C10.6639 16.0103 10.7217 16.2525 10.7779 16.4879C10.8285 16.7 10.8779 16.9067 10.844 17.0782C10.7972 17.3141 10.5288 17.3674 10.3058 17.4117C10.2852 17.4158 10.265 17.4199 10.2454 17.4239C10.2384 17.5573 10.2532 17.6701 10.2681 17.7828C10.2692 17.7911 10.2703 17.7995 10.2714 17.8078C10.2183 18.0042 9.98046 18.1159 9.75507 18.1433C9.01349 18.2329 7.8875 18.2732 7.17416 18.0155C7.01719 17.6286 6.88648 17.1758 6.75692 16.7269C6.7222 16.6066 6.68756 16.4866 6.65252 16.3682C6.08191 16.4295 5.60073 16.1874 5.15348 15.9623C5.05547 15.913 4.95909 15.8645 4.86376 15.8202C4.81291 15.7965 4.75666 15.7758 4.70045 15.755C4.55363 15.7009 4.40705 15.6469 4.35743 15.5407C4.31192 15.4434 4.3103 15.2851 4.30852 15.1123C4.3077 15.0326 4.30685 14.9498 4.30163 14.8685C4.30026 14.847 4.29889 14.8255 4.29752 14.804C4.25713 14.1694 4.218 13.5548 4.05085 12.9037C4.00535 12.7266 3.94005 12.5617 3.87478 12.3969C3.82872 12.2806 3.78269 12.1644 3.74365 12.0439C3.71586 11.9579 3.68144 11.8655 3.64617 11.7707C3.57076 11.5682 3.49141 11.355 3.46434 11.1718C3.42128 10.8804 3.60924 10.7901 3.80682 10.6952C3.87963 10.6602 3.95374 10.6246 4.01809 10.5781C4.28184 10.3873 4.50509 10.2574 4.75684 10.1109C4.85768 10.0523 4.96309 9.99094 5.07751 9.92198C5.10481 9.90552 5.14481 9.88326 5.19069 9.85772C5.34389 9.77243 5.5627 9.65062 5.59398 9.58655C5.65313 9.46572 5.55135 9.30863 5.46954 9.18236C5.4396 9.13615 5.41233 9.09406 5.39661 9.05939C5.30378 8.8548 5.25537 8.68101 5.24207 8.47915C4.90647 8.42586 4.65206 8.2252 4.49841 7.99894C4.24421 7.62448 4.06791 6.93174 4.28785 6.40476C4.29456 6.38863 4.31165 6.36643 4.33079 6.34159C4.36089 6.30251 4.39605 6.25687 4.40381 6.21791C4.41867 6.14342 4.3993 6.05436 4.38016 5.96635C4.36705 5.90606 4.35405 5.84628 4.35222 5.79201C4.32912 5.10709 4.46757 4.51695 4.92651 4.31044C5.08328 3.68305 5.58022 3.40798 6.10815 3.11575C6.20766 3.06067 6.30828 3.00498 6.40792 2.9462C6.61707 2.82285 6.84529 2.73915 7.08157 2.65249C7.1106 2.64185 7.13975 2.63116 7.169 2.62034C8.1281 2.26572 9.59969 2.3325 10.3957 2.93733C10.7332 3.19381 11.2727 3.73533 11.4657 4.12741C11.9754 5.16252 11.9392 6.89242 11.5827 8.15161L11.5794 8.16337C11.5316 8.33204 11.463 8.57381 11.3682 8.77222C11.3485 8.81349 11.3167 8.86678 11.2822 8.92469C11.1981 9.06575 11.0977 9.23418 11.1158 9.32295C11.1354 9.41971 11.3936 9.63733 11.5634 9.78039C11.6207 9.82871 11.668 9.86852 11.6925 9.8923C11.7347 9.93316 11.786 9.97724 11.8399 10.0236C12.01 10.1697 12.2065 10.3386 12.2269 10.5011C12.2499 10.6823 12.1731 10.9166 12.1078 11.1155C12.0911 11.1666 12.0751 11.2153 12.0617 11.2602C11.8436 11.9937 11.6307 12.6716 11.3833 13.3256ZM6.23973 10.487C6.21908 10.4722 6.15543 10.3968 6.08005 10.3075C5.94676 10.1496 5.7768 9.94821 5.74296 9.9616C5.04334 10.2388 4.38917 10.7181 3.8046 11.1715C4.36196 12.373 4.58692 13.8452 4.62673 15.264C4.78002 15.336 4.92884 15.4157 5.07848 15.4958C5.55211 15.7494 6.03403 16.0074 6.69244 16.0416L6.67746 15.9352L6.67746 15.9352L6.67746 15.9352L6.67745 15.9352C6.58311 15.2652 6.49782 14.6596 6.44375 14.0221C6.31312 13.9668 6.14841 13.9794 5.99353 13.9912C5.89031 13.9991 5.79146 14.0067 5.70998 13.9936C5.70902 13.857 5.80442 13.8386 5.89423 13.8211C5.9667 13.8071 6.03554 13.7937 6.04717 13.7197C6.05555 13.6662 6.02545 13.6337 5.99302 13.5988C5.94944 13.5519 5.90167 13.5004 5.93748 13.3872C6.01188 13.4143 6.06977 13.4568 6.12766 13.4994C6.1937 13.5479 6.25973 13.5963 6.35023 13.622C6.45252 13.3972 6.41903 13.0584 6.39072 12.7718C6.37607 12.6236 6.36281 12.4894 6.37043 12.3922C6.37467 12.3387 6.39704 12.0957 6.51639 12.1383C6.58412 12.1625 6.56252 12.4214 6.54135 12.6751C6.5295 12.8172 6.51778 12.9577 6.52194 13.0545C6.52476 13.1211 6.52393 13.1872 6.52312 13.2511C6.52091 13.426 6.5189 13.5855 6.59227 13.6998C7.42946 13.5853 8.28024 13.5113 9.18608 13.4863C9.13439 13.464 9.08018 13.4421 9.02371 13.4192L9.02362 13.4191L9.02361 13.4191L9.0236 13.4191C8.86237 13.3538 8.68269 13.281 8.49049 13.1721C8.45392 13.1514 8.39689 13.1249 8.3318 13.0946L8.33179 13.0946L8.33179 13.0946C8.14643 13.0084 7.89568 12.8917 7.86563 12.7923C7.82657 12.6633 7.89639 12.5707 7.9668 12.4773C8.01318 12.4157 8.05982 12.3538 8.07576 12.281C7.69304 12.4907 7.58929 12.1385 7.49886 11.8315C7.48944 11.7995 7.48017 11.768 7.47073 11.7377C7.38016 11.4467 7.32859 11.2293 7.30637 11.0615L7.1908 11.0064C6.8613 10.8495 6.52014 10.687 6.23976 10.487L6.23973 10.487ZM8.64077 10.6897C8.42147 10.5693 8.09203 10.4382 7.80875 10.3839C7.46519 10.3179 7.48931 10.8418 7.50447 11.171L7.50545 11.1924C7.51437 11.39 7.59451 11.5963 7.65789 11.7594L7.65789 11.7595L7.65789 11.7595L7.65789 11.7595C7.67762 11.8102 7.69572 11.8568 7.70954 11.8977C7.71546 11.9151 7.72039 11.9327 7.72517 11.9498L7.72517 11.9498C7.74247 12.0118 7.75786 12.0668 7.81146 12.0793C7.93237 12.1076 8.3312 11.9474 8.44485 11.8851C8.58802 11.8067 8.71208 11.7008 8.83215 11.5983L8.83216 11.5983C8.91365 11.5287 8.9933 11.4607 9.07583 11.404L9.08378 11.1991C8.96106 11.1377 8.81922 11.0941 8.63904 11.0862C8.69492 11.0579 8.76283 11.0428 8.83074 11.0276L8.83075 11.0276C8.91137 11.0097 8.99198 10.9917 9.05243 10.9518L9.05559 10.87C8.90438 10.8583 8.82276 10.805 8.73574 10.7481C8.70574 10.7286 8.6751 10.7085 8.64074 10.6897L8.64077 10.6897ZM9.22879 11.1211C9.20929 11.039 9.19565 10.9816 9.20513 10.8758C9.67844 10.5588 9.7673 11.4204 9.25836 11.2605C9.24841 11.2035 9.23795 11.1596 9.22879 11.1211ZM6.54612 10.3074L6.54613 10.3074H6.54611L6.54612 10.3074ZM7.05157 10.4182C6.8583 10.4043 6.66507 10.3904 6.54612 10.3074C6.36415 10.4931 7.05662 10.7461 7.27709 10.7597C7.27649 10.7022 7.29246 10.6463 7.30731 10.5943C7.32278 10.5401 7.33703 10.4902 7.33005 10.4473C7.24325 10.4319 7.1474 10.4251 7.05157 10.4182ZM8.78821 10.3946C8.78774 10.4043 8.78076 10.4069 8.77379 10.4095C8.76776 10.4118 8.76174 10.414 8.75996 10.4209C8.99412 10.6048 9.16805 10.6428 9.48681 10.6269C9.54744 10.5827 9.60516 10.5354 9.66288 10.488L9.66291 10.488L9.66291 10.488C9.74203 10.4231 9.82113 10.3582 9.90765 10.3015C9.79739 10.3114 9.678 10.3401 9.55543 10.3696C9.29501 10.4323 9.02024 10.4985 8.78825 10.3946L8.78821 10.3946ZM10.6555 10.3169C10.7824 10.3912 10.8363 10.8153 10.8461 11.0216L10.8462 11.0215C10.8544 11.1926 10.8307 11.3652 10.7613 11.4558C10.4047 11.4453 10.0824 11.4027 9.80023 11.3227C9.80919 11.2685 9.80613 11.2147 9.80327 11.1642V11.1642C9.8 11.1066 9.79698 11.0534 9.81234 11.0088C9.87543 10.9631 9.97275 10.9547 10.0702 10.9462C10.0942 10.9441 10.1182 10.9421 10.1417 10.9394C10.0389 10.8887 9.89445 10.8686 9.77583 10.8979C9.77389 10.8414 9.75562 10.7999 9.73736 10.7585C9.72956 10.7408 9.72176 10.723 9.71522 10.7042C9.77635 10.6822 9.86283 10.6232 9.96108 10.5561C10.1851 10.4031 10.4704 10.2083 10.6555 10.3169ZM10.9359 11.5175C11.1644 11.0841 11.0593 9.73876 10.4764 10.0227L10.4764 10.0227C10.515 9.96579 10.5833 9.91354 10.6551 9.85861C10.7349 9.79752 10.8191 9.73311 10.8716 9.65524C11.0143 9.77068 11.1242 9.88218 11.2373 9.99701C11.3192 10.0801 11.4027 10.1649 11.5017 10.2542C11.5329 10.2823 11.5716 10.3118 11.6125 10.3431L11.6126 10.3431L11.6126 10.3431L11.6126 10.3431C11.7391 10.4398 11.8874 10.553 11.9066 10.6938C11.9182 10.7783 11.8784 10.9623 11.8506 11.0911L11.8506 11.0911C11.8441 11.1208 11.8383 11.1475 11.834 11.1694C11.7307 11.6825 11.4985 12.3602 11.2773 12.8978C11.2634 12.9316 11.2496 12.9668 11.2357 13.0022C11.1694 13.1716 11.1016 13.3448 11.0138 13.3797C10.8794 13.4331 10.7317 13.4347 10.5873 13.4363C10.4196 13.4381 10.2564 13.4399 10.1237 13.5229C10.273 13.2626 10.4283 13.0088 10.5836 12.7551L10.5836 12.7551L10.5836 12.7551L10.5836 12.7551L10.5836 12.7551L10.5836 12.755C10.7735 12.4447 10.9633 12.1345 11.1422 11.8124C11.1197 11.7595 11.0822 11.7205 11.0448 11.6814L11.0448 11.6814C10.9999 11.6346 10.9551 11.5879 10.9359 11.5175ZM4.90659 4.82928C4.63802 5.12616 4.68349 5.67388 4.71719 6.0798L4.7206 6.12096C5.22265 5.80365 5.88901 6.14605 5.88276 6.68575C6.07488 6.68062 6.01655 6.49049 5.9635 6.31757C5.95036 6.27475 5.93755 6.23298 5.92895 6.19534C5.8627 5.90575 5.91057 5.60446 5.95771 5.30783C6.01139 4.96998 6.06412 4.63816 5.94619 4.33655C5.51619 4.36931 5.16293 4.54576 4.90661 4.8293L4.90659 4.82928ZM5.20095 4.25284C5.45935 3.68532 6.26522 3.22628 6.89403 3.04722L6.89404 3.04722C6.92852 3.0374 6.95882 3.06097 6.9876 3.09189C6.98478 3.16686 6.92908 3.18448 6.8734 3.2021C6.85468 3.20802 6.83597 3.21394 6.81927 3.22203C6.7666 3.287 6.70155 3.33438 6.63378 3.38373C6.56859 3.43122 6.50088 3.48053 6.43927 3.5491C6.39323 3.60025 6.34523 3.68224 6.29477 3.76845C6.20397 3.92357 6.10517 4.09235 5.99535 4.11972C5.94424 4.13249 5.88885 4.12474 5.83665 4.11743C5.80131 4.11248 5.76742 4.10774 5.7373 4.10971C5.63105 4.11646 5.54175 4.14896 5.45072 4.18208L5.45071 4.18208L5.45071 4.18209C5.37265 4.21049 5.29332 4.23936 5.20095 4.25284ZM10.1673 3.21562C9.51463 2.84566 8.40993 2.56739 7.71562 2.9151C7.15543 3.19572 6.39821 3.66001 6.14001 4.2484C6.29655 4.61693 6.21977 4.96544 6.14116 5.32229C6.09866 5.51521 6.05562 5.71056 6.04862 5.91284C6.04308 6.07317 6.08261 6.22286 6.1233 6.37692C6.16044 6.51757 6.19854 6.66186 6.20419 6.82122C6.12166 6.95802 5.86952 6.97487 5.69498 6.96549C5.63623 6.67011 5.53338 6.3381 5.23062 6.30478C4.80222 6.2577 4.48898 6.61391 4.46954 6.98612C4.44651 7.42387 4.80421 8.14938 5.31117 8.09905C5.40356 8.08988 5.46307 8.04114 5.52256 7.99243C5.58919 7.93786 5.65579 7.88332 5.76852 7.88439C5.8396 8.02687 5.75593 8.10928 5.67386 8.19013C5.62238 8.24084 5.57152 8.29093 5.55986 8.35484C5.55198 8.39767 5.58425 8.56506 5.60302 8.64357C5.69511 9.02581 5.90039 9.52054 6.10244 9.81156C6.35889 10.1807 6.86272 10.2363 7.4048 10.2725C7.50161 10.063 7.85825 10.0802 8.09063 10.135C7.81214 10.0242 7.55323 9.75555 7.33863 9.51776C7.09216 9.24493 6.84249 8.95227 6.82988 8.59566L6.87462 8.65808C7.3209 9.28105 7.70771 9.821 8.52739 10.0974C9.16825 10.3133 9.91668 9.9984 10.4091 9.65099C10.5712 9.53648 10.6814 9.36869 10.7926 9.19954L10.7926 9.19952C10.8216 9.15539 10.8506 9.11116 10.8807 9.06776C11.4241 8.28239 11.6777 7.16149 11.6219 6.07496C11.6189 6.01579 11.6163 5.95665 11.6137 5.89786C11.5966 5.51146 11.5802 5.14049 11.4503 4.87887C11.2939 4.56365 10.765 4.28164 10.4553 4.56676C10.3979 4.26023 10.7128 4.07065 11.0826 4.18097C11.0468 4.13451 11.0107 4.08679 10.9742 4.03846L10.9741 4.03834C10.7418 3.73096 10.4911 3.39926 10.1672 3.21563L10.1673 3.21562Z" fill="#231F20"/>
<path id="Shape_41" d="M7.98102 8.24819C8.00869 8.21118 8.1608 8.15498 8.37365 8.25794C8.37365 8.25794 8.12139 8.3002 8.14237 8.72275L8.03726 8.70159C8.03726 8.70159 7.92862 8.31845 7.98102 8.24818" fill="#F7E4CD"/>
<path id="Shape_42" d="M9.82443 11.8795C9.82443 11.9439 9.77266 11.9962 9.70877 11.9962C9.64495 11.9962 9.59317 11.9439 9.59317 11.8795C9.59317 11.815 9.64495 11.7627 9.70877 11.7627C9.77265 11.7627 9.82443 11.815 9.82443 11.8795Z" fill="#1D1919"/>
<path id="Shape_43" d="M9.94009 12.418C9.94009 12.4825 9.88832 12.5347 9.82443 12.5347C9.76061 12.5347 9.70883 12.4825 9.70883 12.418C9.70883 12.3536 9.76061 12.3013 9.82443 12.3013C9.88831 12.3013 9.94009 12.3536 9.94009 12.418Z" fill="#1D1919"/>
</g>
</g>
</g>
</g>
</g>
</g>
</g>
</svg>
