<svg width="16" height="16" viewBox="0 0 16 16" fill="none" xmlns="http://www.w3.org/2000/svg">
<g id="jest">
<g id="jest_2">
<path id="Shape" d="M10.1201 5.47382L9.44462 6.84162C9.66651 7.04777 9.82313 7.31937 9.88513 7.62696H10.3942C10.4529 7.33573 10.5965 7.07395 10.802 6.87107L10.1201 5.47382Z" fill="#FC8289"/>
<path id="Shape_2" d="M8.87685 6.51113L10.1201 3.99149L11.36 6.52749C11.409 6.51113 11.4579 6.49804 11.5069 6.48495L12.6848 3H7.55206L8.72675 6.47513C8.77569 6.48495 8.8279 6.49804 8.87685 6.51113Z" fill="#FC8289"/>
<path id="Shape_3" d="M8.44939 8.73956C8.90296 8.73956 9.27168 8.3698 9.27168 7.91496C9.27168 7.74807 9.22273 7.59428 9.13789 7.46339C9.11179 7.42085 9.07916 7.38158 9.04653 7.34558L9.04327 7.34231C9.01064 7.30632 8.97148 7.27359 8.93232 7.24742L8.92906 7.24414C8.91927 7.2376 8.90622 7.22778 8.89317 7.22124C8.8899 7.22124 8.8899 7.21797 8.88664 7.21797C8.87359 7.21142 8.86054 7.20161 8.84748 7.19506H8.84422C8.83117 7.18852 8.81485 7.1787 8.8018 7.17216H8.79854C8.78549 7.16561 8.77243 7.15907 8.75938 7.15579C8.75612 7.15579 8.75286 7.15252 8.74959 7.15252C8.7398 7.14925 8.72675 7.1427 8.71696 7.13943C8.7137 7.13943 8.71044 7.13616 8.70391 7.13616C8.69086 7.13289 8.67781 7.12634 8.66475 7.12307H8.66149C8.64518 7.1198 8.63212 7.11653 8.61581 7.11325C8.61255 7.11325 8.60928 7.11325 8.60276 7.10998C8.5897 7.10671 8.57992 7.10671 8.56686 7.10344C8.56034 7.10344 8.55707 7.10344 8.55055 7.10017C8.54076 7.10017 8.52771 7.09689 8.51792 7.09689H8.5016H8.45266H8.40371H8.39066C8.37761 7.09689 8.36782 7.10017 8.35477 7.10017H8.34171C8.32866 7.10344 8.31561 7.10344 8.30256 7.10671H8.29277C8.27645 7.10998 8.2634 7.11325 8.24709 7.11653C7.88815 7.20488 7.62058 7.5321 7.62058 7.91823C7.62711 8.36653 7.99583 8.73956 8.44939 8.73956Z" fill="#FC8289"/>
<path id="Shape_4" d="M11.9082 7.09031H11.9017C11.8886 7.09031 11.8788 7.08704 11.8658 7.08704H11.8234C11.8071 7.08704 11.7907 7.08704 11.7712 7.09031H11.7548C11.7418 7.09031 11.7287 7.09358 11.7157 7.09358C11.7124 7.09358 11.7059 7.09358 11.7026 7.09685L11.6537 7.10667H11.6504C11.6341 7.10994 11.6211 7.11321 11.6047 7.11649C11.6015 7.11649 11.595 7.11976 11.5917 7.11976C11.5786 7.12303 11.5656 7.1263 11.5525 7.13285C11.5493 7.13285 11.546 7.13612 11.5427 7.13612C11.5264 7.14266 11.5101 7.14921 11.4971 7.15575C11.4807 7.1623 11.4677 7.16884 11.4514 7.17539C11.4481 7.17539 11.4449 7.17866 11.4416 7.17866C11.4285 7.1852 11.4155 7.19175 11.4024 7.20156C11.4024 7.20156 11.3992 7.20156 11.3992 7.20484C11.3698 7.2212 11.3404 7.24083 11.3143 7.26374L11.3111 7.26701C11.2687 7.29973 11.2328 7.33573 11.1969 7.37499C11.161 7.41426 11.1316 7.46007 11.1055 7.50588C11.037 7.62696 10.9978 7.76766 10.9978 7.91492C10.9978 8.36976 11.3665 8.73952 11.8201 8.73952C12.2737 8.73952 12.6424 8.36976 12.6424 7.91492C12.6424 7.5157 12.3552 7.17866 11.98 7.1034C11.9604 7.09685 11.9343 7.09358 11.9082 7.09031Z" fill="#FC8289"/>
<path id="Shape_5" d="M5.03951 8.73955C5.49307 8.73955 5.8618 8.36978 5.8618 7.91494C5.8618 7.4601 5.49307 7.09033 5.03951 7.09033C4.58595 7.09033 4.21722 7.4601 4.21722 7.91494C4.21722 8.36978 4.58595 8.73955 5.03951 8.73955Z" fill="#FC8289"/>
<path id="Shape_6" d="M11.8266 9.37761C11.1479 9.37761 10.5769 8.90967 10.4137 8.2814H9.86555C9.7024 8.90967 9.13137 9.37761 8.45265 9.37761C8.37434 9.37761 8.29929 9.37106 8.2275 9.36125C8.03825 9.65248 7.8131 9.9208 7.54879 10.1695C7.08218 10.6112 6.55356 10.9385 5.98253 11.1446L5.84875 11.1937L5.72475 11.1283C5.03951 10.7749 4.68711 10.0582 4.8111 9.36452C4.73279 9.35143 4.65774 9.3318 4.58595 9.30562C4.5729 9.32852 4.56311 9.3547 4.55006 9.38088C4.34122 9.81282 4.1226 10.2578 4.04429 10.7356C3.95945 11.2461 3.92355 12.1787 4.64142 12.676C4.95468 12.892 5.28424 13 5.65297 13C6.36105 13 7.1246 12.6204 7.93383 12.2179C8.56686 11.9038 9.21947 11.5766 9.89818 11.4097C10.156 11.3475 10.417 11.3082 10.6683 11.2722C11.1283 11.2068 11.5656 11.1414 11.9213 10.9352C12.2998 10.716 12.5576 10.3495 12.6293 9.93062C12.675 9.67538 12.6489 9.41687 12.5641 9.178C12.3487 9.30235 12.0975 9.37761 11.8266 9.37761Z" fill="#FC8289"/>
</g>
</g>
</svg>
