<svg width="16" height="16" viewBox="0 0 16 16" fill="none" xmlns="http://www.w3.org/2000/svg">
<g id="js">
<path id="Vector" d="M11.0513 10.5305C11.5994 11.2632 10.1354 11.7956 9.54524 10.7368L8.74348 11.202L8.79262 11.2834C9.09465 11.792 9.56643 12.0899 10.2041 12.1755C11.6003 12.3424 12.5117 11.4521 12.017 10.1878C11.6654 9.46484 10.7441 9.32812 10.207 8.97168C9.89117 8.78766 9.95692 8.39816 10.2106 8.2419C10.4079 8.12037 10.8613 8.10498 11.0949 8.58927L11.8621 8.09481C11.2568 7.00391 9.82617 7.22363 9.39734 7.71929C8.81422 8.40435 8.98102 9.16895 9.49414 9.66016C9.89324 10.0422 10.5196 10.1719 11.0513 10.5305ZM7.42652 12.0748C7.86852 11.8961 8.12778 11.5265 8.19637 10.9771C8.20232 10.9215 8.2063 7.37171 8.2063 7.37171H7.23387L7.22685 10.883C7.2041 11.1104 7.0682 11.2733 6.86963 11.3052C6.53083 11.3598 6.30496 11.2611 6.06957 10.8204L5.27788 11.299C5.61719 12.0967 6.64009 12.3896 7.42652 12.0748ZM3.87643 3H12.1236C12.6091 3 13 3.39088 13 3.87643V12.1236C13 12.6091 12.6091 13 12.1236 13H3.87643C3.39088 13 3 12.6091 3 12.1236V3.87643C3 3.39088 3.39088 3 3.87643 3Z" fill="#FFCB6B"/>
</g>
</svg>
