<svg width="16" height="16" viewBox="0 0 16 16" fill="none" xmlns="http://www.w3.org/2000/svg">
<g id="js_map">
<g id="javascript-map">
<path id="Shape" d="M11.4826 5.50122V6.69377H11.6751C12.2274 6.69377 12.6751 7.14148 12.6751 7.69377V11.6565C12.6751 12.2088 12.2274 12.6565 11.6751 12.6565H7.7124C7.16011 12.6565 6.7124 12.2088 6.7124 11.6565V11.464H5.51985V12.849C5.51985 13.4013 5.96757 13.849 6.51985 13.849H12.8677C13.42 13.849 13.8677 13.4013 13.8677 12.849V6.50122C13.8677 5.94894 13.42 5.50122 12.8677 5.50122H11.4826Z" fill="#FC8289"/>
<path id="Vector" d="M9.24617 8.77747C9.7395 9.43685 8.42188 9.91602 7.89072 8.96308L7.16913 9.38183L7.21335 9.45507C7.48518 9.91281 7.90979 10.1809 8.48371 10.2579C9.74023 10.4082 10.5605 9.60693 10.1153 8.46905C9.79883 7.81836 8.96973 7.69531 8.48633 7.37451C8.20206 7.20889 8.26123 6.85834 8.48954 6.71771C8.66712 6.60833 9.0752 6.59448 9.28537 7.03034L9.97585 6.58533C9.43115 5.60352 8.14355 5.80127 7.75761 6.24736C7.2328 6.86391 7.38292 7.55205 7.84473 7.99414C8.20391 8.33799 8.7676 8.45473 9.24617 8.77747ZM5.98387 10.1674C6.38166 10.0065 6.615 9.67387 6.67673 9.17943C6.68209 9.12938 6.68567 5.93454 6.68567 5.93454H5.81048L5.80416 9.0947C5.78369 9.29932 5.66138 9.44596 5.48267 9.47472C5.17774 9.52379 4.97446 9.435 4.76261 9.03833L4.05009 9.46913C4.35547 10.187 5.27608 10.4507 5.98387 10.1674ZM2.78879 2H10.2112C10.6482 2 11 2.35179 11 2.78879V10.2112C11 10.6482 10.6482 11 10.2112 11H2.78879C2.35179 11 2 10.6482 2 10.2112V2.78879C2 2.35179 2.35179 2 2.78879 2Z" fill="#FFCB6B"/>
</g>
</g>
</svg>
