<svg width="16" height="16" viewBox="0 0 16 16" fill="none" xmlns="http://www.w3.org/2000/svg">
<g id="json">
<path id="path4" fill-rule="evenodd" clip-rule="evenodd" d="M5.5 3.5H4.5C3.94772 3.5 3.5 3.94772 3.5 4.5V6.5C3.5 7.05228 3.05228 7.5 2.5 7.5H2V8.5H2.5C3.05228 8.5 3.5 8.94772 3.5 9.5V11.5C3.5 12.05 3.965 12.365 4.5 12.5H5.5V11.5H4.5V9C4.5 8.44772 4.05228 8 3.5 8C4.05228 8 4.5 7.55228 4.5 7V4.5H5.5V3.5ZM12.5 4.5C12.5 3.94772 12.0523 3.5 11.5 3.5H10.5V4.5H11.5V7C11.5 7.55228 11.9477 8 12.5 8C11.9477 8 11.5 8.44772 11.5 9V11.5H10.5V12.5H11.5C12.0523 12.5 12.5 12.0523 12.5 11.5V9.5C12.5 8.94772 12.9477 8.5 13.5 8.5H14V7.5H13.5C12.9477 7.5 12.5 7.05228 12.5 6.5V4.5Z" fill="#89DDFF"/>
<path id="Union" fill-rule="evenodd" clip-rule="evenodd" d="M6 7.5C6.27614 7.5 6.5 7.72386 6.5 8C6.5 8.27614 6.27614 8.5 6 8.5C5.72386 8.5 5.5 8.27614 5.5 8C5.5 7.72386 5.72386 7.5 6 7.5ZM8 7.5C8.27614 7.5 8.5 7.72386 8.5 8C8.5 8.27614 8.27614 8.5 8 8.5C7.72386 8.5 7.5 8.27614 7.5 8C7.5 7.72386 7.72386 7.5 8 7.5ZM10.5 8C10.5 7.72386 10.2761 7.5 10 7.5C9.72386 7.5 9.5 7.72386 9.5 8C9.5 8.27614 9.72386 8.5 10 8.5C10.2761 8.5 10.5 8.27614 10.5 8Z" fill="#FFCB6B"/>
</g>
</svg>
