<svg width="16" height="16" viewBox="0 0 16 16" fill="none" xmlns="http://www.w3.org/2000/svg">
<g id="julia">
<g id="Group">
<path id="Oval 2 Copy" fill-rule="evenodd" clip-rule="evenodd" d="M11.25 12.5C12.4926 12.5 13.5 11.4926 13.5 10.25C13.5 9.00736 12.4926 8 11.25 8C10.0074 8 9 9.00736 9 10.25C9 11.4926 10.0074 12.5 11.25 12.5Z" fill="#9883EC"/>
<path id="Oval 2" fill-rule="evenodd" clip-rule="evenodd" d="M5.25 12.5C6.49264 12.5 7.5 11.4926 7.5 10.25C7.5 9.00736 6.49264 8 5.25 8C4.00736 8 3 9.00736 3 10.25C3 11.4926 4.00736 12.5 5.25 12.5Z" fill="#FC8289"/>
<path id="Oval 2 Copy 2" fill-rule="evenodd" clip-rule="evenodd" d="M8.25 8C9.49264 8 10.5 6.99264 10.5 5.75C10.5 4.50736 9.49264 3.5 8.25 3.5C7.00736 3.5 6 4.50736 6 5.75C6 6.99264 7.00736 8 8.25 8Z" fill="#C3E88D"/>
</g>
</g>
</svg>
