<svg width="16" height="16" viewBox="0 0 16 16" fill="none" xmlns="http://www.w3.org/2000/svg">
<path d="M7.99999 12.32C7.03011 12.3189 6.08881 11.9915 5.32756 11.3905C4.5663 10.7896 4.02938 9.94998 3.80319 9.00685C4.15392 9.47024 4.73871 9.86535 5.48486 10.1431C6.23101 10.4208 7.10563 10.5689 7.99999 10.569C8.89629 10.5684 9.77244 10.4192 10.5191 10.1399C11.2657 9.86058 11.8498 9.46362 12.1984 8.99853C11.9737 9.94348 11.4373 10.7852 10.6756 11.3878C9.91383 11.9904 8.97127 12.3188 7.99999 12.32V12.32ZM3.80159 6.99957C4.02623 6.05462 4.56269 5.21292 5.32442 4.61029C6.08615 4.00766 7.02871 3.67926 7.99999 3.67808C8.96986 3.67917 9.91117 4.00655 10.6724 4.60751C11.4337 5.20847 11.9706 6.04808 12.1968 6.99121C11.8461 6.52782 11.2613 6.1327 10.5151 5.85497C9.76896 5.57724 8.89435 5.42914 7.99999 5.42909C7.10369 5.42966 6.22754 5.5789 5.4809 5.85819C4.73425 6.13748 4.15018 6.53444 3.80159 6.99953V6.99957Z" fill="#F78C6C"/>
<path d="M4.46001 2.42288C4.95987 2.42288 5.36509 2.82809 5.36509 3.32795C5.36509 3.82782 4.95987 4.23303 4.46001 4.23303C3.96015 4.23303 3.55493 3.82782 3.55493 3.32795C3.55493 2.82809 3.96015 2.42288 4.46001 2.42288Z" fill="#8E95B4"/>
<path d="M3.852 11.3913C4.21909 11.3913 4.51668 11.6889 4.51668 12.056C4.51668 12.4231 4.21909 12.7206 3.852 12.7206C3.48491 12.7206 3.18732 12.4231 3.18732 12.056C3.18732 11.6889 3.48491 11.3913 3.852 11.3913Z" fill="#6B7394"/>
<path d="M11.672 11.8155C12.1406 11.8155 12.5205 12.1954 12.5205 12.664C12.5205 13.1326 12.1406 13.5125 11.672 13.5125C11.2034 13.5125 10.8235 13.1326 10.8235 12.664C10.8235 12.1954 11.2034 11.8155 11.672 11.8155Z" fill="#6B7394"/>
</svg>
