<svg width="16" height="16" viewBox="0 0 16 16" fill="none" xmlns="http://www.w3.org/2000/svg">
<g id="key">
<path id="Shape" fill-rule="evenodd" clip-rule="evenodd" d="M11 2H13.5C13.7765 2 14 2.224 14 2.5V4.5C14 4.6325 13.9475 4.76 13.8535 4.8535L12.8535 5.8535C12.76 5.9475 12.633 6 12.5 6H11V7.5C11 7.6325 10.9475 7.76 10.8535 7.8535L9.8355 8.872C9.945 9.24 10 9.618 10 10C10 12.2055 8.2055 14 6 14C3.7945 14 2 12.2055 2 10C2 7.5565 4.221 5.599 6.724 6.069L10.6465 2.1465C10.74 2.0525 10.867 2 11 2ZM4.5 10.5C4.5 11.0525 4.9475 11.5 5.5 11.5C6.0525 11.5 6.5 11.0525 6.5 10.5C6.5 9.9475 6.0525 9.5 5.5 9.5C4.9475 9.5 4.5 9.9475 4.5 10.5Z" fill="#9883EC"/>
</g>
</svg>
