<svg width="16" height="16" viewBox="0 0 16 16" fill="none" xmlns="http://www.w3.org/2000/svg">
<path fill-rule="evenodd" clip-rule="evenodd" d="M4.14815 6.45154C4.14815 6.28961 4.12593 6.22183 4.04074 6.10509C3.98148 6.02601 3.5 5.51762 2.96667 4.97911L2 4V8.89555L2.92963 7.9541C4.1037 6.7641 4.14815 6.71138 4.14815 6.45154ZM10.2185 9.30226C10.2 9.24577 9.05185 8.04448 7.63704 6.60594C6.23704 5.18246 5.08148 4.01883 5.06667 4.01883C5.04815 4.01883 5.03704 5.07326 5.03704 6.36116C5.03704 8.97087 5.04074 8.99723 5.28148 9.50938C5.40741 9.78052 5.48889 9.87466 6.44074 10.8462C7.0037 11.4224 7.50741 11.9195 7.56296 11.9496C7.69259 12.0174 7.97778 12.0174 8.12593 11.9459C8.28148 11.8705 10.1704 9.94245 10.2185 9.80688C10.2704 9.67131 10.2704 9.43783 10.2185 9.30226ZM12.463 7.59635C13.3185 6.72645 14 6.00341 14 5.96952C14 5.92056 13.9704 5.90173 13.9 5.9055C13.7593 5.91303 8.45556 6.53062 8.40741 6.54945C8.38889 6.55322 8.94444 7.14445 9.64815 7.85995L10.9259 9.15916L12.463 7.59635ZM4.48889 11.9647C4.50741 11.9647 4.51852 10.8801 4.51852 9.55457C4.51852 8.229 4.50741 7.14445 4.48889 7.14445C4.45185 7.14445 2.47037 9.17422 2.39259 9.29096C2.32593 9.3964 2.31481 9.67131 2.37407 9.79181C2.41852 9.88596 4.44815 11.9647 4.48889 11.9647Z" fill="#C792EA"/>
</svg>
