<svg width="16" height="16" viewBox="0 0 16 16" fill="none" xmlns="http://www.w3.org/2000/svg">
<g id="license">
<g id="Group">
<path id="&#194;&#169;" fill-rule="evenodd" clip-rule="evenodd" d="M7.9962 14C4.65568 14 2 11.3443 2 8.00381C2 4.65568 4.64807 2 7.9962 2C11.3519 2 14 4.65568 14 8.00381C14 11.3443 11.3443 14 7.9962 14ZM7.9962 12.7369C10.6595 12.7369 12.7521 10.6443 12.7521 8.00381C12.7521 5.34813 10.6595 3.26315 7.9962 3.26315C5.34053 3.26315 3.24794 5.35574 3.24794 8.00381C3.24794 10.6443 5.34053 12.7369 7.9962 12.7369Z" fill="#89DDFF"/>
<path id="Path" fill-rule="evenodd" clip-rule="evenodd" d="M11 7.1942H9.46113C9.33834 6.60404 8.82265 6.24086 8.13507 6.24086C7.2101 6.24086 6.6453 6.89912 6.6453 7.98865C6.6453 9.10089 7.2101 9.75915 8.13507 9.75915C8.85539 9.75915 9.33834 9.42624 9.46113 8.8512H11C10.8445 10.1829 9.74762 11 8.12688 11C6.19509 11 5 9.84238 5 7.98865C5 6.15763 6.20328 5 8.11869 5C9.70669 5 10.8445 5.86255 11 7.1942Z" fill="#FFCB6B"/>
</g>
</g>
</svg>
