<svg width="16" height="16" viewBox="0 0 16 16" fill="none" xmlns="http://www.w3.org/2000/svg">
<g id="liquid">
<g id="drop">
<path id="Shape" fill-rule="evenodd" clip-rule="evenodd" d="M7.645 2.64752C7.833 2.45852 8.167 2.45852 8.355 2.64752C8.524 2.81852 12.5 6.85552 12.5 9.50002C12.5 12.317 10.212 14 8 14C5.788 14 3.5 12.317 3.5 9.50002C3.5 6.85552 7.476 2.81852 7.645 2.64752ZM8 11.5C8.27614 11.5 8.5 11.2761 8.5 11C8.5 10.7239 8.27614 10.5 8 10.5C7.99 10.5 7 10.473 7 9.50001C7 9.22386 6.77614 9.00001 6.5 9.00001C6.22386 9.00001 6 9.22386 6 9.50001C6 10.957 7.227 11.5 8 11.5Z" fill="#89DDFF"/>
</g>
</g>
</svg>
