<svg width="16" height="16" viewBox="0 0 16 16" fill="none" xmlns="http://www.w3.org/2000/svg">
<g id="lua">
<g id="lua_2">
<path id="Oval" fill-rule="evenodd" clip-rule="evenodd" d="M8.26067 13.6464C11.2349 13.6464 13.6461 11.2353 13.6461 8.261C13.6461 5.28673 11.2349 2.87561 8.26067 2.87561C5.2864 2.87561 2.87527 5.28673 2.87527 8.261C2.87527 11.2353 5.2864 13.6464 8.26067 13.6464Z" stroke="#42A5F5" stroke-width="1.04348"/>
<path id="Shape" fill-rule="evenodd" clip-rule="evenodd" d="M8.32693 4.94489C6.45908 4.94508 4.94496 6.4355 4.94481 8.27405C4.94496 10.1126 6.45908 11.603 8.32693 11.6032C9.22409 11.6034 10.0846 11.2527 10.7191 10.6284C11.3535 10.004 11.71 9.15714 11.7101 8.27405C11.71 7.39096 11.3535 6.54407 10.7191 5.91972C10.0846 5.29537 9.22409 4.94471 8.32693 4.94489ZM9.29705 5.94454C9.61947 5.94439 9.92873 6.07038 10.1567 6.29476C10.3848 6.51914 10.5128 6.82352 10.5128 7.14089C10.5123 7.80138 9.96807 8.33651 9.29705 8.33619C8.62645 8.33594 8.08283 7.80098 8.08239 7.14089C8.08225 6.48039 8.62603 5.9448 9.29705 5.94454Z" fill="#3965BD"/>
<path id="Oval_2" fill-rule="evenodd" clip-rule="evenodd" d="M12.1361 5.55105C12.8072 5.55105 13.3513 5.01554 13.3513 4.35496C13.3513 3.69438 12.8072 3.15887 12.1361 3.15887C11.465 3.15887 10.921 3.69438 10.921 4.35496C10.921 5.01554 11.465 5.55105 12.1361 5.55105Z" fill="#3965BD"/>
</g>
</g>
</svg>
