<?xml version="1.0" encoding="UTF-8"?>
<svg width="32px" height="32px" viewBox="0 0 32 32" version="1.1" xmlns="http://www.w3.org/2000/svg" xmlns:xlink="http://www.w3.org/1999/xlink">
    <title>markojs</title>
    <g id="markojs" stroke="none" stroke-width="1" fill="none" fill-rule="evenodd">
        <path d="M16.012,9.32142857 L19.396,9.32142857 C18.1488571,11.3614286 16.7714286,13.6071429 15.3948571,15.8588571 L12.0082857,15.8588571 C13.3857143,13.6114286 14.7622857,11.3614286 16.012,9.32142857 Z" id="Path" fill="#888888"></path>
        <path d="M8.00285714,9.32142857 L11.3894286,9.32142857 C10.7197143,10.4128571 10.0517143,11.5031429 9.38542857,12.5922857 C8.71914286,13.6814286 8.052,14.7697143 7.384,15.8571429 C8.05142857,16.9491429 8.71771429,18.0397143 9.38285714,19.1288571 C10.048,20.218 10.716,21.3065714 11.3868571,22.3945714 L8.00114286,22.3945714 C7.33142857,21.3088571 6.66342857,20.2202857 5.99714286,19.1288571 C5.33085714,18.0374286 4.66514286,16.9468571 4,15.8571429 C4.66514286,14.7714286 5.33142857,13.6828571 5.99885714,12.5914286 C6.66628571,11.5 7.33428571,10.41 8.00285714,9.32142857 Z" id="Path" fill="#7ACCEE"></path>
        <path d="M9.97857143,11.6254286 L6.592,11.6254286 C6.15742857,12.3317143 5.72542857,13.0397143 5.29342857,13.7451429 C4.86142857,14.4505714 4.42857143,15.1551429 4,15.8571429 L7.384,15.8571429 C7.81257143,15.1534286 8.248,14.4462857 8.68,13.7417143 C9.112,13.0371429 9.544,12.3308571 9.97857143,11.6254286 Z" id="Path" fill="#7ACCEE"></path>
        <path d="M5.40914286,13.5548571 L8.79485714,13.5548571 C9.22942857,12.8485714 9.66142857,12.1405714 10.0934286,11.4351429 C10.5254286,10.7297143 10.9574286,10.0285714 11.3877143,9.32142857 L8.00285714,9.32142857 C7.57428571,10.0251429 7.13885714,10.7322857 6.70685714,11.4368571 C6.27485714,12.1414286 5.84371429,12.8485714 5.40914286,13.5548571 Z" id="Path" fill="#7ACCEE"></path>
        <path d="M8.002,9.31885714 L8.002,9.31885714 C9.38114286,11.5714286 10.7611429,13.8188571 12.0091429,15.8571429 L15.3957143,15.8571429 L11.3894286,9.32142857 L11.3894286,9.32142857 L8.002,9.31885714 Z" id="Path" fill="#80CBC4"></path>
        <path d="M19.396,9.32142857 L16.012,9.32142857 C16.6794286,10.4128571 17.3465714,11.5031429 18.0134286,12.5922857 C18.6802857,13.6814286 19.3482857,14.7697143 20.0174286,15.8571429 C19.3477143,16.9491429 18.6797143,18.0397143 18.0134286,19.1288571 L16.012,22.3945714 L19.3985714,22.3945714 C20.066,21.3088571 20.7331429,20.2202857 21.4,19.1288571 C22.0668571,18.0374286 22.7348571,16.9468571 23.404,15.8571429 C22.732,14.7694286 22.0677143,13.6817143 21.4,12.5914286 C20.7322857,11.5011429 20.0628571,10.4142857 19.396,9.32142857 Z" id="Path" fill="#F4BF75"></path>
        <path d="M13.984,13.5548571 L10.6,13.5548571 C10.1654286,12.8485714 9.73342857,12.1405714 9.30142857,11.4351429 C8.86942857,10.7297143 8.43485714,10.0285714 8.00542857,9.32142857 L11.3894286,9.32142857 C11.818,10.0251429 12.2534286,10.7322857 12.6854286,11.4368571 C13.1174286,12.1414286 13.5494286,12.8485714 13.984,13.5548571 Z" id="Path" fill="#80CBC4"></path>
        <path d="M17.9937143,11.6211429 L14.6045714,11.6211429 L13.3085714,13.7391429 C12.8742857,14.4454286 12.4408571,15.1514286 12.0082857,15.8571429 L15.3948571,15.8571429 C15.8291429,15.1497143 16.2634286,14.4428571 16.6977143,13.7365714 C17.132,13.0302857 17.564,12.3251429 17.9937143,11.6211429 Z" id="Path" fill="#9DBD58"></path>
        <path d="M13.4174286,13.5591429 L16.804,13.5591429 L18.1,11.4411429 L19.396,9.32142857 L16.012,9.32142857 C15.5777143,10.0288571 15.1448571,10.7354286 14.7134286,11.4411429 L13.4174286,13.5591429 Z" id="Path" fill="#9DBD58"></path>
        <path d="M21.9948571,13.5591429 L18.6091429,13.5591429 C18.1748571,12.8528571 17.7411429,12.1468571 17.308,11.4411429 L16.012,9.32142857 L19.396,9.32142857 C19.828,10.0288571 20.2608571,10.7354286 20.6945714,11.4411429 C21.1274286,12.1457143 21.5611429,12.8571429 21.9948571,13.5591429 Z" id="Path" fill="#F4BF75"></path>
        <path d="M23.9894286,9.32142857 L20.6028571,9.32142857 C21.2702857,10.4145714 21.9365714,11.5048571 22.6017143,12.5922857 C23.2668571,13.6797143 23.936,14.768 24.6091429,15.8571429 C23.9394286,16.9491429 23.2714286,18.0397143 22.6051429,19.1288571 C21.9388571,20.218 21.2717143,21.3065714 20.6037143,22.3945714 L23.9902857,22.3945714 C24.6577143,21.3088571 25.3248571,20.2202857 25.9917143,19.1288571 C26.6585714,18.0374286 27.3262857,16.9468571 27.9948571,15.8571429 L25.9908571,12.5914286 C25.3234286,11.5045714 24.6562857,10.4145714 23.9894286,9.32142857 Z" id="Path" fill="#D14748"></path>
        <path d="M26.5865714,13.56 L23.2,13.56 C22.7634286,12.8554286 22.3297143,12.1494286 21.8988571,11.442 C21.468,10.7345714 21.036,10.0277143 20.6028571,9.32142857 L23.9894286,9.32142857 C24.4214286,10.0288571 24.8534286,10.7357143 25.2854286,11.442 C25.7174286,12.1482857 26.1511429,12.8542857 26.5865714,13.56 Z" id="Path" fill="#D14748"></path>
        <path d="M22.0145714,20.0957143 L25.4011429,20.0957143 C25.8331429,19.3911429 26.2651429,18.6854286 26.6971429,17.9785714 C27.1291429,17.2717143 27.5634286,16.5645714 28,15.8571429 L24.6091429,15.8571429 C24.1748571,16.5645714 23.742,17.2711429 23.3105714,17.9768571 L22.0145714,20.0957143 Z" id="Path" fill="#D14748"></path>
        <path d="M17.4228571,20.0957143 L20.8094286,20.0957143 L22.1054286,17.9777143 C22.5374286,17.272 22.9702857,16.5654286 23.404,15.858 L20.0174286,15.858 C19.5831429,16.5654286 19.1502857,17.272 18.7188571,17.9777143 L17.4228571,20.0957143 Z" id="Path" fill="#F4BF75"></path>
        <path d="M5.40657143,18.1637143 C6.53457143,18.1637143 7.66,18.1637143 8.79314286,18.1637143 C9.22171429,18.8708571 9.65714286,19.5771429 10.0891429,20.2817143 C10.5211429,20.9862857 10.9531429,21.6934286 11.3877143,22.3971429 L8.00114286,22.3971429 C7.56628571,21.6942857 7.13257143,20.9891429 6.7,20.2817143 C6.26714286,19.5771429 5.83857143,18.8691429 5.40657143,18.1637143 Z" id="Path" fill="#7ACCEE"></path>
    </g>
</svg>