<svg width="16" height="16" viewBox="0 0 16 16" fill="none" xmlns="http://www.w3.org/2000/svg">
<g id="markup">
<g id="code-editor">
<path id="Shape" d="M4.81817 3H2.99999C2.74908 3 2.54544 3.20364 2.54544 3.45455V12.5455C2.54544 12.7964 2.74908 13 2.99999 13H4.81817V3Z" fill="#FC8289"/>
<path id="Shape_2" fill-rule="evenodd" clip-rule="evenodd" d="M5.72726 3V13H13C13.2509 13 13.4545 12.7964 13.4545 12.5455V3.45455C13.4545 3.20364 13.2509 3 13 3H5.72726ZM7.54542 4.81818H8.90906V5.72727H7.54542V4.81818ZM7.54542 11.1818H8.90906V10.2727H7.54542V11.1818ZM10.2727 9.36364H8.45451V8.45455H10.2727V9.36364ZM8.90906 7.54545H11.6363V6.63636H8.90906V7.54545Z" fill="#69A7D3"/>
</g>
</g>
</svg>
