<svg width="16" height="16" viewBox="0 0 16 16" fill="none" xmlns="http://www.w3.org/2000/svg">
<g id="mdx">
<g id="Group">
<path id="Path 2" fill-rule="evenodd" clip-rule="evenodd" d="M0.000816353 11.1411H0.821056V8.39636L2.40104 10.1151L3.85779 8.39636V11.1061H4.77258V6L2.31488 8.59424L0 6.15075L0.000816353 11.1411Z" fill="#6B7394"/>
<path id="Path 3" fill-rule="evenodd" clip-rule="evenodd" d="M5.92097 8.94726L6.54523 8.28833L7.70597 9.51356V6H8.54992V9.48608L9.69084 8.28177L10.3218 8.94778L8.12139 11.337L5.92097 8.94726Z" fill="#6B7394"/>
<path id="Path 4" fill-rule="evenodd" clip-rule="evenodd" d="M11.0526 10.6019L11.6239 11.2049L13.4328 9.29559L15.1153 11.2049L15.716 10.505L13.9459 8.63658L15.8365 6.64095L15.2293 6L13.3849 7.94684L11.5655 6L10.9961 6.64095L12.74 8.63658L11.0526 10.6019Z" fill="#FFCB6B"/>
</g>
</g>
</svg>
