<svg width="16" height="16" viewBox="0 0 16 16" fill="none" xmlns="http://www.w3.org/2000/svg">
<g id="mjml">
<path id="Shape" d="M3.48003 2.64661H8.89046C9.64584 2.64661 10.2596 3.25709 10.2596 4.00845C10.2596 4.75982 9.64584 5.3703 8.89046 5.3703H3.48003C2.72465 5.3703 2.1109 4.75982 2.1109 4.00845C2.1109 3.25709 2.72465 2.64661 3.48003 2.64661Z" fill="#FFCB6B"/>
<path id="Oval" d="M12.4219 5.3703C13.1937 5.3703 13.8193 4.76058 13.8193 4.00845C13.8193 3.25633 13.1937 2.64661 12.4219 2.64661C11.6501 2.64661 11.0244 3.25633 11.0244 4.00845C11.0244 4.76058 11.6501 5.3703 12.4219 5.3703Z" fill="#FFCB6B"/>
<path id="Shape_2" d="M7.07754 6.71336H12.4219C13.1773 6.65701 13.8288 7.22992 13.8854 7.98129C13.9421 8.73265 13.3661 9.3807 12.6107 9.43706H12.4785H7.07754C6.32216 9.49341 5.67064 8.92049 5.61398 8.16913C5.55733 7.41776 6.13331 6.76971 6.88869 6.71336H7.02088H7.07754Z" fill="#FFCB6B"/>
<path id="Shape_3" d="M3.50836 6.68518C4.28263 6.68518 4.90582 7.30506 4.90582 8.0752C4.90582 8.84535 4.28263 9.46523 3.50836 9.46523C2.73409 9.45584 2.1109 8.83596 2.1109 8.0752C2.1109 7.30506 2.73409 6.68518 3.50836 6.68518Z" fill="#FC8289"/>
<path id="Shape_4" d="M3.48003 10.6299H8.89046C9.64584 10.6299 10.2596 11.2403 10.2596 11.9917C10.2596 12.7431 9.64584 13.3535 8.89046 13.3535H3.48003C2.72465 13.3535 2.1109 12.7431 2.1109 11.9917C2.1109 11.2403 2.72465 10.6299 3.48003 10.6299Z" fill="#FFCB6B"/>
<path id="Oval_2" d="M12.4219 13.3535C13.1937 13.3535 13.8193 12.7438 13.8193 11.9917C13.8193 11.2396 13.1937 10.6299 12.4219 10.6299C11.6501 10.6299 11.0244 11.2396 11.0244 11.9917C11.0244 12.7438 11.6501 13.3535 12.4219 13.3535Z" fill="#FFCB6B"/>
</g>
</svg>
