<svg width="16" height="16" viewBox="0 0 16 16" fill="none" xmlns="http://www.w3.org/2000/svg">
<g id="movie">
<path id="Shape" fill-rule="evenodd" clip-rule="evenodd" d="M3 5.5H13C13.276 5.5 13.5 5.7235 13.5 6V13C13.5 13.2765 13.276 13.5 13 13.5H3C2.724 13.5 2.5 13.2765 2.5 13V6C2.5 5.7235 2.724 5.5 3 5.5ZM10 9.5L6.5 7.5V11.5L10 9.5Z" fill="#FC8289"/>
<path id="Rectangle-path" d="M2.11002 4.14011C2.05482 3.86954 2.22941 3.60546 2.49997 3.55026L12.1515 1.58114C12.4221 1.52594 12.6861 1.70053 12.7413 1.97109C12.7965 2.24166 12.622 2.50574 12.3514 2.56094L2.69987 4.53006C2.42931 4.58526 2.16522 4.41067 2.11002 4.14011Z" fill="#FFCB6B"/>
</g>
</svg>
