<svg width="16" height="16" viewBox="0 0 16 16" fill="none" xmlns="http://www.w3.org/2000/svg">
<g id="mxml">
<g id="code-editor">
<path id="Shape" d="M4.5 2.5H2.5C2.224 2.5 2 2.724 2 3V13C2 13.276 2.224 13.5 2.5 13.5H4.5V2.5Z" fill="#F07178"/>
<path id="Shape_2" fill-rule="evenodd" clip-rule="evenodd" d="M5.5 2.5V13.5H13.5C13.776 13.5 14 13.276 14 13V3C14 2.724 13.776 2.5 13.5 2.5H5.5ZM7.5 4.5H9V5.5H7.5V4.5ZM7.5 11.5H9V10.5H7.5V11.5ZM10.5 9.5H8.5V8.5H10.5V9.5ZM9 7.5H12V6.5H9V7.5Z" fill="#FFCB6B"/>
</g>
</g>
</svg>
