<svg width="16" height="16" viewBox="0 0 16 16" fill="none" xmlns="http://www.w3.org/2000/svg">
<path d="M7.60706 2.00306C7.58141 2.00546 7.49909 2.01386 7.42513 2.01956C5.72094 2.17317 4.12442 3.09267 3.11306 4.50599C2.5546 5.28085 2.1912 6.18034 2.05398 7.12741C2.00596 7.45711 2 7.55431 2 8.00131C2 8.44801 2.00596 8.54552 2.05398 8.87492C2.37997 11.1279 3.98364 13.021 6.15847 13.7224C6.54798 13.8478 6.95837 13.9336 7.42513 13.9852C7.60706 14.005 8.39294 14.005 8.57487 13.9852C9.38074 13.8961 10.0634 13.6966 10.7366 13.3531C10.8401 13.3003 10.8597 13.2862 10.8457 13.2745C10.8365 13.2673 10.3966 12.6775 9.86867 11.9643L8.90921 10.6683L7.70667 8.88902C7.04516 7.91071 6.50086 7.1109 6.49608 7.1109C6.49161 7.1097 6.48684 7.90021 6.48445 8.86562C6.48087 10.5555 6.47968 10.6236 6.4588 10.6635C6.42808 10.7211 6.40482 10.7445 6.35531 10.7703C6.31803 10.7889 6.28493 10.7925 6.10807 10.7925H5.90496L5.85098 10.7586C5.81763 10.7377 5.79053 10.708 5.77254 10.6728L5.74778 10.62L5.75017 8.26861L5.75375 5.9157L5.79013 5.8701C5.80892 5.84549 5.84859 5.8137 5.87692 5.79839C5.92494 5.77499 5.94373 5.77289 6.14654 5.77289C6.38603 5.77289 6.4257 5.78189 6.48803 5.84999C6.50563 5.86889 7.1567 6.8493 7.93543 8.03041C8.71445 9.21152 9.77949 10.8243 10.3026 11.616L11.2528 13.0552L11.3009 13.0234C11.7268 12.7465 12.1771 12.3525 12.5338 11.9418C13.2893 11.0783 13.7798 10.013 13.946 8.87492C13.9943 8.54552 14 8.44801 14 8.00131C14 7.55431 13.9943 7.45711 13.946 7.12741C13.62 4.87439 12.0164 2.98137 9.84183 2.27997C9.45798 2.15576 9.04998 2.06997 8.59247 2.01836C8.47973 2.00666 7.70459 1.99346 7.60706 2.00306ZM10.0634 5.63189C10.0913 5.64595 10.1161 5.66544 10.1365 5.68924C10.1568 5.71303 10.1722 5.74065 10.1818 5.77049C10.1914 5.80079 10.1935 6.453 10.1914 7.92271L10.1878 10.0314L9.81588 9.46142L9.44277 8.89142V7.35841C9.44277 6.3675 9.44754 5.81039 9.4547 5.78339C9.46307 5.75212 9.47768 5.72289 9.49762 5.69746C9.51756 5.67204 9.54243 5.65096 9.57072 5.63549C9.61874 5.61089 9.63634 5.60849 9.82065 5.60849C9.99423 5.60849 10.0247 5.61089 10.0634 5.63189Z" fill="#82AAFF"/>
</svg>
