<svg width="16" height="16" viewBox="0 0 16 16" fill="none" xmlns="http://www.w3.org/2000/svg">
<path d="M2.89243 10.8739C2.94513 10.9657 3.02167 11.0418 3.11394 11.0938L7.64686 13.7108H7.64703C7.8327 13.8198 8.06378 13.8198 8.24946 13.7108L12.7825 11.0937C12.9698 10.9875 13.0853 10.7875 13.0837 10.5722V5.33805L13.0835 5.33789C13.0851 5.12254 12.9695 4.92243 12.7822 4.81621L8.24913 2.19908V2.19892C8.06362 2.08994 7.8327 2.08994 7.64719 2.19892V2.19908L3.11427 4.81621C2.92681 4.92243 2.81119 5.12238 2.81281 5.33789L2.81265 5.33805V10.5722C2.81167 10.6781 2.83924 10.7823 2.89227 10.8739" fill="#2ECC71"/>
<path d="M6.49663 9.94743C6.49663 10.2672 6.23345 10.5304 5.91366 10.5304C5.59388 10.5304 5.33069 10.2672 5.33069 9.94743L5.33085 9.94759L5.3315 5.94591C5.3315 5.63586 5.60539 5.37948 5.99345 5.37948C6.29734 5.37559 6.58826 5.50564 6.78804 5.73478L6.96415 5.94559L9.3995 8.86013V5.96213H9.39934C9.39982 5.64267 9.66285 5.38013 9.98215 5.38013C10.3016 5.38013 10.5646 5.64267 10.5651 5.96213H10.565L10.5645 9.96364C10.5645 10.2735 10.2904 10.5299 9.90253 10.5299C9.59847 10.534 9.30772 10.4039 9.10793 10.1746L6.49631 7.04943V9.94759L6.49663 9.94743Z" fill="white"/>
</svg>
