<svg width="16" height="16" viewBox="0 0 16 16" fill="none" xmlns="http://www.w3.org/2000/svg">
<path fill-rule="evenodd" clip-rule="evenodd" d="M9.28292 5.43157L12.2068 10.7822L12.8895 9.55948L12.1015 8.12647L13.6665 8.12213L14 7.51114L13.6594 6.88621L11.4318 6.89364L10.6312 5.43528L9.28292 5.43157Z" fill="#89DDFF"/>
<path fill-rule="evenodd" clip-rule="evenodd" d="M9.05861 9.70882L3.21129 9.70912L3.87212 10.9452L5.44061 10.9406L4.66168 12.3749L4.99568 12.9856L5.67816 12.9864L6.78586 10.9442L8.38141 10.9408L9.05861 9.70882Z" fill="#89DDFF"/>
<path fill-rule="evenodd" clip-rule="evenodd" d="M5.65526 7.36428L8.57868 2.01332L7.23519 2L6.45471 3.4376L5.66865 2.00768L5.00112 2.00796L4.65923 2.63209L5.77912 4.66681L4.98414 6.1286L5.65526 7.36428Z" fill="#89DDFF"/>
<path fill-rule="evenodd" clip-rule="evenodd" d="M10.3381 7.63572L7.41468 12.9867L8.75817 13L9.53865 11.5624L10.3247 12.9923L10.9922 12.992L11.3341 12.3679L10.2142 10.3332L11.0092 8.8714L10.3381 7.63572Z" fill="#82AAFF"/>
<path fill-rule="evenodd" clip-rule="evenodd" d="M6.94682 5.2789L12.7941 5.27859L12.1333 4.04252L10.5648 4.04712L11.3438 2.61285L11.0098 2.00214L10.3273 2.00134L9.21958 4.0435L7.62402 4.04692L6.94682 5.2789Z" fill="#82AAFF"/>
<path fill-rule="evenodd" clip-rule="evenodd" d="M6.71708 9.5676L3.79317 4.21694L3.11051 5.43969L3.89852 6.8727L2.33354 6.87705L2 7.48804L2.34059 8.11297L4.56818 8.10553L5.36875 9.5639L6.71708 9.5676Z" fill="#82AAFF"/>
</svg>
