<svg width="16" height="16" viewBox="0 0 16 16" fill="none" xmlns="http://www.w3.org/2000/svg">
<g id="node">
<g id="Group">
<path id="Fill 1" fill-rule="evenodd" clip-rule="evenodd" d="M8 2C7.89669 2 7.79439 2.02578 7.70187 2.07859L2.74257 4.89879C2.55715 5.0044 2.44444 5.20819 2.44444 5.41954V11.0797C2.44444 11.2913 2.55728 11.4847 2.74257 11.5906L7.70187 14.4206C7.88729 14.5265 8.11271 14.5265 8.29813 14.4206L13.2574 11.5906C13.4425 11.4847 13.5556 11.2913 13.5556 11.0797V5.41954C13.5556 5.20782 13.4428 5.0044 13.2574 4.89879L8.29813 2.07859C8.20561 2.02578 8.1033 2 8 2Z" fill="#A9EFA3"/>
<mask id="mask0" mask-type="alpha" maskUnits="userSpaceOnUse" x="2" y="2" width="12" height="13">
<path id="Fill 1_2" fill-rule="evenodd" clip-rule="evenodd" d="M8 2C7.89669 2 7.79439 2.02578 7.70187 2.07859L2.74257 4.89879C2.55715 5.0044 2.44444 5.20819 2.44444 5.41954V11.0797C2.44444 11.2913 2.55728 11.4847 2.74257 11.5906L7.70187 14.4206C7.88729 14.5265 8.11271 14.5265 8.29813 14.4206L13.2574 11.5906C13.4425 11.4847 13.5556 11.2913 13.5556 11.0797V5.41954C13.5556 5.20782 13.4428 5.0044 13.2574 4.89879L8.29813 2.07859C8.20561 2.02578 8.1033 2 8 2Z" fill="white"/>
</mask>
<g mask="url(#mask0)">
<path id="Rectangle" fill-rule="evenodd" clip-rule="evenodd" d="M7.49162 0.937851L13.9731 12.1641L8.40316 15.3799L1.92167 4.15366L7.49162 0.937851Z" fill="#2ECC71"/>
</g>
</g>
</g>
</svg>
