<svg width="16" height="16" viewBox="0 0 16 16" fill="none" xmlns="http://www.w3.org/2000/svg">
<g id="ocaml">
<path id="Vector" d="M2 7.24063V4.28282C2 3.44845 2.67734 2.7711 3.51172 2.7711H12.4883C13.3227 2.7711 14 3.44845 14 4.28282V13.2266H9.01953C9.01953 13.2266 8.68906 12.3594 8.62578 11.9328C8.60938 11.8227 8.64219 11.7125 8.60703 11.6094C8.57891 11.5203 8.51328 11.5109 8.47109 11.4383C8.35859 11.2461 8.24141 10.9977 8.23203 10.7633C8.22266 10.5524 8.14531 10.3602 8.13359 10.1516C8.12891 10.0508 8.14062 9.94532 8.13594 9.84688C8.13359 9.79767 8.12891 9.68517 8.10547 9.61485L8.13125 9.54923C8.11953 9.52579 8.35625 9.53517 8.42656 9.53517C8.54609 9.53751 8.65859 9.5422 8.77813 9.54923C9.02188 9.56095 9.24219 9.5586 9.47891 9.5211C10.0063 9.43907 10.25 9.22345 10.3742 9.13438C10.8594 8.78517 11.0797 8.21329 11.0797 8.21329C11.1594 8.03517 11.1594 7.71642 11.3305 7.57345C11.532 7.4047 11.8719 7.41642 12.1039 7.31329C12.2398 7.25235 12.3383 7.21954 12.4766 7.25001C12.5797 7.2711 12.7648 7.39063 12.807 7.22423C12.7719 7.20313 12.7602 7.16095 12.7414 7.13985C12.9336 7.1211 12.7461 6.67813 12.6688 6.58907C12.5516 6.45313 12.357 6.38985 12.1508 6.33595C11.9047 6.27032 11.682 6.19532 11.45 6.23985C11.0445 6.31954 11.075 6.08751 10.8359 6.08751C10.55 6.08751 10.0414 6.10157 9.95234 6.38048C9.9125 6.50938 9.86797 6.51642 9.79766 6.61485C9.73672 6.69923 9.80937 6.77657 9.77656 6.87267C9.74609 6.97345 9.69922 7.32501 9.65 7.44923C9.56797 7.65782 9.47188 7.91798 9.29141 7.91798C9.04063 7.94845 8.84141 7.95782 8.6375 7.88282C8.51563 7.83829 8.30937 7.76798 8.20625 7.72579C7.73516 7.52892 7.65781 7.31095 7.65781 7.31095C7.60625 7.22657 7.10938 6.19063 7.03672 6.01251C6.94297 5.78048 6.81172 5.60938 6.71797 5.52267C6.57266 5.39142 6.43672 5.18985 6.13906 5.24845C6.08516 5.25782 5.89297 5.2672 5.74531 5.39142C5.64453 5.47579 5.61406 5.64923 5.52031 5.79688C5.46641 5.88126 5.37266 6.12501 5.28594 6.32657C5.225 6.4672 5.19687 6.57267 5.13359 6.62423C5.08203 6.66407 4.95781 6.76485 4.79609 6.60079C4.73516 6.53751 4.58516 6.27501 4.475 6.08517C4.15391 5.52735 4.02734 5.27657 3.65938 5.27423C3.19063 5.27188 3.15547 5.53673 2.94922 5.91876C2.94922 5.91642 2.74297 6.69454 2 7.24063ZM2 10.6649V13.2266H4.325C4.325 13.2266 4.5125 12.5024 4.55469 12.3547C4.58984 12.2422 4.63437 12.1508 4.65312 12.0359C4.66953 11.9258 4.65078 11.8203 4.64141 11.7219C4.61797 11.4711 4.82422 11.382 4.92266 11.1664C5.01172 10.9719 5.06328 10.7516 5.13594 10.5524C5.20625 10.3625 5.31641 10.093 5.50625 9.99688C5.48281 9.9711 5.1125 9.95938 5.01406 9.94767C4.70938 9.91485 4.27578 9.82345 4.07891 9.77657C3.95937 9.74845 3.56094 9.60548 3.47422 9.56563C3.27031 9.47188 3.13672 9.21876 2.97734 9.24454C2.87656 9.26095 2.77812 9.2961 2.71484 9.39688C2.66328 9.48126 2.64688 9.62423 2.60938 9.72032C2.56719 9.83282 2.49687 9.93595 2.43359 10.0414C2.32344 10.2359 2.07266 10.4469 2 10.6649ZM8.46641 12.8352C8.42188 12.7414 8.36562 12.5586 8.32812 12.4766C8.29297 12.4016 8.18516 12.2047 8.13125 12.1414C8.01406 12.0031 7.98594 11.9938 7.95078 11.8203C7.88984 11.518 7.73281 10.9695 7.54531 10.5922C7.44922 10.3977 7.2875 10.2336 7.13984 10.093C7.01094 9.96876 6.72266 9.76017 6.67109 9.76954C6.19766 9.86329 6.05234 10.3274 5.82969 10.6953C5.70547 10.8992 5.57656 11.0703 5.47812 11.2883C5.38906 11.4875 5.39609 11.7078 5.24375 11.8789C5.08672 12.0547 4.98359 12.2399 4.90625 12.4672C4.89219 12.5094 4.75859 13.2266 4.75859 13.2266H8.61875L8.61172 13.2102C8.56016 13.0625 8.49219 12.8914 8.46641 12.8352Z" fill="#FFCB6B"/>
</g>
</svg>
