<svg width="16" height="16" viewBox="0 0 16 16" fill="none" xmlns="http://www.w3.org/2000/svg">
<path fill-rule="evenodd" clip-rule="evenodd" d="M5.15608 12.1127C4.96437 11.9811 4.81285 11.8537 4.81285 11.8537L9.74305 3.31427C9.74305 3.31427 9.94599 3.38954 10.1136 3.46991C10.3249 3.57119 10.4999 3.66992 10.4999 3.66992C12.8897 5.04969 13.7098 8.11013 12.3301 10.4999C10.9503 12.8898 7.88986 13.7098 5.50003 12.3301C5.50003 12.3301 5.33265 12.2338 5.15608 12.1127ZM10.0833 4.3916L5.91669 11.6084C7.90821 12.7582 10.4586 12.0748 11.6084 10.0833C12.7581 8.09174 12.0748 5.54143 10.0833 4.3916ZM3.89709 10.859C3.72954 10.6164 3.6699 10.5 3.6699 10.5C2.80856 9.00392 2.74539 7.10139 3.66993 5.50002C4.59448 3.89866 6.27365 3.00213 8.00002 3C8.00002 3 8.2331 2.9994 8.42717 3.01799C8.71954 3.046 8.91392 3.08373 8.91392 3.08373L4.19909 11.2501C4.19909 11.2501 4.08724 11.1343 3.89709 10.859ZM7.50127 3.86387C6.24482 4.01657 5.07258 4.7372 4.39161 5.91673C3.71063 7.09618 3.67267 8.47167 4.16865 9.63621L7.50127 3.86387Z" fill="#B2CCD6"/>
</svg>
