<svg width="16" height="16" viewBox="0 0 16 16" fill="none" xmlns="http://www.w3.org/2000/svg">
<g id="package-lock">
<g id="Group">
<path id="Subtract" fill-rule="evenodd" clip-rule="evenodd" d="M3.74499 4.74494C3.74499 4.19265 4.19271 3.74494 4.74499 3.74494H9.73015C10.2824 3.74494 10.7301 4.19265 10.7301 4.74494V6.01016C10.9981 5.89083 11.294 5.82461 11.6052 5.82461C11.9163 5.82461 12.2124 5.89086 12.4804 6.01024V3C12.4804 2.44772 12.0326 2 11.4804 2H2.99999C2.44771 2 1.99999 2.44771 1.99999 3V11.48C1.99999 12.0323 2.44771 12.48 2.99999 12.48H7.7631V9.24394C7.7631 8.75606 8.15604 8.35688 8.6363 8.35688H8.98517V6.36236C8.98517 5.8805 8.59455 5.48987 8.11269 5.48987C7.63083 5.48987 7.2402 5.8805 7.2402 6.36236V9.72987C7.2402 10.2822 6.79248 10.7299 6.2402 10.7299H4.74499C4.19271 10.7299 3.74499 10.2822 3.74499 9.72987V4.74494Z" fill="#FC8289"/>
<g id="ic_lock_24px">
<path id="Shape" fill-rule="evenodd" clip-rule="evenodd" d="M13.5699 9.46294H13.2424V8.79764C13.2424 7.87954 12.5089 7.13441 11.6052 7.13441C10.7014 7.13441 9.96793 7.87954 9.96793 8.79764V9.46294H9.64048C9.28028 9.46294 8.98558 9.76232 8.98558 10.1282V13.4547C8.98558 13.8206 9.28028 14.12 9.64048 14.12H13.5699C13.9301 14.12 14.2248 13.8206 14.2248 13.4547V10.1282C14.2248 9.76232 13.9301 9.46294 13.5699 9.46294ZM11.6052 12.4568C11.245 12.4568 10.9503 12.1574 10.9503 11.7915C10.9503 11.4255 11.245 11.1262 11.6052 11.1262C11.9654 11.1262 12.2601 11.4255 12.2601 11.7915C12.2601 12.1574 11.9654 12.4568 11.6052 12.4568ZM10.5901 8.79764V9.46294H12.6203V8.79764C12.6203 8.22882 12.1651 7.76644 11.6052 7.76644C11.0452 7.76644 10.5901 8.22882 10.5901 8.79764Z" fill="#FFCB6B"/>
</g>
</g>
</g>
</svg>
