<svg width="16" height="16" viewBox="0 0 16 16" fill="none" xmlns="http://www.w3.org/2000/svg">
<g id="perl">
<g id="perl 2" clip-path="url(#clip0)">
<path id="Vector" d="M6.98453 12.3517C6.92267 12.476 6.66187 12.3893 6.37653 12.2901C6.0912 12.1909 5.12267 11.7936 4.56427 11.1605C4.00587 10.5275 3.72053 9.68321 3.74507 8.87681C3.7696 8.07041 3.99307 7.73494 4.36587 7.21334C4.73813 6.69228 5.76853 5.92268 6.0912 5.72374C6.41387 5.52481 6.84853 5.18987 7.0592 4.91681C7.2704 4.64374 7.38187 4.42028 7.3696 4.04801C7.35733 3.67574 7.39467 3.34028 7.38187 3.21654C7.3696 3.09228 7.3696 2.84428 7.48107 2.89388C7.59253 2.94348 7.60533 3.08001 7.60533 3.21654C7.60533 3.35308 7.568 3.91147 7.53066 4.45761C7.49333 5.00374 7.0592 5.46294 6.73653 5.78561C6.41386 6.10827 5.48267 7.11361 5.13547 7.61014C4.78773 8.10667 4.61493 8.76054 4.6512 9.31041C4.68853 9.86881 4.82507 10.4149 5.34613 10.9984C5.8672 11.5819 6.2272 11.8549 6.50026 11.9915C6.77333 12.128 7.0464 12.2275 6.98453 12.3517ZM7.4416 12.9483C7.35253 13.0565 7.19947 13.1221 7.1808 13.0784C7.16213 13.0347 7.2912 13.0096 7.38613 12.904C7.47307 12.8069 7.45013 12.6256 7.512 12.6229C7.56267 12.6208 7.53067 12.8395 7.4416 12.9483ZM7.66693 12.0413C7.49325 12.2649 6.78613 11.4955 6.41333 11.0485C6.04053 10.6016 5.6688 9.69547 5.656 8.98827C5.64373 8.28054 6.04053 7.62294 6.3264 7.22561C6.61227 6.82827 7.17067 6.14561 7.31947 5.83521C7.46827 5.52481 7.62987 5.18987 7.67947 4.75521C7.72907 4.32054 7.67947 2.76907 7.67947 2.76907C7.67947 2.76907 7.6672 2.08641 7.77867 2.16107C7.89067 2.23574 7.9152 2.66987 7.9152 3.06721C7.9152 3.46454 7.95253 5.17707 7.82827 5.63627C7.704 6.09547 7.41867 6.60427 7.10827 7.05121C6.79787 7.49814 6.43787 8.44161 6.45067 9.02454C6.46293 9.60801 6.7984 10.5637 7.05867 10.9611C7.32053 11.3595 7.76464 11.9156 7.66693 12.0413ZM8.0384 13.2005C7.9872 13.2005 8.0064 13.0459 8.0064 12.8549C8.0064 12.664 7.9888 12.5088 8.0384 12.5088C8.08373 12.5088 8.0704 12.6635 8.0704 12.8549C8.0704 13.0464 8.08 13.2005 8.0384 13.2005ZM8.848 13.0725C8.82933 13.1163 8.67627 13.0512 8.5872 12.9424C8.49813 12.8336 8.46613 12.6155 8.5168 12.6171C8.57867 12.6197 8.55573 12.8011 8.64267 12.8981C8.7376 13.0037 8.86667 13.0288 8.848 13.0725ZM9.64267 12.3488C9.41867 12.4384 9.2768 12.5349 9.08747 12.3584C8.7824 12.0747 8.49387 12.0453 8.11253 11.9435C8.0064 11.9152 7.9328 11.6795 7.8944 11.5947C7.76693 11.3152 7.66987 11.0213 7.59573 10.7237C7.23627 9.28694 7.52267 7.84801 7.8864 6.44374C8.0416 5.84428 8.14187 5.24854 8.14667 4.62614C8.14933 4.30028 8.104 3.97868 8.0656 3.65601C8.04907 3.51894 7.98507 3.17921 8.152 3.44001C8.2192 3.54508 8.3424 3.39628 8.35307 3.51734C8.3616 3.61068 8.37227 4.28214 8.41013 4.51894C8.50133 5.09174 9.20747 5.44641 9.64267 5.71841C10.6395 6.34134 11.9901 7.16609 12.1797 8.44374C12.4276 10.114 11.5703 11.5586 9.64267 12.3488ZM14 8.00001C14 3.39833 8.9842 0.506664 4.99323 2.8075C1.00226 5.10834 1.00226 10.8917 4.99323 13.1925C8.9842 15.4934 14 12.6017 14 8.00001Z" fill="#9883EC"/>
</g>
</g>
<defs>
<clipPath id="clip0">
<rect width="12" height="12" fill="white" transform="translate(2 2)"/>
</clipPath>
</defs>
</svg>
