<svg width="16" height="16" viewBox="0 0 16 16" fill="none" xmlns="http://www.w3.org/2000/svg">
<g id="php">
<path id="Shape" fill-rule="evenodd" clip-rule="evenodd" d="M5.97072 10.1917C6.05917 10.5873 6.05917 10.9842 5.88227 11.3798C6.27679 11.5558 6.27679 11.9077 6.27679 12.2597H6.32031C6.75975 12.3033 7.15427 12.3033 7.54878 12.171C7.72428 12.1274 7.7678 12.0823 7.72428 11.9063C7.68075 11.598 7.63583 11.2461 7.5923 10.9378C7.5923 10.6731 7.63583 10.4099 7.81132 10.1903C7.9433 9.97066 8.07527 9.92561 8.33781 10.0143C8.82077 10.1903 9.30374 10.1903 9.7853 9.92561C9.96079 9.83692 10.1363 9.88197 10.2683 10.0143C10.4002 10.1903 10.4438 10.4099 10.4002 10.6309C10.3567 10.8519 10.3118 11.1152 10.2247 11.3784C10.5757 11.5544 10.5322 11.9063 10.5322 12.2583H11.4981C11.6736 12.2583 11.8926 12.2146 12.0681 12.1259C12.3321 12.0373 12.4191 11.8613 12.3756 11.598C12.3321 11.0701 12.2436 10.5859 12.2001 10.0579C12.2001 9.83833 12.2001 9.61731 12.2436 9.35406C12.2436 9.31042 12.2872 9.17809 12.3321 9.13445C12.7715 8.69382 13.0341 8.12227 13.2096 7.55071C13.2096 7.50707 13.2096 7.41838 13.2531 7.37474C13.2531 7.28605 13.2966 7.28605 13.3851 7.37474C13.4286 7.46343 13.517 7.55071 13.5606 7.6394C13.649 7.72809 13.7361 7.81537 13.8245 7.85901C13.913 7.9477 14 7.90266 14 7.81537C13.9565 7.6394 13.9565 7.46343 13.9116 7.3311C13.6041 6.23164 13.0341 5.35179 12.0681 4.73519C11.4532 4.33961 10.7962 4.11859 10.0492 4.07495C9.43431 3.98626 8.82077 4.03131 8.20584 4.16364C8.11739 4.16364 8.07386 4.20728 8.03034 4.20728C7.94189 4.25092 7.89837 4.33961 7.94189 4.42689C7.94189 4.60286 7.98541 4.73519 8.03034 4.91116C8.16231 5.74737 8.07386 6.53853 7.54738 7.19877C7.10794 7.81537 6.45088 8.07863 5.70397 7.99134C5.48495 7.99134 5.35298 7.85901 5.26453 7.68304C5.04551 7.37474 5.00058 7.0228 4.91354 6.67086C4.95706 6.7145 4.95706 6.75955 5.00199 6.80319C5.00199 6.80319 5.00199 6.84683 5.04551 6.89188L5.44003 7.55212C5.65904 7.81678 5.83454 7.86042 6.18553 7.77173C6.97596 7.55212 7.5895 6.84824 7.67795 6.01203C7.67795 5.5714 7.67795 5.17582 7.54597 4.78024C7.32695 4.16364 6.88751 3.85674 6.27398 3.76805C5.52848 3.63572 4.87002 3.76805 4.16803 3.94402C3.90409 4.03271 3.64155 4.07635 3.42253 4.16364C3.07154 4.33961 2.85252 4.64791 2.67702 4.95621C2.15054 5.74878 1.93152 6.67227 2.01856 7.6394C2.06209 8.47561 2.41308 9.1795 3.11506 9.75105C3.37901 9.97066 3.64155 10.2353 3.90549 10.4549C3.99394 10.4986 4.03746 10.5873 4.03746 10.6745C4.12591 10.8069 4.08099 10.9392 3.94901 11.0701C3.90549 11.0701 3.86057 11.1138 3.81704 11.1588C3.59802 11.2911 3.5531 11.4671 3.72859 11.6431C3.90409 11.7754 4.07958 11.8627 4.2986 11.8627C4.34213 11.8627 4.38705 11.8627 4.43057 11.8191C4.78157 11.5108 4.95706 11.1588 5.00058 10.7196C5.00058 10.5 4.91213 10.324 4.78157 10.1917C4.69312 10.0157 4.51762 9.88338 4.38705 9.70741C4.34353 9.61872 4.25508 9.53144 4.16803 9.39911C4.12451 9.31042 4.07958 9.22314 4.12451 9.09081C4.21296 9.00212 4.34353 8.91484 4.4755 8.95848C4.651 9.00212 4.82649 9.09081 4.95847 9.17809C5.13396 9.22173 5.26593 9.31042 5.39791 9.3977C5.79242 9.53003 5.92439 9.83833 5.96792 10.1903L5.97072 10.1917ZM3.55731 8.8712C3.38181 9.00353 3.20632 9.04717 2.9873 9.04717H2.72335C2.59138 9.00353 2.54786 8.91484 2.59138 8.78251C2.6349 8.73887 2.6349 8.69383 2.67983 8.69383C2.85533 8.47421 2.9873 8.29824 3.16279 8.12227C3.20632 8.03358 3.29477 8.03358 3.38181 8.07863C3.55731 8.16732 3.7328 8.43057 3.68928 8.65018C3.68928 8.69383 3.60083 8.78251 3.55731 8.8698V8.8712ZM3.60083 6.84824C3.60083 6.98057 3.46886 7.1129 3.33689 7.1129C3.16139 7.1129 3.07294 6.98057 3.02942 6.84824C3.02942 6.67227 3.16139 6.53994 3.29336 6.53994C3.46886 6.58358 3.55731 6.67227 3.60083 6.84824Z" fill="#FF9CAC"/>
</g>
</svg>
