<svg xmlns="http://www.w3.org/2000/svg" width="32" height="32" viewBox="0 0 32 32">
  <g fill="none" fill-rule="evenodd" transform="translate(4 4)">
    <path fill="#6A9FB5" d="M9.09606605,11.5716896 L14.8698521,11.5716896 C15.6715889,11.5716896 16.355842,11.2861252 16.9226115,10.7149963 C17.489381,10.1438674 17.7727657,9.46231096 17.7727657,8.67032686 L17.7727657,3.23053551 C17.7727657,2.43855141 17.4836848,1.77387559 16.9055229,1.23650804 C16.3273611,0.699140496 15.6488042,0.374891232 14.8698521,0.263760248 C14.379981,0.175136804 13.8794296,0.109020902 13.3681978,0.0654125414 C12.8569661,0.0218041805 12.3564146,1.69242762e-14 11.8665435,1.59872116e-14 C11.3553117,0.0225075411 10.8654406,0.0499386069 10.3969302,0.0822931972 C9.92841972,0.114647788 9.49479835,0.175136804 9.09606605,0.263760248 C7.87281232,0.462107954 7.08317996,0.797610989 6.72716898,1.27026935 C6.371158,1.74292772 6.19315251,2.39705313 6.19315251,3.23264559 L6.19315251,5.40814012 L12.0011157,5.40814012 L12.0011157,6.13400832 L4.02504563,6.13400832 C3.17916353,6.13400832 2.42228419,6.38159127 1.75440759,6.87675718 C1.08653098,7.37192308 0.630124906,8.09146104 0.385189351,9.03537104 C0.140253796,10.1129196 0.0120898423,11.0638632 0.000697490903,11.8882019 C-0.0106948605,12.7125406 0.117469093,13.6958388 0.385189351,14.8380965 C0.607340204,15.6947898 0.969047361,16.3925235 1.47031082,16.9312978 C1.97157429,17.4700721 2.64443504,17.7394592 3.48889309,17.7394592 L5.45834584,17.7394592 L5.45834584,15.135618 C5.45834584,14.1903013 5.820053,13.3603357 6.54346731,12.6457213 C7.26688163,11.9311069 8.11774787,11.5737997 9.09606605,11.5737997 L9.09606605,11.5737997 L9.09606605,11.5716896 Z M8.72866272,3.95429363 C8.4167971,3.95429363 8.15548504,3.84456937 7.94472653,3.62512084 C7.73396803,3.40567232 7.62858878,3.15316584 7.62858878,2.86760141 C7.62858878,2.55952944 7.73396803,2.30139608 7.94472653,2.09320132 C8.15548504,1.88500657 8.4167971,1.78090919 8.72866272,1.78090919 C9.01774363,1.78090919 9.26837536,1.88500657 9.48055791,2.09320132 C9.69274045,2.30139608 9.7981197,2.55952944 9.79669566,2.86760141 C9.79669566,3.15316584 9.69131641,3.40567232 9.48055791,3.62512084 C9.26979941,3.84456937 9.01916768,3.95429363 8.72866272,3.95429363 L8.72866272,3.95429363 L8.72866272,3.95429363 Z"/>
    <path fill="#F4BF75" d="M20.6778153,6.12978815 C21.5236974,6.13119488 22.1630931,6.40620889 22.5960025,6.95483021 C23.0289118,7.50345152 23.3457616,8.19555841 23.5465518,9.03115088 L23.5465518,9.03115088 L23.5486879,9.0290408 L23.6505849,9.4524749 C23.8731585,10.4277944 23.9894295,11.3142596 23.9993978,12.1118706 C24.0107901,13.023426 23.8605535,13.9300579 23.5486879,14.8317662 C23.2581829,15.7109671 22.9185484,16.4143277 22.5297844,16.9418482 C22.1410204,17.4693687 21.5236974,17.733129 20.6778153,17.733129 L20.6778153,17.733129 L11.9989796,17.733129 L11.9989796,18.4589972 L17.7727657,18.4589972 L17.7727657,20.6344917 C17.7727657,21.4686774 17.4722924,22.1115491 16.8713459,22.5631066 C16.2703994,23.0146642 15.6025227,23.3501672 14.8677161,23.5696157 C13.7768984,23.876281 12.7700994,24.0190632 11.8473189,23.9979624 C10.9245385,23.9768615 10.0067421,23.8340793 9.09392998,23.5696157 C8.31497796,23.3487605 7.63642102,23.002707 7.05825919,22.5314554 C6.48009736,22.0602037 6.19101644,21.4285859 6.19101644,20.6366018 L6.19101644,20.6366018 L6.19101644,15.1968104 C6.19101644,14.4273339 6.47440118,13.7514043 7.04117066,13.1690216 C7.60794015,12.586639 8.29219325,12.2954477 9.09392998,12.2954477 L9.09392998,12.2954477 L14.8677161,12.2954477 C15.8246736,12.2954477 16.6705557,11.9381405 17.4053624,11.2235261 C18.140169,10.5089116 18.5075724,9.65714187 18.5075724,8.66821678 L18.5075724,8.66821678 L18.5075724,6.12978815 Z M15.2372555,19.9128437 C14.9481746,19.9128437 14.6925587,20.0225679 14.4704078,20.2420164 C14.248257,20.461465 14.1371815,20.7139714 14.1371815,20.9995359 C14.1371815,21.3076078 14.248257,21.5713681 14.4704078,21.7908166 C14.6925587,22.0102651 14.9481746,22.1199894 15.2372555,22.1199894 C15.5491211,22.1199894 15.8104332,22.0102651 16.0211917,21.7908166 C16.2319502,21.5713681 16.3373294,21.3076078 16.3373294,20.9995359 C16.3373294,20.7139714 16.2319502,20.461465 16.0211917,20.2420164 C15.8104332,20.0225679 15.5491211,19.9128437 15.2372555,19.9128437 Z"/>
  </g>
</svg>
