<svg width="16" height="16" viewBox="0 0 16 16" fill="none" xmlns="http://www.w3.org/2000/svg">
<g id="polymer">
<path id="Combined Shape" fill-rule="evenodd" clip-rule="evenodd" d="M9.68681 3.01974L8.24999 5.50659H11.1302L12.5736 3.01974H9.68681ZM8.24999 5.50659L6.80659 8.00001L6.80659 8L5.36977 10.4934H8.25L9.68681 8.00001L9.68682 8L11.1302 5.50659H8.24999ZM3.92636 12.9803H6.80659L8.25 10.4934H5.36977L3.92636 12.9803Z" fill="#F07178"/>
<path id="Combined Shape_2" fill-rule="evenodd" clip-rule="evenodd" d="M2.48955 5.50659L3.92637 3.01974H6.8066L5.36978 5.50659H2.48955ZM2.48955 5.50659L1.04614 8.00001L2.48955 10.4934H5.36978L3.92637 8.00001L5.36978 5.50659H2.48955ZM3.92637 12.9803L5.36978 10.4934H2.48955L3.92637 12.9803Z" fill="#89DDFF"/>
<path id="Combined Shape_3" fill-rule="evenodd" clip-rule="evenodd" d="M14.0105 5.50659L12.5736 3.01974L11.1302 5.50659H14.0105ZM14.0105 5.50659L15.4539 8.00001L14.0105 10.4934H11.1302L12.5737 8L11.1302 5.50659H14.0105ZM11.1302 10.4934L9.69342 12.9803H12.5736L14.0105 10.4934H11.1302Z" fill="#89DDFF"/>
</g>
</svg>
