<svg width="16" height="16" viewBox="0 0 16 16" fill="none" xmlns="http://www.w3.org/2000/svg">
<g id="postcss">
<path id="Vector" d="M12.8555 4.18513C12.7586 4.06195 12.6535 3.94579 12.5585 3.82113C12.4605 3.69253 12.3623 3.5692 12.2389 3.46335C11.9972 3.25598 11.7211 3.07246 11.4489 2.90758C10.8991 2.57446 10.2529 2.33697 9.62527 2.20286C9.29196 2.13163 8.95219 2.10651 8.6126 2.08558C8.26554 2.06418 7.91944 2.04656 7.57261 2.08052C6.9165 2.14481 6.22598 2.20352 5.60316 2.43269C5.01206 2.65017 4.45791 2.99556 3.97877 3.40354C3.73177 3.61387 3.53775 3.87442 3.33373 4.12483C3.12232 4.38428 2.92549 4.65079 2.76019 4.94226C2.40424 5.56985 2.10115 6.26744 2.05779 6.99745C2.04708 7.17778 2.05737 7.35728 2.07666 7.53665C2.09613 7.71759 2.11355 7.91556 2.17216 8.0886C2.18053 8.11328 2.19799 8.13735 2.19722 8.16463C2.19652 8.18955 2.17057 8.20328 2.17371 8.2297C2.17702 8.25742 2.20254 8.26204 2.21009 8.28581C2.22087 8.31972 2.21058 8.35295 2.21149 8.38783C2.21362 8.46646 2.24269 8.54271 2.26102 8.61838C2.28173 8.70396 2.27121 8.75957 2.24377 8.84188C2.277 8.82194 2.30911 8.79986 2.34375 8.78228C2.36988 8.88752 2.40359 8.99069 2.42864 9.0962C2.45604 9.21154 2.47439 9.26303 2.55991 9.34856C2.55991 9.2147 2.52412 9.103 2.50598 8.97192C2.52253 8.97597 2.5391 8.97988 2.55572 8.98361C2.50638 9.03297 2.60255 9.16038 2.62134 9.20735C2.65341 9.17512 2.67987 9.15557 2.727 9.16C2.71022 9.11809 2.70225 9.07291 2.68451 9.03131C2.6708 8.99915 2.64145 8.96559 2.63587 8.94267C2.63062 8.92108 2.64232 8.90413 2.6303 8.87805C2.62083 8.85749 2.59683 8.84706 2.5867 8.8274C2.55891 8.77331 2.60283 8.71729 2.59427 8.65724C2.5752 8.52288 2.5297 8.39245 2.51379 8.25681C2.49989 8.13834 2.52912 7.99204 2.43591 7.89939C2.37802 7.94646 2.39121 8.06329 2.30651 8.03043C2.24081 8.00496 2.25891 7.90448 2.32392 7.92149C2.32472 7.86135 2.29934 7.83946 2.32924 7.78738C2.35685 7.73927 2.3973 7.70592 2.42039 7.65208C2.46998 7.53637 2.47891 7.40045 2.48749 7.27645C2.50711 6.99297 2.56362 6.73938 2.65671 6.47029C2.83371 5.95851 3.09136 5.47352 3.37214 5.01175C3.897 4.14855 4.6834 3.40124 5.61466 2.98994C5.90236 2.86286 6.2052 2.76583 6.51047 2.69083C6.81105 2.61698 7.12116 2.62366 7.4273 2.59291C7.17138 2.95408 6.92407 3.32528 6.6551 3.6767C6.39668 4.01435 6.13289 4.3476 5.87637 4.68679C5.6104 5.03847 5.37591 5.41167 5.12876 5.77654C5.00738 5.95572 4.88491 6.13415 4.75997 6.31087C4.69945 6.39646 4.63582 6.47331 4.56891 6.55228C4.53649 6.59055 4.53659 6.62367 4.5206 6.66911C4.50415 6.71596 4.47347 6.75747 4.44837 6.79985C4.43845 6.78126 4.42854 6.76265 4.41862 6.74406C4.35937 6.8388 4.30678 6.93719 4.24854 7.03235C4.21634 7.08492 4.10705 7.18741 4.20607 7.22306C4.18523 7.23923 4.16494 7.2561 4.14516 7.27359C4.17438 7.30584 4.21685 7.32222 4.24411 7.3566C4.25189 7.34681 4.25941 7.3368 4.26663 7.32658C4.27648 7.40174 4.30512 7.32332 4.32295 7.29956C4.34456 7.27073 4.3658 7.24127 4.3908 7.21523C4.44115 7.16278 4.50169 7.12117 4.5537 7.07017C4.66034 6.9656 4.75545 6.84803 4.85004 6.7326C5.06034 6.47596 5.24562 6.19956 5.46389 5.94935C5.44111 6.2084 5.43298 6.46849 5.41139 6.72768C5.40112 6.85078 5.41423 6.97202 5.40063 7.09586C5.38673 7.22224 5.37551 7.34894 5.37703 7.47618C5.3801 7.73533 5.39419 7.99096 5.37703 8.25011C5.37014 8.35438 5.39013 8.45306 5.39027 8.55609C5.39039 8.62164 5.37241 8.71192 5.45595 8.71192C5.45595 8.87781 5.39805 9.02885 5.41083 9.19774C5.41666 9.27489 5.40305 9.34743 5.40274 9.42393C5.40239 9.5121 5.47383 9.57686 5.47179 9.65995C5.42002 9.65995 5.38664 9.64387 5.36287 9.69145C5.34246 9.73239 5.36527 9.81569 5.36787 9.86076C5.37251 9.94145 5.37096 10.0235 5.36827 10.1043C5.36667 10.1519 5.37975 10.2861 5.34316 10.3267C5.30534 10.3687 5.23348 10.3536 5.17957 10.3551C5.08073 10.3579 4.98185 10.3576 4.88299 10.3574C4.69296 10.357 4.50342 10.3649 4.31348 10.3672C3.9292 10.3716 3.54574 10.3623 3.1612 10.3799C3.00033 10.3873 2.81812 10.3962 2.66698 10.4577C2.60009 10.4849 2.59786 10.5126 2.57032 10.5739C2.56411 10.5878 2.53352 10.5865 2.53017 10.6052C2.52438 10.6373 2.56036 10.6747 2.56859 10.7043C2.5868 10.6963 2.60444 10.6872 2.62151 10.6769C2.60857 10.6985 2.59566 10.72 2.58274 10.7416C2.6258 10.7254 2.66899 10.7095 2.71193 10.693C2.71193 10.7211 2.86657 10.6947 2.90494 10.6982C2.96667 10.7038 3.02679 10.7221 3.08733 10.7343C3.25437 10.768 3.42792 10.7745 3.5977 10.7834C3.91889 10.8003 4.2393 10.7981 4.5608 10.7973C4.89703 10.7964 5.23268 10.8088 5.56898 10.8011C5.8909 10.7938 6.21255 10.7783 6.53437 10.7677C7.19351 10.746 7.85245 10.7511 8.51093 10.7094C9.1732 10.6675 9.83339 10.6275 10.4967 10.6076C10.8624 10.5966 11.2279 10.5831 11.5929 10.5586C11.9521 10.5344 12.332 10.4994 12.6912 10.5285C12.6708 10.5456 12.6503 10.5626 12.6299 10.5797C12.7347 10.5814 12.5689 10.7344 12.5577 10.7517C12.5384 10.7815 12.5354 10.8223 12.5159 10.852C12.4951 10.8836 12.4747 10.8831 12.4478 10.9078C12.4459 10.9095 12.4313 10.9413 12.4277 10.9477C12.4095 10.9801 12.4106 11.0129 12.3911 11.045C12.3474 11.1171 12.3286 11.1308 12.2411 11.1599C12.2614 11.1667 12.2816 11.1734 12.3019 11.1801C12.2771 11.1925 12.2989 11.2208 12.2866 11.2602C12.2708 11.3107 12.2297 11.3587 12.1981 11.4002C12.1201 11.5026 12.0322 11.5885 11.9352 11.6731C11.7818 11.8072 11.6504 11.9588 11.487 12.0823C11.3246 12.205 11.1548 12.3229 10.9818 12.4301C10.8127 12.5349 10.6347 12.6244 10.4669 12.7315C10.2894 12.8449 10.1007 12.9052 9.90701 12.9842C9.71834 13.0611 9.53822 13.1556 9.33424 13.1851C9.11862 13.2164 8.90147 13.2375 8.68549 13.2663C8.46565 13.2955 8.25359 13.3285 8.03137 13.3301C7.94231 13.3307 7.85503 13.3394 7.76677 13.3224C7.65792 13.3014 7.5608 13.2817 7.44963 13.2751C7.24828 13.263 7.04433 13.2336 6.85254 13.1698C6.77534 13.1441 6.73038 13.1434 6.65325 13.1379C6.56018 13.1313 6.47735 13.0813 6.38529 13.071C6.30858 13.0624 6.30321 13.0355 6.24122 13.0046C6.15759 12.9629 6.07404 12.939 5.99264 12.8865C5.91562 12.8369 5.83877 12.7857 5.75316 12.7518C5.6658 12.7173 5.57168 12.7027 5.48484 12.6667C5.40708 12.6346 5.34115 12.5824 5.27156 12.5362C5.19476 12.4851 5.12412 12.467 5.04108 12.4353C4.866 12.3687 4.7059 12.2314 4.56933 12.1078C4.44527 11.9956 4.24242 11.9631 4.17759 11.8021C4.15373 11.7428 4.11452 11.733 4.0668 11.6898C3.99464 11.6244 3.91547 11.5612 3.83477 11.5068C3.67849 11.4013 3.58385 11.2529 3.47773 11.1007C3.43833 11.0442 3.38573 10.9458 3.3243 10.9094C3.26456 10.8741 3.24187 10.9559 3.17135 10.9559C3.26316 11.1013 3.35496 11.2466 3.44677 11.392C3.41944 11.3713 3.38147 11.377 3.35827 11.349C3.34448 11.3324 3.34917 11.2977 3.33628 11.2837C3.29909 11.2431 3.21621 11.263 3.16751 11.2561C3.23236 11.358 3.29531 11.4802 3.34291 11.5722C3.39532 11.6735 3.50834 11.7385 3.57068 11.8333C3.48028 11.8531 3.60204 11.984 3.62742 12.0128C3.65794 12.0474 3.69455 12.0754 3.72539 12.1092C3.7698 12.1579 3.75994 12.1858 3.75994 12.2487C3.81016 12.1983 3.81989 12.2228 3.86365 12.2585C3.87213 12.2655 3.90977 12.2904 3.9202 12.295C3.93305 12.3046 3.9472 12.3117 3.96265 12.3163C3.97948 12.3137 3.99605 12.31 4.01241 12.3054C4.01658 12.3065 4.07761 12.3424 4.0879 12.3486C4.09305 12.3518 4.0923 12.3754 4.10789 12.3839C4.14919 12.4064 4.17293 12.3985 4.20977 12.4325C4.34297 12.5553 4.46475 12.6887 4.61395 12.7968C4.94796 13.0389 5.33686 13.2529 5.71308 13.422C5.90013 13.506 6.09295 13.5672 6.29189 13.6157C6.50784 13.6683 6.7218 13.7403 6.94001 13.7811C7.10815 13.8126 7.28527 13.8605 7.45631 13.866C7.55958 13.8694 7.66242 13.8617 7.76688 13.8685C7.79496 13.8704 8.00257 13.8698 7.89577 13.918C8.13598 13.9646 8.36817 13.9481 8.61089 13.9373C8.71936 13.9324 8.8358 13.8713 8.93906 13.8754C8.9554 13.876 8.96977 13.8963 8.99423 13.8928C9.01392 13.89 9.02639 13.8697 9.04348 13.8621C9.08878 13.842 9.12691 13.8501 9.17531 13.8466C9.37744 13.8319 9.55582 13.7618 9.76863 13.7218C9.80034 13.7158 9.8554 13.7172 9.88317 13.6971C9.91702 13.6727 9.90164 13.6542 9.92243 13.6236C9.96075 13.567 10.0837 13.4802 10.1531 13.486C10.1398 13.4993 10.1265 13.5127 10.1131 13.526C10.1567 13.5234 10.2256 13.5324 10.2644 13.5075C10.3001 13.4845 10.2975 13.4442 10.3297 13.4204C10.3575 13.3999 10.4112 13.4031 10.4445 13.3939C10.5115 13.3754 10.5792 13.3483 10.641 13.3167C10.6957 13.2888 10.7426 13.2756 10.7969 13.2566C10.8352 13.2433 10.8639 13.2209 10.9034 13.2074C10.9259 13.1997 10.9467 13.1922 10.9692 13.1837C10.9759 13.1763 10.9827 13.1689 10.9894 13.1616C11.0039 13.1688 11.0187 13.1706 11.0339 13.1672C11.1016 13.1511 11.1553 13.1031 11.2118 13.0639C11.1796 13.0639 11.1474 13.0639 11.1152 13.0639C11.1405 13.0499 11.1771 13.0109 11.2065 13.0102C11.2256 13.0098 11.2436 13.0385 11.2655 13.0436C11.3164 13.0556 11.4876 12.9832 11.4437 12.912C11.483 12.8905 11.497 12.9244 11.5266 12.9153C11.5426 12.9104 11.5748 12.8838 11.5866 12.8697C11.6259 12.823 11.5903 12.7963 11.6254 12.7481C11.663 12.6962 11.7358 12.6707 11.7852 12.632C11.814 12.6094 11.8416 12.5693 11.8785 12.5595C11.8955 12.5549 11.9456 12.5179 11.9549 12.5016C11.9694 12.476 11.9946 12.458 12.0162 12.4388C12.0883 12.3748 12.1648 12.3165 12.2348 12.2501C12.3809 12.1115 12.5162 11.9589 12.6427 11.8023C12.879 11.51 13.0763 11.1817 13.2485 10.848C13.2963 10.7555 13.3243 10.606 13.4366 10.5751C13.4944 10.5592 13.5592 10.5695 13.6183 10.5666C13.6978 10.5628 13.7652 10.54 13.8364 10.5043C13.7548 10.3768 13.5385 10.1638 13.5944 10.0012C13.669 9.78452 13.7655 9.57023 13.8166 9.34556C13.9346 8.8278 13.991 8.2826 13.9773 7.75185C13.9612 7.09884 13.9444 6.43284 13.7333 5.80795C13.5357 5.22304 13.237 4.67017 12.8553 4.18492L12.8555 4.18513ZM6.22001 4.95998C6.21666 4.96448 6.20344 4.98152 6.22001 4.95998C6.24452 4.92726 6.26892 4.91362 6.28772 4.88048C6.3191 4.82514 6.34022 4.78755 6.38888 4.7496C6.42417 4.72209 6.43847 4.70137 6.46488 4.6645C6.48675 4.63399 6.51262 4.60581 6.5363 4.57673C6.55296 4.55622 6.57902 4.48837 6.58664 4.5419C6.63602 4.4714 6.70645 4.38944 6.72471 4.31345C6.71536 4.30842 6.70765 4.3016 6.70155 4.29302C6.70598 4.27778 6.71452 4.26522 6.72717 4.25533C6.73889 4.23342 6.76805 4.1965 6.78776 4.18141C6.80873 4.16538 6.8258 4.17487 6.85207 4.15661C6.8808 4.13669 6.90108 4.09127 6.92449 4.06474C6.94709 4.03912 6.98653 4.01224 6.99834 3.97898C7.00587 3.95788 6.98918 3.91917 6.99956 3.90463C7.01355 3.93135 7.02652 3.95861 7.04002 3.98559C7.05738 3.94218 7.08211 3.89924 7.09737 3.85556C7.11492 3.80535 7.09505 3.80913 7.10311 3.77198C7.11286 3.72703 7.17473 3.67089 7.20108 3.63292C7.24235 3.57339 7.28381 3.51398 7.32466 3.45417C7.47438 3.23491 7.60908 3.00025 7.79974 2.81275C8.47172 3.65943 9.07336 4.54987 9.67345 5.44802C9.34437 5.44802 9.01992 5.42903 8.69105 5.45418C8.36393 5.47919 8.03773 5.51231 7.70965 5.52267C7.06263 5.5431 6.4137 5.59713 5.76626 5.58862C5.91888 5.38007 6.06239 5.16489 6.22001 4.95998ZM10.2175 6.6014L10.2341 7.28943C10.1691 7.10542 10.0593 6.94415 9.95278 6.78231C9.83888 6.60988 9.70275 6.44578 9.53756 6.32008C9.37467 6.19614 9.18459 6.11235 8.99648 6.0348C8.99648 6.0348 9.87752 6.01291 9.98559 6.01317C10.0664 6.01335 10.0996 6.04303 10.1449 6.10818C10.2469 6.25481 10.2134 6.43003 10.2175 6.6014H10.2175ZM6.01348 6.16619C6.33516 6.15154 6.657 6.13954 6.97837 6.11885C6.77827 6.24009 6.61036 6.40415 6.45293 6.57548C6.29234 6.75025 6.1226 6.91996 5.99198 7.11932C6.00898 6.80196 6.02449 6.484 6.01348 6.16617V6.16619ZM6.31519 10.3667C6.25795 10.3705 6.07941 10.4025 6.04038 10.3563C5.99913 10.3075 6.03579 10.1617 6.03567 10.0863C6.01434 9.76136 5.97661 9.43703 5.97806 9.11104C6.05248 9.28403 6.12734 9.43708 6.23794 9.58961C6.29013 9.66161 6.33659 9.74106 6.39513 9.80828C6.43317 9.85195 6.55655 9.8826 6.56309 9.94188C6.5678 9.98458 6.51342 9.99236 6.54584 10.0416C6.5707 10.0794 6.64758 10.0965 6.68527 10.1163C6.74991 10.1503 6.8043 10.1991 6.86752 10.2354C6.95595 10.2861 7.0583 10.303 7.14987 10.3471C6.87209 10.3524 6.59241 10.3484 6.31516 10.3667H6.31519ZM7.08766 9.89249C7.09763 9.89709 7.11844 9.90578 7.1058 9.90023C7.11115 9.90255 7.11248 9.90313 7.10414 9.8995C6.94793 9.83146 6.80009 9.76445 6.6773 9.64333C6.6172 9.58406 6.54724 9.52656 6.49359 9.46145C6.44229 9.3992 6.40845 9.32449 6.36816 9.2552C6.28936 9.11971 6.16233 8.99275 6.10948 8.84683C6.09464 8.80586 6.05883 8.72338 6.00832 8.79501C5.9748 8.84249 6.02644 8.91834 6.03905 8.9646C6.0183 8.96472 5.99262 8.97548 5.97961 8.99202C5.98423 8.74947 5.96918 8.50696 5.97532 8.26441C6.05948 8.32284 6.1122 8.1951 6.13104 8.13403C6.14435 8.09088 6.14545 8.04456 6.16022 8.0021C6.16788 7.98006 6.21195 7.92588 6.20681 7.9038C6.19399 7.84872 6.14161 7.88397 6.16706 7.81356C6.18424 7.76603 6.23009 7.73404 6.24783 7.6811C6.26191 7.63905 6.28905 7.50152 6.32768 7.47679C6.32655 7.48799 6.32543 7.49922 6.3243 7.51042C6.40758 7.46144 6.45323 7.4271 6.47407 7.33082C6.49296 7.24347 6.55488 7.19554 6.60537 7.12455C6.66061 7.04685 6.70493 6.98821 6.78837 6.93944C6.86105 6.89695 6.91931 6.80188 6.99619 6.77495C7.04191 6.75895 7.07168 6.75672 7.12174 6.72515C7.14902 6.70795 7.18814 6.68453 7.20258 6.65413C7.21373 6.63065 7.20145 6.61675 7.2183 6.59603C7.25977 6.54508 7.39838 6.51461 7.45821 6.48656C7.54575 6.44549 7.63556 6.38962 7.73573 6.39178C7.6751 6.50613 7.88067 6.43441 7.93198 6.45152C7.93198 6.34265 7.95541 6.32252 8.06691 6.32083C8.18916 6.31898 8.31513 6.31499 8.43616 6.33468C8.67593 6.37366 8.87695 6.52577 9.07127 6.661C9.27338 6.80165 9.46493 6.93016 9.6052 7.13863C9.66609 7.22913 9.71487 7.32667 9.74367 7.43212C9.77878 7.56063 9.82582 7.71337 9.81581 7.84687C9.80707 7.96338 9.77848 8.0777 9.7695 8.19475C9.75827 8.34128 9.726 8.46606 9.65874 8.59743C9.64432 8.6256 9.60347 8.67163 9.61245 8.70506C9.62084 8.7363 9.65102 8.72917 9.65269 8.76128C9.65421 8.79016 9.61144 8.86265 9.60117 8.8885C9.58104 8.93922 9.55959 8.9894 9.53656 9.03888C9.34891 9.44235 9.05658 9.78681 8.62266 9.9265C8.16124 10.075 7.53284 10.1277 7.08766 9.89245V9.89249ZM9.12136 10.2657C9.18302 10.2296 9.24188 10.189 9.29831 10.1452C9.33734 10.115 9.384 10.0549 9.42846 10.0331C9.42778 10.0338 9.42708 10.0344 9.42638 10.0351C9.4133 10.0443 9.39881 10.0616 9.38953 10.0709C9.39291 10.0675 9.39663 10.0643 9.4002 10.061C9.40404 10.0578 9.41353 10.0493 9.43224 10.0323C9.50559 9.95906 9.59775 9.90848 9.67378 9.83828C9.74449 9.77303 9.80672 9.69742 9.86365 9.62008C9.9885 9.45044 10.0782 9.25966 10.1715 9.07178C10.1763 9.45822 10.2201 9.84281 10.2705 10.2256L9.12131 10.2657H9.12136ZM12.7284 10.1749C12.5226 10.166 12.3141 10.1759 12.108 10.176C11.8661 10.1762 11.6252 10.1823 11.3838 10.1989C11.2758 10.2064 11.1679 10.2081 11.0598 10.2115C11.0173 10.2128 10.9635 10.2244 10.9216 10.2181C10.8757 10.2113 10.8581 10.1847 10.8225 10.1579C10.8183 10.1662 10.8141 10.1745 10.8099 10.1828C10.7783 10.1494 10.776 10.0878 10.7801 10.0451C10.7816 10.0292 10.7919 10.0063 10.7983 9.98486C10.832 9.99178 10.8657 9.88143 10.8634 9.86259C10.8598 9.8324 10.8483 9.81199 10.8309 9.78834C10.8139 9.76535 10.8104 9.7881 10.7991 9.75714C10.791 9.73504 10.8019 9.67821 10.8015 9.65617C10.8329 9.6797 10.832 9.62383 10.8582 9.60456C10.8832 9.58614 10.9149 9.58804 10.945 9.58804C10.9188 9.54224 10.9185 9.49335 10.9092 9.44315C10.8936 9.35957 10.8892 9.36709 10.972 9.33932C10.9231 9.31485 10.9044 9.31849 10.8882 9.26767C10.8757 9.22846 10.8878 9.1746 10.8853 9.13307C10.8826 9.0899 10.8803 9.03824 10.862 8.99824C10.8403 8.95075 10.7925 8.94951 10.7946 8.90493C10.8234 8.91632 10.8521 8.92795 10.8809 8.93948C10.8626 8.87547 10.8273 8.81711 10.8111 8.75254C10.7952 8.68863 10.804 8.62539 10.804 8.56026C10.8187 8.56375 10.8334 8.56738 10.848 8.57118C10.8445 8.52897 10.8514 8.50584 10.8371 8.46665C10.8301 8.44755 10.8133 8.43138 10.8061 8.41054C10.7859 8.35174 10.8 8.27971 10.8 8.2191C10.8134 8.22435 10.8267 8.2297 10.84 8.23511C10.8297 8.19149 10.8774 8.16297 10.9032 8.13707C10.8539 8.13651 10.8539 8.14441 10.8394 8.10878C10.8305 8.0868 10.8386 8.04562 10.8369 8.0216C10.8324 7.9563 10.8056 7.91095 10.8072 7.85062C10.8133 7.61088 10.8193 7.37113 10.8253 7.13137C11.3131 7.77515 11.697 8.49243 12.1834 9.13738C12.3138 9.3104 12.8205 9.97537 12.8506 10.015C12.8686 10.0388 12.9326 10.0979 12.9334 10.1332C12.9352 10.2136 12.7785 10.177 12.7283 10.1749H12.7284ZM13.3365 7.37592C13.3197 7.35942 13.303 7.3428 13.2864 7.32609C13.2764 7.35613 13.2755 7.43446 13.2241 7.41719C13.218 7.50126 13.2442 7.58402 13.2353 7.66813C13.2494 7.65808 13.2638 7.64849 13.2785 7.63942C13.2667 7.70053 13.3335 7.75912 13.3251 7.81971C13.3159 7.88678 13.2698 7.84068 13.2472 7.86714C13.221 7.89771 13.2338 8.05989 13.2492 8.0894C13.2635 8.11685 13.2889 8.1246 13.2995 8.15826C13.3132 8.20204 13.2995 8.25611 13.2911 8.29933C13.2544 8.48852 13.2668 8.67433 13.2502 8.86481C13.2405 8.97625 13.2217 8.9114 13.1519 8.91196C13.0705 8.91264 13.1228 9.02983 13.1362 9.07614C13.0738 9.0708 13.087 9.15356 13.0851 9.19434C13.0818 9.26803 13.0451 9.32437 13.0365 9.39428C12.808 9.06093 12.606 8.71017 12.3729 8.37986C12.1316 8.03795 11.8985 7.69049 11.6587 7.34763C11.421 7.00806 11.2076 6.65268 10.9732 6.31106C10.9282 6.24545 10.8572 6.17889 10.8306 6.10392C10.8039 6.02859 10.8122 5.91808 10.8115 5.8394C10.8107 5.7543 10.8157 5.66946 10.8129 5.58442C10.8098 5.4917 10.8252 5.47124 10.8885 5.40801C10.7348 5.40801 10.5812 5.40834 10.4275 5.40834C10.3273 5.40834 10.2567 5.30022 10.2066 5.22731C10.1308 5.11713 10.0566 5.00589 9.9817 4.89515C9.79692 4.62203 9.597 4.35897 9.39874 4.09558C9.02557 3.59985 8.67809 3.08315 8.27452 2.61098C8.53074 2.64309 8.78902 2.64417 9.04502 2.68176C9.297 2.71874 9.54792 2.76904 9.79298 2.83856C10.2558 2.96978 10.6999 3.16436 11.126 3.38582C11.2201 3.43474 11.3171 3.4806 11.4081 3.53521C11.5112 3.59711 11.5894 3.68259 11.6715 3.76914C11.8446 3.95163 12.0079 4.14159 12.1707 4.33314C12.4472 4.65841 12.7527 4.97702 12.9179 5.37742C13.0203 5.62551 13.0922 5.89593 13.1495 6.15773C13.1791 6.29315 13.1767 6.43073 13.2033 6.56467C13.214 6.6187 13.2239 6.67089 13.2334 6.72541C13.2362 6.74142 13.2563 6.77735 13.2566 6.77643C13.27 6.80681 13.2742 6.85424 13.3075 6.82089C13.3429 7.00305 13.3436 7.19118 13.3364 7.37592H13.3365ZM3.66415 7.73824C3.67432 7.73116 3.68449 7.7241 3.69466 7.71703C3.62794 7.73629 3.62967 7.67697 3.64819 7.63469C3.67439 7.57495 3.73861 7.53567 3.77377 7.48122C3.79177 7.50021 3.81141 7.51739 3.83393 7.5303C3.87797 7.47494 3.92238 7.41991 3.96858 7.36633C4.01541 7.43041 4.08309 7.40132 4.03043 7.4916C3.99818 7.54687 3.95362 7.59206 3.91193 7.63973C3.92369 7.66577 3.94901 7.67995 3.94512 7.71618C3.93804 7.78225 3.82617 7.90251 3.78002 7.95154C3.73891 7.9952 3.69998 7.97507 3.67052 8.02509C3.65405 8.05303 3.66384 8.07878 3.63708 8.10763C3.61945 8.12662 3.59142 8.13524 3.57272 8.15343C3.5374 8.18786 3.52441 8.24765 3.48195 8.27385C3.42947 8.30624 3.37873 8.29849 3.38062 8.23729C3.34594 8.24273 3.31245 8.25402 3.27848 8.26253C3.31545 8.20249 3.34976 8.13571 3.39506 8.08141C3.42769 8.04229 3.47112 8.01419 3.50456 7.97601C3.53998 7.93556 3.55488 7.88505 3.58845 7.84389C3.61903 7.80642 3.64406 7.78324 3.66415 7.73819V7.73824Z" fill="#FC8289" stroke="#FC8289" stroke-width="0.2" stroke-linejoin="round"/>
</g>
</svg>
