<svg width="16" height="16" viewBox="0 0 16 16" fill="none" xmlns="http://www.w3.org/2000/svg">
<g id="powerpoint">
<g id="player-19">
<path id="Shape" d="M11 13.5H5C4.7235 13.5 4.5 13.276 4.5 13C4.5 12.724 4.7235 12.5 5 12.5H11C11.2765 12.5 11.5 12.724 11.5 13C11.5 13.276 11.2765 13.5 11 13.5Z" fill="#FFCB6B"/>
<path id="Shape_2" fill-rule="evenodd" clip-rule="evenodd" d="M2.5 2.5H13.5C13.7765 2.5 14 2.724 14 3V11C14 11.276 13.7765 11.5 13.5 11.5H2.5C2.2235 11.5 2 11.276 2 11V3C2 2.724 2.2235 2.5 2.5 2.5ZM7.2575 8.9285L9.7575 7.4285C9.9075 7.3385 10 7.1755 10 7C10 6.8245 9.9075 6.6615 9.7575 6.5715L7.2575 5.0715C7.1025 4.978 6.91 4.976 6.7535 5.065C6.5965 5.1535 6.5 5.32 6.5 5.5V8.5C6.5 8.68 6.5965 8.8465 6.7535 8.935C6.83 8.9785 6.915 9 7 9C7.089 9 7.178 8.9765 7.2575 8.9285Z" fill="#F07178"/>
</g>
</g>
</svg>
