<svg width="16" height="16" viewBox="0 0 16 16" fill="none" xmlns="http://www.w3.org/2000/svg">
<g id="prettier">
<g id="prettier_2">
<rect id="Rectangle" x="11.8333" y="4.30524" width="1.11111" height="0.568421" rx="0.28421" fill="#89DDFF"/>
<rect id="Rectangle-path" x="3.5" y="13.4" width="3.33333" height="0.568422" rx="0.284211" fill="#FC8289"/>
<rect id="Rectangle-path_2" x="10.1667" y="8.8526" width="2.22222" height="0.568421" rx="0.284211" fill="#9883EC"/>
<rect id="Rectangle-path_3" x="6.83331" y="8.8526" width="2.77778" height="0.568421" rx="0.284211" fill="#FC8289"/>
<rect id="Rectangle-path_4" x="3.5" y="8.8526" width="2.77778" height="0.568421" rx="0.284211" fill="#89DDFF"/>
<rect id="Rectangle-path_5" x="3.5" y="11.1263" width="3.33333" height="0.568422" rx="0.284211" fill="#9883EC"/>
<rect id="Rectangle-path_6" x="3.5" y="6.57892" width="3.33333" height="0.568421" rx="0.28421" fill="#9883EC"/>
<rect id="Rectangle-path_7" x="6.27777" y="3.1684" width="6.11111" height="0.568421" rx="0.28421" fill="#FFCB6B"/>
<rect id="Rectangle-path_8" x="3.5" y="3.1684" width="2.22222" height="0.568421" rx="0.28421" fill="#FC8289"/>
<rect id="Rectangle-path_9" x="5.72223" y="12.2631" width="1.11111" height="0.568422" rx="0.284211" fill="#FFCB6B"/>
<rect id="Rectangle-path_10" x="5.72223" y="5.44208" width="1.11111" height="0.568421" rx="0.28421" fill="#89DDFF"/>
<rect id="Rectangle-path_11" x="3.5" y="12.2631" width="1.66667" height="0.568422" rx="0.284211" fill="#89DDFF"/>
<rect id="Rectangle-path_12" x="3.5" y="5.44208" width="1.66667" height="0.568421" rx="0.28421" fill="#FFCB6B"/>
<rect id="Rectangle-path_13" x="7.94443" y="7.71576" width="5" height="0.568421" rx="0.28421" fill="#89DDFF"/>
<rect id="Rectangle-path_14" x="5.16666" y="7.71576" width="2.22222" height="0.568421" rx="0.28421" fill="#FFCB6B"/>
<rect id="Rectangle-path_15" x="3.5" y="7.71576" width="1.11111" height="0.568421" rx="0.28421" fill="#FC8289"/>
<rect id="Rectangle-path_16" x="8.5" y="4.30524" width="2.77778" height="0.568421" rx="0.28421" fill="#9883EC"/>
<rect id="Rectangle-path_17" x="3.5" y="4.30524" width="4.44444" height="0.568421" rx="0.28421" fill="#89DDFF"/>
<rect id="Rectangle-path_18" x="5.16666" y="9.98944" width="5.55555" height="0.568421" rx="0.284211" fill="#FFCB6B"/>
<rect id="Rectangle-path_19" x="3.5" y="9.98944" width="1.11111" height="0.568421" rx="0.284211" fill="#9883EC"/>
<rect id="Rectangle-path_20" x="10.1667" y="5.44208" width="3.33333" height="0.568421" rx="0.28421" fill="#FC8289"/>
<rect id="Rectangle-path_21" x="10.1667" y="6.57892" width="3.33333" height="0.568421" rx="0.28421" fill="#FFCB6B"/>
<rect id="Rectangle-path_22" x="3.5" y="2.03156" width="7.22222" height="0.568421" rx="0.284211" fill="#89DDFF"/>
</g>
</g>
</svg>
