<svg width="16" height="16" viewBox="0 0 16 16" fill="none" xmlns="http://www.w3.org/2000/svg">
<path d="M12.0047 11.5183L6.58209 13.1121C6.41643 13.1608 6.25766 13.0184 6.29247 12.8524L8.22966 3.6331C8.26586 3.4607 8.50571 3.43332 8.58136 3.59298L12.1682 11.162C12.2358 11.3048 12.1586 11.4731 12.0047 11.5183ZM12.9346 11.1424L8.78156 2.37844C8.67741 2.15935 8.46006 2.0146 8.21371 2.00119C7.96098 1.98656 7.73456 2.10769 7.60683 2.31385L3.10267 9.56355C2.96314 9.7895 2.96587 10.0681 3.11059 10.2914L5.31229 13.6806C5.44352 13.8829 5.67088 14 5.9072 14C5.97418 14 6.04154 13.9907 6.10777 13.9712L12.4987 12.0927C12.6945 12.0352 12.8546 11.8976 12.9384 11.7151C13.0218 11.5326 13.0205 11.3237 12.9346 11.1424Z" fill="#B2CCD6"/>
</svg>
