<svg width="16" height="16" viewBox="0 0 16 16" fill="none" xmlns="http://www.w3.org/2000/svg">
<g id="procfile">
<g id="heroku">
<path id="Shape" fill-rule="evenodd" clip-rule="evenodd" d="M3.64691 2.02269H12.3534C12.9544 2.02269 13.4418 2.50448 13.4418 3.09864V12.9017C13.4418 13.4959 12.9544 13.9777 12.3534 13.9777H3.64691C3.04592 13.9777 2.55859 13.4959 2.55859 12.9017V3.09864C2.55859 2.50448 3.04592 2.02269 3.64691 2.02269ZM6.63978 10.9889L5.27938 9.79344V12.1844L6.63978 10.9889ZM9.51173 12.1844V8.61438C9.50583 8.33538 9.36995 8.00019 8.75595 8.00019C7.52646 8.00019 6.14732 8.61154 6.13356 8.61767L5.27938 9.00023V3.81594H6.48863V7.20982C7.09234 7.01555 7.93624 6.80469 8.75595 6.80469C9.50342 6.80469 9.95084 7.0952 10.1945 7.33893C10.7146 7.85897 10.7217 8.52143 10.721 8.59794V12.1844H9.51173ZM8.6048 5.75863H9.81404C10.3609 5.14594 10.6393 4.49499 10.721 3.81594H9.51173C9.37841 4.49349 9.08003 5.1422 8.6048 5.75863Z" fill="#C792EA"/>
</g>
</g>
</svg>
