<svg width="16" height="16" viewBox="0 0 16 16" fill="none" xmlns="http://www.w3.org/2000/svg">
<g id="psd">
<path id="Shape" d="M2.5 8C2.5 4.96243 4.96243 2.5 8 2.5C11.0376 2.5 13.5 4.96243 13.5 8C13.5 11.0376 11.0376 13.5 8 13.5C4.96243 13.5 2.5 11.0376 2.5 8Z" fill="#343944" stroke="#89DDFF"/>
<g id="Group">
<path id="Combined Shape" fill-rule="evenodd" clip-rule="evenodd" d="M7.19036 5.77612C7.39295 5.84218 7.56334 5.93308 7.70151 6.04882H7.70229C7.83216 6.16456 7.93553 6.31333 8.01242 6.49513C8.0893 6.67693 8.12774 6.87511 8.12774 7.08968C8.12774 7.31217 8.09527 7.51035 8.03034 7.68423C7.9654 7.8581 7.87606 8.00687 7.76229 8.13054C7.60022 8.29543 7.4197 8.42332 7.22075 8.51422C7.02179 8.60512 6.76803 8.65876 6.45947 8.67514L6.23428 8.68149L6.13065 8.68783V10.0997H5.22989V5.70239L5.63741 5.68971C5.90961 5.68125 6.18363 5.67703 6.45947 5.67703C6.74414 5.67703 6.98777 5.71006 7.19036 5.77612ZM6.26468 7.90696H6.43533V7.90617C6.67896 7.89772 6.87168 7.82558 7.0135 7.68975C7.15531 7.55393 7.22622 7.37028 7.22622 7.13881C7.22674 6.93217 7.16596 6.75671 7.04389 6.61243C6.92181 6.46815 6.74311 6.39179 6.5078 6.38333L6.25222 6.37699L6.13066 6.38333V7.89428L6.26468 7.90696Z" fill="white"/>
<path id="Path" fill-rule="evenodd" clip-rule="evenodd" d="M9.90508 8.04252C9.70197 7.96801 9.56405 7.90617 9.49132 7.85702C9.4186 7.80787 9.38198 7.74181 9.38146 7.65884C9.38094 7.57587 9.4134 7.51192 9.47886 7.467C9.54431 7.42208 9.63755 7.39935 9.75859 7.39882C9.89677 7.39882 10.0531 7.43185 10.2277 7.49791C10.4022 7.56398 10.5261 7.61762 10.5993 7.65884V6.91526C10.5017 6.86558 10.3799 6.8159 10.2339 6.76622C10.0879 6.71654 9.92144 6.6917 9.73443 6.6917C9.33652 6.6917 9.01991 6.79291 8.78459 6.99532C8.54927 7.19773 8.43161 7.4559 8.43161 7.76982C8.43161 7.95955 8.5007 8.1247 8.63888 8.26528C8.77706 8.40586 9.00848 8.53375 9.33315 8.64896C9.51963 8.71502 9.64534 8.78928 9.71028 8.87172C9.77521 8.95417 9.80768 9.03687 9.80768 9.11985C9.80768 9.21075 9.77521 9.28104 9.71028 9.33071C9.64534 9.38039 9.53574 9.40523 9.38146 9.40523C9.23549 9.40523 9.07107 9.3722 8.88822 9.30614C8.70537 9.24008 8.56953 9.17825 8.4807 9.12064V9.85154C8.60226 9.9176 8.74433 9.97759 8.90692 10.0315C9.06952 10.0854 9.22769 10.1163 9.38146 10.1242C9.8443 10.1327 10.1913 10.0315 10.4225 9.82062C10.6536 9.60976 10.7692 9.35159 10.7692 9.04612C10.7609 8.80672 10.69 8.60642 10.5565 8.44523C10.423 8.28404 10.2058 8.14981 9.90508 8.04252Z" fill="white"/>
</g>
</g>
</svg>
