<svg width="16" height="16" viewBox="0 0 16 16" fill="none" xmlns="http://www.w3.org/2000/svg">
<g id="pug">
<g id="__pug-logo-mono-isolated">
<path id="Combined Shape" fill-rule="evenodd" clip-rule="evenodd" d="M13.9985 6.89657C13.9985 9.36883 11.4291 11.373 8.25945 11.373C5.08984 11.373 2.52037 9.36883 2.52037 6.89657C2.52037 4.4243 5.08984 2.42014 8.25945 2.42014C11.4291 2.42014 13.9985 4.4243 13.9985 6.89657ZM8.24946 6.30242C9.37269 6.30242 10.3393 6.92725 10.8492 7.56222C11.2563 8.06347 11.2352 8.34678 11.2062 8.73659C11.1977 8.85108 11.1884 8.97477 11.1892 9.11586C11.1892 10.8194 10.7419 10.8531 10.2989 10.8865C10.157 10.8972 10.0155 10.9079 9.88932 10.9735C9.47516 11.1781 9.05698 11.1606 8.62542 11.1426L8.62538 11.1426C8.50126 11.1374 8.37602 11.1322 8.24946 11.1322H8.23946C8.11522 11.1322 7.99227 11.1371 7.87038 11.1419H7.87035C7.43636 11.1591 7.01595 11.1758 6.59961 10.9701C6.47266 10.9045 6.3308 10.8939 6.18874 10.8832C5.74522 10.8497 5.29972 10.8162 5.29972 9.11248C5.29972 8.97345 5.29011 8.85134 5.2812 8.73819C5.25051 8.34832 5.2282 8.06483 5.63636 7.56222C6.14298 6.92725 7.10956 6.30242 8.23613 6.30242H8.23946H8.24946ZM4.57977 7.35621C5.09335 7.35621 5.50969 6.93432 5.50969 6.41389C5.50969 5.89347 5.09335 5.47158 4.57977 5.47158C4.06619 5.47158 3.64986 5.89347 3.64986 6.41389C3.64986 6.93432 4.06619 7.35621 4.57977 7.35621ZM12.839 6.41389C12.839 6.93432 12.4227 7.35621 11.9091 7.35621C11.3955 7.35621 10.9792 6.93432 10.9792 6.41389C10.9792 5.89347 11.3955 5.47158 11.9091 5.47158C12.4227 5.47158 12.839 5.89347 12.839 6.41389ZM8.17613 7.80878H8.31612V9.7284C8.29666 9.72598 8.27775 9.72441 8.25944 9.72382C8.23276 9.72467 8.20494 9.72752 8.17613 9.73203V7.80878ZM8.17613 9.73203C8.04732 9.75219 7.89883 9.80549 7.74523 9.86062C7.65852 9.89175 7.57018 9.92346 7.48284 9.95011C7.37478 9.98754 7.26841 10.0159 7.18744 10.0374L7.18743 10.0374L7.18741 10.0374C7.07111 10.0684 7.00726 10.0854 7.06621 10.0953C7.2303 10.1018 7.40276 10.0751 7.58942 10.0462C7.79329 10.0146 8.0141 9.98036 8.25944 9.98389C8.5022 9.98037 8.72151 10.0143 8.92488 10.0458C9.1124 10.0749 9.28637 10.1018 9.45267 10.0953C9.50926 10.0877 9.45267 10.0725 9.34514 10.0436C9.26269 10.0214 9.15031 9.99115 9.03604 9.95011C8.94886 9.92351 8.86036 9.89187 8.77345 9.8608L8.77343 9.86079L8.77342 9.86078C8.6086 9.80186 8.44953 9.745 8.31612 9.7284V9.82851H8.17613V9.73203ZM8.21613 13.0202C8.59533 13.0202 8.90274 12.7087 8.90274 12.3245C8.90274 11.9402 8.59533 11.6287 8.21613 11.6287C7.83693 11.6287 7.52952 11.9402 7.52952 12.3245C7.52952 12.7087 7.83693 13.0202 8.21613 13.0202ZM8.83272 12.3279C8.83272 12.6729 8.55665 12.9527 8.21611 12.9527C7.87556 12.9527 7.5995 12.6729 7.5995 12.3279C7.5995 11.9828 7.87556 11.703 8.21611 11.703C8.55665 11.703 8.83272 11.9828 8.83272 12.3279ZM8.39611 12.1286C8.43277 12.1624 8.45277 12.2096 8.45277 12.2772C8.45277 12.3447 8.43277 12.392 8.39611 12.4258C8.35611 12.4562 8.29945 12.4731 8.21946 12.4731H8.14946V12.6251H8.02947V12.0813H8.21946C8.29945 12.0813 8.35945 12.0982 8.39611 12.1286ZM8.32943 12.2704C8.32943 12.3008 8.32276 12.3245 8.30943 12.3414C8.29609 12.3583 8.26943 12.3684 8.22943 12.365H8.14944V12.1826H8.2161C8.2561 12.1826 8.2861 12.1894 8.30276 12.2029C8.31943 12.2164 8.32943 12.24 8.32943 12.2704Z" fill="#FFCB6B"/>
<path id="Shape" fill-rule="evenodd" clip-rule="evenodd" d="M11.2491 10.4567C9.28598 11.1896 7.1295 11.1896 5.16634 10.4567C5.14634 10.45 5.13634 10.4398 5.10301 10.4263C5.10301 10.5547 5.10301 10.6864 5.10301 10.8147C5.10301 10.987 5.243 11.1863 5.40632 11.247C7.21616 11.9225 9.19932 11.9225 11.0092 11.247C11.1758 11.1863 11.3025 10.987 11.3025 10.8147C11.3025 10.6864 11.3025 10.5547 11.3025 10.4263C11.3025 10.4365 11.2691 10.4466 11.2491 10.4567Z" fill="#AB633B"/>
<path id="Shape_2" fill-rule="evenodd" clip-rule="evenodd" d="M6.28295 2.94184C6.28295 2.94184 2.57328 3.46197 2.89325 7.19409C2.90991 7.38323 2.15331 6.38687 1.5667 6.0829C0.980083 5.77892 1.00008 4.79608 1.00008 4.79608C1.00008 4.79608 0.990082 3.08369 3.35987 2.57707C5.72633 2.07383 6.28295 2.94184 6.28295 2.94184Z" fill="#AB633B"/>
<path id="Shape_3" fill-rule="evenodd" clip-rule="evenodd" d="M10.1926 2.94184C10.1926 2.94184 13.9023 3.46197 13.5823 7.19409C13.5656 7.38323 14.3222 6.38687 14.9088 6.0829C15.4955 5.77892 15.4755 4.79608 15.4755 4.79608C15.4755 4.79608 15.4855 3.08369 13.1157 2.57707C10.7492 2.07383 10.1926 2.94184 10.1926 2.94184Z" fill="#AB633B"/>
<g id="Group">
<path id="Shape_4" fill-rule="evenodd" clip-rule="evenodd" d="M9.11266 7.93572C9.22265 8.18228 8.84268 8.5842 8.2394 8.5842C7.63612 8.5842 7.25615 8.18228 7.36614 7.93572C7.4728 7.68241 7.8561 7.60135 8.2394 7.59798C8.6227 7.60135 9.006 7.68241 9.11266 7.93572Z" fill="#AB633B"/>
</g>
</g>
</g>
</svg>
