<svg width="16" height="16" viewBox="0 0 16 16" fill="none" xmlns="http://www.w3.org/2000/svg">
<g id="python">
<g id="Group">
<path id="Subtract" fill-rule="evenodd" clip-rule="evenodd" d="M11.7026 5.79572L10.847 5.79572V7.10477C10.847 7.10477 10.8931 8.6663 9.43631 8.6663H7.00699C7.00699 8.6663 5.64216 8.64227 5.64216 10.1032V12.5188C5.43274 14.4191 10.5664 14.4787 10.5237 12.768L10.5209 11.5119H8.07157V11.1348H11.4938C13.7438 11.3233 13.6007 5.71718 11.7026 5.79572ZM9.24701 13.0712C8.95391 12.8871 8.95391 12.4245 9.24701 12.2404C9.54012 12.0564 9.90849 12.2877 9.90849 12.6558C9.90849 13.0239 9.54012 13.2553 9.24701 13.0712Z" fill="#FFCB6B"/>
<path id="Subtract_2" fill-rule="evenodd" clip-rule="evenodd" d="M4.45814 11.2093H5.3137V9.90025C5.3137 9.90025 5.26758 8.33871 6.72442 8.33871H9.15374C9.15374 8.33871 10.5186 8.36275 10.5186 6.90185V4.29366C10.3024 2.50375 5.48021 2.64641 5.63699 4.2584L5.63699 5.49309H8.08916V5.87023H4.66692C2.35573 5.81698 2.60267 11.2093 4.45814 11.2093ZM6.47205 4.7646C6.17895 4.58054 6.17895 4.11788 6.47205 3.93381C6.76516 3.74975 7.13353 3.98108 7.13353 4.34921C7.13353 4.71734 6.76516 4.94867 6.47205 4.7646Z" fill="#89DDFF"/>
</g>
</g>
</svg>
