<svg width="16" height="16" viewBox="0 0 16 16" fill="none" xmlns="http://www.w3.org/2000/svg">
<g id="rails">
<path id="Vector" d="M8.55995 13.9995C8.55995 13.9995 7.36908 11.2444 7.67165 8.71559C7.97421 6.18675 9.93216 5.03543 11.0421 4.91195C12.1519 4.78847 12.7576 5.48785 12.7576 5.48785L13 5.11791C13 5.11791 11.4057 3.47317 9.38715 3.65839C7.3686 3.84361 5.97602 5.20039 5.10857 6.84513C4.24063 8.48987 3.73587 9.64119 3.39306 11.3684C3.05025 13.0956 3.19135 14 3.19135 14L8.55995 13.9995ZM2.1217 11.2444L3.17099 11.3269L2.98916 12.3958L2 12.2723L2.1217 11.2444ZM3.7766 8.9828L4.05929 8.18118L3.13074 7.81123L2.82818 8.6746L3.7766 8.9828ZM5.08869 6.22774L5.63369 5.56984L4.92722 5.09717L4.36234 5.73432L5.08869 6.22774ZM6.52151 3.67864L7.00591 4.2748L7.67213 3.88411L7.18774 3.32895L6.52151 3.67864ZM8.88288 3L9.0041 3.59616L9.83179 3.57541L9.75082 3.041L8.88288 3ZM11.668 4.00709L12.2334 4.3153L12.3546 4.13008L11.6889 3.63666L11.668 4.00709ZM11.5672 5.22065V5.52885L12.1122 5.59059V5.34363L11.5672 5.22065ZM9.83179 5.48785L10.0941 5.98128L10.4777 5.67307L10.3972 5.34412L9.83179 5.48785ZM9.0041 6.12501L9.40752 6.74191L9.16557 7.17359L8.58031 6.51569L9.0041 6.12501ZM8.19677 7.83148L7.93445 8.3659L8.62056 8.96206L8.78203 8.28342L8.19677 7.83148ZM7.87384 10.4221L8.72141 10.792L8.68117 10.1134L7.91409 9.70194L7.87384 10.4221ZM8.35872 12.9919L9.42837 13.0537L9.04483 12.252H8.15653L8.35872 12.9919Z" fill="#FC8289"/>
</g>
</svg>
