<svg width="16" height="16" viewBox="0 0 16 16" fill="none" xmlns="http://www.w3.org/2000/svg">
<g id="readme">
<path id="Shape" fill-rule="evenodd" clip-rule="evenodd" d="M8 2C4.6915 2 2 4.6915 2 8C2 11.3085 4.6915 14 8 14C11.3085 14 14 11.3085 14 8C14 4.6915 11.3085 2 8 2ZM9.23502 11.1803L9.23488 11.1804C8.81862 11.3522 7.80029 11.7726 7.193 11.2375C6.996 11.0645 6.898 10.845 6.898 10.5785C6.898 10.1806 7.00227 9.82343 7.19434 9.16547L7.19435 9.16544C7.24315 8.99825 7.29763 8.81164 7.3575 8.60001C7.4095 8.40251 7.473 8.14651 7.473 7.94351C7.473 7.59301 7.34 7.50001 6.9795 7.50001C6.8035 7.50001 6.6085 7.56251 6.432 7.62851L6.5295 7.22901C6.923 7.06901 7.417 6.87401 7.84 6.87401C8.4745 6.87401 8.9415 7.19051 8.9415 7.79251C8.9415 7.96601 8.9115 8.27001 8.8485 8.48001L8.4835 9.77101C8.408 10.032 8.2715 10.6075 8.483 10.778C8.691 10.9465 9.1835 10.857 9.4265 10.7425L9.329 11.142C9.30264 11.1524 9.27109 11.1654 9.23502 11.1803ZM7.976 5.25C7.976 5.664 8.312 6 8.726 6C9.14 6 9.476 5.664 9.476 5.25C9.476 4.836 9.14 4.5 8.726 4.5C8.312 4.5 7.976 4.836 7.976 5.25Z" fill="#89DDFF"/>
</g>
</svg>
