<svg width="16" height="16" viewBox="0 0 16 16" fill="none" xmlns="http://www.w3.org/2000/svg">
<g id="reason">
<path id="RE" fill-rule="evenodd" clip-rule="evenodd" d="M7.85605 9.11047C7.85605 8.9085 7.79181 8.75971 7.66333 8.66409C7.53485 8.56847 7.3297 8.52067 7.04788 8.52067H6.52567V9.73251H7.07274C7.59495 9.73251 7.85605 9.52517 7.85605 9.11047ZM3 3.99998C3 3.4477 3.44772 2.99998 4 2.99998H12C12.5523 2.99998 13 3.4477 13 3.99998V12C13 12.5523 12.5523 13 12 13H4C3.44772 13 3 12.5523 3 12V3.99998ZM7.96483 12.1304L7.06341 10.4706H6.52566V12.1304H5.60869V7.7826H7.14423C7.6913 7.7826 8.10056 7.89325 8.37203 8.11457C8.6435 8.33588 8.77923 8.65495 8.77923 9.0718C8.77923 9.36617 8.70255 9.61648 8.54921 9.82276C8.39586 10.029 8.18346 10.1741 7.91199 10.2579L8.99681 12.1304H7.96483ZM9.42888 7.7826V12.1304H12.5652V11.3956H10.3459V10.2965H12.2482V9.56169H10.3459V8.51744H12.4378V7.7826H9.42888Z" fill="#FC8289"/>
</g>
</svg>
