<svg width="16" height="16" viewBox="0 0 16 16" fill="none" xmlns="http://www.w3.org/2000/svg">
<g id="ruby">
<g id="ruby-rough" clip-path="url(#clip0)">
<path id="Vector" d="M9.43963 4.82805C8.61484 7.03412 7.0761 8.55947 4.8704 9.34145C3.78936 9.72471 2.89315 8.78746 3.69544 7.18318C4.54439 5.48557 5.84188 4.24554 7.58279 3.49409C9.14583 2.96771 9.76432 3.57969 9.43963 4.82805ZM9.11123 6.49135L9.1117 6.4923L12.7563 6.23677C12.6654 6.15018 12.6143 6.09339 12.5552 6.04607L9.30288 3.43541C9.19593 3.34882 9.12969 3.21253 8.98678 3.02325C9.45099 3.02325 9.82624 3.01899 10.2015 3.0242C10.6543 3.03082 11.1181 2.98682 11.5582 3.06821C12.5098 3.24424 13.0175 3.85798 12.9995 4.82521C12.983 5.73186 12.4397 12.4617 12.4397 12.4617L10.9752 11.1567C10.9752 11.1567 10.8616 11.0298 10.793 10.9858C10.2057 10.612 9.96063 10.0546 9.82719 9.3883C9.59179 8.26394 9.2485 7.08223 9.11123 6.49135ZM6.23369 9.1711C7.49335 9.57427 8.74308 9.9746 10.0297 10.3863C9.36013 11.062 8.64797 11.6284 7.85204 12.1376L12.1066 12.4627L12.1071 12.5171C12.1071 12.5171 5.20495 12.987 4.91866 12.9818C3.70443 12.9596 3.01639 12.2942 3.00078 11.0762C2.99178 10.392 3.06229 9.70676 3.10583 9.02251C3.10914 8.97093 3.18296 8.92361 3.22413 8.8744C3.28517 8.92882 3.37413 8.97141 3.40394 9.03955C3.76642 9.87996 4.57654 11.7931 4.57654 11.7931C4.57654 11.7931 5.07766 11.742 5.30858 11.6824C5.39944 11.6592 5.50496 11.5485 5.5343 11.4557C5.83951 10.5232 6.12743 9.40052 6.23369 9.1711Z" fill="#FC8289"/>
</g>
</g>
<defs>
<clipPath id="clip0">
<rect width="10" height="10" fill="white" transform="translate(3 3)"/>
</clipPath>
</defs>
</svg>
