<svg width="16" height="16" viewBox="0 0 16 16" fill="none" xmlns="http://www.w3.org/2000/svg">
<g id="rust">
<path id="Shape" fill-rule="evenodd" clip-rule="evenodd" d="M13.9331 7.85821L13.4275 7.55159C13.4275 7.52777 13.4244 7.50356 13.4182 7.47897C13.4121 7.45438 13.409 7.43017 13.409 7.40634L13.8419 6.99252C13.8657 6.96869 13.8807 6.94448 13.8869 6.91989C13.893 6.8953 13.8961 6.86533 13.8961 6.82998C13.8838 6.80616 13.8688 6.78195 13.8511 6.75736C13.8334 6.73277 13.8122 6.71471 13.7876 6.70318L13.2289 6.50491C13.2166 6.48109 13.2078 6.45688 13.2024 6.43229C13.197 6.4077 13.1939 6.38349 13.1932 6.35967L13.536 5.87322C13.5483 5.84939 13.5571 5.82249 13.5625 5.79252C13.5679 5.76255 13.5648 5.73566 13.5533 5.71183C13.5417 5.68801 13.5237 5.6638 13.499 5.63921C13.4744 5.61462 13.4444 5.60271 13.409 5.60348L12.8319 5.51356L12.7591 5.36947L13.0119 4.84729C13.0242 4.81117 13.0273 4.77812 13.0212 4.74815C13.015 4.71818 13.0062 4.69128 12.9946 4.66746C12.9831 4.64364 12.9619 4.62558 12.9311 4.61328C12.9003 4.60099 12.8734 4.59484 12.8503 4.59484L12.2547 4.61328C12.2424 4.60099 12.2274 4.58293 12.2097 4.5591C12.192 4.53528 12.177 4.51722 12.1647 4.50493L12.2905 3.92856C12.3028 3.89244 12.3028 3.86247 12.2905 3.83865L12.2547 3.76603C12.2309 3.7422 12.2039 3.72722 12.1739 3.72107C12.1439 3.71492 12.117 3.71185 12.0931 3.71185L11.516 3.85594C11.4921 3.84364 11.471 3.82866 11.4525 3.81098C11.434 3.79331 11.4129 3.77832 11.389 3.76603L11.4248 3.17122C11.4248 3.1351 11.4159 3.10513 11.3982 3.08131C11.3805 3.05748 11.3594 3.03942 11.3347 3.02713C11.3109 3.0033 11.284 2.99139 11.2539 2.99139C11.2239 2.99139 11.197 2.99754 11.1731 3.00984L10.6318 3.24384C10.6079 3.23154 10.5868 3.21963 10.5683 3.20811C10.5498 3.19658 10.5287 3.18467 10.5048 3.17237L10.4148 2.59601C10.4025 2.57218 10.3875 2.54798 10.3698 2.52339C10.3521 2.49879 10.3309 2.48073 10.3063 2.46921C10.2701 2.45691 10.2401 2.45076 10.2162 2.45076C10.1924 2.45076 10.1624 2.46267 10.1262 2.4865L9.65756 2.82886C9.63371 2.81656 9.60947 2.80772 9.58484 2.80235C9.56022 2.79697 9.53598 2.79389 9.51212 2.79312L9.31358 2.2352C9.30127 2.21138 9.28319 2.18717 9.25933 2.16258C9.23548 2.13799 9.20546 2.12608 9.1693 2.12685C9.14544 2.11455 9.11851 2.11455 9.0885 2.12685C9.05848 2.13914 9.03155 2.1572 9.0077 2.18102L8.61062 2.6133C8.58676 2.6133 8.56252 2.61022 8.5379 2.60408C8.51327 2.59793 8.48903 2.59485 8.46518 2.59485L8.15814 2.08996C8.13428 2.06614 8.11004 2.045 8.08542 2.02656C8.06079 2.00812 8.03078 1.99928 7.99538 2.00005C7.97153 2.00005 7.94729 2.00888 7.92266 2.02656C7.89804 2.04423 7.8738 2.06537 7.84994 2.08996L7.5429 2.59485C7.51905 2.59485 7.49481 2.59793 7.47018 2.60408C7.44556 2.61022 7.42132 2.6133 7.39746 2.6133L6.98307 2.18102C6.97076 2.1572 6.9496 2.13914 6.91958 2.12685C6.88957 2.11455 6.86264 2.11455 6.83878 2.12685C6.80262 2.12685 6.7726 2.13876 6.74875 2.16258C6.72489 2.1864 6.70681 2.21061 6.6945 2.2352L6.49596 2.79312C6.4721 2.79312 6.44786 2.7962 6.42324 2.80235C6.39861 2.80849 6.37437 2.81733 6.35052 2.82886L5.86341 2.4865C5.83955 2.46267 5.81262 2.45076 5.78261 2.45076C5.7526 2.45076 5.72566 2.45691 5.70181 2.46921C5.67795 2.4815 5.65679 2.49956 5.63832 2.52339C5.61985 2.54721 5.60485 2.57142 5.59331 2.59601L5.50327 3.17237C5.47941 3.18467 5.45825 3.19658 5.43978 3.20811C5.42132 3.21963 5.40015 3.23154 5.3763 3.24384L4.83494 3.00984C4.81108 2.99754 4.78415 2.99139 4.75414 2.99139C4.72412 2.99139 4.69719 3.0033 4.67334 3.02713C4.64948 3.03942 4.62832 3.05748 4.60985 3.08131C4.59138 3.10513 4.58253 3.1351 4.5833 3.17122L4.61908 3.76603C4.59523 3.77832 4.57407 3.79331 4.5556 3.81098C4.53713 3.82866 4.51597 3.84364 4.49211 3.85594L3.91497 3.71185C3.89111 3.71185 3.86418 3.71492 3.83417 3.72107C3.80416 3.72722 3.77722 3.7422 3.75337 3.76603C3.72951 3.78985 3.71451 3.81406 3.70835 3.83865C3.70219 3.86324 3.70527 3.89321 3.71758 3.92856L3.8434 4.50493C3.83109 4.51722 3.81608 4.53528 3.79838 4.5591C3.78068 4.58293 3.76568 4.60099 3.75337 4.61328L3.15775 4.59484C3.1339 4.59484 3.10696 4.60099 3.07695 4.61328C3.04694 4.62558 3.02578 4.64364 3.01347 4.66746C2.98961 4.69128 2.97768 4.71818 2.97768 4.74815C2.97768 4.77812 2.98384 4.81117 2.99615 4.84729L3.24894 5.36947L3.17622 5.51356L2.58061 5.60348C2.55675 5.60348 2.53251 5.61539 2.50789 5.63921C2.48326 5.66303 2.46518 5.68724 2.45364 5.71183C2.44209 5.73642 2.43902 5.76332 2.4444 5.79252C2.44979 5.82173 2.45864 5.84862 2.47095 5.87322L2.81377 6.35967C2.81377 6.38349 2.80762 6.4077 2.79531 6.43229C2.78299 6.45688 2.77684 6.48109 2.77684 6.50491L2.21816 6.70318C2.19431 6.71548 2.17314 6.73353 2.15467 6.75736C2.13621 6.78118 2.1212 6.80539 2.10966 6.82998C2.10966 6.8661 2.11274 6.89607 2.11889 6.91989C2.12505 6.94372 2.14005 6.96792 2.16391 6.99252L2.59677 7.40634C2.59677 7.43017 2.59369 7.45438 2.58753 7.47897C2.58138 7.50356 2.5783 7.52777 2.5783 7.55159L2.07272 7.85821C2.04886 7.87051 2.03078 7.89164 2.01847 7.92161C2.00616 7.95159 2 7.97848 2 8.00231C2 8.03842 2.00616 8.0684 2.01847 8.09222C2.03078 8.11604 2.04886 8.1341 2.07272 8.1464L2.5783 8.47031C2.5783 8.49414 2.58138 8.51834 2.58753 8.54294C2.59369 8.56753 2.59677 8.59173 2.59677 8.61556L2.16391 9.0121C2.14005 9.03592 2.12505 9.06282 2.11889 9.09279C2.11274 9.12276 2.10966 9.14965 2.10966 9.17348C2.12197 9.2096 2.13698 9.23649 2.15467 9.25417C2.17237 9.27184 2.19354 9.28683 2.21816 9.29913L2.77684 9.51584C2.77684 9.53966 2.78299 9.56387 2.79531 9.58846C2.80762 9.61305 2.81377 9.63726 2.81377 9.66108L2.47095 10.1291C2.45864 10.1529 2.44979 10.1798 2.4444 10.2098C2.43902 10.2398 2.44209 10.2666 2.45364 10.2905C2.46595 10.3266 2.48403 10.3535 2.50789 10.3712C2.53174 10.3888 2.55598 10.3977 2.58061 10.3977L3.17622 10.506C3.18853 10.5183 3.20046 10.5364 3.212 10.5602L3.24779 10.6328L2.995 11.1735C2.98269 11.1973 2.97653 11.2242 2.97653 11.2542C2.97653 11.2841 2.98846 11.311 3.01231 11.3348C3.02462 11.3587 3.04579 11.3767 3.0758 11.389C3.10581 11.4013 3.13274 11.4075 3.1566 11.4075L3.75221 11.389C3.76452 11.4128 3.77953 11.434 3.79723 11.4524L3.84225 11.4974L3.71643 12.0737C3.70412 12.1099 3.70104 12.1429 3.7072 12.1729C3.71335 12.2028 3.72836 12.224 3.75221 12.2363C3.77607 12.2601 3.803 12.2782 3.83301 12.2905C3.86302 12.3028 3.88996 12.3028 3.91381 12.2905L4.49096 12.1464C4.51481 12.1702 4.53598 12.1882 4.55444 12.2005C4.57291 12.2128 4.58792 12.2309 4.59946 12.2547L4.58099 12.8311C4.58099 12.8672 4.58984 12.8972 4.60754 12.921C4.62524 12.9448 4.6464 12.969 4.67103 12.9936C4.69488 13.0059 4.72182 13.0148 4.75183 13.0201C4.78184 13.0255 4.80877 13.0224 4.83263 13.0109L5.37399 12.7585C5.39785 12.7708 5.41901 12.7827 5.43748 12.7942C5.45594 12.8057 5.47711 12.8176 5.50096 12.8299L5.591 13.4063C5.60331 13.4424 5.61831 13.4724 5.63601 13.4962C5.65371 13.52 5.67488 13.5381 5.6995 13.5504H5.7803C5.7803 13.5504 5.80723 13.5385 5.8611 13.5147L6.34821 13.1723C6.37207 13.1846 6.39631 13.1934 6.42093 13.1988C6.44556 13.2042 6.4698 13.213 6.49365 13.2253L6.69219 13.766C6.7045 13.8021 6.72259 13.829 6.74644 13.8466C6.7703 13.8643 6.80031 13.8732 6.83648 13.8732C6.86033 13.8854 6.88726 13.8854 6.91728 13.8732C6.94729 13.8609 6.96845 13.8489 6.98076 13.8374L7.39515 13.4051H7.53944L7.84648 13.91C7.87033 13.9339 7.89457 13.955 7.9192 13.9734C7.94382 13.9919 7.96806 14.0007 7.99192 14C8.02809 14 8.0581 13.9911 8.08195 13.9734C8.10581 13.9558 8.13005 13.9346 8.15468 13.91L8.46172 13.4051H8.606L9.00308 13.8374C9.02693 13.8497 9.05387 13.8616 9.08388 13.8732C9.11389 13.8847 9.14082 13.8847 9.16468 13.8732C9.20085 13.8732 9.23086 13.8643 9.25471 13.8466C9.27857 13.829 9.2905 13.8021 9.2905 13.766L9.5075 13.2253C9.53136 13.213 9.5556 13.2042 9.58022 13.1988C9.60485 13.1934 9.62909 13.1846 9.65294 13.1723L10.1216 13.5147C10.1578 13.5385 10.1878 13.5504 10.2116 13.5504H10.3017C10.3255 13.5381 10.3467 13.52 10.3651 13.4962C10.3836 13.4724 10.3986 13.4424 10.4102 13.4063L10.5002 12.8299C10.524 12.8176 10.5452 12.8057 10.5637 12.7942C10.5821 12.7827 10.6033 12.7708 10.6272 12.7585L11.1685 13.0109C11.1924 13.0232 11.2193 13.0263 11.2493 13.0201C11.2793 13.014 11.3063 13.0051 11.3301 12.9936C11.354 12.9698 11.3751 12.9456 11.3936 12.921C11.4121 12.8964 11.4209 12.8664 11.4202 12.8311L11.3844 12.2547C11.4082 12.2309 11.4294 12.2128 11.4479 12.2005C11.4663 12.1882 11.4875 12.1702 11.5114 12.1464L12.0885 12.2905C12.1124 12.3028 12.1393 12.3028 12.1693 12.2905C12.1993 12.2782 12.2262 12.2601 12.2501 12.2363C12.2624 12.224 12.2743 12.2028 12.2859 12.1729C12.2974 12.1429 12.2974 12.1099 12.2859 12.0737L12.1601 11.4974L12.2051 11.4524C12.2051 11.4524 12.2201 11.4313 12.2501 11.389L12.8457 11.4075C12.8696 11.4075 12.8965 11.4013 12.9265 11.389C12.9565 11.3767 12.9777 11.3587 12.99 11.3348C13.0023 11.311 13.0112 11.2841 13.0165 11.2542C13.0219 11.2242 13.0189 11.1973 13.0073 11.1735L12.7545 10.6328L12.7903 10.5602C12.7903 10.5602 12.8022 10.5422 12.8261 10.506L13.4032 10.3977C13.4394 10.3977 13.4694 10.3888 13.4933 10.3712C13.5171 10.3535 13.5352 10.3266 13.5475 10.2905C13.5598 10.2666 13.5629 10.2398 13.5568 10.2098C13.5506 10.1798 13.5417 10.1529 13.5302 10.1291L13.1874 9.66108C13.1874 9.63726 13.1905 9.61305 13.1966 9.58846C13.2028 9.56387 13.2116 9.53966 13.2232 9.51584L13.7818 9.29913C13.8057 9.28683 13.8269 9.27184 13.8453 9.25417C13.8638 9.23649 13.8788 9.2096 13.8903 9.17348C13.8903 9.14965 13.8873 9.12276 13.8811 9.09279C13.875 9.06282 13.8599 9.03592 13.8361 9.0121L13.4032 8.61556V8.54294C13.4032 8.54294 13.4094 8.51873 13.4217 8.47031L13.9273 8.1464C13.9511 8.1341 13.9692 8.11604 13.9815 8.09222C13.9938 8.0684 14 8.03842 14 8.00231C14 7.97848 13.9938 7.95159 13.9815 7.92161C13.9692 7.89164 13.9511 7.87051 13.9273 7.85821H13.9331ZM10.5602 12.0369C10.464 12.013 10.389 11.9589 10.3351 11.8743C10.2813 11.7898 10.2601 11.6999 10.2716 11.6046C10.2955 11.5085 10.3497 11.4336 10.4344 11.3798C10.519 11.326 10.6091 11.311 10.7045 11.3348C10.7999 11.3587 10.8749 11.4098 10.9296 11.4882C10.9842 11.5665 10.9992 11.6595 10.9746 11.7671C10.9507 11.8632 10.8996 11.9354 10.8211 11.9838C10.7426 12.0322 10.6552 12.0503 10.5591 12.038L10.5602 12.0369ZM10.3801 10.8841C10.2963 10.8603 10.2151 10.8722 10.1366 10.9199C10.0581 10.9675 10.0131 11.0336 10.0015 11.1181L9.82147 11.9642C9.54521 12.0841 9.25356 12.1771 8.94652 12.2432C8.63948 12.3093 8.32397 12.3423 8 12.3423C7.67603 12.3423 7.35745 12.3093 7.04425 12.2432C6.73105 12.1771 6.43633 12.078 6.16007 11.9458L5.98 11.0997C5.95614 11.0159 5.90805 10.9498 5.83571 10.9014C5.76337 10.853 5.68527 10.8411 5.60139 10.8657L4.86149 11.0098C4.78915 10.9375 4.72297 10.8653 4.66295 10.7931C4.60293 10.7208 4.5429 10.6428 4.48288 10.5591H8.10851C8.10851 10.5591 8.11466 10.5471 8.12698 10.5233V9.26224C8.12698 9.23842 8.12082 9.22343 8.10851 9.21728C8.09619 9.21114 8.08427 9.20806 8.07272 9.20806H7.00847V8.41498H8.14429C8.20431 8.41498 8.31859 8.44188 8.48711 8.49568C8.65564 8.54947 8.77607 8.72046 8.84841 9.00864C8.87226 9.0924 8.90535 9.24533 8.94768 9.46743C8.99 9.68952 9.02925 9.84859 9.06541 9.94466C9.08927 10.053 9.1643 10.1821 9.2905 10.332C9.4167 10.4818 9.55214 10.5568 9.69681 10.5568H11.5367C11.4767 10.6405 11.4136 10.7216 11.3474 10.8C11.2813 10.8784 11.212 10.9594 11.1397 11.0432L10.3825 10.8807L10.3801 10.8841ZM5.42016 12.0184C5.32397 12.0307 5.23394 12.0126 5.15006 11.9642C5.06618 11.9158 5.01809 11.8436 5.00577 11.7475C4.98192 11.6515 4.99692 11.5615 5.05079 11.4778C5.10466 11.394 5.17969 11.3398 5.27588 11.3152C5.37207 11.2907 5.4621 11.3056 5.54598 11.3602C5.62986 11.4148 5.67796 11.4897 5.69027 11.585C5.71412 11.681 5.69912 11.771 5.64525 11.8547C5.59138 11.9385 5.51635 11.9927 5.42016 12.0173V12.0184ZM4.06734 6.50722C4.1035 6.59098 4.1035 6.68089 4.06734 6.77696C4.03117 6.87302 3.97115 6.93911 3.88727 6.97522C3.79108 7.01134 3.69796 7.01134 3.60793 6.97522C3.51789 6.93911 3.45479 6.87916 3.41863 6.7954C3.37014 6.69934 3.36399 6.60635 3.40016 6.51644C3.43632 6.42653 3.5025 6.36351 3.59869 6.32739C3.68257 6.29127 3.76991 6.2882 3.86072 6.31817C3.95152 6.34814 4.02078 6.41116 4.06849 6.50722H4.06734ZM3.65295 7.49741L4.41016 7.15505C4.49404 7.11893 4.55098 7.05899 4.58099 6.97523C4.61101 6.89146 4.60793 6.80731 4.57176 6.72278L4.42747 6.36197H5.0404V9.17233H3.77761C3.72913 8.9802 3.68988 8.78194 3.65987 8.57752C3.62986 8.3731 3.61485 8.16907 3.61485 7.96542C3.61485 7.88165 3.61793 7.80058 3.62409 7.72219C3.63024 7.64381 3.63909 7.56888 3.65064 7.49741H3.65295ZM7.00731 7.22767V6.39886H8.48596C8.53444 6.39886 8.63678 6.42883 8.793 6.48877C8.94921 6.54871 9.02732 6.66283 9.02732 6.83113C9.02732 6.97561 8.95806 7.07781 8.81955 7.13776C8.68103 7.1977 8.53367 7.22767 8.37745 7.22767H7.00616H7.00731ZM12.4002 7.96542C12.4002 8.02536 12.3971 8.08223 12.3909 8.13602C12.3848 8.18981 12.3817 8.24092 12.3817 8.28933H11.9304C11.9065 8.28933 11.8915 8.29548 11.8853 8.30778C11.8792 8.32007 11.8761 8.33813 11.8761 8.36195V8.57867C11.8761 8.8192 11.8192 8.97828 11.7053 9.0559C11.5914 9.13351 11.474 9.17847 11.3532 9.19077C11.2447 9.20306 11.1366 9.185 11.0289 9.13659C10.9211 9.08817 10.8611 9.02823 10.8488 8.95676C10.7765 8.57252 10.6833 8.31123 10.5694 8.17291C10.4556 8.03458 10.3082 7.89356 10.1274 7.74986C10.3436 7.61768 10.5479 7.44669 10.7403 7.23689C10.9327 7.02709 11.0289 6.78387 11.0289 6.50721C11.0289 6.20674 10.9477 5.96351 10.7853 5.77754C10.6229 5.59156 10.4756 5.45055 10.3432 5.35449C10.1385 5.22231 9.94305 5.13816 9.75683 5.10204C9.5706 5.06592 9.44748 5.04786 9.38745 5.04786H4.73451C5.04694 4.68744 5.41362 4.38735 5.83455 4.14758C6.25548 3.90781 6.70642 3.74566 7.18738 3.66113L7.74605 4.23749C7.80608 4.29743 7.88111 4.33048 7.97114 4.33663C8.06118 4.34277 8.1362 4.30973 8.19623 4.23749L8.80916 3.66113C9.45864 3.78101 10.0446 4.03 10.5671 4.40809C11.0896 4.78619 11.5075 5.24536 11.8207 5.78561L11.4063 6.74007C11.3578 6.82383 11.3517 6.90798 11.3878 6.99251C11.424 7.07705 11.484 7.13699 11.5679 7.17234L12.3794 7.53314C12.3794 7.60538 12.3825 7.67762 12.3886 7.74986C12.3948 7.82209 12.3978 7.89433 12.3978 7.96657L12.4002 7.96542ZM7.74721 3.17467C7.81955 3.10244 7.90381 3.06632 8 3.06632C8.09619 3.06632 8.18045 3.10244 8.25279 3.17467C8.31281 3.24691 8.34282 3.33414 8.34282 3.43634C8.34282 3.53855 8.30666 3.61963 8.23432 3.67957C8.16199 3.75181 8.07772 3.78793 7.98153 3.78793C7.88534 3.78793 7.80108 3.75181 7.72874 3.67957C7.65641 3.60733 7.62332 3.52011 7.62947 3.4179C7.63563 3.31569 7.67487 3.23462 7.74721 3.17467ZM11.913 6.52451C11.9492 6.42845 12.0154 6.36236 12.1116 6.32624C12.2078 6.29012 12.2978 6.29627 12.3817 6.34468C12.4779 6.3808 12.541 6.44381 12.571 6.53373C12.601 6.62364 12.5979 6.71663 12.5618 6.81269C12.5256 6.89645 12.4625 6.9564 12.3725 6.99251C12.2824 7.02863 12.1893 7.02863 12.0931 6.99251C12.0092 6.9564 11.9492 6.89031 11.913 6.79424C11.8769 6.69818 11.8769 6.60827 11.913 6.52451Z" fill="#FC8289"/>
</g>
</svg>
