<svg width="16" height="16" viewBox="0 0 16 16" fill="none" xmlns="http://www.w3.org/2000/svg">
<path fill-rule="evenodd" clip-rule="evenodd" d="M6.99331 4.87118C7.38047 4.4874 7.91931 4.24975 8.51459 4.24975C9.3083 4.24975 9.99618 4.66963 10.3666 5.29526C10.6954 5.15531 11.0515 5.08305 11.4116 5.08322C12.8403 5.08322 14 6.19592 14 7.56895C14 8.94197 12.8403 10.0547 11.4116 10.0547C11.237 10.0547 11.0668 10.038 10.9001 10.0064C10.576 10.5564 9.95649 10.9301 9.25097 10.9301C8.96373 10.9307 8.68017 10.8686 8.42199 10.7487C8.09348 11.4835 7.32843 12 6.43772 12C5.50731 12 4.71801 11.4416 4.41376 10.6564C4.27834 10.6836 4.14031 10.6973 4.00191 10.6972C2.89513 10.6972 2 9.83221 2 8.7699C2 8.0561 2.40303 7.43467 3.00096 7.09876C2.8741 6.8205 2.80881 6.52034 2.80914 6.217C2.80914 4.99093 3.85419 4 5.14177 4C5.89579 4 6.57044 4.34221 6.99375 4.87336" fill="#89DDFF"/>
</svg>
