<svg width="16" height="16" viewBox="0 0 16 16" fill="none" xmlns="http://www.w3.org/2000/svg">
<g id="sass" clip-path="url(#clip0)">
<path id="Vector" d="M5.24992 9.04906L3.72673 9.88551C2.84729 9.02386 2.01758 8.60498 1.53425 7.95249C0.917679 7.12012 1.11537 6.02724 2.47843 4.94803C5.4461 2.68788 8.3302 2.60207 9.0315 3.48418C9.67606 4.29492 8.56496 6.05436 6.67961 6.68737C5.52354 7.0782 4.42029 7.09385 3.85038 6.44874C3.77364 6.34243 3.6552 6.43718 3.69505 6.53714C4.0708 7.66243 5.79487 7.5869 7.08787 7.27447C9.49829 6.69203 11.3058 3.59894 9.09802 2.39166C5.87256 0.881695 0.247315 4.31843 0.00739265 6.73591C-0.129272 8.11295 1.65566 9.08648 3.14576 10.2064C1.97268 10.8331 1.11461 11.4141 0.822387 11.913C0.525514 12.3821 0.420255 12.8818 0.641504 13.4153C1.05987 14.3587 2.51781 13.9169 3.05991 13.5313C3.92214 12.9178 4.59708 11.7054 4.02104 10.2963L4.8994 9.79098L4.91268 9.80222C4.89684 9.85434 4.87998 9.90646 4.86516 9.9596C4.59137 10.8429 4.67855 11.6771 5.10736 12.2927C5.28971 12.5544 5.6893 12.5826 5.918 12.3811C6.15164 12.1752 6.33714 11.6663 6.63362 11.0311C6.55897 11.6956 6.61549 12.249 7.01123 12.2906C7.25764 12.3165 7.4817 12.0809 7.66884 11.7674C8.16126 10.9426 8.62463 9.92109 9.08525 8.82525C9.1768 9.27775 9.31976 9.69352 9.52059 10.0679C9.57015 10.1671 9.56453 10.2314 9.49555 10.3142L8.6407 11.3648C8.23017 11.8434 8.37424 12.0911 8.9248 12.0566C9.7044 11.9867 10.6642 11.4808 10.4414 10.4399C10.357 10.0512 10.2509 9.99576 10.3361 9.89369C10.6652 9.42411 10.9808 8.84998 11.2419 8.34055C11.3267 8.78151 11.4582 9.21972 11.6866 9.60499C11.1372 10.0989 10.7369 10.6182 10.7582 11.2094C10.7893 11.4435 10.9809 11.5952 11.2109 11.5421C11.8173 11.4501 12.5131 10.8921 12.5981 10.4603C12.6464 10.2148 12.6302 9.97348 12.496 9.60141C14.9546 8.77872 16.4256 10.6175 15.2409 11.4261C15.1929 11.4536 15.1439 11.4829 15.1189 11.516C15.0811 11.5661 15.098 11.6243 15.1698 11.6238C15.2865 11.623 15.3794 11.5661 15.4645 11.5159C16.6369 10.8248 15.7814 8.90912 13.898 8.87942C13.3428 8.8687 12.8234 8.97458 12.3105 9.20848C11.9865 8.67439 11.8796 8.18406 11.9697 7.78544C12.0146 7.59791 12.0739 7.41345 12.1291 7.22797C12.154 7.13314 12.1459 7.04595 11.9462 7.00315C11.7223 6.97095 11.5021 6.98935 11.2855 7.0522C11.1249 7.09623 11.1463 7.20229 11.0933 7.34549C10.968 7.99236 10.4943 8.71822 10.0505 9.48798C9.89287 9.2058 9.76077 8.86847 9.79047 8.43183C9.80538 8.21254 9.90005 7.92672 9.97484 7.69346C10.01 7.5958 9.9772 7.53102 9.79344 7.47988C9.4795 7.43673 9.17262 7.49413 9.04323 7.57375C8.94152 7.63635 8.91476 8.0026 8.77969 8.30304C8.22362 9.52399 7.6201 10.9921 7.36533 11.3448C7.20989 11.2536 7.50014 10.2385 7.74191 9.32396C7.82681 9.0505 7.48595 8.88007 7.21868 9.07359C7.47704 7.69373 6.28251 7.7824 5.34649 8.96577C5.32044 8.99898 5.2862 9.02913 5.24992 9.04906ZM3.54252 11.3369C3.49978 11.9066 3.24233 12.3683 2.82027 12.7418C1.73129 13.6142 1.09751 13.0509 1.64555 12.1087C1.8759 11.6237 2.6464 11.1291 3.46613 10.6336C3.52949 10.8686 3.56027 11.1003 3.54252 11.3369ZM5.56876 11.5109C5.2562 10.7622 5.6722 9.34729 6.39602 8.82219C6.66069 8.66657 6.77743 8.70629 6.75702 8.86077C6.72687 9.04267 6.68931 9.22483 6.63617 9.40112C6.45223 10.0112 6.21667 10.6029 5.9617 11.1859C5.77358 11.5847 5.63921 11.6776 5.56876 11.5109ZM8.94933 11.6545C9.21196 11.3479 9.47409 11.0418 9.73724 10.7342C9.76994 11.0761 9.18948 11.7582 8.94933 11.6545ZM11.2694 11.1297C11.2259 11.1392 11.2081 11.109 11.2333 10.9831C11.3396 10.6075 11.5366 10.2823 11.8466 10.0123C11.9907 10.4065 11.8326 10.9187 11.2694 11.1297Z" fill="#FF9CAC"/>
</g>
<defs>
<clipPath id="clip0">
<rect width="16" height="16" fill="white"/>
</clipPath>
</defs>
</svg>
