<svg width="16" height="16" viewBox="0 0 16 16" fill="none" xmlns="http://www.w3.org/2000/svg">
<g id="scala">
<g id="scala-icon">
<path id="XMLID_1_" d="M12.4496 14H3.46277C2.65693 14 2 13.3382 2 12.5265V3.47353C2 2.66176 2.65693 2 3.46277 2H12.4584C13.2642 2 13.9212 2.66176 13.9212 3.47353V12.5353C13.9124 13.3382 13.2555 14 12.4496 14Z" fill="#F07178"/>
<g id="shadow">
<g id="Clipped">
<path id="XMLID_2_" fill-rule="evenodd" clip-rule="evenodd" d="M12.4496 14H3.46277C2.65693 14 2 13.3382 2 12.5265V3.47353C2 2.66176 2.65693 2 3.46277 2H12.4584C13.2642 2 13.9212 2.66176 13.9212 3.47353V12.5353C13.9124 13.3382 13.2555 14 12.4496 14Z" fill="#FC8289"/>
<mask id="mask0" mask-type="alpha" maskUnits="userSpaceOnUse" x="2" y="2" width="12" height="12">
<path id="XMLID_2__2" fill-rule="evenodd" clip-rule="evenodd" d="M12.4496 14H3.46277C2.65693 14 2 13.3382 2 12.5265V3.47353C2 2.66176 2.65693 2 3.46277 2H12.4584C13.2642 2 13.9212 2.66176 13.9212 3.47353V12.5353C13.9124 13.3382 13.2555 14 12.4496 14Z" fill="white"/>
</mask>
<g mask="url(#mask0)">
<path id="Shape" d="M5.19708 6.88824L5.97664 7.67353L5.19708 9.85294L6.03796 10.6912L5.19708 12.8088L6.38832 14H13.9124V6.41177L10.7153 3.19118V3.8L5.19708 6.88824Z" fill="#AC4142"/>
</g>
</g>
</g>
<g id="logo">
<g id="Group" opacity="0.6">
<path id="Shape_2" d="M5.19708 6.88824C5.19708 6.88824 10.7066 7.44412 10.7066 8.37059V6.14706C10.7066 6.14706 10.7066 5.22059 5.19708 4.66471V5.52941V6.88824Z" fill="white"/>
<path id="Shape_3" d="M5.19708 9.85295C5.19708 9.85295 10.7066 10.4088 10.7066 11.3353V9.11177C10.7066 9.11177 10.7066 8.1853 5.19708 7.62942V9.85295Z" fill="white"/>
</g>
<path id="Shape_4" d="M10.7153 3.19118V5.41471C10.7153 5.41471 10.7153 6.34118 5.20585 6.89706V4.66471C5.19709 4.66471 10.7153 4.11765 10.7153 3.19118Z" fill="white"/>
<path id="Shape_5" d="M5.19708 7.62942C5.19708 7.62942 10.7066 7.07353 10.7066 6.14706V8.37059C10.7066 8.37059 10.7066 9.29706 5.19708 9.85294V7.62942Z" fill="white"/>
<path id="Shape_6" d="M5.19708 12.8088V10.5853C5.19708 10.5853 10.7066 10.0294 10.7066 9.10294V11.3265C10.7153 11.3353 10.7153 12.2529 5.19708 12.8088Z" fill="white"/>
</g>
</g>
</g>
</svg>
