<svg width="16" height="16" viewBox="0 0 16 16" fill="none" xmlns="http://www.w3.org/2000/svg">
<g id="slim">
<path id="Shape" fill-rule="evenodd" clip-rule="evenodd" d="M2 8C2 4.6915 4.6915 2 8 2C11.3085 2 14 4.6915 14 8C14 11.3085 11.3085 14 8 14C4.6915 14 2 11.3085 2 8ZM8.5 5V3.5H7.5V5H8.5ZM5 8.5H3.5V7.5H5V8.5ZM6.5 8C6.5 8.827 7.173 9.5 8 9.5C8.827 9.5 9.5 8.827 9.5 8C9.5 7.173 8.827 6.5 8 6.5C7.769 6.5 7.553 6.557 7.357 6.6505L5.1615 4.4545L4.4545 5.1615L6.65 7.3575C6.5565 7.553 6.5 7.769 6.5 8ZM9.768 5.525L10.8285 4.4645L11.5355 5.1715L10.475 6.232L9.768 5.525ZM12.5 7.5H11V8.5H12.5V7.5Z" fill="#6B7394"/>
</g>
</svg>
