<svg width="16" height="16" viewBox="0 0 16 16" fill="none" xmlns="http://www.w3.org/2000/svg">
<path d="M7.3486 4C6.99499 4 6.70842 4.25792 6.70842 4.57617V5.68516C6.70842 6.00319 6.99499 6.26142 7.3486 6.26142H8.62015C8.97377 6.26142 9.26081 6.00319 9.26081 5.68516V4.57617C9.26081 4.25792 8.97377 4 8.62015 4H7.3486ZM10.474 5.75473C10.2084 5.75473 9.99298 5.95197 9.99298 6.19462V7.04087C9.99298 7.28377 10.2084 7.48087 10.474 7.48087H11.4294C11.695 7.48087 11.9102 7.28377 11.9102 7.04087V6.19462C11.9102 5.95197 11.695 5.75473 11.4294 5.75473H10.474ZM4.53936 5.75473C4.27383 5.75473 4.05839 5.95197 4.05839 6.19462V7.04087C4.05839 7.28377 4.27383 7.48087 4.53936 7.48087H5.49465C5.76014 7.48087 5.97568 7.28377 5.97568 7.04087V6.19462C5.97568 5.95197 5.76014 5.75473 5.49465 5.75473H4.53936ZM7.3486 6.72539C6.99499 6.72539 6.70842 6.98316 6.70842 7.30162V8.41052C6.70842 8.72872 6.99499 8.98686 7.3486 8.98686H8.62015C8.97377 8.98686 9.26081 8.72872 9.26081 8.41052V7.30162C9.26081 6.98316 8.97377 6.72539 8.62015 6.72539H7.3486ZM12.9316 7.24526C12.7341 7.24526 12.5739 7.39171 12.5739 7.57256V8.20208C12.5739 8.38254 12.7341 8.52909 12.9316 8.52909H13.6423C13.8398 8.52909 14 8.38254 14 8.20208V7.57256C14 7.39171 13.8398 7.24526 13.6423 7.24526H12.9316ZM2.35779 7.24526C2.16031 7.24526 2 7.39171 2 7.57256V8.20208C2 8.38254 2.16031 8.52909 2.35779 8.52909H3.0683C3.26603 8.52909 3.42615 8.38254 3.42615 8.20208V7.57256C3.42615 7.39171 3.26603 7.24526 3.0683 7.24526H2.35779ZM10.474 7.90782C10.2084 7.90782 9.99298 8.10475 9.99298 8.34743V9.19395C9.99298 9.43666 10.2084 9.63368 10.474 9.63368H11.4294C11.695 9.63368 11.9102 9.43666 11.9102 9.19395V8.34743C11.9102 8.10475 11.695 7.90782 11.4294 7.90782H10.474ZM4.53936 7.90782C4.27383 7.90782 4.05839 8.10475 4.05839 8.34743V9.19395C4.05839 9.43666 4.27383 9.63368 4.53936 9.63368H5.49465C5.76014 9.63368 5.97568 9.43666 5.97568 9.19395V8.34743C5.97568 8.10475 5.76014 7.90782 5.49465 7.90782H4.53936ZM12.9316 8.9742C12.7341 8.9742 12.5739 9.12056 12.5739 9.30119V9.93074C12.5739 10.1112 12.7341 10.2578 12.9316 10.2578H13.6423C13.8398 10.2578 14 10.1112 14 9.93074V9.30119C14 9.12056 13.8398 8.9742 13.6423 8.9742H12.9316ZM2.35779 8.9742C2.16031 8.9742 2 9.12056 2 9.30119V9.93074C2 10.1112 2.16031 10.2578 2.35779 10.2578H3.0683C3.26603 10.2578 3.42615 10.1112 3.42615 9.93074V9.30119C3.42615 9.12056 3.26603 8.9742 3.0683 8.9742H2.35779ZM7.3486 9.42706C6.99499 9.42706 6.70842 9.68509 6.70842 10.0034V11.1124C6.70842 11.4306 6.99499 11.6884 7.3486 11.6884H8.62015C8.97377 11.6884 9.26081 11.4306 9.26081 11.1124V10.0034C9.26081 9.68509 8.97377 9.42706 8.62015 9.42706H7.3486ZM10.474 10.0613C10.2084 10.0613 9.99298 10.2581 9.99298 10.5008V11.3472C9.99298 11.5901 10.2084 11.787 10.474 11.787H11.4294C11.695 11.787 11.9102 11.5901 11.9102 11.3472V10.5008C11.9102 10.2581 11.695 10.0613 11.4294 10.0613H10.474ZM4.53936 10.0613C4.27383 10.0613 4.05839 10.2581 4.05839 10.5008V11.3472C4.05839 11.5901 4.27383 11.787 4.53936 11.787H5.49465C5.76014 11.787 5.97568 11.5901 5.97568 11.3472V10.5008C5.97568 10.2581 5.76014 10.0613 5.49465 10.0613H4.53936ZM12.9316 10.7161C12.7341 10.7161 12.5739 10.8628 12.5739 11.0436V11.673C12.5739 11.8538 12.7341 12 12.9316 12H13.6423C13.8398 12 14 11.8538 14 11.673V11.0436C14 10.8628 13.8398 10.7161 13.6423 10.7161H12.9316ZM2.35779 10.7161C2.16031 10.7161 2 10.8628 2 11.0436V11.673C2 11.8538 2.16031 12 2.35779 12H3.0683C3.26603 12 3.42615 11.8538 3.42615 11.673V11.0436C3.42615 10.8628 3.26603 10.7161 3.0683 10.7161H2.35779Z" fill="#89DDFF"/>
</svg>
