<?xml version="1.0" encoding="UTF-8"?>
<svg width="32px" height="32px" viewBox="0 0 32 32" version="1.1" xmlns="http://www.w3.org/2000/svg" xmlns:xlink="http://www.w3.org/1999/xlink">
    <title>smallbasic</title>
    <g id="smallbasic" stroke="none" stroke-width="1" fill="none" fill-rule="evenodd">
        <path d="M5.7848169,10.449231 L5.7848169,18.9641618 L13.1587324,23.2213256 L13.1587324,14.7065352 L5.7848169,10.449231 Z M22.0497183,18.9639958 L22.0497183,9.58322257 L13.9256312,4.89305346 L6.55174424,9.15006031 L14.6756338,13.8405141 L14.6756338,23.2213165 L22.0497183,18.9639958 Z" id="Shape" stroke="#D14748" stroke-width="1.5" fill-opacity="0.492" fill="#EE9D5C" fill-rule="nonzero"></path>
        <path d="M6.04623409,20.7905002 L6.04623409,25.0984861 L9.77714619,27.2524857 L9.77714619,22.9444998 L6.04623409,20.7905002 Z M14.2754561,25.0984902 L14.2754561,20.3523308 L10.165074,17.9792486 L6.43432812,20.1332333 L10.544713,22.5063171 L10.544713,27.2524733 L14.2754561,25.0984902 Z" id="Shape" stroke="#AEE33E" stroke-width="0.75894705" fill-opacity="0.332" fill="#AEE33E" fill-rule="nonzero"></path>
        <path d="M15.5452852,17.0749431 L15.5452852,23.2832072 L20.9216444,26.3872541 L20.9216444,20.17899 L15.5452852,17.0749431 Z M27.4040106,23.2832072 L27.4040106,16.4436138 L21.480736,13.0238941 L16.1043828,16.1279375 L22.0276514,19.5476538 L22.0276514,26.3872541 L27.4040106,23.2832072 Z" id="Shape" stroke="#7ACCEE" stroke-width="1.0935" fill-opacity="0.332" fill="#7ACCEE"></path>
    </g>
</svg>