<svg width="16" height="16" viewBox="0 0 16 16" fill="none" xmlns="http://www.w3.org/2000/svg">
<g id="sql-lite">
<path id="Vector" d="M8.3555 7.46261L8.01736 8.53486C7.83706 9.20051 7.85239 9.41044 7.94384 9.56533C7.96641 9.60338 8.02815 9.72797 8.11442 10.0608C8.23968 10.5425 8.34996 11.2699 8.35266 11.3047C8.33453 11.7493 8.34433 12.2203 8.38028 12.6714H3.91752C3.41288 12.6714 3 12.2585 3 11.7539V3.45031C3 2.9457 3.41288 2.53274 3.91752 2.53274H10.7849C9.7331 3.64848 8.69095 5.76562 8.3555 7.46261ZM13.2032 2.261C14.4617 3.38363 13.212 5.95011 12.065 7.7567C11.2309 8.02475 10.2588 8.61676 10.2588 8.61676C10.2588 8.61676 10.3397 8.57382 10.6398 8.44793C10.8432 8.36242 11.4507 8.21799 11.8206 8.13362C11.203 9.06471 10.6746 9.71643 10.6746 9.71643C10.6746 9.71643 9.59717 10.1543 9.26394 11.1728C9.45709 10.0863 9.77754 8.95235 10.2298 7.74393C10.6336 6.6648 11.9828 3.75072 12.9796 2.85045C11.8859 3.72215 10.691 5.54746 9.82966 7.82243C9.31984 9.32947 9.04394 10.7754 8.99901 11.9744C8.96931 12.7588 9.03713 13.4389 9.20407 13.9579L9.12689 14C8.96314 13.575 8.81286 12.8282 8.84881 11.2978C8.84342 11.2295 8.8402 11.1851 8.8402 11.1851C8.8402 11.1851 8.74079 10.5156 8.59778 9.96556C8.53447 9.72142 8.46238 9.50065 8.38668 9.37271C8.34769 9.30668 8.39093 9.03548 8.49974 8.6338C8.68406 8.95471 8.8829 9.30211 8.95928 9.58638C8.95928 9.58638 8.81201 8.82861 8.57035 8.38645C8.62332 8.20768 8.68659 8.01009 8.75819 7.79888C8.93643 8.11057 9.11822 8.40717 9.19073 8.70425C9.11143 8.32472 9.00404 7.94674 8.83679 7.57206C9.14079 5.99012 10.1193 3.9187 11.1734 2.80042C11.7361 2.20001 12.5115 1.66266 13.2032 2.261Z" fill="#89DDFF"/>
<path id="Vector_2" d="M13.2032 2.261C14.4617 3.38363 13.212 5.95011 12.065 7.7567C11.2309 8.02475 10.2588 8.61676 10.2588 8.61676C10.2588 8.61676 10.3397 8.57382 10.6398 8.44793C10.8432 8.36242 11.4507 8.21799 11.8206 8.13362C11.203 9.06471 10.6746 9.71643 10.6746 9.71643C10.6746 9.71643 9.59717 10.1543 9.26395 11.1728C9.45709 10.0863 9.77754 8.95235 10.2298 7.74393C10.6336 6.6648 11.9828 3.75072 12.9796 2.85045C11.8859 3.72215 10.691 5.54746 9.82966 7.82243C9.31985 9.32947 9.04394 10.7754 8.99901 11.9744C8.96931 12.7588 9.03713 13.4389 9.20407 13.9579L9.12689 14C8.96314 13.575 8.81286 12.8282 8.84881 11.2978C8.84342 11.2295 8.8402 11.1851 8.8402 11.1851C8.8402 11.1851 8.74079 10.5156 8.59778 9.96556C8.53447 9.72142 8.46238 9.50065 8.38668 9.37271C8.3477 9.30668 8.39093 9.03548 8.49974 8.6338C8.68407 8.95471 8.88291 9.30211 8.95929 9.58638C8.95929 9.58638 8.81202 8.82861 8.57035 8.38645C8.62332 8.20768 8.6866 8.01009 8.7582 7.79888C8.93643 8.11057 9.11822 8.40717 9.19074 8.70425C9.11143 8.32472 9.00405 7.94674 8.8368 7.57206C9.1408 5.99012 10.1193 3.9187 11.1734 2.80042C11.7361 2.20001 12.5115 1.66266 13.2032 2.261Z" fill="#3965BD"/>
</g>
</svg>
