<svg width="16" height="16" viewBox="0 0 16 16" fill="none" xmlns="http://www.w3.org/2000/svg">
<g id="sql">
<path id="path3637" fill-rule="evenodd" clip-rule="evenodd" d="M13.5784 10.9945C12.9793 11.0474 12.2006 10.8891 11.7906 11.4325C11.7933 12.0388 12.5653 12.4069 13.0675 12.6817C13.5418 12.8378 14.0095 13.308 14.4103 13.394C13.9786 12.7127 13.2651 12.2518 12.5822 11.833C12.477 11.0109 13.7621 11.7133 13.9894 11.0943C13.7295 10.3994 12.9483 10.1291 12.4002 9.69804C11.8193 9.39394 11.0524 9.19268 10.8355 8.50497C10.1989 7.12645 9.68412 5.60957 8.48183 4.5854C7.72186 3.88086 6.84803 3.18338 5.80467 2.97002C4.89988 3.00289 4.24774 2.24442 3.40294 2.08402C2.48144 2.01504 2.33755 3.1418 2.96569 3.61383C3.54376 4.18886 3.71458 4.97966 3.99901 5.70624C4.25085 6.24858 4.74715 6.62811 4.39484 7.24628C4.14517 8.22809 4.1263 9.3993 4.85494 10.1972C5.37608 10.7112 5.93344 10.1226 5.86264 9.55005C6.13837 9.17057 6.31083 10.1417 6.62906 10.2896C6.96497 10.6366 7.32326 11.0045 7.74734 11.2314C7.1184 10.6374 6.71221 9.86035 6.28831 9.11947C6.40618 8.4255 5.36505 8.18828 5.45218 9.00402C5.46654 9.32841 5.2305 10.2543 4.88211 9.60426C4.45328 8.80007 4.5896 7.8575 4.83409 7.02263C5.06778 6.36527 4.51712 5.92022 4.24384 5.40448C4.02108 4.81516 3.9752 4.12142 3.45709 3.68233C2.9592 3.37096 2.82619 2.269 3.66938 2.61357C4.30444 3.05194 4.98051 3.36889 5.76899 3.40367C6.93315 3.75168 7.90812 4.55685 8.66674 5.46927C9.57933 6.53261 9.93208 7.905 10.6024 9.10306C10.7897 9.60572 11.3855 9.66248 11.8257 9.84877C12.3983 10.0077 12.815 10.4329 13.3144 10.7208C13.4158 10.7981 13.5085 10.8883 13.5784 10.9945Z" fill="#69A7D3" stroke="#69A7D3" stroke-width="0.962182" stroke-linecap="round" stroke-linejoin="round"/>
</g>
</svg>
