<svg width="16" height="16" viewBox="0 0 16 16" fill="none" xmlns="http://www.w3.org/2000/svg">
<g id="storybook">
<path id="Subtract" fill-rule="evenodd" clip-rule="evenodd" d="M4.77647 13.1666L4.28235 2.91665L10.4604 2.4701L10.2941 4.04698L11.2487 3.53789L12.0441 4.04698V2.35651L11.9719 2.36086L12.3529 2.33331V13.5416L4.77647 13.1666ZM9.00282 6.71998L10.5939 6.67998C10.6334 5.11998 9.83294 4.34998 8.43952 4.34998C7.04611 4.34998 6.26541 5.14998 6.26541 6.34998C6.26541 7.55213 7.14818 8.07605 7.8982 8.52117C8.45213 8.84992 8.93364 9.13569 8.93364 9.61998C8.93364 9.93998 8.78541 10.13 8.45929 10.13C8.03435 10.13 7.86635 9.84998 7.88611 9.06998H6.21599C6.08752 11 7.20423 11.44 8.47905 11.44C9.71435 11.44 10.6828 10.86 10.6828 9.59998C10.6828 8.28538 9.75021 7.76295 8.97963 7.33129C8.4372 7.02743 7.97505 6.76855 7.97505 6.30998C7.97505 5.85998 8.29129 5.79998 8.47905 5.79998C8.6767 5.79998 9.03247 5.87998 9.00282 6.71998Z" fill="#FF9CAC"/>
</g>
</svg>
