<svg width="16" height="16" viewBox="0 0 16 16" fill="none" xmlns="http://www.w3.org/2000/svg">
<g id="stylelint">
<g id="stylelint_2">
<path id="Shape" fill-rule="evenodd" clip-rule="evenodd" d="M8.08531 13.9215C9.39492 9.24659 9.35694 9.22541 10.3036 5.89214L10.5312 6.02337C10.6549 6.09469 10.7562 6.03637 10.7562 5.89411V4.30448C11.0074 3.42619 11.2042 2.74752 11.2619 2.54346H12.2875L13.9913 4.1191L12.8723 5.08444L13.7184 5.99764L8.1419 13.9214C8.11464 13.9662 8.07668 13.9559 8.08531 13.9214V13.9215Z" fill="#6B7394"/>
<path id="Shape_2" fill-rule="evenodd" clip-rule="evenodd" d="M10.3949 2.94327L8.87939 3.81663C8.89698 3.84333 8.90767 3.87408 8.90767 3.90762V4.72231C8.90767 4.76459 8.89125 4.80269 8.86419 4.83344L10.3949 5.71556C10.4992 5.77571 10.5848 5.7265 10.5848 5.60635V3.0526C10.5848 2.93233 10.4993 2.88327 10.3949 2.94327ZM7.10348 4.72226V3.9076C7.10348 3.87423 7.11417 3.84348 7.13156 3.81678L5.61607 2.94328C5.51178 2.88327 5.42627 2.93237 5.42627 3.05261V5.60633C5.42627 5.72645 5.51166 5.77578 5.61607 5.71542L7.14667 4.83322C7.11975 4.80246 7.10345 4.76445 7.10345 4.72217L7.10348 4.72226ZM8.69453 3.84513C8.74491 3.84513 8.78603 3.87293 8.78603 3.90743V4.72209C8.78603 4.7565 8.74491 4.78447 8.69456 4.78447H7.31696C7.26633 4.78447 7.22532 4.75662 7.22532 4.72209V3.90743C7.22532 3.87304 7.2663 3.84513 7.31696 3.84513H8.69456H8.69453Z" fill="#FC8289"/>
<path id="Shape_3" fill-rule="evenodd" clip-rule="evenodd" d="M7.86587 13.9215H7.92246C6.61305 9.24659 6.65074 9.22541 5.70416 5.89214L5.47649 6.02337C5.35287 6.09469 5.25161 6.03637 5.25161 5.89411V4.30448C5.00034 3.42619 4.80356 2.74752 4.74572 2.54346H3.72019L2.01645 4.1191L3.1353 5.08444L2.2892 5.99764L7.86587 13.9215Z" fill="#6B7394"/>
<path id="Oval" fill-rule="evenodd" clip-rule="evenodd" d="M7.96237 6.48553C8.19081 6.48553 8.376 6.30066 8.376 6.07261C8.376 5.84457 8.19081 5.6597 7.96237 5.6597C7.73393 5.6597 7.54874 5.84457 7.54874 6.07261C7.54874 6.30066 7.73393 6.48553 7.96237 6.48553Z" fill="#8E95B4"/>
<path id="Oval_2" fill-rule="evenodd" clip-rule="evenodd" d="M7.96237 8.94082C8.19081 8.94082 8.376 8.75595 8.376 8.52791C8.376 8.29986 8.19081 8.11499 7.96237 8.11499C7.73393 8.11499 7.54874 8.29986 7.54874 8.52791C7.54874 8.75595 7.73393 8.94082 7.96237 8.94082Z" fill="#8E95B4"/>
<path id="Oval_3" fill-rule="evenodd" clip-rule="evenodd" d="M7.96237 11.396C8.1908 11.396 8.37598 11.2112 8.37598 10.9831C8.37598 10.7551 8.1908 10.5703 7.96237 10.5703C7.73394 10.5703 7.54877 10.7551 7.54877 10.9831C7.54877 11.2112 7.73394 11.396 7.96237 11.396Z" fill="#8E95B4"/>
</g>
</g>
</svg>
