<svg width="16" height="16" viewBox="0 0 16 16" fill="none" xmlns="http://www.w3.org/2000/svg">
<g id="stylus">
<g id="Group 2">
<path id="Shape" fill-rule="evenodd" clip-rule="evenodd" d="M12.7667 2.34514C12.8262 2.39254 12.867 2.45585 12.889 2.5349C12.911 2.61396 12.914 2.70412 12.8984 2.80528C12.8827 2.90656 12.8467 3.00772 12.7902 3.10882C12.7776 3.1215 12.762 3.1215 12.7431 3.10882C12.7244 3.09615 12.7117 3.08041 12.7055 3.06143C12.7181 2.9855 12.6915 2.9223 12.6255 2.87166C12.5596 2.82114 12.4576 2.79573 12.3197 2.79573C12.0623 2.79573 11.8036 2.89221 11.5433 3.0851C11.2828 3.2781 11.0303 3.53274 10.7856 3.84878C10.5409 4.16511 10.3119 4.52878 10.0986 4.93979C9.88523 5.35092 9.70013 5.77466 9.54334 6.21096C9.38648 6.64732 9.26247 7.08055 9.17159 7.5106C9.08064 7.94076 9.03523 8.33279 9.03523 8.68703C9.03523 8.87662 9.08845 8.97159 9.19524 8.97159C9.27051 8.97159 9.34417 8.93993 9.41634 8.87662C9.48839 8.81348 9.5717 8.71868 9.6658 8.59206C9.68457 8.57956 9.7018 8.58112 9.71747 8.59686C9.73309 8.61278 9.73779 8.63326 9.73165 8.65844C9.60603 8.8482 9.45871 9.00631 9.28928 9.13276C9.11992 9.25939 8.96605 9.32252 8.82814 9.32252C8.70889 9.32252 8.62582 9.28774 8.5788 9.21812C8.53178 9.14862 8.50818 9.06019 8.50818 8.95255C8.50818 8.65531 8.57082 8.28366 8.69644 7.83792C8.82188 7.39202 8.98959 6.92094 9.19995 6.42439C9.41014 5.92796 9.65323 5.43309 9.92932 4.93979C10.2054 4.44649 10.4924 4.00226 10.7905 3.60699C11.0884 3.21172 11.3881 2.8907 11.6893 2.64399C11.9902 2.39728 12.2725 2.27396 12.5361 2.27396C12.6302 2.27396 12.707 2.29774 12.7667 2.34514Z" fill="#C3E88D" stroke="#C3E88D" stroke-width="0.5"/>
<path id="Shape_2" fill-rule="evenodd" clip-rule="evenodd" d="M3.47327 13.8599C3.41373 13.8125 3.37297 13.7492 3.35092 13.6701C3.32905 13.591 3.32595 13.5009 3.34151 13.3998C3.3573 13.2985 3.3933 13.1974 3.44973 13.0962C3.46236 13.0834 3.47798 13.0834 3.49681 13.0962C3.51559 13.1088 3.52822 13.1246 3.53442 13.1436C3.52196 13.2195 3.54854 13.2827 3.61445 13.3334C3.6803 13.3838 3.78233 13.4092 3.92029 13.4092C4.17762 13.4092 4.43643 13.3127 4.69675 13.1198C4.95711 12.927 5.20967 12.6724 5.45437 12.3563C5.69906 12.04 5.92814 11.6764 6.14137 11.2653C6.35472 10.8542 6.53988 10.4304 6.69662 9.99408C6.85347 9.55772 6.97748 9.12448 7.06842 8.69443C7.15936 8.26427 7.20478 7.87224 7.20478 7.51806C7.20478 7.3283 7.15156 7.2335 7.04477 7.2335C6.96944 7.2335 6.89578 7.26499 6.82367 7.3283C6.75162 7.39144 6.66831 7.48641 6.57421 7.61297C6.55544 7.62547 6.53821 7.62391 6.52254 7.60817C6.50692 7.59225 6.50221 7.57171 6.50836 7.54642C6.63398 7.35683 6.7813 7.19855 6.95073 7.0721C7.12009 6.94565 7.2739 6.88251 7.41187 6.88251C7.53111 6.88251 7.61419 6.91712 7.66121 6.98674C7.70823 7.05636 7.73183 7.14484 7.73183 7.25249C7.73183 7.54972 7.66919 7.9212 7.54357 8.36711C7.41813 8.81302 7.25042 9.2841 7.04006 9.78064C6.82987 10.2771 6.58678 10.7719 6.31068 11.2652C6.03464 11.7585 5.74758 12.2028 5.44955 12.598C5.15163 12.9933 4.85193 13.3143 4.55074 13.5609C4.24973 13.8076 3.96743 13.931 3.7039 13.931C3.60974 13.931 3.53298 13.9073 3.47327 13.8599Z" fill="#C3E88D" stroke="#C3E88D" stroke-width="0.5"/>
</g>
</g>
</svg>
