<svg width="16" height="16" viewBox="0 0 16 16" fill="none" xmlns="http://www.w3.org/2000/svg">
<g id="sublime">
<g id="sublime-icon">
<rect id="Rectangle-path" x="2" y="2" width="12" height="12" rx="1.5" fill="#343944"/>
<path id="Shape" d="M11.4286 8.02993C11.4286 7.9255 11.3514 7.86528 11.2567 7.8952L4.74326 9.9613C4.64839 9.99141 4.57143 10.1006 4.57143 10.2048V12.3165C4.57143 12.4209 4.64839 12.4813 4.74326 12.4512L11.2567 10.3853C11.3514 10.3552 11.4286 10.246 11.4286 10.1416V8.02993Z" fill="url(#paint0_linear)"/>
<path id="Shape_2" d="M4.57143 7.97435C4.57143 8.07878 4.64838 8.18796 4.74324 8.21807L11.2568 10.2842C11.3516 10.3143 11.4286 10.2539 11.4286 10.1497V8.038C11.4286 7.93377 11.3516 7.82458 11.2568 7.79447L4.74324 5.72831C4.64838 5.6982 4.57143 5.75841 4.57143 5.86284V7.97435Z" fill="#FF9800"/>
<path id="Shape_3" d="M11.4286 3.69604C11.4286 3.59161 11.3514 3.5312 11.2567 3.56131L4.74326 5.62722C4.64839 5.65733 4.57143 5.76653 4.57143 5.87096V7.9826C4.57143 8.08703 4.64839 8.14725 4.74326 8.11733L11.2567 6.05123C11.3514 6.02112 11.4286 5.91193 11.4286 5.80769V3.69604Z" fill="#FF9800"/>
</g>
</g>
<defs>
<linearGradient id="paint0_linear" x1="9.629" y1="11.1536" x2="9.74549" y2="9.18098" gradientUnits="userSpaceOnUse">
<stop stop-color="#FF9700"/>
<stop offset="0.53" stop-color="#F48E00"/>
<stop offset="1" stop-color="#CE6E00"/>
</linearGradient>
</defs>
</svg>
