<svg width="16" height="16" viewBox="0 0 16 16" fill="none" xmlns="http://www.w3.org/2000/svg">
<path d="M8 4.68317L11.3328 6.52942V5.78858L8 3.94817C7.50423 4.22233 5.10878 5.5465 4.66725 5.78975C5.07728 6.01725 9.38291 8.3955 12 9.84158V10.5789L8 12.7886C7.00262 12.2385 4.99621 11.1296 4 10.5778V8.36808L8 10.5783L8.66725 10.2097L3.33275 7.26383V10.9482L8 13.5253L12.6661 10.947V9.4735L5.99942 5.78917L8 4.68317ZM3.33275 5.05183V6.5265L9.99825 10.2108L7.99883 11.3168L4.66608 9.47058V10.2114L7.99883 12.0524C8.4946 11.7782 10.8901 10.4541 11.3316 10.2108C10.9216 9.98333 6.61709 7.60508 4 6.15783V5.4205L8 3.21025C8.99563 3.7615 11.0026 4.87042 12 5.4205V7.63075L8 5.41992L7.33275 5.78917L12.6661 8.73675V5.05183L8 2.4735C7.53864 2.729 3.67454 4.86517 3.33275 5.05183ZM8 1L2 4.31625V11.6837L8 15L14 11.6855V4.31625L8 1ZM13.331 11.3151L8 14.2627L2.66725 11.3151V4.68492L8 1.73733L13.3328 4.68492L13.331 11.3151Z" fill="#C792EA"/>
</svg>
