<svg width="16" height="16" viewBox="0 0 16 16" fill="none" xmlns="http://www.w3.org/2000/svg">
<g id="svelte">
<g id="Group 6">
<path id="Subtract" fill-rule="evenodd" clip-rule="evenodd" d="M10.106 2.07165C11.0204 2.26808 11.8255 2.8058 12.3572 3.57522L12.3617 3.57121C12.627 3.94248 12.8154 4.36299 12.9159 4.80806C13.0164 5.25314 13.0269 5.7138 12.947 6.16302C12.8697 6.59263 12.7061 7.0021 12.466 7.36664C12.8158 8.03427 12.933 8.79948 12.799 9.54119C12.7202 9.98212 12.5501 10.4017 12.2997 10.7731C12.0492 11.1444 11.7239 11.4594 11.3447 11.6977L8.54121 13.4841C7.74045 13.9674 6.78551 14.1271 5.87107 13.9306C4.95662 13.7342 4.15152 13.1964 3.61989 12.4269C3.35481 12.0563 3.1663 11.6365 3.06538 11.1922C2.96446 10.7478 2.95315 10.2878 3.03212 9.83909C3.10932 9.40947 3.27294 8.99999 3.51307 8.63546C3.16295 7.96813 3.04541 7.20308 3.17906 6.46142C3.25792 6.0205 3.42803 5.60091 3.67848 5.22956C3.92893 4.8582 4.2542 4.54326 4.63344 4.30492L7.43588 2.51804C8.23667 2.03486 9.19157 1.87522 10.106 2.07165ZM5.82798 12.5102C6.25533 12.6685 6.72098 12.692 7.16207 12.5773L7.16106 12.5768C7.36266 12.5228 7.55479 12.4382 7.73078 12.3261L10.5342 10.5402C10.7619 10.3969 10.9572 10.2077 11.1077 9.98461C11.2581 9.76156 11.3603 9.50958 11.4079 9.24478C11.456 8.97476 11.4498 8.69785 11.3895 8.43028C11.3292 8.16271 11.2161 7.90987 11.0568 7.68659C10.797 7.31215 10.4285 7.02645 10.0012 6.86807C9.57384 6.70969 9.10819 6.68625 8.6671 6.80092C8.46548 6.85486 8.27334 6.93943 8.09738 7.05167L7.02766 7.73323C6.97447 7.76688 6.91647 7.79225 6.85564 7.80845C6.72268 7.84297 6.58232 7.83585 6.45352 7.78805C6.32473 7.74025 6.21372 7.65406 6.13547 7.54115C6.0875 7.47378 6.05343 7.39753 6.03526 7.31684C6.01709 7.23616 6.01519 7.15266 6.02966 7.07123C6.044 6.99146 6.07482 6.91556 6.12016 6.84838C6.16549 6.7812 6.22434 6.72421 6.29295 6.68106L9.09539 4.89267C9.14856 4.85898 9.20657 4.83361 9.26741 4.81745C9.40037 4.78285 9.54076 4.78994 9.66956 4.83775C9.79837 4.88556 9.90938 4.97178 9.98758 5.08475C10.0731 5.20604 10.1131 5.35363 10.1004 5.50151L10.0909 5.60532L10.1952 5.63691C10.5892 5.75582 10.96 5.94121 11.2915 6.18506L11.4349 6.29038L11.4876 6.1294C11.5159 6.04376 11.5384 5.9563 11.5548 5.86761C11.6029 5.59759 11.5967 5.32068 11.5364 5.05312C11.4761 4.78555 11.363 4.53271 11.2037 4.30942C10.9439 3.93498 10.5755 3.64928 10.1481 3.4909C9.72078 3.33251 9.25513 3.30908 8.81404 3.42375C8.61245 3.47777 8.42032 3.56234 8.24433 3.6745L5.44088 5.46088C5.21283 5.60448 5.0173 5.79417 4.86686 6.01777C4.71641 6.24136 4.61436 6.49394 4.56725 6.75929C4.5191 7.02931 4.52535 7.30622 4.58563 7.5738C4.64591 7.84137 4.75902 8.09421 4.91831 8.31749C5.17812 8.69193 5.54658 8.97762 5.97392 9.13601C6.40127 9.29439 6.86692 9.31782 7.30801 9.20315C7.50957 9.14907 7.7017 9.06451 7.87772 8.9524L8.94744 8.27034C9.00062 8.23666 9.05863 8.21129 9.11946 8.19512C9.25243 8.1606 9.39279 8.16772 9.52158 8.21552C9.65037 8.26333 9.76139 8.34951 9.83963 8.46242C9.88767 8.52977 9.92181 8.606 9.94006 8.68668C9.95832 8.76737 9.96032 8.85087 9.94595 8.93234C9.93155 9.01209 9.9007 9.08796 9.85537 9.15514C9.81004 9.22231 9.75122 9.27931 9.68266 9.32251L6.88172 11.1079C6.82855 11.1416 6.77054 11.167 6.7097 11.1831C6.57674 11.2177 6.43635 11.2106 6.30755 11.1628C6.17874 11.115 6.06773 11.0288 5.98954 10.9158C5.90378 10.7948 5.86363 10.6473 5.87619 10.4996L5.88572 10.3957L5.78141 10.3642C5.38744 10.2452 5.01667 10.0598 4.68511 9.816L4.54117 9.71068L4.48851 9.87167C4.46009 9.95727 4.43763 10.0447 4.42131 10.1335C4.37319 10.4035 4.37945 10.6804 4.43973 10.9479C4.50001 11.2155 4.6131 11.4684 4.77237 11.6916C5.03218 12.0661 5.40064 12.3518 5.82798 12.5102Z" fill="#F07178"/>
</g>
</g>
</svg>
