<svg width="16" height="16" viewBox="0 0 16 16" fill="none" xmlns="http://www.w3.org/2000/svg">
<g id="svelte">
<g id="Group">
<circle id="Ellipse" cx="8" cy="8" r="6" fill="#FC8289"/>
<g id="logo">
<path id="Combined Shape" fill-rule="evenodd" clip-rule="evenodd" d="M7.63781 4.60047C8.68556 3.93508 10.1343 4.24542 10.8674 5.29189V5.29056C11.2193 5.78123 11.3578 6.39261 11.2517 6.98642C11.2013 7.26754 11.094 7.53549 10.9364 7.77395C11.1664 8.21115 11.2434 8.71237 11.1553 9.19817C11.0507 9.78068 10.7046 10.2922 10.202 10.607L8.3622 11.7763C7.31445 12.4417 5.86835 12.1314 5.13191 11.0849C4.78057 10.594 4.6423 9.98276 4.74829 9.38905C4.79869 9.10792 4.90598 8.83997 5.06362 8.60152C4.83392 8.1647 4.75688 7.664 4.8447 7.17863C4.94911 6.59605 5.2953 6.08445 5.79805 5.76975L7.63781 4.60047ZM5.89112 10.6024C6.24003 11.1039 6.8658 11.3352 7.45839 11.1817H7.45906C7.59128 11.1466 7.71728 11.0915 7.83264 11.0182L9.66972 9.84954C9.97157 9.65967 10.1795 9.35211 10.2428 9.00194C10.3065 8.64488 10.2233 8.27728 10.0118 7.98216C9.66259 7.4802 9.03621 7.24887 8.44321 7.40286C8.311 7.4379 8.18499 7.49305 8.06964 7.56637L7.36801 8.01219C7.33297 8.03418 7.29484 8.05083 7.25487 8.06158C7.07612 8.10781 6.88742 8.03801 6.78221 7.88672C6.71887 7.79775 6.69469 7.68687 6.71526 7.57972C6.73416 7.47407 6.79688 7.38127 6.88799 7.32411L8.72908 6.1595C8.76381 6.13738 8.80175 6.12073 8.84156 6.11011C9.02031 6.06367 9.20913 6.13353 9.31422 6.28497C9.37023 6.36425 9.39653 6.46063 9.38853 6.55727L9.38184 6.62401L9.44879 6.6447C9.70746 6.7223 9.95088 6.84352 10.1685 7.00309L10.2629 7.06983L10.2977 6.96438C10.3162 6.90829 10.3307 6.85097 10.3412 6.79286C10.4046 6.43562 10.3208 6.068 10.1089 5.77308C9.75989 5.27123 9.13376 5.03989 8.54096 5.19378C8.40874 5.22882 8.28274 5.28397 8.16738 5.35729L6.3303 6.5259C6.02845 6.71577 5.8205 7.02333 5.75722 7.3735C5.6929 7.73029 5.77543 8.09786 5.98618 8.39328C6.33542 8.89524 6.9618 9.12657 7.5548 8.97258C7.68701 8.93754 7.81302 8.88239 7.92837 8.80907L8.63268 8.36325C8.66772 8.34126 8.70585 8.32461 8.74582 8.31386C8.92457 8.26763 9.11327 8.33743 9.21848 8.48872C9.28117 8.57797 9.30529 8.68858 9.28543 8.79572C9.26598 8.90132 9.2031 8.99401 9.11203 9.05133L7.27562 10.2199C7.24089 10.2421 7.20296 10.2587 7.16315 10.2693C6.98206 10.3171 6.79048 10.2453 6.6858 10.0905C6.62979 10.0112 6.60349 9.91481 6.61149 9.81817L6.61818 9.75143L6.55123 9.73074C6.29256 9.65314 6.04914 9.53192 5.83153 9.37235L5.73713 9.30561L5.70232 9.41106C5.68383 9.46715 5.66929 9.52447 5.6588 9.58258C5.59545 9.93982 5.67919 10.3074 5.89112 10.6024Z" fill="white"/>
</g>
</g>
</g>
</svg>
