<svg width="16" height="16" viewBox="0 0 16 16" fill="none" xmlns="http://www.w3.org/2000/svg">
<g id="svg">
<path id="Combined Shape" fill-rule="evenodd" clip-rule="evenodd" d="M3.96704 4.83663C3.81589 5.27802 3.40805 5.59425 2.92864 5.59425C2.32055 5.59425 1.82759 5.08546 1.82759 4.45784C1.82759 3.83022 2.32055 3.32143 2.92864 3.32143C3.40804 3.32143 3.81588 3.63765 3.96703 4.07903H10.3627V4.11707C10.6549 4.09185 10.9569 4.07903 11.269 4.07903V4.76286C10.9555 4.76286 10.6535 4.77652 10.3627 4.80337V4.83663H10.0596C7.77536 5.12799 6.21617 6.26847 5.23445 8.01052C4.83109 8.72629 4.55578 9.4959 4.38601 10.2658C4.32662 10.5351 4.28475 10.7847 4.25742 11.0078C4.2413 11.1394 4.23366 11.2311 4.23145 11.2763L3.56208 11.2422C3.5651 11.1805 3.57415 11.0719 3.59239 10.923C3.62233 10.6786 3.66784 10.4074 3.73215 10.1157C3.9158 9.28288 4.21383 8.44977 4.65345 7.66966C5.35563 6.42364 6.33268 5.45286 7.61265 4.83663H3.96704Z" fill="#6B7394"/>
<path id="Rectangle 12" fill-rule="evenodd" clip-rule="evenodd" d="M4.06897 10.2906C3.10735 10.2906 2.33104 11.0608 2.33104 12.0133V12.0308C2.33104 12.9821 3.10996 13.7536 4.06897 13.7536C5.03059 13.7536 5.8069 12.9833 5.8069 12.0308V12.0133C5.8069 11.0621 5.02798 10.2906 4.06897 10.2906ZM3.32414 12.0308V12.0133C3.32414 11.6063 3.65475 11.2763 4.06897 11.2763C4.48033 11.2763 4.8138 11.6073 4.8138 12.0133V12.0308C4.8138 12.4379 4.4832 12.7679 4.06897 12.7679C3.65761 12.7679 3.32414 12.4368 3.32414 12.0308Z" fill="#FF9CAC"/>
<path id="Rectangle 12_2" fill-rule="evenodd" clip-rule="evenodd" d="M12.0138 2.8329C11.0522 2.8329 10.2759 3.60313 10.2759 4.55565V4.57313C10.2759 5.52435 11.0548 6.29587 12.0138 6.29587C12.9754 6.29587 13.7517 5.52564 13.7517 4.57313V4.55565C13.7517 3.60442 12.9728 2.8329 12.0138 2.8329ZM11.269 4.57312V4.55564C11.269 4.14859 11.5996 3.81861 12.0138 3.81861C12.4252 3.81861 12.7586 4.14963 12.7586 4.55564V4.57312C12.7586 4.98017 12.428 5.31015 12.0138 5.31015C11.6024 5.31015 11.269 4.97913 11.269 4.57312Z" fill="#FF9CAC"/>
</g>
</svg>
