<svg width="16" height="16" viewBox="0 0 16 16" fill="none" xmlns="http://www.w3.org/2000/svg">
<g id="swift">
<g id="Swift_logo">
<path id="Shape" d="M10.9655 12.0977C9.5654 12.9215 7.6403 13.0061 5.7035 12.1607C4.13531 11.4811 2.83412 10.2916 2 8.93247C2.40038 9.27225 2.86748 9.5442 3.36794 9.78192C5.3681 10.7368 7.36784 10.6714 8.77514 9.78436C8.77424 9.78345 8.77364 9.78284 8.77304 9.78192C6.77114 8.2187 5.06954 6.17972 3.80174 4.51475C3.53471 4.24287 3.33452 3.90303 3.13433 3.5972C4.6691 5.02445 7.10483 6.82539 7.97213 7.33537C6.13733 5.36423 4.50233 2.91764 4.56893 2.98548C7.47173 5.97595 10.1744 7.67514 10.1744 7.67514C10.2638 7.72648 10.3328 7.76926 10.3883 7.80745C10.4468 7.65589 10.4981 7.49853 10.5413 7.33537C11.0084 5.60226 10.4747 3.63112 9.30683 2.00006C12.0092 3.66519 13.6109 6.79148 12.9434 9.40826C12.926 9.47884 12.9071 9.54851 12.8867 9.61695C12.8945 9.62642 12.9023 9.6362 12.9101 9.64628C14.2445 11.3455 13.8776 13.1464 13.7108 12.8066C12.9869 11.3638 11.6468 11.805 10.9655 12.0978L10.9655 12.0977Z" fill="#FC8289"/>
</g>
</g>
</svg>
