<svg width="16" height="16" viewBox="0 0 16 16" fill="none" xmlns="http://www.w3.org/2000/svg">
<path fill-rule="evenodd" clip-rule="evenodd" d="M7.5 4C5.76667 4 4.68333 4.77778 4.25 6.33333C4.9 5.55556 5.65833 5.26389 6.525 5.45833C7.01948 5.56917 7.37289 5.8913 7.76409 6.24756C8.40133 6.82809 9.13896 7.5 10.75 7.5C12.4833 7.5 13.5667 6.72222 14 5.16667C13.35 5.94444 12.5917 6.23611 11.725 6.04167C11.2305 5.93083 10.8771 5.6087 10.4859 5.25244C9.84867 4.67191 9.11104 4 7.5 4ZM4.25 7.5C2.51667 7.5 1.43333 8.27778 1 9.83333C1.65 9.05556 2.40833 8.76389 3.275 8.95833C3.76948 9.06938 4.12289 9.3913 4.51409 9.74756C5.15133 10.3281 5.88896 11 7.5 11C9.23333 11 10.3167 10.2222 10.75 8.66667C10.1 9.44444 9.34167 9.73611 8.475 9.54167C7.98052 9.43083 7.62711 9.1087 7.23591 8.75244C6.59867 8.17191 5.86104 7.5 4.25 7.5Z" fill="#89DDFF"/>
</svg>
