<svg width="16" height="16" viewBox="0 0 16 16" fill="none" xmlns="http://www.w3.org/2000/svg">
<g id="tcl">
<path id="Shape" fill-rule="evenodd" clip-rule="evenodd" d="M12.3877 2.98956C12.2098 2.65832 11.9487 2.46878 11.6045 2.42093C11.2602 2.37309 10.8739 2.43254 10.4457 2.59929C10.3807 2.62039 10.3174 2.64464 10.256 2.67203L10.0612 2.75888C9.68381 2.94343 9.29197 3.18384 8.88567 3.4801C8.47938 3.77636 8.08781 4.10285 7.71097 4.45958C7.33413 4.8163 6.98337 5.18821 6.65871 5.57529C6.33404 5.96238 6.05793 6.34227 5.83039 6.71496C5.84505 6.86455 5.85177 7.01978 5.85056 7.18065C5.84934 7.34152 5.84264 7.48618 5.83044 7.61463C5.82644 7.65794 5.82225 7.69266 5.81789 7.71878C5.81353 7.74491 5.81117 7.77461 5.81082 7.80788C5.79974 7.87065 5.7929 7.92074 5.79031 7.95817L5.78704 8.01561L5.78482 7.97323C5.78482 7.97323 5.78476 7.92595 5.78462 7.83139C5.78828 7.82135 5.78922 7.81068 5.78745 7.79938C5.78569 7.78807 5.78846 7.77238 5.79577 7.7523C5.78538 7.74852 5.78201 7.74161 5.78567 7.73157L5.79115 7.71651C5.78246 7.61315 5.76243 7.47831 5.73108 7.31198C5.69973 7.14565 5.67799 7.01551 5.66587 6.92156C5.5857 7.01461 5.51286 7.10464 5.44737 7.19166L5.24861 7.45296C5.28866 7.72265 5.2931 8.01846 5.26193 8.3404L5.21518 8.82331L5.21845 8.76587C5.21845 8.76587 5.21856 8.70195 5.21877 8.57412C5.21898 8.44629 5.19778 8.29147 5.15515 8.10967C5.11252 7.92786 5.08777 7.78277 5.08091 7.67439C4.94498 7.858 4.84285 8.01234 4.77454 8.13742C4.70623 8.2625 4.67676 8.34345 4.68615 8.38026C4.70215 8.46355 4.70895 8.56302 4.70655 8.67869C4.70415 8.79436 4.70021 8.92332 4.69475 9.06559C4.66204 9.3756 4.62222 9.67485 4.5753 9.96334L4.50394 10.3957L4.46111 10.5134C4.36508 10.7449 4.27592 10.9818 4.19364 11.224C4.11136 11.4662 4.041 11.6989 3.98256 11.9221C3.90595 12.2275 3.84495 12.5052 3.79955 12.7552C3.75415 13.0051 3.73695 13.2099 3.74795 13.3695L3.85558 13.3586C3.86043 13.0605 3.90689 12.7359 3.99493 12.385C4.08298 12.034 4.21027 11.661 4.37679 11.2661C4.61822 10.6654 4.94371 10.0317 5.35326 9.36496C5.7628 8.69823 6.23856 8.03036 6.78051 7.36137C7.21439 6.86409 7.66026 6.40458 8.11811 5.98282C8.57596 5.56107 9.02561 5.18608 9.46706 4.85784C9.90852 4.52961 10.3401 4.25072 10.7618 4.02118C11.1835 3.79165 11.5758 3.62069 11.9387 3.50831C11.5931 3.63766 11.1922 3.8719 10.7357 4.21102C10.2793 4.55014 9.82657 4.91834 9.37763 5.31562C8.92869 5.7129 8.51043 6.10465 8.12286 6.49087C7.73528 6.87709 7.44084 7.18919 7.23954 7.42718C6.77138 7.95603 6.34827 8.47926 5.97022 8.99686C5.59217 9.51445 5.25076 10.0344 4.946 10.5566C5.30778 10.0999 5.73434 9.82771 6.2257 9.74007L6.96273 9.6086L7.49129 9.29252C7.49129 9.29252 7.91711 9.00621 8.76877 8.4336C8.55816 8.41237 8.30943 8.3858 8.02259 8.35388C7.73574 8.32196 7.52942 8.30513 7.4036 8.3034C7.21643 8.31273 7.09307 8.32042 7.03353 8.32646L6.94422 8.33553L7.68356 8.22195C7.68356 8.22195 8.17799 8.19654 9.16686 8.14572C9.62856 7.79217 10.1002 7.40315 10.5818 6.97868C11.0635 6.55422 11.4768 6.11341 11.8218 5.65628C12.1668 5.19914 12.405 4.74183 12.5362 4.28434C12.6674 3.82685 12.6176 3.39513 12.3868 2.9892L12.3877 2.98956Z" fill="#FFCB6B"/>
</g>
</svg>
