<svg width="16" height="16" viewBox="0 0 16 16" fill="none" xmlns="http://www.w3.org/2000/svg">
<g id="tex">
<path id="TEX" fill-rule="evenodd" clip-rule="evenodd" d="M1.00684 5H5.22119L5.22803 6.41162H5.02637C4.96029 5.90804 4.77116 5.56738 4.45898 5.38965C4.28353 5.29167 4.02149 5.23812 3.67285 5.229V8.91357C3.67285 9.17106 3.71785 9.34196 3.80786 9.42627C3.89787 9.51058 4.08528 9.55273 4.37012 9.55273V9.73047H1.875V9.55273C2.14844 9.55273 2.33016 9.51001 2.42017 9.42456C2.51017 9.33911 2.55518 9.16878 2.55518 8.91357V5.229C2.21338 5.23812 1.95134 5.29167 1.76904 5.38965C1.43408 5.57194 1.24495 5.9126 1.20166 6.41162H1L1.00684 5ZM5.604 11.2305V11.0527C5.80453 11.0459 5.94694 11.0186 6.03125 10.9707C6.16113 10.8978 6.22607 10.7611 6.22607 10.5605V7.17334C6.22607 6.96826 6.15885 6.8304 6.02441 6.75977C5.94694 6.71647 5.8068 6.68913 5.604 6.67773V6.5H9.63721V7.91162H9.46631C9.37744 7.46045 9.22648 7.15169 9.01343 6.98535C8.80037 6.81901 8.41244 6.73584 7.84961 6.73584C7.63542 6.73584 7.49927 6.75806 7.44116 6.80249C7.38306 6.84692 7.354 6.93522 7.354 7.06738V8.6875C7.75277 8.69206 8.02279 8.61971 8.16406 8.47046C8.30534 8.32121 8.41357 8.04834 8.48877 7.65186H8.6665V10.0171H8.48877C8.43864 9.61832 8.33667 9.33748 8.18286 9.17456C8.02905 9.01164 7.75277 8.93018 7.354 8.93018V10.6255C7.354 10.7736 7.39217 10.8744 7.46851 10.928C7.54484 10.9815 7.7015 11.0083 7.93848 11.0083C8.38509 11.0083 8.74967 10.9217 9.03223 10.7485C9.31478 10.5754 9.56543 10.2507 9.78418 9.77441H9.979L9.69531 11.2305H5.604ZM10.2729 9.55273C10.4507 9.52083 10.5783 9.48779 10.6558 9.45361C10.7811 9.39665 10.8962 9.30094 11.001 9.1665L12.2246 7.61816L10.8403 5.58447C10.7378 5.43636 10.6478 5.33325 10.5703 5.27515C10.4928 5.21704 10.396 5.18457 10.2798 5.17773V5H12.7031V5.17773C12.4775 5.18913 12.3277 5.20736 12.2537 5.23242C12.1796 5.25749 12.1426 5.31673 12.1426 5.41016C12.1426 5.45117 12.1517 5.49105 12.1699 5.52979C12.1882 5.56852 12.2144 5.61409 12.2485 5.6665L12.9287 6.71924C13.3115 6.18375 13.5417 5.85449 13.6191 5.73145C13.6966 5.6084 13.7354 5.50586 13.7354 5.42383C13.7354 5.32357 13.6784 5.25521 13.5645 5.21875C13.4984 5.19824 13.3844 5.18457 13.2227 5.17773V5H14.9727V5.17773C14.6628 5.20736 14.4178 5.3116 14.2378 5.49048C14.0578 5.66935 13.6784 6.16552 13.0996 6.979L14.3711 8.95459C14.5374 9.21208 14.6599 9.37158 14.7385 9.43311C14.8171 9.49463 14.9214 9.5345 15.0513 9.55273V9.73047H12.6689V9.55273C12.874 9.54362 13.0096 9.52995 13.0757 9.51172C13.1782 9.4821 13.2295 9.42285 13.2295 9.33398C13.2295 9.2998 13.2187 9.25252 13.197 9.19214C13.1754 9.13175 13.1372 9.05827 13.0825 8.97168L12.3784 7.83691L12.1118 8.19238C11.8862 8.49544 11.7336 8.70736 11.6538 8.82812C11.5216 9.03093 11.4556 9.17448 11.4556 9.25879C11.4556 9.38184 11.5365 9.46615 11.6982 9.51172C11.7894 9.53906 11.8976 9.55273 12.0229 9.55273V9.73047H10.2729V9.55273Z" fill="#2ECC71"/>
</g>
</svg>
