<svg width="16" height="16" viewBox="0 0 16 16" fill="none" xmlns="http://www.w3.org/2000/svg">
<g id="tune">
<g id="preferences-rotate">
<path id="Shape" d="M4.5 8.5V2.5C4.5 2.224 4.276 2 4 2C3.724 2 3.5 2.224 3.5 2.5V8.5H4.5Z" fill="#82AAFF"/>
<path id="Shape_2" d="M5.5 9.5H2.5C2.224 9.5 2 9.724 2 10V12C2 12.276 2.224 12.5 2.5 12.5H3.5V13.5C3.5 13.776 3.724 14 4 14C4.276 14 4.5 13.776 4.5 13.5V12.5H5.5C5.776 12.5 6 12.276 6 12V10C6 9.724 5.776 9.5 5.5 9.5Z" fill="#89DDFF"/>
<path id="Shape_3" d="M8.5 3.5V2.5C8.5 2.224 8.276 2 8 2C7.724 2 7.5 2.224 7.5 2.5V3.5H8.5Z" fill="#82AAFF"/>
<path id="Shape_4" d="M10 5C10 4.724 9.776 4.5 9.5 4.5H6.5C6.224 4.5 6 4.724 6 5V7C6 7.276 6.224 7.5 6.5 7.5H7.5V13.5C7.5 13.776 7.724 14 8 14C8.276 14 8.5 13.776 8.5 13.5V7.5H9.5C9.776 7.5 10 7.276 10 7V5Z" fill="#89DDFF"/>
<path id="Shape_5" d="M12.5 8.5V2.5C12.5 2.224 12.276 2 12 2C11.724 2 11.5 2.224 11.5 2.5V8.5H12.5Z" fill="#82AAFF"/>
<path id="Shape_6" d="M13.5 9.5H10.5C10.224 9.5 10 9.724 10 10V12C10 12.276 10.224 12.5 10.5 12.5H11.5V13.5C11.5 13.776 11.724 14 12 14C12.276 14 12.5 13.776 12.5 13.5V12.5H13.5C13.776 12.5 14 12.276 14 12V10C14 9.724 13.776 9.5 13.5 9.5Z" fill="#89DDFF"/>
</g>
</g>
</svg>
