<svg width="16" height="16" viewBox="0 0 16 16" fill="none" xmlns="http://www.w3.org/2000/svg">
<g id="typescript_def">
<path id="Combined Shape" d="M13.5 4C13.5 3.17157 12.8284 2.5 12 2.5V3.5C12.2761 3.5 12.5 3.72386 12.5 4H13.5ZM12 2.5H4V3.5H12V2.5ZM4 2.5C3.17157 2.5 2.5 3.17157 2.5 4H3.5C3.5 3.72386 3.72386 3.5 4 3.5V2.5ZM2.5 4V12H3.5V4H2.5ZM2.5 12C2.5 12.8284 3.17157 13.5 4 13.5V12.5C3.72386 12.5 3.5 12.2761 3.5 12H2.5ZM4 13.5H12V12.5H4V13.5ZM12 13.5C12.8284 13.5 13.5 12.8284 13.5 12H12.5C12.5 12.2761 12.2761 12.5 12 12.5V13.5ZM13.5 12V4H12.5V12H13.5Z" fill="#3965BD"/>
<path id="Shape" fill-rule="evenodd" clip-rule="evenodd" d="M8.86928 10.6553C8.99393 10.7197 9.15261 10.7767 9.34531 10.8262C9.53801 10.8757 9.74009 10.9004 9.95154 10.9004C10.1741 10.9004 10.3437 10.8608 10.4604 10.7814C10.577 10.7021 10.6354 10.598 10.6354 10.4692C10.6354 10.3501 10.5798 10.2484 10.4687 10.164C10.3576 10.0796 10.1718 9.99773 9.91144 9.9184C9.55346 9.79939 9.26458 9.64437 9.0448 9.45333C8.82502 9.26228 8.71512 9.023 8.71512 8.73549C8.71512 8.39815 8.86165 8.11555 9.15469 7.8877C9.44774 7.65984 9.84929 7.54576 10.3593 7.54544C10.6034 7.54544 10.8164 7.56527 10.9984 7.60494C11.1803 7.64461 11.3362 7.69174 11.4661 7.74632L11.2463 8.46797C11.1595 8.4283 11.04 8.38609 10.888 8.34134C10.7359 8.2966 10.5541 8.27423 10.3427 8.27423C10.1312 8.27423 9.97394 8.31263 9.87081 8.38942C9.76769 8.46622 9.71613 8.55666 9.71613 8.66075C9.71613 8.78484 9.77846 8.88401 9.90311 8.95827C10.0278 9.03252 10.2312 9.11932 10.5135 9.21865C10.8986 9.34749 11.1821 9.50743 11.364 9.69848C11.5459 9.88952 11.6367 10.1263 11.6364 10.4087C11.6364 10.741 11.494 11.0286 11.2093 11.2717C10.9246 11.5148 10.4866 11.6364 9.89529 11.6364C9.64565 11.6364 9.40972 11.6103 9.1875 11.5583C8.96529 11.5062 8.79168 11.4504 8.66669 11.3907L8.87033 10.6543L8.86928 10.6553Z" fill="#82AAFF"/>
<path id="T" fill-rule="evenodd" clip-rule="evenodd" d="M6.54 11.6364V8.23749H5.27274V7.54544H8.66668V8.23749H7.40232V11.6364H6.54Z" fill="#82AAFF"/>
</g>
</svg>
