<svg width="16" height="16" viewBox="0 0 16 16" fill="none" xmlns="http://www.w3.org/2000/svg">
<g id="typescript">
<path id="Combined Shape" fill-rule="evenodd" clip-rule="evenodd" d="M13 4C13 3.44772 12.5523 3 12 3H4C3.44772 3 3 3.44772 3 4V12C3 12.5523 3.44772 13 4 13H12C12.5523 13 13 12.5523 13 12V4ZM8.86927 10.6553L8.86995 10.6556L8.66667 11.3907C8.79166 11.4504 8.96527 11.5063 9.18748 11.5583C9.4097 11.6103 9.64563 11.6364 9.89527 11.6364C10.4866 11.6364 10.9246 11.5148 11.2093 11.2717C11.494 11.0286 11.6364 10.741 11.6364 10.4087C11.6367 10.1263 11.5459 9.88953 11.364 9.69849C11.182 9.50745 10.8985 9.3475 10.5135 9.21866C10.2312 9.11933 10.0277 9.03254 9.90309 8.95828C9.77844 8.88402 9.71611 8.78485 9.71611 8.66077C9.71611 8.55668 9.76767 8.46623 9.8708 8.38943C9.97392 8.31264 10.1312 8.27424 10.3427 8.27424C10.5541 8.27424 10.7359 8.29661 10.888 8.34136C11.04 8.3861 11.1595 8.42831 11.2463 8.46798L11.4661 7.74633C11.3362 7.69175 11.1803 7.64462 10.9984 7.60496C10.8164 7.56529 10.6034 7.54545 10.3593 7.54545C9.84927 7.54577 9.44772 7.65986 9.15467 7.88771C8.86163 8.11556 8.7151 8.39816 8.7151 8.7355C8.7151 9.02302 8.825 9.2623 9.04478 9.45334C9.26457 9.64438 9.55345 9.7994 9.91142 9.91841C10.1718 9.99775 10.3576 10.0796 10.4687 10.164C10.5798 10.2484 10.6354 10.3502 10.6354 10.4692C10.6354 10.598 10.577 10.7021 10.4604 10.7814C10.3437 10.8608 10.1741 10.9004 9.95152 10.9004C9.74007 10.9004 9.53799 10.8757 9.34529 10.8262C9.15294 10.7768 8.99449 10.7199 8.86995 10.6556L8.87031 10.6543L8.86927 10.6553ZM6.54 8.2375V11.6364H7.40233V8.2375H8.66668V7.54545H5.27274V8.2375H6.54Z" fill="#3965BD"/>
</g>
</svg>
