<svg width="16" height="16" viewBox="0 0 16 16" fill="none" xmlns="http://www.w3.org/2000/svg">
<path d="M10.8603 4.0571H5.13969C4.52787 4.0571 4.0273 4.55767 4.0273 5.16949V10.8901C4.0273 11.5019 4.52787 12.0025 5.13969 12.0025H10.8603C11.4721 12.0025 11.9727 11.5019 11.9727 10.8901V5.16949C11.9727 4.55767 11.4721 4.0571 10.8603 4.0571ZM9.9264 9.98817H6.16952V6.23129H9.9264V9.98817ZM6.27384 14H5.57421V12.3179H6.27384V14ZM7.67726 14H6.97763V12.3179H7.67726V14ZM9.0807 14H8.38106V12.3179H9.0807V14ZM10.4841 14H9.78447V12.3179H10.4841V14ZM3.71186 6.27302H2V5.57339H3.71186V6.27302ZM3.71186 7.67643H2V6.9768H3.71186V7.67643ZM3.71186 9.07986H2V8.38023H3.71186V9.07986ZM3.71186 10.4833H2V9.78365H3.71186V10.4833ZM14 6.27302H12.2881V5.57339H14V6.27302ZM14 7.67643H12.2881V6.9768H14V7.67643ZM14 9.07986H12.2881V8.38023H14V9.07986ZM14 10.4833H12.2881V9.78365H14V10.4833ZM6.27383 3.68206H5.5742V2H6.27383V3.68206ZM7.67726 3.68206H6.97763V2H7.67726V3.68206ZM9.08067 3.68206H8.38104V2H9.08067V3.68206ZM10.4841 3.68206H9.78447V2H10.4841V3.68206ZM5.55197 10.9789C5.55197 11.2665 5.23848 11.4472 4.98905 11.3034C4.73961 11.1596 4.73961 10.7981 4.98905 10.6543C5.23848 10.5105 5.55197 10.6913 5.55197 10.9789Z" fill="#FFCB6B"/>
</svg>
