<svg width="16" height="16" viewBox="0 0 16 16" fill="none" xmlns="http://www.w3.org/2000/svg">
<path d="M13.957 2.91904L7.85023 13.7965C7.72415 14.0211 7.40022 14.0224 7.27224 13.7989L1.0444 2.92008C0.904982 2.67654 1.11405 2.38154 1.39111 2.43087L7.5044 3.51933C7.5434 3.52628 7.58332 3.52621 7.62232 3.51913L13.6078 2.43243C13.8839 2.3823 14.094 2.67501 13.957 2.91904Z" fill="url(#paint0_linear_1387_20)"/>
<path d="M10.4165 1.00319L5.89731 1.88526C5.82303 1.89976 5.76803 1.96246 5.76355 2.03771L5.48556 6.71451C5.47902 6.82466 5.58058 6.91016 5.68851 6.88536L6.94672 6.59612C7.06444 6.56908 7.17081 6.67236 7.14661 6.79028L6.7728 8.61364C6.74765 8.73636 6.86331 8.8413 6.98362 8.8049L7.76075 8.56971C7.88122 8.53327 7.99699 8.63851 7.9715 8.76132L7.37745 11.6254C7.34027 11.8046 7.5795 11.9023 7.67927 11.7487L7.74591 11.6461L11.4284 4.32565C11.4901 4.20308 11.3837 4.06332 11.2486 4.0893L9.95346 4.33828C9.83176 4.36165 9.7282 4.24875 9.76256 4.13014L10.6079 1.21122C10.6422 1.09241 10.5383 0.979415 10.4165 1.00319Z" fill="#FFCB6B"/>
<defs>
<linearGradient id="paint0_linear_1387_20" x1="8.5" y1="10.5" x2="1.5" y2="2.5" gradientUnits="userSpaceOnUse">
<stop stop-color="#8251A8"/>
<stop offset="1" stop-color="#8BD4CD"/>
</linearGradient>
</defs>
</svg>
