<svg width="16" height="16" viewBox="0 0 16 16" fill="none" xmlns="http://www.w3.org/2000/svg">
<path d="M11.7169 5.55192L8.21266 10.6187C8.17551 10.6724 8.12178 10.7126 8.05962 10.7333C7.99746 10.7539 7.93027 10.7537 7.86824 10.733C7.80621 10.7121 7.75273 10.6717 7.7159 10.6179C7.67908 10.564 7.66092 10.4996 7.66419 10.4345L7.80444 7.63714L5.5403 7.15697C5.49191 7.14672 5.44683 7.12474 5.40904 7.09298C5.37125 7.06123 5.34192 7.02068 5.32365 6.97492C5.30538 6.92916 5.29874 6.87961 5.3043 6.83065C5.30987 6.7817 5.32747 6.73484 5.35555 6.69424L8.85988 1.6275C8.89704 1.57375 8.95077 1.53351 9.01293 1.51289C9.07509 1.49226 9.14228 1.49237 9.20433 1.51321C9.26636 1.53404 9.31985 1.57445 9.35667 1.62833C9.39348 1.6822 9.41164 1.74657 9.40835 1.8117L9.2681 4.60909L11.5322 5.08923C11.5806 5.09948 11.6257 5.12146 11.6635 5.15321C11.7013 5.18496 11.7306 5.22552 11.7488 5.27128C11.7672 5.31704 11.7738 5.36659 11.7682 5.41554C11.7627 5.4645 11.7451 5.51132 11.7169 5.55192Z" fill="#FFCB6B"/>
<path d="M8.04433 14.8696C8.13754 14.8697 8.22984 14.8515 8.31595 14.8158C8.40206 14.7801 8.48027 14.7278 8.54609 14.6618L11.8573 11.3509C11.9897 11.2178 12.064 11.0375 12.0637 10.8497C12.0635 10.6618 11.9887 10.4817 11.8559 10.3489C11.7231 10.2161 11.543 10.1413 11.3551 10.141C11.1673 10.1408 10.9871 10.215 10.8538 10.3475L8.04433 13.1567L1.92377 7.03639C1.79034 6.90511 1.61044 6.83188 1.42327 6.83265C1.23609 6.8334 1.05679 6.9081 0.924439 7.04045C0.792083 7.17282 0.717389 7.3521 0.716627 7.53929C0.715865 7.72647 0.789097 7.90636 0.92037 8.03978L7.54269 14.6618C7.6085 14.7279 7.6867 14.7801 7.77278 14.8158C7.85887 14.8515 7.95115 14.8697 8.04433 14.8696Z" fill="#2ECC71"/>
<path d="M8.04719 14.8696C7.95398 14.8697 7.86168 14.8515 7.77557 14.8158C7.68946 14.7801 7.61124 14.7278 7.54543 14.6618L4.23426 11.3509C4.1018 11.2178 4.02755 11.0375 4.02779 10.8497C4.02805 10.6618 4.10277 10.4817 4.2356 10.3489C4.36842 10.2161 4.5485 10.1413 4.73634 10.141C4.92419 10.1408 5.10448 10.215 5.23767 10.3475L8.04719 13.1567L14.1678 7.03639C14.3012 6.90511 14.4811 6.83188 14.6682 6.83265C14.8555 6.8334 15.0348 6.9081 15.167 7.04045C15.2994 7.17282 15.3742 7.3521 15.3749 7.53929C15.3756 7.72647 15.3024 7.90636 15.1711 8.03978L8.54882 14.6618C8.48302 14.7279 8.40482 14.7801 8.31873 14.8158C8.23265 14.8515 8.14037 14.8697 8.04719 14.8696Z" fill="#AEE33E"/>
</svg>
