<?xml version="1.0" encoding="UTF-8"?>
<svg width="32px" height="32px" viewBox="0 0 32 32" version="1.1" xmlns="http://www.w3.org/2000/svg" xmlns:xlink="http://www.w3.org/1999/xlink">
    <title>vlang</title>
    <g id="vlang" stroke="none" stroke-width="1" fill="none" fill-rule="evenodd">
        <path d="M19.284256,25.770064 L26.25784,6.377968 C26.376064,6.049072 26.18968,5.809264 25.841776,5.842816 L20.357728,6.371104 C20.009872,6.404656 19.63408,6.699808 19.519168,7.029808 L13.064464,25.562368 C12.949456,25.892368 13.139872,26.160304 13.48936,26.160304 L18.827248,26.160304 C19.001968,26.160304 19.191856,26.026864 19.250992,25.862368 L19.284256,25.770064 Z" id="Path" fill="#78909C"></path>
        <polygon id="Path" fill="#EBEBEB" fill-rule="nonzero" points="18.488704 25.862368 15.585232 17.4748 16 17.215552 18.95536 25.770064"></polygon>
        <path d="M6.158224,5.842816 L11.642272,6.371104 C11.990128,6.404656 12.366304,6.699664 12.481792,7.02952 L19.073056,25.861504 C19.130752,26.02648 19.03576,26.160304 18.860992,26.160304 L13.48936,26.160304 C13.139872,26.160304 12.760096,25.893328 12.641824,25.564432 L5.74216,6.377968 C5.623936,6.049072 5.81032,5.809264 6.158224,5.842816 Z" id="Path" fill="#3965BD"></path>
    </g>
</svg>