<svg width="16" height="16" viewBox="0 0 16 16" fill="none" xmlns="http://www.w3.org/2000/svg">
<g id="webpack">
<g id="webpack_2">
<path id="Shape" fill-rule="evenodd" clip-rule="evenodd" d="M7.87612 3C7.75454 3 7.63857 3.03019 7.54594 3.09088L2.97203 5.33613C2.78676 5.42211 2.66559 5.58944 2.66559 5.78162V11.2184C2.66559 11.4106 2.78676 11.5779 2.97203 11.6639L7.54594 13.9091C7.63857 13.9698 7.75454 14 7.87612 14C7.9977 14 8.11367 13.9698 8.2063 13.9091L12.7802 11.6639C12.9655 11.5779 13.0867 11.4106 13.0867 11.2184V5.78162C13.0867 5.58944 12.9655 5.42211 12.7802 5.33613L8.2063 3.09088C8.11367 3.03019 7.9977 3 7.87612 3ZM7.87612 4.08756L11.9287 6.07994V7.14377H11.9197V10.6474H11.9287V10.92L7.87612 12.9124L3.82349 10.92V6.07992L7.87612 4.08756ZM5.03905 6.57086L7.87612 5.13955L10.7132 6.57086L7.87612 8.00216L5.03905 6.57086ZM4.98138 7.70879V9.51941L7.29717 10.687V8.87635L4.98138 7.70879ZM8.45507 8.87635L10.7709 7.70879V9.51941L8.45507 10.687V8.87635Z" fill="#89DDFF"/>
<path id="Shape_2" fill-rule="evenodd" clip-rule="evenodd" d="M7.87612 5.13956L5.03905 6.57086L7.87612 8.00217L10.7132 6.57086L7.87612 5.13956ZM4.98138 7.70879V10.4045L7.29717 11.572V8.87635L4.98138 7.70879ZM8.45507 8.87635L10.7709 7.70879V10.4045L8.45507 11.572V8.87635Z" fill="#3965BD"/>
</g>
</g>
</svg>
