<svg width="16" height="16" viewBox="0 0 16 16" fill="none" xmlns="http://www.w3.org/2000/svg">
<path d="M5.08535 3.14398L6.49911 5.50132L5.20076 7.66132C5.13861 7.76447 5.10598 7.88058 5.10598 7.99865C5.10598 8.11672 5.13861 8.23283 5.20076 8.33598L6.49911 10.5013L5.08535 12.8586C4.81933 12.7368 4.59842 12.5446 4.4506 12.3066L2.20012 8.69332C2.069 8.48234 2 8.24329 2 7.99998C2 7.75668 2.069 7.51762 2.20012 7.30665L4.4506 3.69332C4.59887 3.4563 4.81973 3.26516 5.08535 3.14398V3.14398Z" fill="#F78C6C"/>
<path d="M11.5483 3.69333L13.7988 7.30667C14.0671 7.73333 14.0671 8.26667 13.7988 8.69333L11.5483 12.3067C11.4167 12.5173 11.2274 12.6923 10.9995 12.814C10.7716 12.9357 10.5131 12.9998 10.2499 13H7.99944L10.7981 8.336C10.8597 8.23317 10.8921 8.11755 10.8921 8C10.8921 7.88245 10.8597 7.76683 10.7981 7.664L7.99944 3H10.2499C10.5131 3.00016 10.7716 3.0643 10.9995 3.186C11.2274 3.3077 11.4167 3.48266 11.5483 3.69333V3.69333Z" fill="#F78C6C"/>
<path d="M5.74895 13C5.51814 13 5.28732 12.9493 5.08535 12.8587L7.86094 8.232C7.9475 8.088 7.9475 7.912 7.86094 7.768L5.08535 3.144C5.29167 3.04958 5.51873 3.00031 5.74895 3H7.99944L10.7981 7.664C10.8597 7.76683 10.8921 7.88245 10.8921 8C10.8921 8.11755 10.8597 8.23317 10.7981 8.336L7.99944 13H5.74895Z" fill="#FFCB6B"/>
</svg>
