<svg width="16" height="16" viewBox="0 0 16 16" fill="none" xmlns="http://www.w3.org/2000/svg">
<g id="xml">
<path id="Shape" fill-rule="evenodd" clip-rule="evenodd" d="M12.5 11V3.5C12.5 2.6715 11.8285 2 11 2H3.75C2.7835 2 2 2.7835 2 3.75V5H4.5V12.5C4.5 13.3285 5.1715 14 6 14H12H12.25C13.2165 14 14 13.2165 14 12.25V11H12.5ZM3 4V3.75C3 3.3365 3.3365 3 3.75 3C4.1635 3 4.5 3.3365 4.5 3.75V4H3ZM10 5.793L9.293 6.5L10.293 7.5L9.293 8.5L10 9.207L11.3535 7.8535C11.549 7.658 11.549 7.342 11.3535 7.1465L10 5.793ZM6.1465 7.8535C5.951 7.658 5.951 7.342 6.1465 7.1465L7.5 5.793L8.207 6.5L7.207 7.5L8.207 8.5L7.5 9.207L6.1465 7.8535ZM12.25 13C12.6635 13 13 12.6635 13 12.25V12H8V12.25C8 12.5425 7.939 12.7905 7.8375 13H12.25Z" fill="#C3E88D"/>
</g>
</svg>
