<svg width="16" height="16" viewBox="0 0 16 16" fill="none" xmlns="http://www.w3.org/2000/svg">
<g id="yarn">
<path id="Shape" d="M12.7999 11.6038C12.1825 11.7507 11.8699 11.8859 11.1059 12.3845C9.90967 13.1574 8.60541 13.5168 8.60541 13.5168C8.60541 13.5168 8.49737 13.6791 8.18481 13.7526C7.64459 13.884 5.61104 13.9961 5.42582 13.9999C4.92804 14.0038 4.6232 13.8724 4.53831 13.6676C4.27977 13.0492 4.90875 12.7787 4.90875 12.7787C4.90875 12.7787 4.76983 12.6936 4.6888 12.6164C4.61548 12.5429 4.53831 12.3961 4.51515 12.4502C4.41869 12.6859 4.36852 13.2618 4.10999 13.5207C3.75498 13.8801 3.08356 13.7603 2.68611 13.5516C2.25008 13.3197 2.71698 12.7748 2.71698 12.7748C2.71698 12.7748 2.4816 12.9139 2.29252 12.6279C2.12274 12.3651 1.96453 11.9168 2.00698 11.3642C2.061 10.7265 2.76329 10.1159 2.76329 10.1159C2.76329 10.1159 2.63981 9.18449 3.04498 8.22991C3.41156 7.36035 4.39939 6.66083 4.39939 6.66083C4.39939 6.66083 3.56976 5.7449 3.87846 4.91399C4.07912 4.37293 4.16015 4.37679 4.22575 4.3536C4.45727 4.26471 4.68108 4.1681 4.84701 3.98646C5.67663 3.08984 6.73393 3.25989 6.73393 3.25989C6.73393 3.25989 7.22785 1.74106 7.69089 2.03864C7.83367 2.1314 8.34688 3.27535 8.34688 3.27535C8.34688 3.27535 8.89482 2.95458 8.95656 3.07438C9.28841 3.71979 9.327 4.95263 9.18037 5.70239C8.93341 6.93909 8.31601 7.60382 8.06905 8.02121C8.01117 8.11783 8.73275 8.42314 9.18808 9.6869C9.60869 10.8424 9.23439 11.8125 9.29999 11.9207C9.31156 11.94 9.31542 11.9478 9.31542 11.9478C9.31542 11.9478 9.79776 11.9864 10.7663 11.3874C11.2834 11.0666 11.8969 10.7072 12.5953 10.6995C13.2706 10.6879 13.3054 11.484 12.7999 11.6038Z" fill="#89DDFF"/>
</g>
</svg>
