<svg width="16" height="16" viewBox="0 0 16 16" fill="none" xmlns="http://www.w3.org/2000/svg">
<g id="yarn-lock">
<path id="Subtract" fill-rule="evenodd" clip-rule="evenodd" d="M8.96187 13.9013V10.9193C8.96187 10.4314 9.35481 10.0323 9.83507 10.0323H10.2717H10.6209V9.71765C10.6209 9.41637 10.6802 9.12906 10.7875 8.86709C10.5585 8.51407 10.332 8.30644 10.1954 8.18131C10.1031 8.0967 10.0519 8.04981 10.069 8.02121C10.1201 7.93488 10.1871 7.83796 10.2633 7.72758C10.5556 7.30436 10.9845 6.68328 11.1804 5.70239C11.327 4.95263 11.2884 3.71979 10.9566 3.07438C10.8948 2.95458 10.3469 3.27535 10.3469 3.27535C10.3469 3.27535 9.83367 2.1314 9.69089 2.03864C9.22785 1.74106 8.73393 3.25989 8.73393 3.25989C8.73393 3.25989 7.67663 3.08984 6.84701 3.98646C6.68108 4.1681 6.45727 4.26471 6.22575 4.3536C6.22184 4.35498 6.21788 4.35627 6.21384 4.35758C6.15007 4.37826 6.06716 4.40516 5.87846 4.91399C5.56976 5.7449 6.39939 6.66083 6.39939 6.66083C6.39939 6.66083 5.41156 7.36035 5.04498 8.22991C4.63981 9.18449 4.76329 10.1159 4.76329 10.1159C4.76329 10.1159 4.061 10.7265 4.00698 11.3642C3.96453 11.9168 4.12274 12.3651 4.29252 12.6279C4.4816 12.9139 4.71698 12.7748 4.71698 12.7748C4.71698 12.7748 4.25008 13.3197 4.68611 13.5516C5.08356 13.7603 5.75498 13.8801 6.10999 13.5207C6.28827 13.3421 6.36747 13.0129 6.43109 12.7484C6.45973 12.6293 6.48521 12.5233 6.51515 12.4502C6.53031 12.4148 6.56861 12.4654 6.61383 12.5253C6.63769 12.5569 6.66347 12.591 6.6888 12.6164C6.76983 12.6936 6.90875 12.7787 6.90875 12.7787C6.90875 12.7787 6.27977 13.0492 6.53831 13.6676C6.6232 13.8724 6.92804 14.0038 7.42582 13.9999C7.53327 13.9977 8.26275 13.959 8.96187 13.9013Z" fill="#89DDFF"/>
<path id="Shape" fill-rule="evenodd" clip-rule="evenodd" d="M15.25 10.6667H14.875V9.90476C14.875 8.85333 14.035 8 13 8C11.965 8 11.125 8.85333 11.125 9.90476V10.6667H10.75C10.3375 10.6667 10 11.0095 10 11.4286V15.2381C10 15.6571 10.3375 16 10.75 16H15.25C15.6625 16 16 15.6571 16 15.2381V11.4286C16 11.0095 15.6625 10.6667 15.25 10.6667ZM13 14.0952C12.5875 14.0952 12.25 13.7524 12.25 13.3333C12.25 12.9143 12.5875 12.5714 13 12.5714C13.4125 12.5714 13.75 12.9143 13.75 13.3333C13.75 13.7524 13.4125 14.0952 13 14.0952ZM11.8375 9.90476V10.6667H14.1625V9.90476C14.1625 9.25333 13.6412 8.7238 13 8.7238C12.3587 8.7238 11.8375 9.25333 11.8375 9.90476Z" fill="#FFCB6B"/>
</g>
</svg>
